# 3ds Max Wavefront OBJ Exporter v0.97b - (c)2007 guruware
# File Created: 17.06.2020 12:22:33

mtllib !.mtl

#
# object _
#

v  230.4419 40.0000 -8.0558
v  232.9084 40.0000 19.6586
v  250.3184 40.0000 45.4913
v  278.2698 40.0000 59.4612
v  309.9185 40.0000 57.3516
v  335.7517 40.0000 39.9413
v  348.4788 40.0000 15.8617
v  349.7212 40.0000 -11.9905
v  335.7517 40.0000 -39.9413
v  309.9187 40.0000 -57.3516
v  278.2700 40.0000 -59.4612
v  250.3184 40.0000 -45.4914
v  236.4932 40.0000 -26.8293
v  230.4419 -40.0000 -8.0558
v  232.9084 -40.0000 19.6586
v  250.3184 -40.0000 45.4913
v  278.2698 -40.0000 59.4612
v  309.9185 -40.0000 57.3516
v  335.7517 -40.0000 39.9413
v  348.4788 -40.0000 15.8617
v  349.7212 -40.0000 -11.9906
v  335.7517 -40.0000 -39.9413
v  309.9187 -40.0000 -57.3516
v  278.2700 -40.0000 -59.4613
v  250.3184 -40.0000 -45.4914
v  236.4932 -40.0000 -26.8294
v  -171.7627 40.0000 56.8768
v  -112.7456 40.0000 53.3956
v  102.9512 40.0000 22.1213
v  129.3943 40.0000 14.7235
v  139.8555 40.0000 5.5973
v  138.9839 40.0000 -4.8795
v  129.3940 40.0000 -12.7237
v  102.9507 40.0000 -20.1215
v  -112.7458 40.0000 -51.3957
v  -171.7629 40.0000 -54.8768
v  -261.5161 40.0000 -52.8005
v  -307.5356 40.0000 -43.2955
v  -329.8130 40.0000 -33.1664
v  -343.7273 40.0000 -20.0630
v  -349.7212 40.0000 -3.8901
v  -348.7185 40.0000 10.0845
v  -343.7273 40.0000 22.0629
v  -329.8130 40.0000 35.1664
v  -307.5356 40.0000 45.2955
v  -261.5159 40.0000 54.8005
v  -171.7627 -40.0000 56.8767
v  -112.7456 -40.0000 53.3956
v  102.9512 -40.0000 22.1212
v  129.3943 -40.0000 14.7235
v  139.8555 -40.0000 5.5973
v  138.9839 -40.0000 -4.8795
v  129.3940 -40.0000 -12.7237
v  102.9507 -40.0000 -20.1215
v  -112.7458 -39.9976 -51.3957
v  -171.7629 -40.0000 -54.8768
v  -261.5161 -40.0000 -52.8005
v  -307.5356 -40.0000 -43.2955
v  -329.8130 -40.0000 -33.1664
v  -343.7273 -40.0000 -20.0630
v  -349.7212 -40.0000 -3.8901
v  -348.7185 -40.0000 10.0845
v  -343.7273 -40.0000 22.0629
v  -329.8130 -40.0000 35.1664
v  -307.5356 -40.0000 45.2955
v  -261.5159 -40.0000 54.8004
# 66 vertices

vn -0.7122 0.6550 0.2526
vn -0.6584 0.6724 -0.3383
vn -0.7423 0.6649 -0.0831
vn -0.4991 0.6541 0.5684
vn -0.6584 0.6724 -0.3383
vn -0.7122 0.6550 0.2526
vn -0.4991 0.6541 0.5684
vn -0.4840 0.6583 -0.5766
vn -0.6584 0.6724 -0.3383
vn -0.1494 0.6526 0.7428
vn -0.4840 0.6583 -0.5766
vn -0.4991 0.6541 0.5684
vn -0.1494 0.6526 0.7428
vn -0.1494 0.6527 -0.7428
vn -0.4840 0.6583 -0.5766
vn 0.2453 0.6530 0.7165
vn -0.1494 0.6527 -0.7428
vn -0.1494 0.6526 0.7428
vn 0.2453 0.6530 0.7165
vn 0.2453 0.6529 -0.7166
vn -0.1494 0.6527 -0.7428
vn 0.5613 0.6562 0.5043
vn 0.2453 0.6529 -0.7166
vn 0.2453 0.6530 0.7165
vn 0.5613 0.6562 0.5043
vn 0.5684 0.6541 -0.4991
vn 0.2453 0.6529 -0.7166
vn 0.7241 0.6610 0.1968
vn 0.5684 0.6541 -0.4991
vn 0.5613 0.6562 0.5043
vn 0.7241 0.6610 0.1968
vn 0.7394 0.6547 -0.1572
vn 0.5684 0.6541 -0.4991
vn -0.7121 -0.6550 0.2526
vn -0.7422 -0.6649 -0.0831
vn -0.6584 -0.6724 -0.3383
vn -0.4991 -0.6541 0.5684
vn -0.7121 -0.6550 0.2526
vn -0.6584 -0.6724 -0.3383
vn -0.4991 -0.6541 0.5684
vn -0.6584 -0.6724 -0.3383
vn -0.4840 -0.6583 -0.5765
vn -0.1494 -0.6527 0.7428
vn -0.4991 -0.6541 0.5684
vn -0.4840 -0.6583 -0.5765
vn -0.1494 -0.6527 0.7428
vn -0.4840 -0.6583 -0.5765
vn -0.1494 -0.6527 -0.7428
vn 0.2453 -0.6529 0.7166
vn -0.1494 -0.6527 0.7428
vn -0.1494 -0.6527 -0.7428
vn 0.2453 -0.6529 0.7166
vn -0.1494 -0.6527 -0.7428
vn 0.2453 -0.6530 -0.7166
vn 0.5613 -0.6562 0.5043
vn 0.2453 -0.6529 0.7166
vn 0.2453 -0.6530 -0.7166
vn 0.5613 -0.6562 0.5043
vn 0.2453 -0.6530 -0.7166
vn 0.5684 -0.6541 -0.4991
vn 0.7241 -0.6610 0.1968
vn 0.5613 -0.6562 0.5043
vn 0.5684 -0.6541 -0.4991
vn 0.7241 -0.6610 0.1968
vn 0.5684 -0.6541 -0.4991
vn 0.7394 -0.6546 -0.1572
vn -0.7122 0.6550 0.2526
vn -0.7423 0.6649 -0.0831
vn -0.7422 -0.6649 -0.0831
vn -0.7121 -0.6550 0.2526
vn -0.1494 0.6526 0.7428
vn -0.4991 0.6541 0.5684
vn -0.4991 -0.6541 0.5684
vn -0.1494 -0.6527 0.7428
vn 0.2453 0.6530 0.7165
vn -0.1494 0.6526 0.7428
vn -0.1494 -0.6527 0.7428
vn 0.2453 -0.6529 0.7166
vn 0.5613 0.6562 0.5043
vn 0.2453 0.6530 0.7165
vn 0.2453 -0.6529 0.7166
vn 0.5613 -0.6562 0.5043
vn -0.4840 0.6583 -0.5766
vn -0.1494 0.6527 -0.7428
vn -0.1494 -0.6527 -0.7428
vn -0.4840 -0.6583 -0.5765
vn -0.7423 0.6649 -0.0831
vn -0.6584 0.6724 -0.3383
vn -0.6584 -0.6724 -0.3383
vn -0.7422 -0.6649 -0.0831
vn -0.6584 0.6724 -0.3383
vn -0.4840 0.6583 -0.5766
vn -0.4840 -0.6583 -0.5765
vn -0.6584 -0.6724 -0.3383
vn -0.4991 0.6541 0.5684
vn -0.7122 0.6550 0.2526
vn -0.7121 -0.6550 0.2526
vn -0.4991 -0.6541 0.5684
vn -0.1494 0.6527 -0.7428
vn 0.2453 0.6529 -0.7166
vn 0.2453 -0.6530 -0.7166
vn -0.1494 -0.6527 -0.7428
vn 0.2453 0.6529 -0.7166
vn 0.5684 0.6541 -0.4991
vn 0.5684 -0.6541 -0.4991
vn 0.2453 -0.6530 -0.7166
vn 0.5684 0.6541 -0.4991
vn 0.7394 0.6547 -0.1572
vn 0.7394 -0.6546 -0.1572
vn 0.5684 -0.6541 -0.4991
vn 0.7241 0.6610 0.1968
vn 0.5613 0.6562 0.5043
vn 0.5613 -0.6562 0.5043
vn 0.7241 -0.6610 0.1968
vn 0.7394 0.6547 -0.1572
vn 0.7241 0.6610 0.1968
vn 0.7241 -0.6610 0.1968
vn 0.7394 -0.6546 -0.1572
vn -0.6157 0.6630 0.4258
vn -0.7416 0.6624 -0.1058
vn -0.7199 0.6727 0.1710
vn -0.6157 0.6630 0.4258
vn -0.6268 0.6592 -0.4153
vn -0.7416 0.6624 -0.1058
vn -0.4126 0.6721 0.6149
vn -0.6268 0.6592 -0.4153
vn -0.6157 0.6630 0.4258
vn -0.4126 0.6721 0.6149
vn -0.4126 0.6721 -0.6149
vn -0.6268 0.6592 -0.4153
vn -0.2265 0.6829 0.6945
vn -0.4126 0.6721 -0.6149
vn -0.4126 0.6721 0.6149
vn -0.2265 0.6829 0.6945
vn -0.2265 0.6829 -0.6945
vn -0.4126 0.6721 -0.6149
vn -0.0822 0.6874 0.7216
vn -0.2265 0.6829 -0.6945
vn -0.2265 0.6829 0.6945
vn -0.0822 0.6874 0.7216
vn -0.0822 0.6874 -0.7216
vn -0.2265 0.6829 -0.6945
vn 0.0128 0.6980 0.7160
vn -0.0822 0.6874 -0.7216
vn -0.0822 0.6874 0.7216
vn 0.0128 0.6980 0.7160
vn 0.0128 0.6980 -0.7160
vn -0.0822 0.6874 -0.7216
vn 0.0128 0.6980 0.7160
vn 0.0726 0.6977 -0.7127
vn 0.0128 0.6980 -0.7160
vn 0.0726 0.6977 0.7127
vn 0.0726 0.6977 -0.7127
vn 0.0128 0.6980 0.7160
vn 0.1492 0.6929 0.7054
vn 0.0726 0.6977 -0.7127
vn 0.0726 0.6977 0.7127
vn 0.1492 0.6929 0.7054
vn 0.1492 0.6929 -0.7054
vn 0.0726 0.6977 -0.7127
vn 0.1492 0.6929 0.7054
vn 0.3449 0.6638 -0.6637
vn 0.1492 0.6929 -0.7054
vn 0.3566 0.6607 0.6605
vn 0.3449 0.6638 -0.6637
vn 0.1492 0.6929 0.7054
vn 0.3566 0.6607 0.6605
vn 0.6882 0.6289 -0.3619
vn 0.3449 0.6638 -0.6637
vn 0.7284 0.6182 0.2953
vn 0.6882 0.6289 -0.3619
vn 0.3566 0.6607 0.6605
vn -0.6157 -0.6630 0.4258
vn -0.7199 -0.6727 0.1710
vn -0.7416 -0.6625 -0.1057
vn -0.6157 -0.6630 0.4258
vn -0.7416 -0.6625 -0.1057
vn -0.6269 -0.6591 -0.4154
vn -0.4126 -0.6721 0.6149
vn -0.6157 -0.6630 0.4258
vn -0.6269 -0.6591 -0.4154
vn -0.4126 -0.6721 0.6149
vn -0.6269 -0.6591 -0.4154
vn -0.4126 -0.6721 -0.6149
vn -0.2265 -0.6829 0.6945
vn -0.4126 -0.6721 0.6149
vn -0.4126 -0.6721 -0.6149
vn -0.2265 -0.6829 0.6945
vn -0.4126 -0.6721 -0.6149
vn -0.2265 -0.6829 -0.6945
vn -0.0822 -0.6874 0.7216
vn -0.2265 -0.6829 0.6945
vn -0.2265 -0.6829 -0.6945
vn -0.0822 -0.6874 0.7216
vn -0.2265 -0.6829 -0.6945
vn -0.0822 -0.6874 -0.7216
vn 0.0128 -0.6980 0.7160
vn -0.0822 -0.6874 0.7216
vn -0.0822 -0.6874 -0.7216
vn 0.0128 -0.6980 0.7160
vn -0.0822 -0.6874 -0.7216
vn 0.0128 -0.6980 -0.7160
vn 0.0128 -0.6980 0.7160
vn 0.0128 -0.6980 -0.7160
vn 0.0726 -0.6977 -0.7127
vn 0.0726 -0.6977 0.7127
vn 0.0128 -0.6980 0.7160
vn 0.0726 -0.6977 -0.7127
vn 0.1492 -0.6929 0.7054
vn 0.0726 -0.6977 0.7127
vn 0.0726 -0.6977 -0.7127
vn 0.1492 -0.6929 0.7054
vn 0.0726 -0.6977 -0.7127
vn 0.1492 -0.6929 -0.7054
vn 0.1492 -0.6929 0.7054
vn 0.1492 -0.6929 -0.7054
vn 0.3449 -0.6638 -0.6637
vn 0.3566 -0.6607 0.6605
vn 0.1492 -0.6929 0.7054
vn 0.3449 -0.6638 -0.6637
vn 0.3566 -0.6607 0.6605
vn 0.3449 -0.6638 -0.6637
vn 0.6881 -0.6289 -0.3619
vn 0.7283 -0.6183 0.2954
vn 0.3566 -0.6607 0.6605
vn 0.6881 -0.6289 -0.3619
vn -0.0822 0.6874 0.7216
vn -0.2265 0.6829 0.6945
vn -0.2265 -0.6829 0.6945
vn -0.0822 -0.6874 0.7216
vn -0.6157 0.6630 0.4258
vn -0.7199 0.6727 0.1710
vn -0.7199 -0.6727 0.1710
vn -0.6157 -0.6630 0.4258
vn -0.7199 0.6727 0.1710
vn -0.7416 0.6624 -0.1058
vn -0.7416 -0.6625 -0.1057
vn -0.7199 -0.6727 0.1710
vn -0.7416 0.6624 -0.1058
vn -0.6268 0.6592 -0.4153
vn -0.6269 -0.6591 -0.4154
vn -0.7416 -0.6625 -0.1057
vn -0.4126 0.6721 0.6149
vn -0.6157 0.6630 0.4258
vn -0.6157 -0.6630 0.4258
vn -0.4126 -0.6721 0.6149
vn 0.0128 0.6980 0.7160
vn -0.0822 0.6874 0.7216
vn -0.0822 -0.6874 0.7216
vn 0.0128 -0.6980 0.7160
vn -0.2265 0.6829 0.6945
vn -0.4126 0.6721 0.6149
vn -0.4126 -0.6721 0.6149
vn -0.2265 -0.6829 0.6945
vn 0.0128 0.6980 -0.7160
vn 0.0726 0.6977 -0.7127
vn 0.0726 -0.6977 -0.7127
vn 0.0128 -0.6980 -0.7160
vn 0.0726 0.6977 -0.7127
vn 0.1492 0.6929 -0.7054
vn 0.1492 -0.6929 -0.7054
vn 0.0726 -0.6977 -0.7127
vn 0.1492 0.6929 -0.7054
vn 0.3449 0.6638 -0.6637
vn 0.3449 -0.6638 -0.6637
vn 0.1492 -0.6929 -0.7054
vn 0.1492 0.6929 0.7054
vn 0.0726 0.6977 0.7127
vn 0.0726 -0.6977 0.7127
vn 0.1492 -0.6929 0.7054
vn 0.0726 0.6977 0.7127
vn 0.0128 0.6980 0.7160
vn 0.0128 -0.6980 0.7160
vn 0.0726 -0.6977 0.7127
vn 0.3566 0.6607 0.6605
vn 0.1492 0.6929 0.7054
vn 0.1492 -0.6929 0.7054
vn 0.3566 -0.6607 0.6605
vn 0.3449 0.6638 -0.6637
vn 0.6882 0.6289 -0.3619
vn 0.6881 -0.6289 -0.3619
vn 0.3449 -0.6638 -0.6637
vn 0.7284 0.6182 0.2953
vn 0.3566 0.6607 0.6605
vn 0.3566 -0.6607 0.6605
vn 0.7283 -0.6183 0.2954
vn 0.6882 0.6289 -0.3619
vn 0.7284 0.6182 0.2953
vn 0.7283 -0.6183 0.2954
vn 0.6881 -0.6289 -0.3619
vn -0.0822 0.6874 -0.7216
vn 0.0128 0.6980 -0.7160
vn 0.0128 -0.6980 -0.7160
vn -0.0822 -0.6874 -0.7216
vn -0.4126 0.6721 -0.6149
vn -0.2265 0.6829 -0.6945
vn -0.2265 -0.6829 -0.6945
vn -0.4126 -0.6721 -0.6149
vn -0.2265 0.6829 -0.6945
vn -0.0822 0.6874 -0.7216
vn -0.0822 -0.6874 -0.7216
vn -0.2265 -0.6829 -0.6945
vn -0.6268 0.6592 -0.4153
vn -0.4126 0.6721 -0.6149
vn -0.4126 -0.6721 -0.6149
vn -0.6269 -0.6591 -0.4154
# 306 vertex normals

vt 0.0000 1.0000 0.0000
vt 1.0000 0.0000 0.0000
vt 0.0000 0.0000 0.0000
vt 1.0000 1.0000 0.0000
# 4 texture coords

o _
g _
usemtl Primitive_
s 1
f 2/3/1 13/2/2 1/4/3 
f 3/3/4 13/2/5 2/4/6 
f 3/3/7 12/2/8 13/4/9 
f 4/3/10 12/2/11 3/4/12 
f 4/3/13 11/2/14 12/4/15 
f 5/3/16 11/2/17 4/4/18 
f 5/3/19 10/2/20 11/4/21 
f 6/3/22 10/2/23 5/4/24 
f 6/3/25 9/2/26 10/4/27 
f 7/3/28 9/2/29 6/4/30 
f 7/3/31 8/2/32 9/4/33 
f 15/3/34 14/2/35 26/4/36 
f 16/3/37 15/2/38 26/4/39 
f 16/3/40 26/2/41 25/4/42 
f 17/3/43 16/2/44 25/4/45 
f 17/3/46 25/2/47 24/4/48 
f 18/3/49 17/2/50 24/4/51 
f 18/3/52 24/2/53 23/4/54 
f 19/3/55 18/2/56 23/4/57 
f 19/3/58 23/2/59 22/4/60 
f 20/3/61 19/2/62 22/4/63 
f 20/3/64 22/2/65 21/4/66 
s off
f 2/3/67 1/2/68 14/4/69 15/1/70 
f 4/3/71 3/2/72 16/4/73 17/1/74 
f 5/3/75 4/2/76 17/4/77 18/1/78 
f 6/3/79 5/2/80 18/4/81 19/1/82 
f 12/3/83 11/2/84 24/4/85 25/1/86 
f 1/3/87 13/2/88 26/4/89 14/1/90 
f 13/3/91 12/2/92 25/4/93 26/1/94 
f 3/3/95 2/2/96 15/4/97 16/1/98 
f 11/3/99 10/2/100 23/4/101 24/1/102 
f 10/3/103 9/2/104 22/4/105 23/1/106 
f 9/3/107 8/2/108 21/4/109 22/1/110 
f 7/3/111 6/2/112 19/4/113 20/1/114 
f 8/3/115 7/2/116 20/4/117 21/1/118 
f 43/3/119 41/2/120 42/4/121 
s 1
f 43/3/122 40/2/123 41/4/124 
f 44/3/125 40/2/126 43/4/127 
f 44/3/128 39/2/129 40/4/130 
f 45/3/131 39/2/132 44/4/133 
f 45/3/134 38/2/135 39/4/136 
f 46/3/137 38/2/138 45/4/139 
f 46/3/140 37/2/141 38/4/142 
f 27/3/143 37/2/144 46/4/145 
f 27/3/146 36/2/147 37/4/148 
f 27/3/149 35/2/150 36/4/151 
f 28/3/152 35/2/153 27/4/154 
f 29/3/155 35/2/156 28/4/157 
f 29/3/158 34/2/159 35/4/160 
f 29/3/161 33/2/162 34/4/163 
f 30/3/164 33/2/165 29/4/166 
f 30/3/167 32/2/168 33/4/169 
s off
f 31/3/170 32/2/171 30/4/172 
f 63/3/173 62/2/174 61/4/175 
s 1
f 63/3/176 61/2/177 60/4/178 
f 64/3/179 63/2/180 60/4/181 
f 64/3/182 60/2/183 59/4/184 
f 65/3/185 64/2/186 59/4/187 
f 65/3/188 59/2/189 58/4/190 
f 66/3/191 65/2/192 58/4/193 
f 66/3/194 58/2/195 57/4/196 
f 47/3/197 66/2/198 57/4/199 
f 47/3/200 57/2/201 56/4/202 
s off
f 47/3/203 56/2/204 55/4/205 
f 48/3/206 47/2/207 55/4/208 
f 49/3/209 48/2/210 55/4/211 
f 49/3/212 55/2/213 54/4/214 
s 1
f 49/3/215 54/2/216 53/4/217 
f 50/3/218 49/2/219 53/4/220 
f 50/3/221 53/2/222 52/4/223 
s off
f 51/3/224 50/2/225 52/4/226 
f 46/3/227 45/2/228 65/4/229 66/1/230 
f 43/3/231 42/2/232 62/4/233 63/1/234 
f 42/3/235 41/2/236 61/4/237 62/1/238 
f 41/3/239 40/2/240 60/4/241 61/1/242 
f 44/3/243 43/2/244 63/4/245 64/1/246 
f 27/3/247 46/2/248 66/4/249 47/1/250 
f 45/3/251 44/2/252 64/4/253 65/1/254 
f 36/3/255 35/2/256 55/4/257 56/1/258 
f 35/3/259 34/2/260 54/4/261 55/1/262 
f 34/3/263 33/2/264 53/4/265 54/1/266 
f 29/3/267 28/2/268 48/4/269 49/1/270 
f 28/3/271 27/2/272 47/4/273 48/1/274 
f 30/3/275 29/2/276 49/4/277 50/1/278 
f 33/3/279 32/2/280 52/4/281 53/1/282 
f 31/3/283 30/2/284 50/4/285 51/1/286 
f 32/3/287 31/2/288 51/4/289 52/1/290 
f 37/3/291 36/2/292 56/4/293 57/1/294 
f 39/3/295 38/2/296 58/4/297 59/1/298 
f 38/3/299 37/2/300 57/4/301 58/1/302 
f 40/3/303 39/2/304 59/4/305 60/1/306 
# 33 polygons - 58 triangles

