# 3ds Max Wavefront OBJ Exporter v0.97b - (c)2007 guruware
# File Created: 17.06.2020 12:22:33

mtllib #.mtl

#
# object _
#

v  -349.0000 -0.0000 96.5001
v  -154.0000 -0.0000 137.5001
v  -154.0000 -0.0000 291.5000
v  -85.0000 -0.0000 291.5000
v  -85.0000 -0.0000 151.5000
v  85.0000 -0.0000 187.5000
v  85.0000 -0.0000 291.5000
v  154.0000 -0.0000 291.5000
v  154.0000 -0.0000 201.5001
v  349.0000 -0.0000 242.5000
v  349.0000 -0.0000 170.5000
v  154.0000 -0.0000 129.5000
v  154.0000 0.0000 -64.5000
v  349.0000 0.0000 -23.5000
v  349.0000 0.0000 -95.5000
v  154.0000 0.0000 -136.5000
v  154.0000 0.0000 -291.5000
v  85.0000 0.0000 -291.5000
v  85.0000 0.0000 -150.4999
v  -85.0000 0.0000 -186.5000
v  -85.0000 0.0000 -291.5000
v  -154.0000 0.0000 -291.5000
v  -154.0000 0.0000 -200.5000
v  -349.0000 0.0000 -241.5000
v  -349.0000 0.0000 -169.5000
v  -154.0000 0.0000 -128.5000
v  -154.0000 -0.0000 65.5000
v  -349.0000 -0.0000 24.5000
v  -85.0000 -0.0000 79.4999
v  -85.0000 0.0000 -114.4999
v  85.0000 0.0000 -78.5000
v  85.0000 -0.0000 115.5000
v  -349.0000 -80.0000 96.5000
v  -154.0000 -80.0000 137.5000
v  -154.0000 -80.0000 291.5000
v  -85.0000 -79.9976 291.5000
v  -85.0000 -80.0000 151.5000
v  85.0000 -80.0000 187.5000
v  85.0000 -80.0000 291.5000
v  154.0000 -80.0000 291.5000
v  154.0000 -80.0000 201.5000
v  349.0000 -80.0000 242.5000
v  349.0000 -80.0000 170.5000
v  154.0000 -80.0000 129.5000
v  154.0000 -80.0000 -64.5000
v  349.0000 -80.0000 -23.5000
v  349.0000 -80.0000 -95.5000
v  154.0000 -80.0000 -136.5000
v  154.0000 -79.9999 -291.5000
v  85.0000 -79.9999 -291.5000
v  85.0000 -80.0000 -150.4999
v  -85.0000 -80.0000 -186.5000
v  -85.0000 -79.9999 -291.5000
v  -154.0000 -79.9999 -291.5000
v  -154.0000 -80.0000 -200.5000
v  -349.0000 -80.0000 -241.5000
v  -349.0000 -80.0000 -169.5000
v  -154.0000 -80.0000 -128.5000
v  -154.0000 -80.0000 65.5000
v  -349.0000 -80.0000 24.5000
v  -85.0000 -80.0000 79.4999
v  -85.0000 -80.0000 -114.4999
v  85.0000 -80.0000 -78.5001
v  85.0000 -80.0000 115.4999
# 64 vertices

vn -0.3697 0.8794 0.3000
vn -0.5190 0.5672 -0.6395
vn -0.6275 0.5890 0.5092
vn -0.3697 0.8794 0.3000
vn -0.2353 0.9277 -0.2899
vn -0.5190 0.5672 -0.6395
vn -0.3697 0.8794 0.3000
vn -0.5190 0.5672 -0.6395
vn -0.6275 0.5890 0.5092
vn -0.3697 0.8794 0.3000
vn -0.2353 0.9277 -0.2899
vn -0.5190 0.5672 -0.6395
vn 0.5774 0.5774 0.5774
vn -0.3697 0.8794 0.3000
vn -0.5774 0.5774 0.5774
vn 0.5774 0.5774 0.5774
vn -0.2353 0.9277 -0.2899
vn -0.3697 0.8794 0.3000
vn 0.5774 0.5774 0.5774
vn -0.3697 0.8794 0.3000
vn -0.2353 0.9277 -0.2899
vn 0.5774 0.5774 0.5774
vn -0.2353 0.9277 -0.2899
vn -0.3697 0.8794 0.3000
vn 0.5774 0.5774 0.5774
vn -0.5774 0.5774 -0.5774
vn -0.2353 0.9277 -0.2899
vn 0.5774 0.5774 0.5774
vn 0.5774 0.5774 -0.5774
vn -0.5774 0.5774 -0.5774
vn 0.6289 0.7258 0.2788
vn 0.5774 0.5774 -0.5774
vn 0.5774 0.5774 0.5774
vn -0.3702 0.8792 0.3000
vn 0.7261 0.6319 -0.2710
vn 0.6289 0.7258 0.2788
vn 0.7261 0.6319 -0.2710
vn 0.5774 0.5774 -0.5774
vn 0.6289 0.7258 0.2788
vn -0.3702 0.8792 0.3000
vn -0.2348 0.9279 -0.2897
vn 0.7261 0.6319 -0.2710
vn 0.6289 0.7258 0.2788
vn 0.5774 0.5774 -0.5774
vn 0.7261 0.6319 -0.2710
vn -0.3702 0.8792 0.3000
vn 0.7261 0.6319 -0.2710
vn 0.6289 0.7258 0.2788
vn 0.7261 0.6319 -0.2710
vn 0.5774 0.5774 -0.5774
vn 0.6289 0.7258 0.2788
vn -0.3702 0.8792 0.3000
vn -0.2348 0.9279 -0.2897
vn 0.7261 0.6319 -0.2710
vn 0.5774 0.5774 0.5774
vn -0.3702 0.8792 0.3000
vn -0.5774 0.5774 0.5774
vn 0.5774 0.5774 0.5774
vn -0.2348 0.9279 -0.2897
vn -0.3702 0.8792 0.3000
vn 0.5774 0.5774 0.5774
vn -0.3702 0.8792 0.3000
vn -0.2348 0.9279 -0.2897
vn 0.5774 0.5774 0.5774
vn -0.2348 0.9279 -0.2897
vn -0.3702 0.8792 0.3000
vn 0.5774 0.5774 0.5774
vn -0.5774 0.5774 -0.5774
vn -0.2348 0.9279 -0.2897
vn 0.5774 0.5774 0.5774
vn 0.5774 0.5774 -0.5774
vn -0.5774 0.5774 -0.5774
vn 0.6292 0.7255 0.2788
vn 0.5774 0.5774 -0.5774
vn 0.5774 0.5774 0.5774
vn 0.5190 0.5672 0.6395
vn 0.7258 0.6322 -0.2711
vn 0.6292 0.7255 0.2788
vn 0.7258 0.6322 -0.2711
vn 0.5774 0.5774 -0.5774
vn 0.6292 0.7255 0.2788
vn 0.5190 0.5672 0.6395
vn 0.6275 0.5890 -0.5092
vn 0.7258 0.6322 -0.2711
vn 0.6292 0.7255 0.2788
vn 0.5774 0.5774 -0.5774
vn 0.7258 0.6322 -0.2711
vn 0.5190 0.5672 0.6395
vn 0.7258 0.6322 -0.2711
vn 0.6292 0.7255 0.2788
vn 0.7258 0.6322 -0.2711
vn 0.5774 0.5774 -0.5774
vn 0.6292 0.7255 0.2788
vn 0.5190 0.5672 0.6395
vn 0.6275 0.5890 -0.5092
vn 0.7258 0.6322 -0.2711
vn -0.3697 -0.8794 0.3000
vn -0.6275 -0.5890 0.5092
vn -0.5190 -0.5672 -0.6395
vn -0.3697 -0.8794 0.3000
vn -0.5190 -0.5672 -0.6395
vn -0.2352 -0.9277 -0.2899
vn -0.3697 -0.8794 0.3000
vn -0.6275 -0.5890 0.5092
vn -0.5190 -0.5672 -0.6395
vn -0.3697 -0.8794 0.3000
vn -0.5190 -0.5672 -0.6395
vn -0.2352 -0.9277 -0.2899
vn 0.5774 -0.5773 0.5773
vn -0.5773 -0.5774 0.5774
vn -0.3697 -0.8794 0.3000
vn 0.5774 -0.5773 0.5773
vn -0.3697 -0.8794 0.3000
vn -0.2352 -0.9277 -0.2899
vn 0.5774 -0.5773 0.5773
vn -0.2352 -0.9277 -0.2899
vn -0.3697 -0.8794 0.3000
vn 0.5774 -0.5773 0.5773
vn -0.3697 -0.8794 0.3000
vn -0.2352 -0.9277 -0.2899
vn 0.5774 -0.5773 0.5773
vn -0.2352 -0.9277 -0.2899
vn -0.5773 -0.5774 -0.5773
vn 0.5774 -0.5773 0.5773
vn -0.5773 -0.5774 -0.5773
vn 0.5774 -0.5774 -0.5773
vn -0.6278 -0.5891 0.5088
vn 0.5774 -0.5773 0.5773
vn 0.5774 -0.5774 -0.5773
vn -0.3702 -0.8792 0.3000
vn -0.6278 -0.5891 0.5088
vn -0.5186 -0.5672 -0.6399
vn -0.5186 -0.5672 -0.6399
vn -0.6278 -0.5891 0.5088
vn 0.5774 -0.5774 -0.5773
vn -0.3702 -0.8792 0.3000
vn -0.5186 -0.5672 -0.6399
vn -0.2348 -0.9279 -0.2897
vn -0.6278 -0.5891 0.5088
vn -0.5186 -0.5672 -0.6399
vn 0.5774 -0.5774 -0.5773
vn -0.3702 -0.8792 0.3000
vn -0.6278 -0.5891 0.5088
vn 0.9260 -0.2504 -0.2825
vn 0.9260 -0.2504 -0.2825
vn -0.6278 -0.5891 0.5088
vn 0.5774 -0.5774 -0.5773
vn -0.3702 -0.8792 0.3000
vn 0.9260 -0.2504 -0.2825
vn -0.2348 -0.9279 -0.2897
vn 0.5774 -0.5774 0.5774
vn -0.5774 -0.5774 0.5774
vn -0.3702 -0.8792 0.3000
vn 0.5774 -0.5774 0.5774
vn -0.3702 -0.8792 0.3000
vn -0.2348 -0.9279 -0.2897
vn 0.5774 -0.5774 0.5774
vn -0.2348 -0.9279 -0.2897
vn -0.3702 -0.8792 0.3000
vn 0.5774 -0.5774 0.5774
vn -0.3702 -0.8792 0.3000
vn -0.2348 -0.9279 -0.2897
vn 0.5774 -0.5774 0.5774
vn -0.2348 -0.9279 -0.2897
vn -0.5774 -0.5774 -0.5774
vn 0.5774 -0.5774 0.5774
vn -0.5774 -0.5774 -0.5774
vn 0.5774 -0.5774 -0.5774
vn 0.8816 -0.3571 0.3087
vn 0.5774 -0.5774 0.5774
vn 0.5774 -0.5774 -0.5774
vn 0.5190 -0.5672 0.6395
vn 0.8816 -0.3571 0.3087
vn -0.5190 -0.5672 -0.6395
vn -0.5190 -0.5672 -0.6395
vn 0.8816 -0.3571 0.3087
vn 0.5774 -0.5774 -0.5774
vn 0.5190 -0.5672 0.6395
vn -0.5190 -0.5672 -0.6395
vn 0.6275 -0.5890 -0.5092
vn -0.6275 -0.5890 0.5092
vn -0.5190 -0.5672 -0.6395
vn 0.5774 -0.5774 -0.5774
vn 0.5190 -0.5672 0.6395
vn -0.6275 -0.5890 0.5092
vn 0.9259 -0.2507 -0.2826
vn 0.9259 -0.2507 -0.2826
vn -0.6275 -0.5890 0.5092
vn 0.5774 -0.5774 -0.5774
vn 0.5190 -0.5672 0.6395
vn 0.9259 -0.2507 -0.2826
vn 0.6275 -0.5890 -0.5092
vn 0.5774 0.5774 0.5774
vn -0.5774 0.5774 0.5774
vn -0.5773 -0.5774 0.5774
vn 0.5774 -0.5773 0.5773
vn 0.6289 0.7258 0.2788
vn 0.5774 0.5774 0.5774
vn 0.5774 -0.5773 0.5773
vn -0.6278 -0.5891 0.5088
vn -0.3697 0.8794 0.3000
vn -0.6275 0.5890 0.5092
vn -0.6275 -0.5890 0.5092
vn -0.3697 -0.8794 0.3000
vn -0.5774 0.5774 0.5774
vn -0.3702 0.8792 0.3000
vn -0.3702 -0.8792 0.3000
vn -0.5774 -0.5774 0.5774
vn -0.3702 0.8792 0.3000
vn 0.6289 0.7258 0.2788
vn -0.6278 -0.5891 0.5088
vn -0.3702 -0.8792 0.3000
vn -0.5774 0.5774 0.5774
vn -0.3697 0.8794 0.3000
vn -0.3697 -0.8794 0.3000
vn -0.5773 -0.5774 0.5774
vn -0.5774 0.5774 -0.5774
vn 0.5774 0.5774 -0.5774
vn 0.5774 -0.5774 -0.5774
vn -0.5774 -0.5774 -0.5774
vn 0.5774 0.5774 -0.5774
vn 0.7258 0.6322 -0.2711
vn 0.9259 -0.2507 -0.2826
vn 0.5774 -0.5774 -0.5774
vn 0.7261 0.6319 -0.2710
vn -0.2348 0.9279 -0.2897
vn -0.2348 -0.9279 -0.2897
vn 0.9260 -0.2504 -0.2825
vn 0.6275 0.5890 -0.5092
vn 0.5190 0.5672 0.6395
vn 0.5190 -0.5672 0.6395
vn 0.6275 -0.5890 -0.5092
vn -0.5774 0.5774 -0.5774
vn 0.5774 0.5774 -0.5774
vn 0.5774 -0.5774 -0.5773
vn -0.5773 -0.5774 -0.5773
vn 0.5774 0.5774 -0.5774
vn 0.7261 0.6319 -0.2710
vn 0.9260 -0.2504 -0.2825
vn 0.5774 -0.5774 -0.5773
vn 0.7258 0.6322 -0.2711
vn 0.6275 0.5890 -0.5092
vn 0.6275 -0.5890 -0.5092
vn 0.9259 -0.2507 -0.2826
vn 0.5190 0.5672 0.6395
vn 0.6292 0.7255 0.2788
vn 0.8816 -0.3571 0.3087
vn 0.5190 -0.5672 0.6395
vn 0.5774 0.5774 0.5774
vn -0.5774 0.5774 0.5774
vn -0.5774 -0.5774 0.5774
vn 0.5774 -0.5774 0.5774
vn 0.6292 0.7255 0.2788
vn 0.5774 0.5774 0.5774
vn 0.5774 -0.5774 0.5774
vn 0.8816 -0.3571 0.3087
vn -0.2348 0.9279 -0.2897
vn -0.5774 0.5774 -0.5774
vn -0.5774 -0.5774 -0.5774
vn -0.2348 -0.9279 -0.2897
vn -0.6275 0.5890 0.5092
vn -0.5190 0.5672 -0.6395
vn -0.5190 -0.5672 -0.6395
vn -0.6275 -0.5890 0.5092
vn 0.6275 0.5890 -0.5092
vn 0.5190 0.5672 0.6395
vn 0.5190 -0.5672 0.6395
vn 0.6275 -0.5890 -0.5092
vn 0.7258 0.6322 -0.2711
vn 0.6275 0.5890 -0.5092
vn 0.6275 -0.5890 -0.5092
vn -0.5190 -0.5672 -0.6395
vn 0.6292 0.7255 0.2788
vn 0.7258 0.6322 -0.2711
vn -0.5190 -0.5672 -0.6395
vn -0.6275 -0.5890 0.5092
vn 0.5190 0.5672 0.6395
vn 0.6292 0.7255 0.2788
vn -0.6275 -0.5890 0.5092
vn 0.5190 -0.5672 0.6395
vn -0.2353 0.9277 -0.2899
vn -0.3697 0.8794 0.3000
vn -0.3697 -0.8794 0.3000
vn -0.2352 -0.9277 -0.2899
vn -0.3697 0.8794 0.3000
vn -0.6275 0.5890 0.5092
vn -0.6275 -0.5890 0.5092
vn -0.3697 -0.8794 0.3000
vn -0.6275 0.5890 0.5092
vn -0.5190 0.5672 -0.6395
vn -0.5190 -0.5672 -0.6395
vn -0.6275 -0.5890 0.5092
vn -0.2353 0.9277 -0.2899
vn -0.5774 0.5774 -0.5774
vn -0.5773 -0.5774 -0.5773
vn -0.2352 -0.9277 -0.2899
vn -0.5190 0.5672 -0.6395
vn -0.2353 0.9277 -0.2899
vn -0.2352 -0.9277 -0.2899
vn -0.5190 -0.5672 -0.6395
vn 0.7261 0.6319 -0.2710
vn -0.2348 0.9279 -0.2897
vn -0.2348 -0.9279 -0.2897
vn -0.5186 -0.5672 -0.6399
vn -0.5190 0.5672 -0.6395
vn -0.2353 0.9277 -0.2899
vn -0.2352 -0.9277 -0.2899
vn -0.5190 -0.5672 -0.6395
vn 0.6289 0.7258 0.2788
vn 0.7261 0.6319 -0.2710
vn -0.5186 -0.5672 -0.6399
vn -0.6278 -0.5891 0.5088
vn -0.3702 0.8792 0.3000
vn 0.6289 0.7258 0.2788
vn -0.6278 -0.5891 0.5088
vn -0.3702 -0.8792 0.3000
vn -0.2348 0.9279 -0.2897
vn -0.3702 0.8792 0.3000
vn -0.3702 -0.8792 0.3000
vn -0.2348 -0.9279 -0.2897
# 320 vertex normals

vt 0.0000 1.0000 0.0000
vt 1.0000 0.0000 0.0000
vt 0.0000 0.0000 0.0000
vt 1.0000 1.0000 0.0000
# 4 texture coords

o _
g _
usemtl Primitive_
s 1
f 2/3/1 28/2/2 1/4/3 
f 2/3/4 27/2/5 28/4/6 
f 26/3/7 24/2/8 25/4/9 
f 26/3/10 23/2/11 24/4/12 
f 4/3/13 2/2/14 3/4/15 
f 4/3/16 27/2/17 2/4/18 
f 4/3/19 26/2/20 27/4/21 
f 4/3/22 23/2/23 26/4/24 
f 4/3/25 22/2/26 23/4/27 
f 4/3/28 21/2/29 22/4/30 
s 2
f 5/3/31 21/2/32 4/4/33 
s 1
f 6/3/34 29/2/35 5/4/36 
s 2
f 29/3/37 21/2/38 5/4/39 
s 1
f 6/3/40 32/2/41 29/4/42 
f 30/3/43 21/2/44 29/4/45 
f 31/3/46 20/2/47 30/4/48 
f 20/3/49 21/2/50 30/4/51 
f 31/3/52 19/2/53 20/4/54 
f 8/3/55 6/2/56 7/4/57 
f 8/3/58 32/2/59 6/4/60 
f 8/3/61 31/2/62 32/4/63 
f 8/3/64 19/2/65 31/4/66 
f 8/3/67 18/2/68 19/4/69 
f 8/3/70 17/2/71 18/4/72 
f 9/3/73 17/2/74 8/4/75 
f 10/3/76 12/2/77 9/4/78 
s off
f 12/3/79 17/2/80 9/4/81 
s 1
f 10/3/82 11/2/83 12/4/84 
f 13/3/85 17/2/86 12/4/87 
f 14/3/88 16/2/89 13/4/90 
f 16/3/91 17/2/92 13/4/93 
f 14/3/94 15/2/95 16/4/96 
f 34/3/97 33/2/98 60/4/99 
f 34/3/100 60/2/101 59/4/102 
f 58/3/103 57/2/104 56/4/105 
f 58/3/106 56/2/107 55/4/108 
s 2
f 36/3/109 35/2/110 34/4/111 
f 36/3/112 34/2/113 59/4/114 
s off
f 36/3/115 59/2/116 58/4/117 
f 36/3/118 58/2/119 55/4/120 
f 36/3/121 55/2/122 54/4/123 
f 36/3/124 54/2/125 53/4/126 
f 37/3/127 36/2/128 53/4/129 
s 1
f 38/3/130 37/2/131 61/4/132 
s off
f 61/3/133 37/2/134 53/4/135 
s 1
f 38/3/136 61/2/137 64/4/138 
s off
f 62/3/139 61/2/140 53/4/141 
s 1
f 63/3/142 62/2/143 52/4/144 
f 52/3/145 62/2/146 53/4/147 
f 63/3/148 52/2/149 51/4/150 
f 40/3/151 39/2/152 38/4/153 
f 40/3/154 38/2/155 64/4/156 
f 40/3/157 64/2/158 63/4/159 
f 40/3/160 63/2/161 51/4/162 
f 40/3/163 51/2/164 50/4/165 
f 40/3/166 50/2/167 49/4/168 
f 41/3/169 40/2/170 49/4/171 
f 42/3/172 41/2/173 44/4/174 
s off
f 44/3/175 41/2/176 49/4/177 
s 1
f 42/3/178 44/2/179 43/4/180 
f 45/3/181 44/2/182 49/4/183 
f 46/3/184 45/2/185 48/4/186 
f 48/3/187 45/2/188 49/4/189 
f 46/3/190 48/2/191 47/4/192 
s off
f 4/3/193 3/2/194 35/4/195 36/1/196 
f 5/3/197 4/2/198 36/4/199 37/1/200 
f 2/3/201 1/2/202 33/4/203 34/1/204 
f 7/3/205 6/2/206 38/4/207 39/1/208 
f 6/3/209 5/2/210 37/4/211 38/1/212 
f 3/3/213 2/2/214 34/4/215 35/1/216 
f 18/3/217 17/2/218 49/4/219 50/1/220 
f 17/3/221 16/2/222 48/4/223 49/1/224 
f 20/3/225 19/2/226 51/4/227 52/1/228 
f 15/3/229 14/2/230 46/4/231 47/1/232 
f 22/3/233 21/2/234 53/4/235 54/1/236 
f 21/3/237 20/2/238 52/4/239 53/1/240 
f 16/3/241 15/2/242 47/4/243 48/1/244 
f 10/3/245 9/2/246 41/4/247 42/1/248 
f 8/3/249 7/2/250 39/4/251 40/1/252 
f 9/3/253 8/2/254 40/4/255 41/1/256 
f 19/3/257 18/2/258 50/4/259 51/1/260 
f 1/3/261 28/2/262 60/4/263 33/1/264 
f 11/3/265 10/2/266 42/4/267 43/1/268 
f 12/3/269 11/2/270 43/4/271 44/1/272 
f 13/3/273 12/2/274 44/4/275 45/1/276 
f 14/3/277 13/2/278 45/4/279 46/1/280 
f 27/3/281 26/2/282 58/4/283 59/1/284 
f 26/3/285 25/2/286 57/4/287 58/1/288 
f 25/3/289 24/2/290 56/4/291 57/1/292 
f 23/3/293 22/2/294 54/4/295 55/1/296 
f 24/3/297 23/2/298 55/4/299 56/1/300 
f 29/3/301 32/2/302 64/4/303 61/1/304 
f 28/3/305 27/2/306 59/4/307 60/1/308 
f 30/3/309 29/2/310 61/4/311 62/1/312 
f 31/3/313 30/2/314 62/4/315 63/1/316 
f 32/3/317 31/2/318 63/4/319 64/1/320 
# 32 polygons - 64 triangles

