# 3ds Max Wavefront OBJ Exporter v0.97b - (c)2007 guruware
# File Created: 17.06.2020 12:22:28

mtllib '.mtl

#
# object _
#

v  127.0000 40.0000 21.0000
v  127.0000 40.0000 -20.9990
v  -10.0000 40.0000 -44.0000
v  -127.0000 40.0000 -44.0000
v  -127.0000 40.0000 44.0000
v  -10.0000 40.0000 44.0000
v  127.0000 -40.0000 21.0000
v  127.0000 -40.0000 -20.9990
v  -10.0000 -40.0000 -44.0000
v  -127.0000 -39.9976 -44.0000
v  -127.0000 -40.0000 44.0000
v  -10.0000 -40.0000 44.0000
# 12 vertices

vn 0.0602 0.6889 0.7224
vn -0.5774 0.5774 -0.5774
vn -0.5774 0.5774 0.5774
vn 0.0602 0.6889 0.7224
vn 0.0602 0.6889 -0.7224
vn -0.5774 0.5774 -0.5774
vn 0.6183 0.5866 0.5231
vn 0.0602 0.6889 -0.7224
vn 0.0602 0.6889 0.7224
vn 0.6183 0.5866 0.5231
vn 0.6183 0.5866 -0.5231
vn 0.0602 0.6889 -0.7224
vn 0.0602 -0.6889 0.7224
vn -0.5774 -0.5774 0.5773
vn -0.5774 -0.5773 -0.5774
vn 0.0602 -0.6889 0.7224
vn -0.5774 -0.5773 -0.5774
vn 0.0602 -0.6889 -0.7224
vn 0.6183 -0.5866 0.5231
vn 0.0602 -0.6889 0.7224
vn 0.0602 -0.6889 -0.7224
vn 0.6183 -0.5866 0.5231
vn 0.0602 -0.6889 -0.7224
vn 0.6183 -0.5866 -0.5231
vn 0.6183 0.5866 -0.5231
vn 0.6183 0.5866 0.5231
vn 0.6183 -0.5866 0.5231
vn 0.6183 -0.5866 -0.5231
vn 0.6183 0.5866 0.5231
vn 0.0602 0.6889 0.7224
vn 0.0602 -0.6889 0.7224
vn 0.6183 -0.5866 0.5231
vn 0.0602 0.6889 -0.7224
vn 0.6183 0.5866 -0.5231
vn 0.6183 -0.5866 -0.5231
vn 0.0602 -0.6889 -0.7224
vn -0.5774 0.5774 -0.5774
vn 0.0602 0.6889 -0.7224
vn 0.0602 -0.6889 -0.7224
vn -0.5774 -0.5773 -0.5774
vn -0.5774 0.5774 0.5774
vn -0.5774 0.5774 -0.5774
vn -0.5774 -0.5773 -0.5774
vn -0.5774 -0.5774 0.5773
vn 0.0602 0.6889 0.7224
vn -0.5774 0.5774 0.5774
vn -0.5774 -0.5774 0.5773
vn 0.0602 -0.6889 0.7224
# 48 vertex normals

vt 0.0000 1.0000 0.0000
vt 1.0000 0.0000 0.0000
vt 0.0000 0.0000 0.0000
vt 1.0000 1.0000 0.0000
# 4 texture coords

o _
g _
usemtl Primitive_
s 1
f 6/3/1 4/2/2 5/4/3 
f 6/3/4 3/2/5 4/4/6 
f 1/3/7 3/2/8 6/4/9 
f 1/3/10 2/2/11 3/4/12 
s off
f 12/3/13 11/2/14 10/4/15 
f 12/3/16 10/2/17 9/4/18 
s 1
f 7/3/19 12/2/20 9/4/21 
f 7/3/22 9/2/23 8/4/24 
s off
f 2/3/25 1/2/26 7/4/27 8/1/28 
f 1/3/29 6/2/30 12/4/31 7/1/32 
f 3/3/33 2/2/34 8/4/35 9/1/36 
f 4/3/37 3/2/38 9/4/39 10/1/40 
f 5/3/41 4/2/42 10/4/43 11/1/44 
f 6/3/45 5/2/46 11/4/47 12/1/48 
# 6 polygons - 8 triangles

