# 3ds Max Wavefront OBJ Exporter v0.97b - (c)2007 guruware
# File Created: 17.06.2020 12:22:35

mtllib +.mtl

#
# object _
#

v  -236.0000 40.0000 41.0000
v  -41.0000 40.0000 41.0000
v  -41.0000 40.0000 236.0000
v  41.0000 40.0000 236.0000
v  41.0000 40.0000 41.0000
v  236.0000 40.0000 41.0000
v  236.0000 40.0000 -41.0000
v  41.0000 40.0000 -41.0000
v  41.0000 40.0000 -236.0000
v  -41.0000 40.0000 -236.0000
v  -41.0000 40.0000 -41.0000
v  -236.0000 40.0000 -41.0000
v  -236.0000 -40.0000 41.0000
v  -41.0000 -40.0000 41.0000
v  -41.0000 -40.0000 236.0000
v  41.0000 -40.0000 236.0000
v  41.0000 -40.0000 41.0000
v  236.0000 -39.9976 41.0000
v  236.0000 -40.0000 -41.0000
v  41.0000 -40.0000 -41.0000
v  41.0000 -40.0000 -236.0000
v  -41.0000 -40.0000 -236.0000
v  -41.0000 -40.0000 -41.0000
v  -236.0000 -40.0000 -41.0000
# 24 vertices

vn -0.3015 0.9045 0.3015
vn -0.5774 0.5774 -0.5774
vn -0.5774 0.5774 0.5774
vn -0.3015 0.9045 0.3015
vn -0.3015 0.9045 -0.3015
vn -0.5774 0.5774 -0.5774
vn 0.5774 0.5774 0.5774
vn -0.3015 0.9045 0.3015
vn -0.5774 0.5774 0.5774
vn 0.5774 0.5774 0.5774
vn -0.3015 0.9045 -0.3015
vn -0.3015 0.9045 0.3015
vn 0.5774 0.5774 0.5774
vn -0.5774 0.5774 -0.5774
vn -0.3015 0.9045 -0.3015
vn 0.5774 0.5774 0.5774
vn 0.5774 0.5774 -0.5774
vn -0.5774 0.5774 -0.5774
vn 0.9045 0.3015 0.3015
vn 0.5774 0.5774 -0.5774
vn 0.5774 0.5774 0.5774
vn 0.5774 0.5774 0.5774
vn -0.5774 0.5774 -0.5774
vn 0.9045 0.3015 0.3015
vn -0.5774 0.5774 -0.5774
vn 0.5774 0.5774 -0.5774
vn 0.9045 0.3015 0.3015
vn 0.5774 0.5774 0.5774
vn 0.5774 0.5774 -0.5774
vn -0.5774 0.5774 -0.5774
vn -0.3015 -0.9045 0.3015
vn -0.5774 -0.5774 0.5774
vn -0.5774 -0.5774 -0.5774
vn -0.3015 -0.9045 0.3015
vn -0.5774 -0.5774 -0.5774
vn -0.3015 -0.9045 -0.3015
vn 0.5774 -0.5774 0.5774
vn -0.5774 -0.5774 0.5774
vn -0.3015 -0.9045 0.3015
vn 0.5774 -0.5774 0.5774
vn -0.3015 -0.9045 0.3015
vn -0.3015 -0.9045 -0.3015
vn 0.5774 -0.5774 0.5774
vn -0.3015 -0.9045 -0.3015
vn -0.5774 -0.5774 -0.5774
vn 0.5774 -0.5774 0.5774
vn -0.5774 -0.5774 -0.5774
vn 0.5774 -0.5774 -0.5774
vn -0.5773 -0.5774 0.5774
vn 0.5774 -0.5774 0.5774
vn 0.5774 -0.5774 -0.5774
vn 0.5773 -0.5773 0.5774
vn -0.5773 -0.5774 0.5774
vn 0.9045 -0.3015 -0.3015
vn 0.9045 -0.3015 -0.3015
vn -0.5773 -0.5774 0.5774
vn 0.5774 -0.5774 -0.5774
vn 0.5773 -0.5773 0.5774
vn 0.9045 -0.3015 -0.3015
vn 0.5774 -0.5774 -0.5773
vn -0.3015 0.9045 -0.3015
vn -0.5774 0.5774 -0.5774
vn -0.5774 -0.5774 -0.5774
vn -0.3015 -0.9045 -0.3015
vn -0.5774 0.5774 -0.5774
vn -0.3015 0.9045 -0.3015
vn -0.3015 -0.9045 -0.3015
vn -0.5774 -0.5774 -0.5774
vn -0.5774 0.5774 0.5774
vn -0.5774 0.5774 -0.5774
vn -0.5774 -0.5774 -0.5774
vn -0.5774 -0.5774 0.5774
vn 0.5774 0.5774 0.5774
vn -0.5774 0.5774 0.5774
vn -0.5774 -0.5774 0.5774
vn 0.5774 -0.5774 0.5774
vn 0.9045 0.3015 0.3015
vn 0.5774 0.5774 0.5774
vn 0.5774 -0.5774 0.5774
vn -0.5773 -0.5774 0.5774
vn 0.5774 0.5774 0.5774
vn 0.9045 0.3015 0.3015
vn -0.5773 -0.5774 0.5774
vn 0.5773 -0.5773 0.5774
vn 0.5774 0.5774 -0.5774
vn -0.5774 0.5774 -0.5774
vn 0.9045 -0.3015 -0.3015
vn 0.5774 -0.5774 -0.5774
vn -0.5774 0.5774 -0.5774
vn 0.5774 0.5774 -0.5774
vn 0.5774 -0.5774 -0.5774
vn -0.5774 -0.5774 -0.5774
vn 0.5774 0.5774 -0.5774
vn 0.5774 0.5774 0.5774
vn 0.5773 -0.5773 0.5774
vn 0.5774 -0.5774 -0.5773
vn -0.5774 0.5774 -0.5774
vn 0.5774 0.5774 -0.5774
vn 0.5774 -0.5774 -0.5773
vn 0.9045 -0.3015 -0.3015
vn -0.5774 0.5774 0.5774
vn -0.3015 0.9045 0.3015
vn -0.3015 -0.9045 0.3015
vn -0.5774 -0.5774 0.5774
vn -0.3015 0.9045 0.3015
vn -0.5774 0.5774 0.5774
vn -0.5774 -0.5774 0.5774
vn -0.3015 -0.9045 0.3015
# 108 vertex normals

vt 0.0000 1.0000 0.0000
vt 1.0000 0.0000 0.0000
vt 0.0000 0.0000 0.0000
vt 1.0000 1.0000 0.0000
# 4 texture coords

o _
g _
usemtl Primitive_
s 1
f 2/3/1 12/2/2 1/4/3 
f 2/3/4 11/2/5 12/4/6 
f 4/3/7 2/2/8 3/4/9 
f 4/3/10 11/2/11 2/4/12 
f 4/3/13 10/2/14 11/4/15 
f 4/3/16 9/2/17 10/4/18 
s off
f 5/3/19 9/2/20 4/4/21 
s 1
f 6/3/22 8/2/23 5/4/24 
f 8/3/25 9/2/26 5/4/27 
f 6/3/28 7/2/29 8/4/30 
f 14/3/31 13/2/32 24/4/33 
f 14/3/34 24/2/35 23/4/36 
f 16/3/37 15/2/38 14/4/39 
f 16/3/40 14/2/41 23/4/42 
f 16/3/43 23/2/44 22/4/45 
f 16/3/46 22/2/47 21/4/48 
s off
f 17/3/49 16/2/50 21/4/51 
f 18/3/52 17/2/53 20/4/54 
f 20/3/55 17/2/56 21/4/57 
f 18/3/58 20/2/59 19/4/60 
f 11/3/61 10/2/62 22/4/63 23/1/64 
f 12/3/65 11/2/66 23/4/67 24/1/68 
f 1/3/69 12/2/70 24/4/71 13/1/72 
f 4/3/73 3/2/74 15/4/75 16/1/76 
f 5/3/77 4/2/78 16/4/79 17/1/80 
f 6/3/81 5/2/82 17/4/83 18/1/84 
f 9/3/85 8/2/86 20/4/87 21/1/88 
f 10/3/89 9/2/90 21/4/91 22/1/92 
f 7/3/93 6/2/94 18/4/95 19/1/96 
f 8/3/97 7/2/98 19/4/99 20/1/100 
f 3/3/101 2/2/102 14/4/103 15/1/104 
f 2/3/105 1/2/106 13/4/107 14/1/108 
# 12 polygons - 20 triangles

