# 3ds Max Wavefront OBJ Exporter v0.97b - (c)2007 guruware
# File Created: 17.06.2020 12:22:30

mtllib ,.mtl

#
# object _
#

v  120.7090 40.0000 52.0840
v  110.7778 40.0000 24.2617
v  92.0107 40.0000 -6.7129
v  68.5317 40.0000 -31.0664
v  41.7212 40.0000 -48.8594
v  12.9614 40.0000 -60.1348
v  -15.3955 40.0000 -64.8457
v  -44.7666 40.0000 -63.7344
v  -69.5215 40.0000 -58.1348
v  -89.9014 40.0000 -48.5039
v  -105.4199 40.0000 -35.2637
v  -115.6802 40.0000 -18.7949
v  -120.7090 40.0000 4.5137
v  -115.0342 40.0000 33.5176
v  -96.1494 40.0000 55.9102
v  -71.7681 40.0000 64.8457
v  -43.6738 40.0000 62.9863
v  -23.0229 40.0000 51.6133
v  -10.0967 40.0000 33.2832
v  -6.8740 40.0000 15.1211
v  37.5029 40.0000 14.3008
v  77.5225 40.0000 28.5859
v  102.1162 40.0000 51.9160
v  120.7090 -40.0000 52.0840
v  110.7778 -40.0000 24.2617
v  92.0107 -40.0000 -6.7148
v  68.5317 -39.9976 -31.0664
v  41.7212 -40.0000 -48.8594
v  12.9614 -40.0000 -60.1348
v  -15.3955 -39.9975 -64.8457
v  -44.7666 -40.0000 -63.7344
v  -69.5215 -40.0000 -58.1348
v  -89.9014 -40.0000 -48.5039
v  -105.4199 -39.9976 -35.2637
v  -115.6802 -40.0000 -18.7949
v  -120.7090 -39.9976 4.5137
v  -115.0342 -40.0000 33.5176
v  -96.1494 -40.0000 55.9102
v  -71.7681 -40.0000 64.8457
v  -43.6738 -40.0000 62.9863
v  -23.0229 -40.0000 51.6133
v  -10.0967 -40.0000 33.2832
v  -6.8740 -40.0000 15.1211
v  37.5029 -40.0000 14.3008
v  77.5225 -39.9976 28.5859
v  102.1162 -40.0000 51.9160
# 46 vertices

vn -0.6816 0.6547 0.3267
vn -0.6877 0.6705 -0.2786
vn -0.7473 0.6644 -0.0072
vn -0.6816 0.6547 0.3267
vn -0.5596 0.6743 -0.4818
vn -0.6877 0.6705 -0.2786
vn -0.4340 0.6537 0.6199
vn -0.5596 0.6743 -0.4818
vn -0.6816 0.6547 0.3267
vn -0.4340 0.6537 0.6199
vn -0.3988 0.6786 -0.6169
vn -0.5596 0.6743 -0.4818
vn -0.1064 0.6633 0.7408
vn -0.3988 0.6786 -0.6169
vn -0.4340 0.6537 0.6199
vn -0.1064 0.6633 0.7408
vn -0.2379 0.6833 -0.6903
vn -0.3988 0.6786 -0.6169
vn -0.1064 0.6633 0.7408
vn -0.0943 0.6869 -0.7206
vn -0.2379 0.6833 -0.6903
vn 0.2107 0.6614 0.7198
vn -0.0943 0.6869 -0.7206
vn -0.1064 0.6633 0.7408
vn 0.2107 0.6614 0.7198
vn 0.0462 0.6851 -0.7270
vn -0.0943 0.6869 -0.7206
vn 0.5011 0.6599 0.5599
vn 0.0462 0.6851 -0.7270
vn 0.2107 0.6614 0.7198
vn 0.6924 0.6613 0.2886
vn 0.0462 0.6851 -0.7270
vn 0.5011 0.6599 0.5599
vn 0.6924 0.6613 0.2886
vn 0.3072 0.8810 0.3597
vn 0.0462 0.6851 -0.7270
vn 0.3072 0.8810 0.3597
vn 0.1939 0.6844 -0.7029
vn 0.0462 0.6851 -0.7270
vn -0.1068 0.7499 0.6528
vn 0.1939 0.6844 -0.7029
vn 0.3072 0.8810 0.3597
vn -0.1068 0.7499 0.6528
vn 0.3367 0.6840 -0.6471
vn 0.1939 0.6844 -0.7029
vn -0.1068 0.7499 0.6528
vn 0.4674 0.6834 -0.5608
vn 0.3367 0.6840 -0.6471
vn -0.3422 0.7567 0.5570
vn 0.4674 0.6834 -0.5608
vn -0.1068 0.7499 0.6528
vn -0.3422 0.7567 0.5570
vn 0.5789 0.6830 -0.4455
vn 0.4674 0.6834 -0.5608
vn -0.2900 0.6333 0.7176
vn 0.5789 0.6830 -0.4455
vn -0.3422 0.7567 0.5570
vn -0.2900 0.6333 0.7176
vn 0.6579 0.6851 -0.3128
vn 0.5789 0.6830 -0.4455
vn 0.6745 0.5611 0.4798
vn 0.6579 0.6851 -0.3128
vn -0.2900 0.6333 0.7176
vn -0.6816 -0.6547 0.3267
vn -0.7475 -0.6643 -0.0072
vn -0.6875 -0.6706 -0.2785
vn -0.6816 -0.6547 0.3267
vn -0.6875 -0.6706 -0.2785
vn -0.5598 -0.6742 -0.4819
vn -0.4340 -0.6536 0.6200
vn -0.6816 -0.6547 0.3267
vn -0.5598 -0.6742 -0.4819
vn -0.4340 -0.6536 0.6200
vn -0.5598 -0.6742 -0.4819
vn -0.3988 -0.6785 -0.6169
vn -0.1063 -0.6634 0.7407
vn -0.4340 -0.6536 0.6200
vn -0.3988 -0.6785 -0.6169
vn -0.1063 -0.6634 0.7407
vn -0.3988 -0.6785 -0.6169
vn -0.2379 -0.6833 -0.6903
vn -0.1063 -0.6634 0.7407
vn -0.2379 -0.6833 -0.6903
vn -0.0943 -0.6869 -0.7206
vn 0.2107 -0.6614 0.7198
vn -0.1063 -0.6634 0.7407
vn -0.0943 -0.6869 -0.7206
vn 0.2107 -0.6614 0.7198
vn -0.0943 -0.6869 -0.7206
vn 0.0462 -0.6851 -0.7270
vn 0.5011 -0.6599 0.5599
vn 0.2107 -0.6614 0.7198
vn 0.0462 -0.6851 -0.7270
vn 0.6924 -0.6613 0.2886
vn 0.5011 -0.6599 0.5599
vn 0.0462 -0.6851 -0.7270
vn 0.6924 -0.6613 0.2886
vn 0.0462 -0.6851 -0.7270
vn 0.3072 -0.8811 0.3597
vn 0.3072 -0.8811 0.3597
vn 0.0462 -0.6851 -0.7270
vn 0.1938 -0.6844 -0.7029
vn -0.1068 -0.7500 0.6528
vn 0.3072 -0.8811 0.3597
vn 0.1938 -0.6844 -0.7029
vn -0.1068 -0.7500 0.6528
vn 0.1938 -0.6844 -0.7029
vn 0.3367 -0.6840 -0.6471
vn -0.1068 -0.7500 0.6528
vn 0.3367 -0.6840 -0.6471
vn 0.4674 -0.6834 -0.5608
vn -0.3423 -0.7566 0.5571
vn -0.1068 -0.7500 0.6528
vn 0.4674 -0.6834 -0.5608
vn -0.3423 -0.7566 0.5571
vn 0.4674 -0.6834 -0.5608
vn 0.5788 -0.6830 -0.4455
vn -0.2900 -0.6332 0.7176
vn -0.3423 -0.7566 0.5571
vn 0.5788 -0.6830 -0.4455
vn -0.2900 -0.6332 0.7176
vn 0.5788 -0.6830 -0.4455
vn 0.6579 -0.6851 -0.3128
vn 0.6745 -0.5611 0.4798
vn -0.2900 -0.6332 0.7176
vn 0.6579 -0.6851 -0.3128
vn 0.6579 0.6851 -0.3128
vn 0.6745 0.5611 0.4798
vn 0.6745 -0.5611 0.4798
vn 0.6579 -0.6851 -0.3128
vn 0.2107 0.6614 0.7198
vn -0.1064 0.6633 0.7408
vn -0.1063 -0.6634 0.7407
vn 0.2107 -0.6614 0.7198
vn -0.1064 0.6633 0.7408
vn -0.4340 0.6537 0.6199
vn -0.4340 -0.6536 0.6200
vn -0.1063 -0.6634 0.7407
vn -0.4340 0.6537 0.6199
vn -0.6816 0.6547 0.3267
vn -0.6816 -0.6547 0.3267
vn -0.4340 -0.6536 0.6200
vn -0.6877 0.6705 -0.2786
vn -0.5596 0.6743 -0.4818
vn -0.5598 -0.6742 -0.4819
vn -0.6875 -0.6706 -0.2785
vn 0.5011 0.6599 0.5599
vn 0.2107 0.6614 0.7198
vn 0.2107 -0.6614 0.7198
vn 0.5011 -0.6599 0.5599
vn -0.5596 0.6743 -0.4818
vn -0.3988 0.6786 -0.6169
vn -0.3988 -0.6785 -0.6169
vn -0.5598 -0.6742 -0.4819
vn 0.6924 0.6613 0.2886
vn 0.5011 0.6599 0.5599
vn 0.5011 -0.6599 0.5599
vn 0.6924 -0.6613 0.2886
vn 0.3072 0.8810 0.3597
vn 0.6924 0.6613 0.2886
vn 0.6924 -0.6613 0.2886
vn 0.3072 -0.8811 0.3597
vn -0.6816 0.6547 0.3267
vn -0.7473 0.6644 -0.0072
vn -0.7475 -0.6643 -0.0072
vn -0.6816 -0.6547 0.3267
vn -0.7473 0.6644 -0.0072
vn -0.6877 0.6705 -0.2786
vn -0.6875 -0.6706 -0.2785
vn -0.7475 -0.6643 -0.0072
vn 0.5789 0.6830 -0.4455
vn 0.6579 0.6851 -0.3128
vn 0.6579 -0.6851 -0.3128
vn 0.5788 -0.6830 -0.4455
vn 0.4674 0.6834 -0.5608
vn 0.5789 0.6830 -0.4455
vn 0.5788 -0.6830 -0.4455
vn 0.4674 -0.6834 -0.5608
vn 0.6745 0.5611 0.4798
vn -0.2900 0.6333 0.7176
vn -0.2900 -0.6332 0.7176
vn 0.6745 -0.5611 0.4798
vn -0.2900 0.6333 0.7176
vn -0.3422 0.7567 0.5570
vn -0.3423 -0.7566 0.5571
vn -0.2900 -0.6332 0.7176
vn 0.1939 0.6844 -0.7029
vn 0.3367 0.6840 -0.6471
vn 0.3367 -0.6840 -0.6471
vn 0.1938 -0.6844 -0.7029
vn 0.3367 0.6840 -0.6471
vn 0.4674 0.6834 -0.5608
vn 0.4674 -0.6834 -0.5608
vn 0.3367 -0.6840 -0.6471
vn -0.1068 0.7499 0.6528
vn 0.3072 0.8810 0.3597
vn 0.3072 -0.8811 0.3597
vn -0.1068 -0.7500 0.6528
vn -0.2379 0.6833 -0.6903
vn -0.0943 0.6869 -0.7206
vn -0.0943 -0.6869 -0.7206
vn -0.2379 -0.6833 -0.6903
vn -0.3988 0.6786 -0.6169
vn -0.2379 0.6833 -0.6903
vn -0.2379 -0.6833 -0.6903
vn -0.3988 -0.6785 -0.6169
vn 0.0462 0.6851 -0.7270
vn 0.1939 0.6844 -0.7029
vn 0.1938 -0.6844 -0.7029
vn 0.0462 -0.6851 -0.7270
vn -0.3422 0.7567 0.5570
vn -0.1068 0.7499 0.6528
vn -0.1068 -0.7500 0.6528
vn -0.3423 -0.7566 0.5571
vn -0.0943 0.6869 -0.7206
vn 0.0462 0.6851 -0.7270
vn 0.0462 -0.6851 -0.7270
vn -0.0943 -0.6869 -0.7206
# 218 vertex normals

vt 0.0000 1.0000 0.0000
vt 1.0000 0.0000 0.0000
vt 0.0000 0.0000 0.0000
vt 1.0000 1.0000 0.0000
# 4 texture coords

o _
g _
usemtl Primitive_
s 1
f 14/3/1 12/2/2 13/4/3 
f 14/3/4 11/2/5 12/4/6 
f 15/3/7 11/2/8 14/4/9 
f 15/3/10 10/2/11 11/4/12 
f 16/3/13 10/2/14 15/4/15 
f 16/3/16 9/2/17 10/4/18 
f 16/3/19 8/2/20 9/4/21 
f 17/3/22 8/2/23 16/4/24 
f 17/3/25 7/2/26 8/4/27 
f 18/3/28 7/2/29 17/4/30 
f 19/3/31 7/2/32 18/4/33 
f 19/3/34 20/2/35 7/4/36 
f 20/3/37 6/2/38 7/4/39 
f 21/3/40 6/2/41 20/4/42 
f 21/3/43 5/2/44 6/4/45 
f 21/3/46 4/2/47 5/4/48 
f 22/3/49 4/2/50 21/4/51 
f 22/3/52 3/2/53 4/4/54 
f 23/3/55 3/2/56 22/4/57 
f 23/3/58 2/2/59 3/4/60 
f 1/3/61 2/2/62 23/4/63 
s off
f 37/3/64 36/2/65 35/4/66 
f 37/3/67 35/2/68 34/4/69 
f 38/3/70 37/2/71 34/4/72 
f 38/3/73 34/2/74 33/4/75 
s 1
f 39/3/76 38/2/77 33/4/78 
f 39/3/79 33/2/80 32/4/81 
f 39/3/82 32/2/83 31/4/84 
f 40/3/85 39/2/86 31/4/87 
s off
f 40/3/88 31/2/89 30/4/90 
f 41/3/91 40/2/92 30/4/93 
f 42/3/94 41/2/95 30/4/96 
f 42/3/97 30/2/98 43/4/99 
f 43/3/100 30/2/101 29/4/102 
s 1
f 44/3/103 43/2/104 29/4/105 
f 44/3/106 29/2/107 28/4/108 
s off
f 44/3/109 28/2/110 27/4/111 
f 45/3/112 44/2/113 27/4/114 
f 45/3/115 27/2/116 26/4/117 
f 46/3/118 45/2/119 26/4/120 
s 1
f 46/3/121 26/2/122 25/4/123 
f 24/3/124 46/2/125 25/4/126 
s off
f 2/3/127 1/2/128 24/4/129 25/1/130 
f 17/3/131 16/2/132 39/4/133 40/1/134 
f 16/3/135 15/2/136 38/4/137 39/1/138 
f 15/3/139 14/2/140 37/4/141 38/1/142 
f 12/3/143 11/2/144 34/4/145 35/1/146 
f 18/3/147 17/2/148 40/4/149 41/1/150 
f 11/3/151 10/2/152 33/4/153 34/1/154 
f 19/3/155 18/2/156 41/4/157 42/1/158 
f 20/3/159 19/2/160 42/4/161 43/1/162 
f 14/3/163 13/2/164 36/4/165 37/1/166 
f 13/3/167 12/2/168 35/4/169 36/1/170 
f 3/3/171 2/2/172 25/4/173 26/1/174 
f 4/3/175 3/2/176 26/4/177 27/1/178 
f 1/3/179 23/2/180 46/4/181 24/1/182 
f 23/3/183 22/2/184 45/4/185 46/1/186 
f 6/3/187 5/2/188 28/4/189 29/1/190 
f 5/3/191 4/2/192 27/4/193 28/1/194 
f 21/3/195 20/2/196 43/4/197 44/1/198 
f 9/3/199 8/2/200 31/4/201 32/1/202 
f 10/3/203 9/2/204 32/4/205 33/1/206 
f 7/3/207 6/2/208 29/4/209 30/1/210 
f 22/3/211 21/2/212 44/4/213 45/1/214 
f 8/3/215 7/2/216 30/4/217 31/1/218 
# 23 polygons - 42 triangles

