# 3ds Max Wavefront OBJ Exporter v0.97b - (c)2007 guruware
# File Created: 17.06.2020 12:22:32

mtllib -.mtl

#
# object _
#

v  -46.5000 40.0000 -121.5000
v  -46.5000 40.0000 121.5000
v  46.5000 40.0000 121.5000
v  46.5000 40.0000 -121.5000
v  -46.5000 -40.0000 -121.5000
v  -46.5000 -40.0000 121.5000
v  46.5000 -40.0000 121.5000
v  46.5000 -40.0000 -121.5000
# 8 vertices

vn 0.5774 0.5774 0.5774
vn -0.5774 0.5774 -0.5774
vn -0.5774 0.5774 0.5774
vn 0.5774 0.5774 0.5774
vn 0.5774 0.5774 -0.5774
vn -0.5774 0.5774 -0.5774
vn 0.5774 -0.5774 0.5774
vn -0.5774 -0.5774 0.5774
vn -0.5774 -0.5774 -0.5774
vn 0.5774 -0.5774 0.5774
vn -0.5774 -0.5774 -0.5774
vn 0.5774 -0.5774 -0.5774
vn 0.5774 0.5774 -0.5774
vn 0.5774 0.5774 0.5774
vn 0.5774 -0.5774 0.5774
vn 0.5774 -0.5774 -0.5774
vn 0.5774 0.5774 0.5774
vn -0.5774 0.5774 0.5774
vn -0.5774 -0.5774 0.5774
vn 0.5774 -0.5774 0.5774
vn -0.5774 0.5774 -0.5774
vn 0.5774 0.5774 -0.5774
vn 0.5774 -0.5774 -0.5774
vn -0.5774 -0.5774 -0.5774
vn -0.5774 0.5774 0.5774
vn -0.5774 0.5774 -0.5774
vn -0.5774 -0.5774 -0.5774
vn -0.5774 -0.5774 0.5774
# 28 vertex normals

vt 0.0000 1.0000 0.0000
vt 1.0000 0.0000 0.0000
vt 0.0000 0.0000 0.0000
vt 1.0000 1.0000 0.0000
# 4 texture coords

o _
g _
usemtl Primitive_
s 1
f 3/3/1 1/2/2 2/4/3 
f 3/3/4 4/2/5 1/4/6 
f 7/3/7 6/2/8 5/4/9 
f 7/3/10 5/2/11 8/4/12 
s off
f 4/3/13 3/2/14 7/4/15 8/1/16 
f 3/3/17 2/2/18 6/4/19 7/1/20 
f 1/3/21 4/2/22 8/4/23 5/1/24 
f 2/3/25 1/2/26 5/4/27 6/1/28 
# 4 polygons - 4 triangles

