# 3ds Max Wavefront OBJ Exporter v0.97b - (c)2007 guruware
# File Created: 17.06.2020 12:22:30

mtllib 1.mtl

#
# object 1
#

v  -341.0000 40.0000 -49.0000
v  -341.0000 40.0000 49.0000
v  341.0000 40.0000 49.0000
v  341.0000 40.0000 -49.0000
v  -341.0000 -40.0000 -49.0000
v  -341.0000 -40.0000 49.0000
v  341.0000 -40.0000 49.0000
v  341.0000 -40.0000 -49.0000
# 8 vertices

vn 0.5774 0.5774 0.5774
vn -0.5774 0.5774 -0.5774
vn -0.5774 0.5774 0.5774
vn 0.5774 0.5774 0.5774
vn 0.5774 0.5774 -0.5774
vn -0.5774 0.5774 -0.5774
vn 0.5774 -0.5774 0.5774
vn -0.5774 -0.5774 0.5774
vn -0.5774 -0.5774 -0.5774
vn 0.5774 -0.5774 0.5774
vn -0.5774 -0.5774 -0.5774
vn 0.5774 -0.5774 -0.5774
vn -0.5774 0.5774 -0.5774
vn 0.5774 0.5774 -0.5774
vn 0.5774 -0.5774 -0.5774
vn -0.5774 -0.5774 -0.5774
vn 0.5774 0.5774 -0.5774
vn 0.5774 0.5774 0.5774
vn 0.5774 -0.5774 0.5774
vn 0.5774 -0.5774 -0.5774
vn 0.5774 0.5774 0.5774
vn -0.5774 0.5774 0.5774
vn -0.5774 -0.5774 0.5774
vn 0.5774 -0.5774 0.5774
vn -0.5774 0.5774 0.5774
vn -0.5774 0.5774 -0.5774
vn -0.5774 -0.5774 -0.5774
vn -0.5774 -0.5774 0.5774
# 28 vertex normals

vt 0.0000 1.0000 0.0000
vt 1.0000 0.0000 0.0000
vt 0.0000 0.0000 0.0000
vt 1.0000 1.0000 0.0000
# 4 texture coords

o 1
g 1
usemtl Primitive_
s 1
f 3/3/1 1/2/2 2/4/3 
f 3/3/4 4/2/5 1/4/6 
f 7/3/7 6/2/8 5/4/9 
f 7/3/10 5/2/11 8/4/12 
s off
f 1/3/13 4/2/14 8/4/15 5/1/16 
f 4/3/17 3/2/18 7/4/19 8/1/20 
f 3/3/21 2/2/22 6/4/23 7/1/24 
f 2/3/25 1/2/26 5/4/27 6/1/28 
# 4 polygons - 4 triangles

