# 3ds Max Wavefront OBJ Exporter v0.97b - (c)2007 guruware
# File Created: 17.06.2020 12:22:30

mtllib 2.mtl

#
# object 2
#

v  252.5190 40.0000 -216.0000
v  252.5190 40.0000 45.0000
v  137.8457 40.0000 -48.4269
v  46.8281 40.0000 -110.6264
v  -10.8472 40.0000 -140.8616
v  -64.8296 40.0000 -159.3149
v  -119.4336 40.0000 -167.0792
v  -178.2686 40.0000 -163.4760
v  -232.0063 40.0000 -146.7742
v  -276.8979 40.0000 -118.2401
v  -303.6406 40.0000 -89.5585
v  -324.8042 40.0000 -56.1117
v  -341.8789 40.0000 -3.6710
v  -345.5190 40.0000 52.7058
v  -338.7510 40.0000 94.8101
v  -326.8823 40.0000 127.9204
v  -306.1943 40.0000 167.0662
v  -280.4810 40.0000 202.0000
v  -157.4810 40.0000 202.0000
v  -182.0649 40.0000 181.3004
v  -213.2349 40.0000 148.1483
v  -233.3071 40.0000 116.3376
v  -246.9180 40.0000 79.5242
v  -249.3125 40.0000 38.2029
v  -243.1084 40.0000 8.5367
v  -229.0039 40.0000 -18.5667
v  -207.9990 40.0000 -40.8026
v  -180.9473 40.0000 -57.2387
v  -142.1460 40.0000 -68.2854
v  -100.7534 40.0000 -68.3124
v  -70.6567 40.0000 -63.9413
v  -33.1323 40.0000 -51.6103
v  12.6533 40.0000 -27.9745
v  82.6919 40.0000 15.5732
v  190.2422 40.0000 95.3193
v  338.7393 40.0000 215.9939
v  345.5190 40.0000 216.0000
v  345.5190 40.0000 -216.0000
v  252.5190 -39.9975 -216.0000
v  252.5190 -40.0000 44.9999
v  137.8457 -40.0000 -48.4269
v  46.8281 -40.0000 -110.6264
v  -10.8472 -40.0000 -140.8616
v  -64.8296 -40.0000 -159.3149
v  -119.4336 -40.0000 -167.0792
v  -178.2686 -40.0000 -163.4760
v  -232.0063 -40.0000 -146.7742
v  -276.8979 -39.9975 -118.2402
v  -303.6406 -40.0000 -89.5585
v  -324.8042 -39.9976 -56.1117
v  -341.8789 -40.0000 -3.6710
v  -345.5190 -39.9976 52.7058
v  -338.7510 -40.0000 94.8101
v  -326.8823 -40.0000 127.9204
v  -306.1943 -40.0000 167.0662
v  -280.4810 -40.0000 202.0000
v  -157.4810 -40.0000 202.0000
v  -182.0649 -40.0000 181.3004
v  -213.2349 -40.0000 148.1483
v  -233.3071 -40.0000 116.3376
v  -246.9180 -40.0000 79.5242
v  -249.3125 -39.9976 38.2029
v  -243.1084 -40.0000 8.5367
v  -229.0039 -40.0000 -18.5667
v  -207.9990 -40.0000 -40.8026
v  -180.9473 -40.0000 -57.2388
v  -142.1460 -40.0000 -68.2854
v  -100.7534 -39.9975 -68.3124
v  -70.6567 -40.0000 -63.9414
v  -33.1323 -40.0000 -51.6104
v  12.6533 -40.0000 -27.9745
v  82.6919 -40.0000 15.5732
v  190.2422 -39.9976 95.3193
v  338.7393 -40.0000 215.9939
v  345.5190 -40.0000 216.0000
v  345.5190 -40.0000 -216.0000
# 76 vertices

vn -0.7038 0.6869 0.1811
vn -0.7200 0.6801 -0.1382
vn -0.7298 0.6828 0.0347
vn -0.7038 0.6869 0.1811
vn -0.6634 0.6802 -0.3119
vn -0.7200 0.6801 -0.1382
vn -0.6610 0.6915 0.2914
vn -0.6634 0.6802 -0.3119
vn -0.7038 0.6869 0.1811
vn -0.6124 0.6908 0.3843
vn -0.6634 0.6802 -0.3119
vn -0.6610 0.6915 0.2914
vn -0.6124 0.6908 0.3843
vn -0.5754 0.6868 -0.4441
vn -0.6634 0.6802 -0.3119
vn -0.6124 0.6908 0.3843
vn -0.4688 0.6797 -0.5642
vn -0.5754 0.6868 -0.4441
vn -0.3547 0.6182 0.7014
vn -0.4688 0.6797 -0.5642
vn -0.6124 0.6908 0.3843
vn 0.7877 0.5449 0.2875
vn 0.4768 0.7204 -0.5036
vn -0.3547 0.6182 0.7014
vn 0.4768 0.7204 -0.5036
vn 0.5410 0.7293 -0.4188
vn -0.3547 0.6182 0.7014
vn 0.5410 0.7293 -0.4188
vn 0.6116 0.7313 -0.3019
vn -0.3547 0.6182 0.7014
vn 0.6116 0.7313 -0.3019
vn 0.6563 0.7419 -0.1372
vn -0.3547 0.6182 0.7014
vn 0.6563 0.7419 -0.1372
vn -0.4688 0.6797 -0.5642
vn -0.3547 0.6182 0.7014
vn 0.6563 0.7419 -0.1372
vn 0.6730 0.7380 0.0500
vn -0.4688 0.6797 -0.5642
vn 0.6730 0.7380 0.0500
vn -0.3087 0.6785 -0.6666
vn -0.4688 0.6797 -0.5642
vn 0.6343 0.7391 0.2265
vn -0.3087 0.6785 -0.6666
vn 0.6730 0.7380 0.0500
vn 0.5485 0.7396 0.3902
vn -0.3087 0.6785 -0.6666
vn 0.6343 0.7391 0.2265
vn 0.4240 0.7384 0.5244
vn -0.3087 0.6785 -0.6666
vn 0.5485 0.7396 0.3902
vn 0.4240 0.7384 0.5244
vn -0.1320 0.6812 -0.7202
vn -0.3087 0.6785 -0.6666
vn 0.2698 0.7385 0.6179
vn -0.1320 0.6812 -0.7202
vn 0.4240 0.7384 0.5244
vn 0.0933 0.7396 0.6666
vn -0.1320 0.6812 -0.7202
vn 0.2698 0.7385 0.6179
vn 0.0933 0.7396 0.6666
vn 0.0292 0.6851 -0.7279
vn -0.1320 0.6812 -0.7202
vn -0.0495 0.7237 0.6883
vn 0.0292 0.6851 -0.7279
vn 0.0933 0.7396 0.6666
vn -0.0495 0.7237 0.6883
vn 0.1695 0.6866 -0.7070
vn 0.0292 0.6851 -0.7279
vn -0.1571 0.7271 0.6683
vn 0.1695 0.6866 -0.7070
vn -0.0495 0.7237 0.6883
vn -0.2661 0.7254 0.6348
vn 0.1695 0.6866 -0.7070
vn -0.1571 0.7271 0.6683
vn -0.2661 0.7254 0.6348
vn 0.2858 0.6903 -0.6647
vn 0.1695 0.6866 -0.7070
vn -0.3446 0.7162 0.6069
vn 0.2858 0.6903 -0.6647
vn -0.2661 0.7254 0.6348
vn -0.3446 0.7162 0.6069
vn 0.3708 0.6942 -0.6169
vn 0.2858 0.6903 -0.6647
vn -0.3923 0.7164 0.5769
vn 0.3708 0.6942 -0.6169
vn -0.3446 0.7162 0.6069
vn -0.3923 0.7164 0.5769
vn 0.4287 0.6978 -0.5739
vn 0.3708 0.6942 -0.6169
vn -0.4306 0.7121 0.5545
vn 0.4287 0.6978 -0.5739
vn -0.3923 0.7164 0.5769
vn -0.4306 0.7121 0.5545
vn -0.1040 0.9702 -0.2190
vn 0.4287 0.6978 -0.5739
vn -0.2577 0.6391 0.7247
vn -0.1040 0.9702 -0.2190
vn -0.4306 0.7121 0.5545
vn -0.2577 0.6391 0.7247
vn -0.5774 0.5774 -0.5774
vn -0.1040 0.9702 -0.2190
vn -0.2577 0.6391 0.7247
vn 0.5774 0.5774 -0.5774
vn -0.5774 0.5774 -0.5774
vn 0.5771 0.5773 0.5776
vn 0.5774 0.5774 -0.5774
vn -0.2577 0.6391 0.7247
vn -0.7038 -0.6869 0.1810
vn -0.7299 -0.6827 0.0347
vn -0.7200 -0.6801 -0.1382
vn -0.7038 -0.6869 0.1810
vn -0.7200 -0.6801 -0.1382
vn -0.6634 -0.6801 -0.3119
vn -0.6610 -0.6915 0.2914
vn -0.7038 -0.6869 0.1810
vn -0.6634 -0.6801 -0.3119
vn -0.6125 -0.6908 0.3843
vn -0.6610 -0.6915 0.2914
vn -0.6634 -0.6801 -0.3119
vn -0.6125 -0.6908 0.3843
vn -0.6634 -0.6801 -0.3119
vn -0.5754 -0.6868 -0.4441
vn -0.6125 -0.6908 0.3843
vn -0.5754 -0.6868 -0.4441
vn -0.4688 -0.6797 -0.5642
vn -0.3546 -0.6183 0.7014
vn -0.6125 -0.6908 0.3843
vn -0.4688 -0.6797 -0.5642
vn 0.7877 -0.5449 0.2875
vn -0.3546 -0.6183 0.7014
vn 0.4768 -0.7204 -0.5036
vn 0.4768 -0.7204 -0.5036
vn -0.3546 -0.6183 0.7014
vn 0.5410 -0.7293 -0.4188
vn 0.5410 -0.7293 -0.4188
vn -0.3546 -0.6183 0.7014
vn 0.6116 -0.7313 -0.3019
vn 0.6116 -0.7313 -0.3019
vn -0.3546 -0.6183 0.7014
vn 0.6563 -0.7419 -0.1372
vn 0.6563 -0.7419 -0.1372
vn -0.3546 -0.6183 0.7014
vn -0.4688 -0.6797 -0.5642
vn 0.6563 -0.7419 -0.1372
vn -0.4688 -0.6797 -0.5642
vn 0.6731 -0.7378 0.0499
vn 0.6731 -0.7378 0.0499
vn -0.4688 -0.6797 -0.5642
vn -0.3087 -0.6786 -0.6665
vn 0.6341 -0.7393 0.2266
vn 0.6731 -0.7378 0.0499
vn -0.3087 -0.6786 -0.6665
vn 0.5485 -0.7396 0.3902
vn 0.6341 -0.7393 0.2266
vn -0.3087 -0.6786 -0.6665
vn 0.4240 -0.7384 0.5244
vn 0.5485 -0.7396 0.3902
vn -0.3087 -0.6786 -0.6665
vn 0.4240 -0.7384 0.5244
vn -0.3087 -0.6786 -0.6665
vn -0.1320 -0.6811 -0.7202
vn 0.2698 -0.7386 0.6179
vn 0.4240 -0.7384 0.5244
vn -0.1320 -0.6811 -0.7202
vn 0.0933 -0.7395 0.6667
vn 0.2698 -0.7386 0.6179
vn -0.1320 -0.6811 -0.7202
vn 0.0933 -0.7395 0.6667
vn -0.1320 -0.6811 -0.7202
vn 0.0292 -0.6851 -0.7279
vn -0.0495 -0.7237 0.6884
vn 0.0933 -0.7395 0.6667
vn 0.0292 -0.6851 -0.7279
vn -0.0495 -0.7237 0.6884
vn 0.0292 -0.6851 -0.7279
vn 0.1695 -0.6866 -0.7070
vn -0.1571 -0.7271 0.6683
vn -0.0495 -0.7237 0.6884
vn 0.1695 -0.6866 -0.7070
vn -0.2661 -0.7254 0.6348
vn -0.1571 -0.7271 0.6683
vn 0.1695 -0.6866 -0.7070
vn -0.2661 -0.7254 0.6348
vn 0.1695 -0.6866 -0.7070
vn 0.2859 -0.6902 -0.6647
vn -0.3446 -0.7162 0.6069
vn -0.2661 -0.7254 0.6348
vn 0.2859 -0.6902 -0.6647
vn -0.3446 -0.7162 0.6069
vn 0.2859 -0.6902 -0.6647
vn 0.3708 -0.6942 -0.6170
vn -0.3923 -0.7164 0.5769
vn -0.3446 -0.7162 0.6069
vn 0.3708 -0.6942 -0.6170
vn -0.3923 -0.7164 0.5769
vn 0.3708 -0.6942 -0.6170
vn 0.4287 -0.6978 -0.5739
vn -0.4306 -0.7121 0.5545
vn -0.3923 -0.7164 0.5769
vn 0.4287 -0.6978 -0.5739
vn -0.4306 -0.7121 0.5545
vn 0.4287 -0.6978 -0.5739
vn -0.1040 -0.9702 -0.2189
vn -0.2577 -0.6391 0.7247
vn -0.4306 -0.7121 0.5545
vn -0.1040 -0.9702 -0.2189
vn -0.2577 -0.6391 0.7247
vn -0.1040 -0.9702 -0.2189
vn -0.5774 -0.5773 -0.5773
vn -0.2577 -0.6391 0.7247
vn -0.5774 -0.5773 -0.5773
vn 0.5773 -0.5774 -0.5774
vn 0.5771 -0.5773 0.5776
vn -0.2577 -0.6391 0.7247
vn 0.5773 -0.5774 -0.5774
vn 0.4287 0.6978 -0.5739
vn -0.1040 0.9702 -0.2190
vn -0.1040 -0.9702 -0.2189
vn 0.4287 -0.6978 -0.5739
vn -0.1040 0.9702 -0.2190
vn -0.5774 0.5774 -0.5774
vn -0.5774 -0.5773 -0.5773
vn -0.1040 -0.9702 -0.2189
vn -0.4688 0.6797 -0.5642
vn -0.3087 0.6785 -0.6666
vn -0.3087 -0.6786 -0.6665
vn -0.4688 -0.6797 -0.5642
vn -0.6634 0.6802 -0.3119
vn -0.5754 0.6868 -0.4441
vn -0.5754 -0.6868 -0.4441
vn -0.6634 -0.6801 -0.3119
vn -0.5754 0.6868 -0.4441
vn -0.4688 0.6797 -0.5642
vn -0.4688 -0.6797 -0.5642
vn -0.5754 -0.6868 -0.4441
vn 0.5774 0.5774 -0.5774
vn 0.5771 0.5773 0.5776
vn 0.5771 -0.5773 0.5776
vn 0.5773 -0.5774 -0.5774
vn 0.5771 0.5773 0.5776
vn -0.2577 0.6391 0.7247
vn -0.2577 -0.6391 0.7247
vn 0.5771 -0.5773 0.5776
vn -0.3087 0.6785 -0.6666
vn -0.1320 0.6812 -0.7202
vn -0.1320 -0.6811 -0.7202
vn -0.3087 -0.6786 -0.6665
vn -0.1320 0.6812 -0.7202
vn 0.0292 0.6851 -0.7279
vn 0.0292 -0.6851 -0.7279
vn -0.1320 -0.6811 -0.7202
vn 0.1695 0.6866 -0.7070
vn 0.2858 0.6903 -0.6647
vn 0.2859 -0.6902 -0.6647
vn 0.1695 -0.6866 -0.7070
vn 0.2858 0.6903 -0.6647
vn 0.3708 0.6942 -0.6169
vn 0.3708 -0.6942 -0.6170
vn 0.2859 -0.6902 -0.6647
vn 0.3708 0.6942 -0.6169
vn 0.4287 0.6978 -0.5739
vn 0.4287 -0.6978 -0.5739
vn 0.3708 -0.6942 -0.6170
vn 0.0292 0.6851 -0.7279
vn 0.1695 0.6866 -0.7070
vn 0.1695 -0.6866 -0.7070
vn 0.0292 -0.6851 -0.7279
vn 0.6343 0.7391 0.2265
vn 0.6730 0.7380 0.0500
vn 0.6731 -0.7378 0.0499
vn 0.6341 -0.7393 0.2266
vn 0.5485 0.7396 0.3902
vn 0.6343 0.7391 0.2265
vn 0.6341 -0.7393 0.2266
vn 0.5485 -0.7396 0.3902
vn 0.4240 0.7384 0.5244
vn 0.5485 0.7396 0.3902
vn 0.5485 -0.7396 0.3902
vn 0.4240 -0.7384 0.5244
vn 0.6730 0.7380 0.0500
vn 0.6563 0.7419 -0.1372
vn 0.6563 -0.7419 -0.1372
vn 0.6731 -0.7378 0.0499
vn 0.0933 0.7396 0.6666
vn 0.2698 0.7385 0.6179
vn 0.2698 -0.7386 0.6179
vn 0.0933 -0.7395 0.6667
vn 0.6563 0.7419 -0.1372
vn 0.6116 0.7313 -0.3019
vn 0.6116 -0.7313 -0.3019
vn 0.6563 -0.7419 -0.1372
vn 0.2698 0.7385 0.6179
vn 0.4240 0.7384 0.5244
vn 0.4240 -0.7384 0.5244
vn 0.2698 -0.7386 0.6179
vn -0.2661 0.7254 0.6348
vn -0.1571 0.7271 0.6683
vn -0.1571 -0.7271 0.6683
vn -0.2661 -0.7254 0.6348
vn 0.4768 0.7204 -0.5036
vn 0.7877 0.5449 0.2875
vn 0.7877 -0.5449 0.2875
vn 0.4768 -0.7204 -0.5036
vn 0.7877 0.5449 0.2875
vn -0.3547 0.6182 0.7014
vn -0.3546 -0.6183 0.7014
vn 0.7877 -0.5449 0.2875
vn -0.3547 0.6182 0.7014
vn -0.6124 0.6908 0.3843
vn -0.6125 -0.6908 0.3843
vn -0.3546 -0.6183 0.7014
vn -0.1571 0.7271 0.6683
vn -0.0495 0.7237 0.6883
vn -0.0495 -0.7237 0.6884
vn -0.1571 -0.7271 0.6683
vn 0.6116 0.7313 -0.3019
vn 0.5410 0.7293 -0.4188
vn 0.5410 -0.7293 -0.4188
vn 0.6116 -0.7313 -0.3019
vn -0.0495 0.7237 0.6883
vn 0.0933 0.7396 0.6666
vn 0.0933 -0.7395 0.6667
vn -0.0495 -0.7237 0.6884
vn 0.5410 0.7293 -0.4188
vn 0.4768 0.7204 -0.5036
vn 0.4768 -0.7204 -0.5036
vn 0.5410 -0.7293 -0.4188
vn -0.7298 0.6828 0.0347
vn -0.7200 0.6801 -0.1382
vn -0.7200 -0.6801 -0.1382
vn -0.7299 -0.6827 0.0347
vn -0.2577 0.6391 0.7247
vn -0.4306 0.7121 0.5545
vn -0.4306 -0.7121 0.5545
vn -0.2577 -0.6391 0.7247
vn -0.7200 0.6801 -0.1382
vn -0.6634 0.6802 -0.3119
vn -0.6634 -0.6801 -0.3119
vn -0.7200 -0.6801 -0.1382
vn -0.7038 0.6869 0.1811
vn -0.7298 0.6828 0.0347
vn -0.7299 -0.6827 0.0347
vn -0.7038 -0.6869 0.1810
vn -0.4306 0.7121 0.5545
vn -0.3923 0.7164 0.5769
vn -0.3923 -0.7164 0.5769
vn -0.4306 -0.7121 0.5545
vn -0.5774 0.5774 -0.5774
vn 0.5774 0.5774 -0.5774
vn 0.5773 -0.5774 -0.5774
vn -0.5774 -0.5773 -0.5773
vn -0.3446 0.7162 0.6069
vn -0.2661 0.7254 0.6348
vn -0.2661 -0.7254 0.6348
vn -0.3446 -0.7162 0.6069
vn -0.6124 0.6908 0.3843
vn -0.6610 0.6915 0.2914
vn -0.6610 -0.6915 0.2914
vn -0.6125 -0.6908 0.3843
vn -0.6610 0.6915 0.2914
vn -0.7038 0.6869 0.1811
vn -0.7038 -0.6869 0.1810
vn -0.6610 -0.6915 0.2914
vn -0.3923 0.7164 0.5769
vn -0.3446 0.7162 0.6069
vn -0.3446 -0.7162 0.6069
vn -0.3923 -0.7164 0.5769
# 368 vertex normals

vt 0.0000 1.0000 0.0000
vt 1.0000 0.0000 0.0000
vt 0.0000 0.0000 0.0000
vt 1.0000 1.0000 0.0000
# 4 texture coords

o 2
g 2
usemtl Primitive_
s 1
f 15/3/1 13/2/2 14/4/3 
f 15/3/4 12/2/5 13/4/6 
f 16/3/7 12/2/8 15/4/9 
f 17/3/10 12/2/11 16/4/12 
f 17/3/13 11/2/14 12/4/15 
f 17/3/16 10/2/17 11/4/18 
f 18/3/19 10/2/20 17/4/21 
f 19/3/22 20/2/23 18/4/24 
f 20/3/25 21/2/26 18/4/27 
f 21/3/28 22/2/29 18/4/30 
f 22/3/31 23/2/32 18/4/33 
f 23/3/34 10/2/35 18/4/36 
f 23/3/37 24/2/38 10/4/39 
f 24/3/40 9/2/41 10/4/42 
f 25/3/43 9/2/44 24/4/45 
f 26/3/46 9/2/47 25/4/48 
f 27/3/49 9/2/50 26/4/51 
f 27/3/52 8/2/53 9/4/54 
f 28/3/55 8/2/56 27/4/57 
f 29/3/58 8/2/59 28/4/60 
f 29/3/61 7/2/62 8/4/63 
f 30/3/64 7/2/65 29/4/66 
f 30/3/67 6/2/68 7/4/69 
f 31/3/70 6/2/71 30/4/72 
f 32/3/73 6/2/74 31/4/75 
f 32/3/76 5/2/77 6/4/78 
f 33/3/79 5/2/80 32/4/81 
f 33/3/82 4/2/83 5/4/84 
f 34/3/85 4/2/86 33/4/87 
f 34/3/88 3/2/89 4/4/90 
f 35/3/91 3/2/92 34/4/93 
f 35/3/94 2/2/95 3/4/96 
f 36/3/97 2/2/98 35/4/99 
f 36/3/100 1/2/101 2/4/102 
f 36/3/103 38/2/104 1/4/105 
f 37/3/106 38/2/107 36/4/108 
s off
f 53/3/109 52/2/110 51/4/111 
f 53/3/112 51/2/113 50/4/114 
f 54/3/115 53/2/116 50/4/117 
f 55/3/118 54/2/119 50/4/120 
f 55/3/121 50/2/122 49/4/123 
f 55/3/124 49/2/125 48/4/126 
f 56/3/127 55/2/128 48/4/129 
s 1
f 57/3/130 56/2/131 58/4/132 
f 58/3/133 56/2/134 59/4/135 
f 59/3/136 56/2/137 60/4/138 
f 60/3/139 56/2/140 61/4/141 
s off
f 61/3/142 56/2/143 48/4/144 
f 61/3/145 48/2/146 62/4/147 
f 62/3/148 48/2/149 47/4/150 
f 63/3/151 62/2/152 47/4/153 
s 1
f 64/3/154 63/2/155 47/4/156 
f 65/3/157 64/2/158 47/4/159 
f 65/3/160 47/2/161 46/4/162 
f 66/3/163 65/2/164 46/4/165 
f 67/3/166 66/2/167 46/4/168 
f 67/3/169 46/2/170 45/4/171 
s off
f 68/3/172 67/2/173 45/4/174 
f 68/3/175 45/2/176 44/4/177 
f 69/3/178 68/2/179 44/4/180 
s 1
f 70/3/181 69/2/182 44/4/183 
f 70/3/184 44/2/185 43/4/186 
f 71/3/187 70/2/188 43/4/189 
f 71/3/190 43/2/191 42/4/192 
f 72/3/193 71/2/194 42/4/195 
f 72/3/196 42/2/197 41/4/198 
s off
f 73/3/199 72/2/200 41/4/201 
f 73/3/202 41/2/203 40/4/204 
f 74/3/205 73/2/206 40/4/207 
f 74/3/208 40/2/209 39/4/210 
f 74/3/211 39/2/212 76/4/213 
f 75/3/214 74/2/215 76/4/216 
f 3/3/217 2/2/218 40/4/219 41/1/220 
f 2/3/221 1/2/222 39/4/223 40/1/224 
f 10/3/225 9/2/226 47/4/227 48/1/228 
f 12/3/229 11/2/230 49/4/231 50/1/232 
f 11/3/233 10/2/234 48/4/235 49/1/236 
f 38/3/237 37/2/238 75/4/239 76/1/240 
f 37/3/241 36/2/242 74/4/243 75/1/244 
f 9/3/245 8/2/246 46/4/247 47/1/248 
f 8/3/249 7/2/250 45/4/251 46/1/252 
f 6/3/253 5/2/254 43/4/255 44/1/256 
f 5/3/257 4/2/258 42/4/259 43/1/260 
f 4/3/261 3/2/262 41/4/263 42/1/264 
f 7/3/265 6/2/266 44/4/267 45/1/268 
f 25/3/269 24/2/270 62/4/271 63/1/272 
f 26/3/273 25/2/274 63/4/275 64/1/276 
f 27/3/277 26/2/278 64/4/279 65/1/280 
f 24/3/281 23/2/282 61/4/283 62/1/284 
f 29/3/285 28/2/286 66/4/287 67/1/288 
f 23/3/289 22/2/290 60/4/291 61/1/292 
f 28/3/293 27/2/294 65/4/295 66/1/296 
f 32/3/297 31/2/298 69/4/299 70/1/300 
f 20/3/301 19/2/302 57/4/303 58/1/304 
f 19/3/305 18/2/306 56/4/307 57/1/308 
f 18/3/309 17/2/310 55/4/311 56/1/312 
f 31/3/313 30/2/314 68/4/315 69/1/316 
f 22/3/317 21/2/318 59/4/319 60/1/320 
f 30/3/321 29/2/322 67/4/323 68/1/324 
f 21/3/325 20/2/326 58/4/327 59/1/328 
f 14/3/329 13/2/330 51/4/331 52/1/332 
f 36/3/333 35/2/334 73/4/335 74/1/336 
f 13/3/337 12/2/338 50/4/339 51/1/340 
f 15/3/341 14/2/342 52/4/343 53/1/344 
f 35/3/345 34/2/346 72/4/347 73/1/348 
f 1/3/349 38/2/350 76/4/351 39/1/352 
f 33/3/353 32/2/354 70/4/355 71/1/356 
f 17/3/357 16/2/358 54/4/359 55/1/360 
f 16/3/361 15/2/362 53/4/363 54/1/364 
f 34/3/365 33/2/366 71/4/367 72/1/368 
# 38 polygons - 72 triangles

