# 3ds Max Wavefront OBJ Exporter v0.97b - (c)2007 guruware
# File Created: 17.06.2020 12:22:31

mtllib 4.mtl

#
# object 4
#

v  -345.5000 40.0000 -157.0000
v  -345.5000 40.0000 -114.9999
v  76.5000 40.0000 229.9999
v  121.5000 40.0000 229.9999
v  121.5000 40.0000 -59.0000
v  345.5000 40.0000 -59.0000
v  345.5000 40.0000 -157.0000
v  121.5000 40.0000 -157.0000
v  121.5000 40.0000 -230.0000
v  33.5000 40.0000 -230.0000
v  33.5000 40.0000 -157.0000
v  -160.7710 40.0000 -58.3265
v  33.5000 40.0000 -59.0000
v  33.5000 40.0000 99.0001
v  -345.5000 -39.9975 -157.0000
v  -345.5000 -40.0000 -115.0000
v  76.5000 -40.0000 229.9999
v  121.5000 -40.0000 229.9999
v  121.5000 -40.0000 -59.0000
v  345.5000 -40.0000 -59.0000
v  345.5000 -40.0000 -157.0000
v  121.5000 -40.0000 -157.0000
v  121.5000 -40.0000 -230.0000
v  33.5000 -40.0000 -230.0000
v  33.5000 -40.0000 -157.0000
v  -160.7710 -40.0000 -58.3265
v  33.5000 -40.0000 -59.0000
v  33.5000 -40.0000 99.0000
# 28 vertices

vn -0.2585 0.6387 0.7247
vn -0.5774 0.5774 -0.5774
vn -0.7074 0.6222 0.3354
vn -0.2585 0.6387 0.7247
vn 0.1745 0.9827 0.0614
vn -0.5774 0.5774 -0.5774
vn 0.1745 0.9827 0.0614
vn -0.3015 0.9045 -0.3015
vn -0.5774 0.5774 -0.5774
vn -0.2585 0.6387 0.7247
vn -0.1047 0.9700 -0.2195
vn 0.1745 0.9827 0.0614
vn -0.3004 0.9049 0.3014
vn -0.3015 0.9045 -0.3015
vn 0.1745 0.9827 0.0614
vn -0.2585 0.6387 0.7247
vn -0.3004 0.9049 0.3014
vn -0.1047 0.9700 -0.2195
vn -0.2585 0.6387 0.7247
vn -0.3015 0.9045 -0.3015
vn -0.3004 0.9049 0.3014
vn -0.2585 0.6387 0.7247
vn -0.5774 0.5774 -0.5774
vn -0.3015 0.9045 -0.3015
vn -0.2585 0.6387 0.7247
vn 0.5774 0.5774 -0.5774
vn -0.5774 0.5774 -0.5774
vn 0.5774 0.5774 0.5774
vn 0.5774 0.5774 -0.5774
vn -0.2585 0.6387 0.7247
vn -0.5774 0.5774 0.5774
vn 0.5774 0.5774 -0.5774
vn 0.5774 0.5774 0.5774
vn 0.5774 0.5774 0.5774
vn 0.9045 0.3015 -0.3015
vn -0.5774 0.5774 0.5774
vn 0.9045 0.3015 -0.3015
vn 0.5774 0.5774 -0.5774
vn -0.5774 0.5774 0.5774
vn 0.5774 0.5774 0.5774
vn 0.5774 0.5774 -0.5774
vn 0.9045 0.3015 -0.3015
vn -0.2585 -0.6387 0.7247
vn -0.7074 -0.6222 0.3354
vn -0.5773 -0.5773 -0.5774
vn -0.2585 -0.6387 0.7247
vn -0.5773 -0.5773 -0.5774
vn 0.1745 -0.9827 0.0615
vn 0.1745 -0.9827 0.0615
vn -0.5773 -0.5773 -0.5774
vn -0.3015 -0.9045 -0.3015
vn -0.2585 -0.6387 0.7247
vn 0.1745 -0.9827 0.0615
vn -0.1047 -0.9700 -0.2195
vn -0.3004 -0.9049 0.3014
vn 0.1745 -0.9827 0.0615
vn -0.3015 -0.9045 -0.3015
vn -0.2585 -0.6387 0.7247
vn -0.1047 -0.9700 -0.2195
vn -0.3004 -0.9049 0.3014
vn -0.2585 -0.6387 0.7247
vn -0.3004 -0.9049 0.3014
vn -0.3015 -0.9045 -0.3015
vn -0.2585 -0.6387 0.7247
vn -0.3015 -0.9045 -0.3015
vn -0.5774 -0.5774 -0.5774
vn -0.2585 -0.6387 0.7247
vn -0.5774 -0.5774 -0.5774
vn 0.5774 -0.5774 -0.5774
vn 0.5774 -0.5774 0.5774
vn -0.2585 -0.6387 0.7247
vn 0.5774 -0.5774 -0.5774
vn 0.9045 -0.3015 0.3015
vn 0.5774 -0.5774 0.5774
vn 0.5774 -0.5774 -0.5774
vn 0.5774 -0.5774 0.5774
vn 0.9045 -0.3015 0.3015
vn -0.5774 -0.5774 -0.5774
vn -0.5774 -0.5774 -0.5774
vn 0.9045 -0.3015 0.3015
vn 0.5774 -0.5774 -0.5774
vn 0.5774 -0.5774 0.5774
vn -0.5774 -0.5774 -0.5774
vn 0.5774 -0.5774 -0.5774
vn -0.1047 0.9700 -0.2195
vn -0.3004 0.9049 0.3014
vn -0.3004 -0.9049 0.3014
vn -0.1047 -0.9700 -0.2195
vn -0.3004 0.9049 0.3014
vn 0.1745 0.9827 0.0614
vn 0.1745 -0.9827 0.0615
vn -0.3004 -0.9049 0.3014
vn 0.1745 0.9827 0.0614
vn -0.1047 0.9700 -0.2195
vn -0.1047 -0.9700 -0.2195
vn 0.1745 -0.9827 0.0615
vn -0.3015 0.9045 -0.3015
vn -0.5774 0.5774 -0.5774
vn -0.5774 -0.5774 -0.5774
vn -0.3015 -0.9045 -0.3015
vn 0.5774 0.5774 0.5774
vn -0.5774 0.5774 0.5774
vn 0.9045 -0.3015 0.3015
vn 0.5774 -0.5774 0.5774
vn -0.5774 0.5774 0.5774
vn 0.5774 0.5774 0.5774
vn 0.5774 -0.5774 0.5774
vn 0.9045 -0.3015 0.3015
vn 0.9045 0.3015 -0.3015
vn 0.5774 0.5774 -0.5774
vn 0.5774 -0.5774 -0.5774
vn -0.5774 -0.5774 -0.5774
vn -0.2585 0.6387 0.7247
vn -0.7074 0.6222 0.3354
vn -0.7074 -0.6222 0.3354
vn -0.2585 -0.6387 0.7247
vn -0.5774 0.5774 -0.5774
vn 0.5774 0.5774 -0.5774
vn 0.5774 -0.5774 -0.5774
vn -0.5774 -0.5774 -0.5774
vn 0.5774 0.5774 -0.5774
vn 0.9045 0.3015 -0.3015
vn -0.5774 -0.5774 -0.5774
vn 0.5774 -0.5774 -0.5774
vn 0.5774 0.5774 0.5774
vn -0.2585 0.6387 0.7247
vn -0.2585 -0.6387 0.7247
vn 0.5774 -0.5774 0.5774
vn 0.5774 0.5774 -0.5774
vn 0.5774 0.5774 0.5774
vn 0.5774 -0.5774 0.5774
vn 0.5774 -0.5774 -0.5774
vn -0.5774 0.5774 -0.5774
vn -0.3015 0.9045 -0.3015
vn -0.3015 -0.9045 -0.3015
vn -0.5773 -0.5773 -0.5774
vn -0.7074 0.6222 0.3354
vn -0.5774 0.5774 -0.5774
vn -0.5773 -0.5773 -0.5774
vn -0.7074 -0.6222 0.3354
# 140 vertex normals

vt 0.0000 1.0000 0.0000
vt 1.0000 0.0000 0.0000
vt 0.0000 0.0000 0.0000
vt 1.0000 1.0000 0.0000
# 4 texture coords

o 4
g 4
usemtl Primitive_
s 1
f 3/3/1 1/2/2 2/4/3 
f 3/3/4 12/2/5 1/4/6 
f 12/3/7 11/2/8 1/4/9 
f 3/3/10 14/2/11 12/4/12 
f 13/3/13 11/2/14 12/4/15 
f 3/3/16 13/2/17 14/4/18 
f 3/3/19 11/2/20 13/4/21 
f 3/3/22 10/2/23 11/4/24 
f 3/3/25 9/2/26 10/4/27 
f 4/3/28 9/2/29 3/4/30 
f 5/3/31 9/2/32 4/4/33 
f 6/3/34 8/2/35 5/4/36 
s off
f 8/3/37 9/2/38 5/4/39 
s 1
f 6/3/40 7/2/41 8/4/42 
s off
f 17/3/43 16/2/44 15/4/45 
f 17/3/46 15/2/47 26/4/48 
f 26/3/49 15/2/50 25/4/51 
s 1
f 17/3/52 26/2/53 28/4/54 
f 27/3/55 26/2/56 25/4/57 
f 17/3/58 28/2/59 27/4/60 
f 17/3/61 27/2/62 25/4/63 
f 17/3/64 25/2/65 24/4/66 
f 17/3/67 24/2/68 23/4/69 
f 18/3/70 17/2/71 23/4/72 
f 19/3/73 18/2/74 23/4/75 
f 20/3/76 19/2/77 22/4/78 
s off
f 22/3/79 19/2/80 23/4/81 
s 1
f 20/3/82 22/2/83 21/4/84 
s off
f 14/3/85 13/2/86 27/4/87 28/1/88 
f 13/3/89 12/2/90 26/4/91 27/1/92 
f 12/3/93 14/2/94 28/4/95 26/1/96 
f 11/3/97 10/2/98 24/4/99 25/1/100 
f 6/3/101 5/2/102 19/4/103 20/1/104 
f 5/3/105 4/2/106 18/4/107 19/1/108 
f 8/3/109 7/2/110 21/4/111 22/1/112 
f 3/3/113 2/2/114 16/4/115 17/1/116 
f 10/3/117 9/2/118 23/4/119 24/1/120 
f 9/3/121 8/2/122 22/4/123 23/1/124 
f 4/3/125 3/2/126 17/4/127 18/1/128 
f 7/3/129 6/2/130 20/4/131 21/1/132 
f 1/3/133 11/2/134 25/4/135 15/1/136 
f 2/3/137 1/2/138 15/4/139 16/1/140 
# 14 polygons - 28 triangles

