# 3ds Max Wavefront OBJ Exporter v0.97b - (c)2007 guruware
# File Created: 17.06.2020 12:22:32

mtllib 9.mtl

#
# object 9
#

v  350.0117 40.0000 61.4905
v  310.1763 40.0000 4.1379
v  244.6846 40.0000 -65.1646
v  169.5151 40.0000 -123.4475
v  87.9028 40.0000 -168.7278
v  3.1084 40.0000 -199.0632
v  -80.7500 40.0000 -212.4905
v  -153.1216 40.0000 -208.7654
v  -215.4663 40.0000 -190.9731
v  -268.2358 40.0000 -160.7166
v  -309.4863 40.0000 -119.6118
v  -337.3379 40.0000 -69.2859
v  -347.8198 40.0000 -26.2480
v  -350.0117 40.0000 19.7969
v  -338.2676 40.0000 77.1389
v  -313.2354 40.0000 125.6843
v  -277.5620 40.0000 164.6528
v  -234.0210 40.0000 192.8696
v  -185.5044 40.0000 209.1675
v  -147.9883 40.0000 212.4905
v  -107.5620 40.0000 209.0574
v  -58.2158 40.0000 192.7256
v  -15.8271 40.0000 165.1731
v  9.8804 40.0000 138.0266
v  30.6064 40.0000 106.6340
v  47.4658 40.0000 58.7588
v  50.9082 40.0000 4.4504
v  39.5000 40.0000 -49.9302
v  21.8745 40.0000 -87.2002
v  76.1841 40.0000 -68.0903
v  120.6592 40.0000 -43.1780
v  164.8433 40.0000 -9.9226
v  207.9004 40.0000 31.2686
v  249.0200 40.0000 79.9980
v  278.0117 40.0000 121.4905
v  -141.3174 40.0000 114.4390
v  -171.8604 40.0000 112.5613
v  -198.9780 40.0000 103.4165
v  -221.8018 40.0000 87.8596
v  -239.5811 40.0000 66.6843
v  -251.5591 40.0000 40.6904
v  -257.0605 40.0000 9.8506
v  -254.7231 40.0000 -20.3594
v  -243.9648 40.0000 -48.5271
v  -225.9619 40.0000 -72.8765
v  -202.0454 40.0000 -92.2427
v  -173.6035 40.0000 -105.4854
v  -143.1899 40.0000 -111.4453
v  -107.6655 40.0000 -110.9490
v  -78.3247 40.0000 -106.4902
v  -55.6191 40.0000 -64.8870
v  -44.5742 40.0000 -28.9597
v  -41.9346 40.0000 -3.9968
v  -43.9189 40.0000 21.8191
v  -53.1035 40.0000 50.5081
v  -68.5444 40.0000 75.2715
v  -89.1890 40.0000 94.9373
v  -113.9531 40.0000 108.3708
v  350.0117 -40.0000 61.4905
v  310.1763 -40.0000 4.1379
v  244.6846 -40.0000 -65.1646
v  169.5151 -40.0000 -123.4475
v  87.9028 -40.0000 -168.7278
v  3.1084 -40.0000 -199.0632
v  -80.7500 -40.0000 -212.4905
v  -153.1216 -40.0000 -208.7654
v  -215.4663 -40.0000 -190.9731
v  -268.2358 -40.0000 -160.7166
v  -309.4863 -40.0000 -119.6118
v  -337.3379 -40.0000 -69.2859
v  -347.8198 -39.9976 -26.2480
v  -350.0117 -39.9976 19.7969
v  -338.2676 -40.0000 77.1389
v  -313.2354 -40.0000 125.6843
v  -277.5620 -40.0000 164.6528
v  -234.0210 -40.0000 192.8696
v  -185.5044 -40.0000 209.1675
v  -147.9883 -40.0000 212.4905
v  -107.5620 -40.0000 209.0574
v  -58.2158 -40.0000 192.7256
v  -15.8271 -40.0000 165.1731
v  9.8804 -40.0000 138.0266
v  30.6064 -40.0000 106.6340
v  47.4658 -40.0000 58.7588
v  50.9082 -40.0000 4.4502
v  39.5000 -40.0000 -49.9302
v  21.8745 -40.0000 -87.2002
v  76.1841 -39.9975 -68.0903
v  120.6592 -39.9976 -43.1780
v  164.8433 -40.0000 -9.9226
v  207.9004 -40.0000 31.2686
v  249.0200 -40.0000 79.9980
v  278.0117 -40.0000 121.4905
v  -141.3174 -40.0000 114.4390
v  -171.8604 -40.0000 112.5613
v  -198.9780 -40.0000 103.4165
v  -221.8018 -40.0000 87.8596
v  -239.5811 -40.0000 66.6843
v  -251.5591 -40.0000 40.6904
v  -257.0605 -40.0000 9.8506
v  -254.7231 -40.0000 -20.3596
v  -243.9648 -40.0000 -48.5273
v  -225.9619 -40.0000 -72.8765
v  -202.0454 -40.0000 -92.2427
v  -173.6035 -40.0000 -105.4854
v  -143.1899 -40.0000 -111.4453
v  -107.6655 -40.0000 -110.9490
v  -78.3247 -40.0000 -106.4902
v  -55.6191 -40.0000 -64.8870
v  -44.5742 -40.0000 -28.9597
v  -41.9346 -39.9976 -3.9968
v  -43.9189 -40.0000 21.8191
v  -53.1035 -40.0000 50.5081
v  -68.5444 -40.0000 75.2715
v  -89.1890 -40.0000 94.9373
v  -113.9531 -40.0000 108.3708
# 116 vertices

vn -0.6936 0.6776 0.2446
vn -0.7200 0.6862 -0.1038
vn -0.7309 0.6801 0.0566
vn -0.6936 0.6776 0.2446
vn -0.6844 0.6784 -0.2672
vn -0.7200 0.6862 -0.1038
vn -0.6026 0.6785 0.4200
vn -0.6844 0.6784 -0.2672
vn -0.6936 0.6776 0.2446
vn -0.6026 0.6785 0.4200
vn -0.5877 0.6768 -0.4433
vn -0.6844 0.6784 -0.2672
vn -0.4738 0.6797 0.5600
vn -0.5877 0.6768 -0.4433
vn -0.6026 0.6785 0.4200
vn -0.4738 0.6797 0.5600
vn -0.4457 0.6787 -0.5837
vn -0.5877 0.6768 -0.4433
vn -0.3186 0.6800 0.6604
vn 0.6753 0.7368 -0.0336
vn -0.4738 0.6797 0.5600
vn 0.6753 0.7368 -0.0336
vn -0.4457 0.6787 -0.5837
vn -0.4738 0.6797 0.5600
vn 0.6553 0.7408 0.1473
vn -0.4457 0.6787 -0.5837
vn 0.6753 0.7368 -0.0336
vn -0.3186 0.6800 0.6604
vn 0.6450 0.7369 -0.2025
vn 0.6753 0.7368 -0.0336
vn 0.6553 0.7408 0.1473
vn -0.2848 0.6808 -0.6748
vn -0.4457 0.6787 -0.5837
vn 0.5911 0.7389 0.3235
vn -0.2848 0.6808 -0.6748
vn 0.6553 0.7408 0.1473
vn -0.3186 0.6800 0.6604
vn 0.5696 0.7383 -0.3612
vn 0.6450 0.7369 -0.2025
vn 0.4886 0.7367 0.4675
vn -0.2848 0.6808 -0.6748
vn 0.5911 0.7389 0.3235
vn -0.3186 0.6800 0.6604
vn 0.4518 0.7392 -0.4995
vn 0.5696 0.7383 -0.3612
vn -0.1498 0.6816 0.7162
vn 0.4518 0.7392 -0.4995
vn -0.3186 0.6800 0.6604
vn 0.3588 0.7357 0.5745
vn -0.2848 0.6808 -0.6748
vn 0.4886 0.7367 0.4675
vn -0.1498 0.6816 0.7162
vn 0.3001 0.7391 -0.6031
vn 0.4518 0.7392 -0.4995
vn 0.3588 0.7357 0.5745
vn -0.1198 0.6826 -0.7209
vn -0.2848 0.6808 -0.6748
vn 0.2097 0.7353 0.6444
vn -0.1198 0.6826 -0.7209
vn 0.3588 0.7357 0.5745
vn -0.1498 0.6816 0.7162
vn 0.1297 0.7379 -0.6623
vn 0.3001 0.7391 -0.6031
vn -0.0013 0.6882 0.7255
vn 0.1297 0.7379 -0.6623
vn -0.1498 0.6816 0.7162
vn 0.0612 0.7312 0.6794
vn -0.1198 0.6826 -0.7209
vn 0.2097 0.7353 0.6444
vn -0.0013 0.6882 0.7255
vn -0.0527 0.7399 -0.6707
vn 0.1297 0.7379 -0.6623
vn 0.1469 0.6816 0.7168
vn -0.0527 0.7399 -0.6707
vn -0.0013 0.6882 0.7255
vn 0.0612 0.7312 0.6794
vn 0.0391 0.6843 -0.7282
vn -0.1198 0.6826 -0.7209
vn 0.1469 0.6816 0.7168
vn -0.2355 0.7398 -0.6303
vn -0.0527 0.7399 -0.6707
vn -0.0569 0.7228 0.6887
vn 0.0391 0.6843 -0.7282
vn 0.0612 0.7312 0.6794
vn 0.1469 0.6816 0.7168
vn -0.3971 0.7380 -0.5456
vn -0.2355 0.7398 -0.6303
vn -0.3268 0.8219 0.4665
vn 0.0391 0.6843 -0.7282
vn -0.0569 0.7228 0.6887
vn 0.3178 0.6794 0.6613
vn -0.3971 0.7380 -0.5456
vn 0.1469 0.6816 0.7168
vn 0.3178 0.6794 0.6613
vn -0.5245 0.7365 -0.4272
vn -0.3971 0.7380 -0.5456
vn -0.6293 0.7304 0.2653
vn 0.0391 0.6843 -0.7282
vn -0.3268 0.8219 0.4665
vn 0.3178 0.6794 0.6613
vn -0.6143 0.7360 -0.2845
vn -0.5245 0.7365 -0.4272
vn -0.6293 0.7304 0.2653
vn 0.1806 0.6870 -0.7039
vn 0.0391 0.6843 -0.7282
vn -0.6702 0.7294 0.1371
vn 0.1806 0.6870 -0.7039
vn -0.6293 0.7304 0.2653
vn 0.3178 0.6794 0.6613
vn -0.6662 0.7342 -0.1304
vn -0.6143 0.7360 -0.2845
vn 0.4684 0.6815 0.5623
vn -0.6662 0.7342 -0.1304
vn 0.3178 0.6794 0.6613
vn 0.4684 0.6815 0.5623
vn -0.6853 0.7282 0.0098
vn -0.6662 0.7342 -0.1304
vn -0.6853 0.7282 0.0098
vn 0.1806 0.6870 -0.7039
vn -0.6702 0.7294 0.1371
vn 0.4684 0.6815 0.5623
vn 0.1806 0.6870 -0.7039
vn -0.6853 0.7282 0.0098
vn 0.5684 0.6880 0.4511
vn 0.1806 0.6870 -0.7039
vn 0.4684 0.6815 0.5623
vn 0.6561 0.6806 0.3259
vn 0.1597 0.9766 0.1441
vn 0.5684 0.6880 0.4511
vn 0.1597 0.9766 0.1441
vn 0.1806 0.6870 -0.7039
vn 0.5684 0.6880 0.4511
vn 0.1597 0.9766 0.1441
vn 0.2988 0.6892 -0.6601
vn 0.1806 0.6870 -0.7039
vn 0.6561 0.6806 0.3259
vn 0.6936 0.6816 -0.2331
vn 0.1597 0.9766 0.1441
vn 0.7207 0.6775 0.1468
vn 0.6936 0.6816 -0.2331
vn 0.6561 0.6806 0.3259
vn -0.2828 0.7270 0.6257
vn 0.2988 0.6892 -0.6601
vn 0.1597 0.9766 0.1441
vn 0.7207 0.6775 0.1468
vn 0.7332 0.6780 -0.0527
vn 0.6936 0.6816 -0.2331
vn -0.3776 0.7226 0.5790
vn 0.2988 0.6892 -0.6601
vn -0.2828 0.7270 0.6257
vn -0.3776 0.7226 0.5790
vn 0.3983 0.6903 -0.6040
vn 0.2988 0.6892 -0.6601
vn -0.4489 0.7206 0.5284
vn 0.3983 0.6903 -0.6040
vn -0.3776 0.7226 0.5790
vn -0.5063 0.7193 0.4757
vn 0.3983 0.6903 -0.6040
vn -0.4489 0.7206 0.5284
vn -0.5063 0.7193 0.4757
vn 0.4861 0.6902 -0.5360
vn 0.3983 0.6903 -0.6040
vn -0.5522 0.7175 0.4245
vn 0.4861 0.6902 -0.5360
vn -0.5063 0.7193 0.4757
vn -0.1088 0.5730 0.8123
vn 0.4861 0.6902 -0.5360
vn -0.5522 0.7175 0.4245
vn -0.1088 0.5730 0.8123
vn 0.5614 0.6907 -0.4559
vn 0.4861 0.6902 -0.5360
vn 0.8058 0.5821 0.1090
vn 0.5614 0.6907 -0.4559
vn -0.1088 0.5730 0.8123
vn -0.6935 -0.6776 0.2446
vn -0.7310 -0.6800 0.0566
vn -0.7201 -0.6861 -0.1038
vn -0.6935 -0.6776 0.2446
vn -0.7201 -0.6861 -0.1038
vn -0.6844 -0.6784 -0.2672
vn -0.6026 -0.6785 0.4200
vn -0.6935 -0.6776 0.2446
vn -0.6844 -0.6784 -0.2672
vn -0.6026 -0.6785 0.4200
vn -0.6844 -0.6784 -0.2672
vn -0.5877 -0.6768 -0.4433
vn -0.4739 -0.6796 0.5600
vn -0.6026 -0.6785 0.4200
vn -0.5877 -0.6768 -0.4433
vn -0.4739 -0.6796 0.5600
vn -0.5877 -0.6768 -0.4433
vn -0.4457 -0.6787 -0.5837
vn -0.3186 -0.6800 0.6603
vn -0.4739 -0.6796 0.5600
vn 0.6754 -0.7367 -0.0336
vn 0.6754 -0.7367 -0.0336
vn -0.4739 -0.6796 0.5600
vn -0.4457 -0.6787 -0.5837
vn 0.6553 -0.7409 0.1473
vn 0.6754 -0.7367 -0.0336
vn -0.4457 -0.6787 -0.5837
vn -0.3186 -0.6800 0.6603
vn 0.6754 -0.7367 -0.0336
vn 0.6449 -0.7369 -0.2025
vn 0.6553 -0.7409 0.1473
vn -0.4457 -0.6787 -0.5837
vn -0.2847 -0.6809 -0.6748
vn 0.5911 -0.7389 0.3235
vn 0.6553 -0.7409 0.1473
vn -0.2847 -0.6809 -0.6748
vn -0.3186 -0.6800 0.6603
vn 0.6449 -0.7369 -0.2025
vn 0.5697 -0.7382 -0.3612
vn 0.4886 -0.7367 0.4675
vn 0.5911 -0.7389 0.3235
vn -0.2847 -0.6809 -0.6748
vn -0.3186 -0.6800 0.6603
vn 0.5697 -0.7382 -0.3612
vn 0.4518 -0.7392 -0.4995
vn -0.1498 -0.6816 0.7162
vn -0.3186 -0.6800 0.6603
vn 0.4518 -0.7392 -0.4995
vn 0.3588 -0.7357 0.5745
vn 0.4886 -0.7367 0.4675
vn -0.2847 -0.6809 -0.6748
vn -0.1498 -0.6816 0.7162
vn 0.4518 -0.7392 -0.4995
vn 0.3001 -0.7391 -0.6031
vn 0.3588 -0.7357 0.5745
vn -0.2847 -0.6809 -0.6748
vn -0.1199 -0.6825 -0.7210
vn 0.2097 -0.7353 0.6444
vn 0.3588 -0.7357 0.5745
vn -0.1199 -0.6825 -0.7210
vn -0.1498 -0.6816 0.7162
vn 0.3001 -0.7391 -0.6031
vn 0.1297 -0.7379 -0.6623
vn -0.0013 -0.6882 0.7255
vn -0.1498 -0.6816 0.7162
vn 0.1297 -0.7379 -0.6623
vn 0.0612 -0.7312 0.6794
vn 0.2097 -0.7353 0.6444
vn -0.1199 -0.6825 -0.7210
vn -0.0013 -0.6882 0.7255
vn 0.1297 -0.7379 -0.6623
vn -0.0527 -0.7399 -0.6707
vn 0.1469 -0.6817 0.7167
vn -0.0013 -0.6882 0.7255
vn -0.0527 -0.7399 -0.6707
vn 0.0612 -0.7312 0.6794
vn -0.1199 -0.6825 -0.7210
vn 0.0391 -0.6843 -0.7282
vn 0.1469 -0.6817 0.7167
vn -0.0527 -0.7399 -0.6707
vn -0.2355 -0.7398 -0.6303
vn -0.0569 -0.7228 0.6887
vn 0.0612 -0.7312 0.6794
vn 0.0391 -0.6843 -0.7282
vn 0.1469 -0.6817 0.7167
vn -0.2355 -0.7398 -0.6303
vn -0.3971 -0.7380 -0.5456
vn -0.3268 -0.8219 0.4665
vn -0.0569 -0.7228 0.6887
vn 0.0391 -0.6843 -0.7282
vn 0.3178 -0.6794 0.6614
vn 0.1469 -0.6817 0.7167
vn -0.3971 -0.7380 -0.5456
vn 0.3178 -0.6794 0.6614
vn -0.3971 -0.7380 -0.5456
vn -0.5244 -0.7366 -0.4272
vn -0.6293 -0.7304 0.2653
vn -0.3268 -0.8219 0.4665
vn 0.0391 -0.6843 -0.7282
vn 0.3178 -0.6794 0.6614
vn -0.5244 -0.7366 -0.4272
vn -0.6143 -0.7360 -0.2845
vn -0.6293 -0.7304 0.2653
vn 0.0391 -0.6843 -0.7282
vn 0.1806 -0.6870 -0.7039
vn -0.6701 -0.7295 0.1372
vn -0.6293 -0.7304 0.2653
vn 0.1806 -0.6870 -0.7039
vn 0.3178 -0.6794 0.6614
vn -0.6143 -0.7360 -0.2845
vn -0.6661 -0.7343 -0.1305
vn 0.4684 -0.6815 0.5623
vn 0.3178 -0.6794 0.6614
vn -0.6661 -0.7343 -0.1305
vn 0.4684 -0.6815 0.5623
vn -0.6661 -0.7343 -0.1305
vn -0.6853 -0.7281 0.0098
vn -0.6853 -0.7281 0.0098
vn -0.6701 -0.7295 0.1372
vn 0.1806 -0.6870 -0.7039
vn 0.4684 -0.6815 0.5623
vn -0.6853 -0.7281 0.0098
vn 0.1806 -0.6870 -0.7039
vn 0.5684 -0.6880 0.4511
vn 0.4684 -0.6815 0.5623
vn 0.1806 -0.6870 -0.7039
vn 0.6561 -0.6806 0.3259
vn 0.5684 -0.6880 0.4511
vn 0.1598 -0.9766 0.1440
vn 0.1598 -0.9766 0.1440
vn 0.5684 -0.6880 0.4511
vn 0.1806 -0.6870 -0.7039
vn 0.1598 -0.9766 0.1440
vn 0.1806 -0.6870 -0.7039
vn 0.2988 -0.6892 -0.6601
vn 0.6561 -0.6806 0.3259
vn 0.1598 -0.9766 0.1440
vn 0.6935 -0.6817 -0.2331
vn 0.7207 -0.6775 0.1468
vn 0.6561 -0.6806 0.3259
vn 0.6935 -0.6817 -0.2331
vn -0.2828 -0.7270 0.6257
vn 0.1598 -0.9766 0.1440
vn 0.2988 -0.6892 -0.6601
vn 0.7207 -0.6775 0.1468
vn 0.6935 -0.6817 -0.2331
vn 0.7332 -0.6780 -0.0527
vn -0.3777 -0.7225 0.5791
vn -0.2828 -0.7270 0.6257
vn 0.2988 -0.6892 -0.6601
vn -0.3777 -0.7225 0.5791
vn 0.2988 -0.6892 -0.6601
vn 0.3983 -0.6903 -0.6040
vn -0.4489 -0.7207 0.5284
vn -0.3777 -0.7225 0.5791
vn 0.3983 -0.6903 -0.6040
vn -0.5063 -0.7193 0.4757
vn -0.4489 -0.7207 0.5284
vn 0.3983 -0.6903 -0.6040
vn -0.5063 -0.7193 0.4757
vn 0.3983 -0.6903 -0.6040
vn 0.4861 -0.6902 -0.5360
vn -0.5522 -0.7175 0.4245
vn -0.5063 -0.7193 0.4757
vn 0.4861 -0.6902 -0.5360
vn -0.1088 -0.5730 0.8123
vn -0.5522 -0.7175 0.4245
vn 0.4861 -0.6902 -0.5360
vn -0.1088 -0.5730 0.8123
vn 0.4861 -0.6902 -0.5360
vn 0.5614 -0.6906 -0.4560
vn 0.8057 -0.5821 0.1091
vn -0.1088 -0.5730 0.8123
vn 0.5614 -0.6906 -0.4560
vn 0.6553 0.7408 0.1473
vn 0.6753 0.7368 -0.0336
vn 0.6754 -0.7367 -0.0336
vn 0.6553 -0.7409 0.1473
vn 0.5696 0.7383 -0.3612
vn 0.4518 0.7392 -0.4995
vn 0.4518 -0.7392 -0.4995
vn 0.5697 -0.7382 -0.3612
vn 0.4518 0.7392 -0.4995
vn 0.3001 0.7391 -0.6031
vn 0.3001 -0.7391 -0.6031
vn 0.4518 -0.7392 -0.4995
vn 0.4886 0.7367 0.4675
vn 0.5911 0.7389 0.3235
vn 0.5911 -0.7389 0.3235
vn 0.4886 -0.7367 0.4675
vn 0.3001 0.7391 -0.6031
vn 0.1297 0.7379 -0.6623
vn 0.1297 -0.7379 -0.6623
vn 0.3001 -0.7391 -0.6031
vn 0.5911 0.7389 0.3235
vn 0.6553 0.7408 0.1473
vn 0.6553 -0.7409 0.1473
vn 0.5911 -0.7389 0.3235
vn -0.5522 0.7175 0.4245
vn -0.5063 0.7193 0.4757
vn -0.5063 -0.7193 0.4757
vn -0.5522 -0.7175 0.4245
vn -0.5063 0.7193 0.4757
vn -0.4489 0.7206 0.5284
vn -0.4489 -0.7207 0.5284
vn -0.5063 -0.7193 0.4757
vn 0.1297 0.7379 -0.6623
vn -0.0527 0.7399 -0.6707
vn -0.0527 -0.7399 -0.6707
vn 0.1297 -0.7379 -0.6623
vn 0.0612 0.7312 0.6794
vn 0.2097 0.7353 0.6444
vn 0.2097 -0.7353 0.6444
vn 0.0612 -0.7312 0.6794
vn 0.3588 0.7357 0.5745
vn 0.4886 0.7367 0.4675
vn 0.4886 -0.7367 0.4675
vn 0.3588 -0.7357 0.5745
vn 0.2097 0.7353 0.6444
vn 0.3588 0.7357 0.5745
vn 0.3588 -0.7357 0.5745
vn 0.2097 -0.7353 0.6444
vn -0.1088 0.5730 0.8123
vn -0.5522 0.7175 0.4245
vn -0.5522 -0.7175 0.4245
vn -0.1088 -0.5730 0.8123
vn 0.6936 0.6816 -0.2331
vn 0.7332 0.6780 -0.0527
vn 0.7332 -0.6780 -0.0527
vn 0.6935 -0.6817 -0.2331
vn 0.1597 0.9766 0.1441
vn 0.6936 0.6816 -0.2331
vn 0.6935 -0.6817 -0.2331
vn 0.1598 -0.9766 0.1440
vn -0.6293 0.7304 0.2653
vn -0.3268 0.8219 0.4665
vn -0.3268 -0.8219 0.4665
vn -0.6293 -0.7304 0.2653
vn -0.3268 0.8219 0.4665
vn -0.0569 0.7228 0.6887
vn -0.0569 -0.7228 0.6887
vn -0.3268 -0.8219 0.4665
vn -0.4489 0.7206 0.5284
vn -0.3776 0.7226 0.5790
vn -0.3777 -0.7225 0.5791
vn -0.4489 -0.7207 0.5284
vn 0.8058 0.5821 0.1090
vn -0.1088 0.5730 0.8123
vn -0.1088 -0.5730 0.8123
vn 0.8057 -0.5821 0.1091
vn -0.0569 0.7228 0.6887
vn 0.0612 0.7312 0.6794
vn 0.0612 -0.7312 0.6794
vn -0.0569 -0.7228 0.6887
vn -0.3776 0.7226 0.5790
vn -0.2828 0.7270 0.6257
vn -0.2828 -0.7270 0.6257
vn -0.3777 -0.7225 0.5791
vn -0.2828 0.7270 0.6257
vn 0.1597 0.9766 0.1441
vn 0.1598 -0.9766 0.1440
vn -0.2828 -0.7270 0.6257
vn -0.4457 0.6787 -0.5837
vn -0.2848 0.6808 -0.6748
vn -0.2847 -0.6809 -0.6748
vn -0.4457 -0.6787 -0.5837
vn -0.5877 0.6768 -0.4433
vn -0.4457 0.6787 -0.5837
vn -0.4457 -0.6787 -0.5837
vn -0.5877 -0.6768 -0.4433
vn -0.7200 0.6862 -0.1038
vn -0.6844 0.6784 -0.2672
vn -0.6844 -0.6784 -0.2672
vn -0.7201 -0.6861 -0.1038
vn -0.6936 0.6776 0.2446
vn -0.7309 0.6801 0.0566
vn -0.7310 -0.6800 0.0566
vn -0.6935 -0.6776 0.2446
vn -0.6844 0.6784 -0.2672
vn -0.5877 0.6768 -0.4433
vn -0.5877 -0.6768 -0.4433
vn -0.6844 -0.6784 -0.2672
vn -0.2848 0.6808 -0.6748
vn -0.1198 0.6826 -0.7209
vn -0.1199 -0.6825 -0.7210
vn -0.2847 -0.6809 -0.6748
vn -0.1198 0.6826 -0.7209
vn 0.0391 0.6843 -0.7282
vn 0.0391 -0.6843 -0.7282
vn -0.1199 -0.6825 -0.7210
vn -0.1498 0.6816 0.7162
vn -0.3186 0.6800 0.6604
vn -0.3186 -0.6800 0.6603
vn -0.1498 -0.6816 0.7162
vn -0.7309 0.6801 0.0566
vn -0.7200 0.6862 -0.1038
vn -0.7201 -0.6861 -0.1038
vn -0.7310 -0.6800 0.0566
vn 0.1806 0.6870 -0.7039
vn 0.2988 0.6892 -0.6601
vn 0.2988 -0.6892 -0.6601
vn 0.1806 -0.6870 -0.7039
vn -0.0527 0.7399 -0.6707
vn -0.2355 0.7398 -0.6303
vn -0.2355 -0.7398 -0.6303
vn -0.0527 -0.7399 -0.6707
vn 0.2988 0.6892 -0.6601
vn 0.3983 0.6903 -0.6040
vn 0.3983 -0.6903 -0.6040
vn 0.2988 -0.6892 -0.6601
vn 0.3983 0.6903 -0.6040
vn 0.4861 0.6902 -0.5360
vn 0.4861 -0.6902 -0.5360
vn 0.3983 -0.6903 -0.6040
vn 0.0391 0.6843 -0.7282
vn 0.1806 0.6870 -0.7039
vn 0.1806 -0.6870 -0.7039
vn 0.0391 -0.6843 -0.7282
vn -0.3186 0.6800 0.6604
vn -0.4738 0.6797 0.5600
vn -0.4739 -0.6796 0.5600
vn -0.3186 -0.6800 0.6603
vn -0.4738 0.6797 0.5600
vn -0.6026 0.6785 0.4200
vn -0.6026 -0.6785 0.4200
vn -0.4739 -0.6796 0.5600
vn -0.6026 0.6785 0.4200
vn -0.6936 0.6776 0.2446
vn -0.6935 -0.6776 0.2446
vn -0.6026 -0.6785 0.4200
vn -0.6702 0.7294 0.1371
vn -0.6293 0.7304 0.2653
vn -0.6293 -0.7304 0.2653
vn -0.6701 -0.7295 0.1372
vn -0.6662 0.7342 -0.1304
vn -0.6853 0.7282 0.0098
vn -0.6853 -0.7281 0.0098
vn -0.6661 -0.7343 -0.1305
vn 0.7332 0.6780 -0.0527
vn 0.7207 0.6775 0.1468
vn 0.7207 -0.6775 0.1468
vn 0.7332 -0.6780 -0.0527
vn 0.5614 0.6907 -0.4559
vn 0.8058 0.5821 0.1090
vn 0.8057 -0.5821 0.1091
vn 0.5614 -0.6906 -0.4560
vn 0.7207 0.6775 0.1468
vn 0.6561 0.6806 0.3259
vn 0.6561 -0.6806 0.3259
vn 0.7207 -0.6775 0.1468
vn 0.6561 0.6806 0.3259
vn 0.5684 0.6880 0.4511
vn 0.5684 -0.6880 0.4511
vn 0.6561 -0.6806 0.3259
vn -0.6853 0.7282 0.0098
vn -0.6702 0.7294 0.1371
vn -0.6701 -0.7295 0.1372
vn -0.6853 -0.7281 0.0098
vn 0.4861 0.6902 -0.5360
vn 0.5614 0.6907 -0.4559
vn 0.5614 -0.6906 -0.4560
vn 0.4861 -0.6902 -0.5360
vn -0.2355 0.7398 -0.6303
vn -0.3971 0.7380 -0.5456
vn -0.3971 -0.7380 -0.5456
vn -0.2355 -0.7398 -0.6303
vn 0.3178 0.6794 0.6613
vn 0.1469 0.6816 0.7168
vn 0.1469 -0.6817 0.7167
vn 0.3178 -0.6794 0.6614
vn 0.4684 0.6815 0.5623
vn 0.3178 0.6794 0.6613
vn 0.3178 -0.6794 0.6614
vn 0.4684 -0.6815 0.5623
vn -0.0013 0.6882 0.7255
vn -0.1498 0.6816 0.7162
vn -0.1498 -0.6816 0.7162
vn -0.0013 -0.6882 0.7255
vn 0.5684 0.6880 0.4511
vn 0.4684 0.6815 0.5623
vn 0.4684 -0.6815 0.5623
vn 0.5684 -0.6880 0.4511
vn -0.3971 0.7380 -0.5456
vn -0.5245 0.7365 -0.4272
vn -0.5244 -0.7366 -0.4272
vn -0.3971 -0.7380 -0.5456
vn 0.1469 0.6816 0.7168
vn -0.0013 0.6882 0.7255
vn -0.0013 -0.6882 0.7255
vn 0.1469 -0.6817 0.7167
vn -0.6143 0.7360 -0.2845
vn -0.6662 0.7342 -0.1304
vn -0.6661 -0.7343 -0.1305
vn -0.6143 -0.7360 -0.2845
vn 0.6450 0.7369 -0.2025
vn 0.5696 0.7383 -0.3612
vn 0.5697 -0.7382 -0.3612
vn 0.6449 -0.7369 -0.2025
vn -0.5245 0.7365 -0.4272
vn -0.6143 0.7360 -0.2845
vn -0.6143 -0.7360 -0.2845
vn -0.5244 -0.7366 -0.4272
vn 0.6753 0.7368 -0.0336
vn 0.6450 0.7369 -0.2025
vn 0.6449 -0.7369 -0.2025
vn 0.6754 -0.7367 -0.0336
# 580 vertex normals

vt 0.0000 1.0000 0.0000
vt 1.0000 0.0000 0.0000
vt 0.0000 0.0000 0.0000
vt 1.0000 1.0000 0.0000
# 4 texture coords

o 9
g 9
usemtl Primitive_
s 1
f 15/3/1 13/2/2 14/4/3 
f 15/3/4 12/2/5 13/4/6 
f 16/3/7 12/2/8 15/4/9 
f 16/3/10 11/2/11 12/4/12 
f 17/3/13 11/2/14 16/4/15 
f 17/3/16 10/2/17 11/4/18 
f 18/3/19 42/2/20 17/4/21 
f 42/3/22 10/2/23 17/4/24 
s off
f 43/3/25 10/2/26 42/4/27 
s 1
f 18/3/28 41/2/29 42/4/30 
s off
f 43/3/31 9/2/32 10/4/33 
f 44/3/34 9/2/35 43/4/36 
s 1
f 18/3/37 40/2/38 41/4/39 
f 45/3/40 9/2/41 44/4/42 
f 18/3/43 39/2/44 40/4/45 
f 19/3/46 39/2/47 18/4/48 
f 46/3/49 9/2/50 45/4/51 
f 19/3/52 38/2/53 39/4/54 
f 46/3/55 8/2/56 9/4/57 
f 47/3/58 8/2/59 46/4/60 
f 19/3/61 37/2/62 38/4/63 
f 20/3/64 37/2/65 19/4/66 
f 48/3/67 8/2/68 47/4/69 
f 20/3/70 36/2/71 37/4/72 
f 21/3/73 36/2/74 20/4/75 
f 48/3/76 7/2/77 8/4/78 
f 21/3/79 58/2/80 36/4/81 
f 49/3/82 7/2/83 48/4/84 
f 21/3/85 57/2/86 58/4/87 
f 50/3/88 7/2/89 49/4/90 
f 22/3/91 57/2/92 21/4/93 
f 22/3/94 56/2/95 57/4/96 
f 51/3/97 7/2/98 50/4/99 
f 22/3/100 55/2/101 56/4/102 
f 51/3/103 6/2/104 7/4/105 
f 52/3/106 6/2/107 51/4/108 
f 22/3/109 54/2/110 55/4/111 
f 23/3/112 54/2/113 22/4/114 
f 23/3/115 53/2/116 54/4/117 
f 53/3/118 6/2/119 52/4/120 
f 23/3/121 6/2/122 53/4/123 
f 24/3/124 6/2/125 23/4/126 
f 25/3/127 29/2/128 24/4/129 
f 29/3/130 6/2/131 24/4/132 
f 29/3/133 5/2/134 6/4/135 
f 25/3/136 28/2/137 29/4/138 
f 26/3/139 28/2/140 25/4/141 
f 30/3/142 5/2/143 29/4/144 
f 26/3/145 27/2/146 28/4/147 
f 31/3/148 5/2/149 30/4/150 
f 31/3/151 4/2/152 5/4/153 
f 32/3/154 4/2/155 31/4/156 
f 33/3/157 4/2/158 32/4/159 
f 33/3/160 3/2/161 4/4/162 
f 34/3/163 3/2/164 33/4/165 
f 35/3/166 3/2/167 34/4/168 
f 35/3/169 2/2/170 3/4/171 
f 1/3/172 2/2/173 35/4/174 
s off
f 73/3/175 72/2/176 71/4/177 
f 73/3/178 71/2/179 70/4/180 
s 1
f 74/3/181 73/2/182 70/4/183 
f 74/3/184 70/2/185 69/4/186 
f 75/3/187 74/2/188 69/4/189 
f 75/3/190 69/2/191 68/4/192 
f 76/3/193 75/2/194 100/4/195 
f 100/3/196 75/2/197 68/4/198 
s off
f 101/3/199 100/2/200 68/4/201 
s 1
f 76/3/202 100/2/203 99/4/204 
s off
f 101/3/205 68/2/206 67/4/207 
f 102/3/208 101/2/209 67/4/210 
s 1
f 76/3/211 99/2/212 98/4/213 
f 103/3/214 102/2/215 67/4/216 
f 76/3/217 98/2/218 97/4/219 
f 77/3/220 76/2/221 97/4/222 
f 104/3/223 103/2/224 67/4/225 
f 77/3/226 97/2/227 96/4/228 
f 104/3/229 67/2/230 66/4/231 
f 105/3/232 104/2/233 66/4/234 
f 77/3/235 96/2/236 95/4/237 
f 78/3/238 77/2/239 95/4/240 
f 106/3/241 105/2/242 66/4/243 
f 78/3/244 95/2/245 94/4/246 
f 79/3/247 78/2/248 94/4/249 
f 106/3/250 66/2/251 65/4/252 
f 79/3/253 94/2/254 116/4/255 
f 107/3/256 106/2/257 65/4/258 
f 79/3/259 116/2/260 115/4/261 
f 108/3/262 107/2/263 65/4/264 
f 80/3/265 79/2/266 115/4/267 
f 80/3/268 115/2/269 114/4/270 
f 109/3/271 108/2/272 65/4/273 
f 80/3/274 114/2/275 113/4/276 
f 109/3/277 65/2/278 64/4/279 
f 110/3/280 109/2/281 64/4/282 
f 80/3/283 113/2/284 112/4/285 
f 81/3/286 80/2/287 112/4/288 
s off
f 81/3/289 112/2/290 111/4/291 
f 111/3/292 110/2/293 64/4/294 
f 81/3/295 111/2/296 64/4/297 
s 1
f 82/3/298 81/2/299 64/4/300 
f 83/3/301 82/2/302 87/4/303 
f 87/3/304 82/2/305 64/4/306 
f 87/3/307 64/2/308 63/4/309 
f 83/3/310 87/2/311 86/4/312 
f 84/3/313 83/2/314 86/4/315 
s off
f 88/3/316 87/2/317 63/4/318 
s 1
f 84/3/319 86/2/320 85/4/321 
f 89/3/322 88/2/323 63/4/324 
f 89/3/325 63/2/326 62/4/327 
s off
f 90/3/328 89/2/329 62/4/330 
s 1
f 91/3/331 90/2/332 62/4/333 
f 91/3/334 62/2/335 61/4/336 
f 92/3/337 91/2/338 61/4/339 
f 93/3/340 92/2/341 61/4/342 
f 93/3/343 61/2/344 60/4/345 
f 59/3/346 93/2/347 60/4/348 
s off
f 43/3/349 42/2/350 100/4/351 101/1/352 
f 40/3/353 39/2/354 97/4/355 98/1/356 
f 39/3/357 38/2/358 96/4/359 97/1/360 
f 45/3/361 44/2/362 102/4/363 103/1/364 
f 38/3/365 37/2/366 95/4/367 96/1/368 
f 44/3/369 43/2/370 101/4/371 102/1/372 
f 34/3/373 33/2/374 91/4/375 92/1/376 
f 33/3/377 32/2/378 90/4/379 91/1/380 
f 37/3/381 36/2/382 94/4/383 95/1/384 
f 48/3/385 47/2/386 105/4/387 106/1/388 
f 46/3/389 45/2/390 103/4/391 104/1/392 
f 47/3/393 46/2/394 104/4/395 105/1/396 
f 35/3/397 34/2/398 92/4/399 93/1/400 
f 28/3/401 27/2/402 85/4/403 86/1/404 
f 29/3/405 28/2/406 86/4/407 87/1/408 
f 51/3/409 50/2/410 108/4/411 109/1/412 
f 50/3/413 49/2/414 107/4/415 108/1/416 
f 32/3/417 31/2/418 89/4/419 90/1/420 
f 1/3/421 35/2/422 93/4/423 59/1/424 
f 49/3/425 48/2/426 106/4/427 107/1/428 
f 31/3/429 30/2/430 88/4/431 89/1/432 
f 30/3/433 29/2/434 87/4/435 88/1/436 
f 10/3/437 9/2/438 67/4/439 68/1/440 
f 11/3/441 10/2/442 68/4/443 69/1/444 
f 13/3/445 12/2/446 70/4/447 71/1/448 
f 15/3/449 14/2/450 72/4/451 73/1/452 
f 12/3/453 11/2/454 69/4/455 70/1/456 
f 9/3/457 8/2/458 66/4/459 67/1/460 
f 8/3/461 7/2/462 65/4/463 66/1/464 
f 19/3/465 18/2/466 76/4/467 77/1/468 
f 14/3/469 13/2/470 71/4/471 72/1/472 
f 6/3/473 5/2/474 63/4/475 64/1/476 
f 36/3/477 58/2/478 116/4/479 94/1/480 
f 5/3/481 4/2/482 62/4/483 63/1/484 
f 4/3/485 3/2/486 61/4/487 62/1/488 
f 7/3/489 6/2/490 64/4/491 65/1/492 
f 18/3/493 17/2/494 75/4/495 76/1/496 
f 17/3/497 16/2/498 74/4/499 75/1/500 
f 16/3/501 15/2/502 73/4/503 74/1/504 
f 52/3/505 51/2/506 109/4/507 110/1/508 
f 54/3/509 53/2/510 111/4/511 112/1/512 
f 27/3/513 26/2/514 84/4/515 85/1/516 
f 2/3/517 1/2/518 59/4/519 60/1/520 
f 26/3/521 25/2/522 83/4/523 84/1/524 
f 25/3/525 24/2/526 82/4/527 83/1/528 
f 53/3/529 52/2/530 110/4/531 111/1/532 
f 3/3/533 2/2/534 60/4/535 61/1/536 
f 58/3/537 57/2/538 115/4/539 116/1/540 
f 22/3/541 21/2/542 79/4/543 80/1/544 
f 23/3/545 22/2/546 80/4/547 81/1/548 
f 20/3/549 19/2/550 77/4/551 78/1/552 
f 24/3/553 23/2/554 81/4/555 82/1/556 
f 57/3/557 56/2/558 114/4/559 115/1/560 
f 21/3/561 20/2/562 78/4/563 79/1/564 
f 55/3/565 54/2/566 112/4/567 113/1/568 
f 41/3/569 40/2/570 98/4/571 99/1/572 
f 56/3/573 55/2/574 113/4/575 114/1/576 
f 42/3/577 41/2/578 99/4/579 100/1/580 
# 58 polygons - 116 triangles

