# 3ds Max Wavefront OBJ Exporter v0.97b - (c)2007 guruware
# File Created: 17.06.2020 12:22:34

mtllib ^.mtl

#
# object _
#

v  195.5000 40.0000 118.5000
v  -96.5000 40.0000 0.5000
v  195.5000 40.0000 -119.5000
v  195.5000 40.0000 -208.5000
v  -195.5000 40.0000 -35.5000
v  -195.5000 40.0000 35.5000
v  195.5000 40.0000 208.5000
v  195.5000 -40.0000 118.5000
v  -96.5000 -40.0000 0.5000
v  195.5000 -39.9975 -119.5000
v  195.5000 -40.0000 -208.5000
v  -195.5000 -40.0000 -35.5000
v  -195.5000 -40.0000 35.5000
v  195.5000 -40.0000 208.5000
# 14 vertices

vn 0.4526 0.5586 0.6951
vn -0.6689 0.6025 -0.4355
vn -0.6689 0.6025 0.4355
vn 0.4526 0.5586 0.6951
vn 0.2104 0.9776 -0.0006
vn -0.6689 0.6025 -0.4355
vn 0.2104 0.9776 -0.0006
vn 0.4526 0.5586 -0.6951
vn -0.6689 0.6025 -0.4355
vn 0.4526 0.5586 0.6951
vn 0.6631 0.6003 -0.4472
vn 0.2104 0.9776 -0.0006
vn 0.6641 0.6007 0.4451
vn 0.4526 0.5586 -0.6951
vn 0.2104 0.9776 -0.0006
vn 0.4526 -0.5586 0.6951
vn -0.6689 -0.6025 0.4355
vn -0.6689 -0.6025 -0.4355
vn 0.4526 -0.5586 0.6951
vn -0.6689 -0.6025 -0.4355
vn 0.2104 -0.9776 -0.0006
vn 0.2104 -0.9776 -0.0006
vn -0.6689 -0.6025 -0.4355
vn 0.4526 -0.5586 -0.6951
vn 0.4526 -0.5586 0.6951
vn 0.2104 -0.9776 -0.0006
vn 0.6631 -0.6003 -0.4472
vn 0.6641 -0.6007 0.4451
vn 0.2104 -0.9776 -0.0006
vn 0.4526 -0.5586 -0.6951
vn 0.6631 0.6003 -0.4472
vn 0.4526 0.5586 0.6951
vn 0.4526 -0.5586 0.6951
vn 0.6631 -0.6003 -0.4472
vn 0.6641 0.6007 0.4451
vn 0.2104 0.9776 -0.0006
vn 0.2104 -0.9776 -0.0006
vn 0.6641 -0.6007 0.4451
vn 0.2104 0.9776 -0.0006
vn 0.6631 0.6003 -0.4472
vn 0.6631 -0.6003 -0.4472
vn 0.2104 -0.9776 -0.0006
vn -0.6689 0.6025 0.4355
vn -0.6689 0.6025 -0.4355
vn -0.6689 -0.6025 -0.4355
vn -0.6689 -0.6025 0.4355
vn -0.6689 0.6025 -0.4355
vn 0.4526 0.5586 -0.6951
vn 0.4526 -0.5586 -0.6951
vn -0.6689 -0.6025 -0.4355
vn 0.4526 0.5586 -0.6951
vn 0.6641 0.6007 0.4451
vn 0.6641 -0.6007 0.4451
vn 0.4526 -0.5586 -0.6951
vn 0.4526 0.5586 0.6951
vn -0.6689 0.6025 0.4355
vn -0.6689 -0.6025 0.4355
vn 0.4526 -0.5586 0.6951
# 58 vertex normals

vt 0.0000 1.0000 0.0000
vt 1.0000 0.0000 0.0000
vt 0.0000 0.0000 0.0000
vt 1.0000 1.0000 0.0000
# 4 texture coords

o _
g _
usemtl Primitive_
s 1
f 7/3/1 5/2/2 6/4/3 
f 7/3/4 2/2/5 5/4/6 
f 2/3/7 4/2/8 5/4/9 
f 7/3/10 1/2/11 2/4/12 
f 3/3/13 4/2/14 2/4/15 
f 14/3/16 13/2/17 12/4/18 
f 14/3/19 12/2/20 9/4/21 
f 9/3/22 12/2/23 11/4/24 
f 14/3/25 9/2/26 8/4/27 
s off
f 10/3/28 9/2/29 11/4/30 
f 1/3/31 7/2/32 14/4/33 8/1/34 
f 3/3/35 2/2/36 9/4/37 10/1/38 
f 2/3/39 1/2/40 8/4/41 9/1/42 
f 6/3/43 5/2/44 12/4/45 13/1/46 
f 5/3/47 4/2/48 11/4/49 12/1/50 
f 4/3/51 3/2/52 10/4/53 11/1/54 
f 7/3/55 6/2/56 13/4/57 14/1/58 
# 7 polygons - 10 triangles

