# 3ds Max Wavefront OBJ Exporter v0.97b - (c)2007 guruware
# File Created: 17.06.2020 12:22:35

mtllib _.mtl

#
# object _
#

v  -25.0000 40.0000 256.0000
v  25.0000 40.0000 256.0000
v  25.0000 40.0000 -256.0000
v  -25.0000 40.0000 -256.0000
v  -25.0000 -40.0000 256.0000
v  25.0000 -40.0000 256.0000
v  25.0000 -40.0000 -256.0000
v  -25.0000 -40.0000 -256.0000
# 8 vertices

vn 0.5774 0.5774 0.5774
vn -0.5774 0.5774 -0.5774
vn -0.5774 0.5774 0.5774
vn 0.5774 0.5774 0.5774
vn 0.5774 0.5774 -0.5774
vn -0.5774 0.5774 -0.5774
vn 0.5774 -0.5774 0.5774
vn -0.5774 -0.5774 0.5774
vn -0.5774 -0.5774 -0.5774
vn 0.5774 -0.5774 0.5774
vn -0.5774 -0.5774 -0.5774
vn 0.5774 -0.5774 -0.5774
vn 0.5774 0.5774 -0.5774
vn 0.5774 0.5774 0.5774
vn 0.5774 -0.5774 0.5774
vn 0.5774 -0.5774 -0.5774
vn -0.5774 0.5774 -0.5774
vn 0.5774 0.5774 -0.5774
vn 0.5774 -0.5774 -0.5774
vn -0.5774 -0.5774 -0.5774
vn -0.5774 0.5774 0.5774
vn -0.5774 0.5774 -0.5774
vn -0.5774 -0.5774 -0.5774
vn -0.5774 -0.5774 0.5774
vn 0.5774 0.5774 0.5774
vn -0.5774 0.5774 0.5774
vn -0.5774 -0.5774 0.5774
vn 0.5774 -0.5774 0.5774
# 28 vertex normals

vt 0.0000 1.0000 0.0000
vt 1.0000 0.0000 0.0000
vt 0.0000 0.0000 0.0000
vt 1.0000 1.0000 0.0000
# 4 texture coords

o _
g _
usemtl Primitive_
s 1
f 2/3/1 4/2/2 1/4/3 
f 2/3/4 3/2/5 4/4/6 
f 6/3/7 5/2/8 8/4/9 
f 6/3/10 8/2/11 7/4/12 
s off
f 3/3/13 2/2/14 6/4/15 7/1/16 
f 4/3/17 3/2/18 7/4/19 8/1/20 
f 1/3/21 4/2/22 8/4/23 5/1/24 
f 2/3/25 1/2/26 5/4/27 6/1/28 
# 4 polygons - 4 triangles

