# 3ds Max Wavefront OBJ Exporter v0.97b - (c)2007 guruware
# File Created: 17.06.2020 12:22:26

mtllib A.mtl

#
# object A
#

v  -343.0000 40.0000 -28.5000
v  -343.0000 40.0000 40.4995
v  343.0000 39.9999 333.5000
v  343.0000 40.0000 233.5000
v  142.0000 40.0000 147.5000
v  142.0000 40.0000 -142.5000
v  343.0000 40.0000 -233.5000
v  343.0000 40.0000 -333.5000
v  -193.0000 40.0000 7.4995
v  54.0000 40.0000 -102.5000
v  54.0000 40.0000 109.5000
v  -343.0000 -40.0000 -28.5000
v  -343.0000 -40.0000 40.4995
v  343.0000 -40.0000 333.5000
v  343.0000 -40.0000 233.5000
v  142.0000 -40.0000 147.5000
v  142.0000 -40.0000 -142.5000
v  343.0000 -40.0000 -233.5000
v  343.0000 -39.9975 -333.5000
v  -193.0000 -40.0000 7.4995
v  54.0000 -40.0000 -102.5000
v  54.0000 -40.0000 109.5000
# 22 vertices

vn 0.4568 0.5590 0.6920
vn -0.6692 0.6026 -0.4348
vn -0.6666 0.6016 0.4401
vn 0.4568 0.5590 0.6920
vn 0.2207 0.9753 -0.0030
vn -0.6692 0.6026 -0.4348
vn 0.2207 0.9753 -0.0030
vn 0.4520 0.5585 -0.6956
vn -0.6692 0.6026 -0.4348
vn 0.4568 0.5590 0.6920
vn -0.1800 0.9461 -0.2692
vn 0.2207 0.9753 -0.0030
vn -0.1723 0.9487 0.2653
vn 0.4520 0.5585 -0.6956
vn 0.2207 0.9753 -0.0030
vn 0.4568 0.5590 0.6920
vn 0.4340 0.8542 -0.2863
vn -0.1800 0.9461 -0.2692
vn 0.4340 0.8542 -0.2863
vn -0.1723 0.9487 0.2653
vn -0.1800 0.9461 -0.2692
vn 0.4340 0.8542 -0.2863
vn 0.4407 0.8515 0.2843
vn -0.1723 0.9487 0.2653
vn 0.4407 0.8515 0.2843
vn 0.4520 0.5585 -0.6956
vn -0.1723 0.9487 0.2653
vn 0.4568 0.5590 0.6920
vn 0.6667 0.6016 -0.4399
vn 0.4340 0.8542 -0.2863
vn 0.6704 0.6031 0.4323
vn 0.4520 0.5585 -0.6956
vn 0.4407 0.8515 0.2843
vn 0.4570 -0.5591 0.6918
vn -0.6666 -0.6016 0.4402
vn -0.6692 -0.6026 -0.4348
vn 0.4570 -0.5591 0.6918
vn -0.6692 -0.6026 -0.4348
vn 0.2208 -0.9753 -0.0031
vn 0.2208 -0.9753 -0.0031
vn -0.6692 -0.6026 -0.4348
vn 0.4520 -0.5585 -0.6956
vn 0.4570 -0.5591 0.6918
vn 0.2208 -0.9753 -0.0031
vn -0.1801 -0.9461 -0.2691
vn -0.1723 -0.9487 0.2653
vn 0.2208 -0.9753 -0.0031
vn 0.4520 -0.5585 -0.6956
vn 0.4570 -0.5591 0.6918
vn -0.1801 -0.9461 -0.2691
vn 0.4340 -0.8542 -0.2863
vn 0.4340 -0.8542 -0.2863
vn -0.1801 -0.9461 -0.2691
vn -0.1723 -0.9487 0.2653
vn 0.4340 -0.8542 -0.2863
vn -0.1723 -0.9487 0.2653
vn 0.4406 -0.8515 0.2841
vn 0.4406 -0.8515 0.2841
vn -0.1723 -0.9487 0.2653
vn 0.4520 -0.5585 -0.6956
vn 0.4570 -0.5591 0.6918
vn 0.4340 -0.8542 -0.2863
vn 0.6667 -0.6016 -0.4399
vn 0.6704 -0.6030 0.4324
vn 0.4406 -0.8515 0.2841
vn 0.4520 -0.5585 -0.6956
vn 0.4520 0.5585 -0.6956
vn 0.6704 0.6031 0.4323
vn 0.6704 -0.6030 0.4324
vn 0.4520 -0.5585 -0.6956
vn 0.6704 0.6031 0.4323
vn 0.4407 0.8515 0.2843
vn 0.4406 -0.8515 0.2841
vn 0.6704 -0.6030 0.4324
vn 0.4340 0.8542 -0.2863
vn 0.6667 0.6016 -0.4399
vn 0.6667 -0.6016 -0.4399
vn 0.4340 -0.8542 -0.2863
vn 0.4407 0.8515 0.2843
vn 0.4340 0.8542 -0.2863
vn 0.4340 -0.8542 -0.2863
vn 0.4406 -0.8515 0.2841
vn -0.6666 0.6016 0.4401
vn -0.6692 0.6026 -0.4348
vn -0.6692 -0.6026 -0.4348
vn -0.6666 -0.6016 0.4402
vn -0.6692 0.6026 -0.4348
vn 0.4520 0.5585 -0.6956
vn 0.4520 -0.5585 -0.6956
vn -0.6692 -0.6026 -0.4348
vn 0.6667 0.6016 -0.4399
vn 0.4568 0.5590 0.6920
vn 0.4570 -0.5591 0.6918
vn 0.6667 -0.6016 -0.4399
vn 0.4568 0.5590 0.6920
vn -0.6666 0.6016 0.4401
vn -0.6666 -0.6016 0.4402
vn 0.4570 -0.5591 0.6918
vn 0.2207 0.9753 -0.0030
vn -0.1800 0.9461 -0.2692
vn -0.1801 -0.9461 -0.2691
vn 0.2208 -0.9753 -0.0031
vn -0.1723 0.9487 0.2653
vn 0.2207 0.9753 -0.0030
vn 0.2208 -0.9753 -0.0031
vn -0.1723 -0.9487 0.2653
vn -0.1800 0.9461 -0.2692
vn -0.1723 0.9487 0.2653
vn -0.1723 -0.9487 0.2653
vn -0.1801 -0.9461 -0.2691
# 110 vertex normals

vt 0.0000 1.0000 0.0000
vt 1.0000 0.0000 0.0000
vt 0.0000 0.0000 0.0000
vt 1.0000 1.0000 0.0000
# 4 texture coords

o A
g A
usemtl Primitive_
s 1
f 3/3/1 1/2/2 2/4/3 
f 3/3/4 9/2/5 1/4/6 
f 9/3/7 8/2/8 1/4/9 
f 3/3/10 11/2/11 9/4/12 
f 10/3/13 8/2/14 9/4/15 
f 3/3/16 5/2/17 11/4/18 
f 5/3/19 10/2/20 11/4/21 
f 5/3/22 6/2/23 10/4/24 
f 6/3/25 8/2/26 10/4/27 
f 3/3/28 4/2/29 5/4/30 
f 7/3/31 8/2/32 6/4/33 
f 14/3/34 13/2/35 12/4/36 
f 14/3/37 12/2/38 20/4/39 
s off
f 20/3/40 12/2/41 19/4/42 
s 1
f 14/3/43 20/2/44 22/4/45 
s 2
f 21/3/46 20/2/47 19/4/48 
s 1
f 14/3/49 22/2/50 16/4/51 
f 16/3/52 22/2/53 21/4/54 
f 16/3/55 21/2/56 17/4/57 
s 2
f 17/3/58 21/2/59 19/4/60 
s 1
f 14/3/61 16/2/62 15/4/63 
s 2
f 18/3/64 17/2/65 19/4/66 
s off
f 8/3/67 7/2/68 18/4/69 19/1/70 
f 7/3/71 6/2/72 17/4/73 18/1/74 
f 5/3/75 4/2/76 15/4/77 16/1/78 
f 6/3/79 5/2/80 16/4/81 17/1/82 
f 2/3/83 1/2/84 12/4/85 13/1/86 
f 1/3/87 8/2/88 19/4/89 12/1/90 
f 4/3/91 3/2/92 14/4/93 15/1/94 
f 3/3/95 2/2/96 13/4/97 14/1/98 
f 9/3/99 11/2/100 22/4/101 20/1/102 
f 10/3/103 9/2/104 20/4/105 21/1/106 
f 11/3/107 10/2/108 21/4/109 22/1/110 
# 11 polygons - 22 triangles

