# 3ds Max Wavefront OBJ Exporter v0.97b - (c)2007 guruware
# File Created: 17.06.2020 12:22:42

mtllib A1.mtl

#
# object A1
#

v  500.0000 500.0001 -499.9998
v  500.0000 -499.9998 -500.0000
v  -500.0000 -499.9998 -500.0000
v  -500.0000 500.0002 -499.9998
v  -250.0000 500.0000 -250.0000
v  -250.0000 -499.9999 -250.0000
v  -500.0000 -499.9999 499.9998
v  -500.0000 499.9998 500.0000
v  0.0000 500.0001 -499.9998
v  0.0000 -499.9998 -500.0000
v  -250.0000 499.9997 500.0000
v  500.0000 499.9998 -250.0000
v  500.0000 -500.0001 -250.0000
v  -500.0000 -499.9998 -0.0000
v  -500.0000 500.0001 -0.0000
v  -500.0000 0.0003 -500.0000
v  500.0000 0.0001 -500.0000
v  -250.0000 0.0000 -250.0000
v  -500.0000 -0.0000 500.0000
v  -250.0000 -0.0002 500.0000
v  0.0000 0.0002 -500.0000
v  -500.0000 0.0001 -0.0000
v  500.0000 -0.0001 -250.0000
v  -500.0000 -499.9998 -250.0000
v  -500.0000 500.0001 -250.0000
v  -500.0000 0.0002 -250.0000
v  -500.0000 -499.9998 250.0000
v  -500.0000 500.0000 250.0000
v  -250.0000 499.9999 250.0000
v  -250.0000 -0.0001 250.0000
v  -500.0000 0.0001 250.0000
v  -250.0000 500.0002 -499.9998
v  -250.0000 -499.9998 -500.0000
v  -250.0000 -500.0000 499.9998
v  -250.0000 -499.9999 -0.0000
v  -250.0000 0.0002 -500.0000
v  -250.0000 249.9999 -0.0000
v  -250.0000 -250.0000 -0.0000
v  -250.0000 499.9999 -0.0000
v  -250.0000 -499.9999 250.0000
v  -250.0000 -0.0001 -0.0000
v  250.0000 -500.0001 -250.0000
v  250.0000 500.0001 -499.9998
v  250.0000 -499.9998 -500.0000
v  250.0000 0.0001 -500.0000
v  250.0000 -0.0000 -250.0000
v  0.0000 499.9999 -250.0000
v  250.0000 499.9999 -250.0000
v  500.0000 -249.9999 -500.0000
v  -250.0000 -249.9999 -250.0000
v  -500.0000 -249.9999 -0.0000
v  0.0000 250.0000 -250.0000
v  0.0000 -249.9998 -500.0000
v  -500.0000 -249.9999 500.0000
v  -500.0000 -249.9998 -500.0000
v  500.0000 -250.0000 -250.0000
v  0.0000 -250.0000 -250.0000
v  -500.0000 -249.9998 -250.0000
v  -500.0000 -249.9999 250.0000
v  -250.0000 -250.0001 250.0000
v  -250.0000 -250.0000 500.0000
v  -250.0000 -249.9998 -500.0000
v  250.0000 -249.9999 -500.0000
v  250.0000 -250.0000 -250.0000
v  -500.0000 250.0002 -500.0000
v  -500.0000 249.9999 500.0000
v  -250.0000 249.9998 500.0000
v  0.0000 250.0002 -500.0000
v  -250.0000 250.0000 -250.0000
v  -500.0000 250.0001 -0.0000
v  500.0000 250.0000 -500.0000
v  500.0000 249.9999 -250.0000
v  0.0000 -0.0000 -250.0000
v  -500.0000 250.0002 -250.0000
v  -250.0000 249.9999 250.0000
v  -500.0000 250.0000 250.0000
v  -250.0000 250.0002 -500.0000
v  0.0000 -500.0000 -250.0000
v  250.0000 249.9999 -250.0000
v  250.0000 250.0001 -500.0000
# 80 vertices

vn 0.0000 0.0000 -1.0000
vn -0.0000 -0.7071 -0.7071
vn -0.5774 -0.5774 -0.5774
vn -0.7071 0.0000 -0.7071
vn 0.7071 -0.0000 0.7071
vn -0.7071 -0.0000 0.7071
vn -0.5774 -0.5774 0.5773
vn 0.5773 -0.5774 0.5774
vn 0.0000 0.0000 1.0000
vn 0.7071 0.0000 0.7071
vn 0.3015 -0.9045 0.3015
vn -0.0000 -0.7071 0.7071
vn 0.7071 -0.7071 -0.0000
vn 0.5773 -0.5774 0.5774
vn -0.5774 -0.5774 0.5773
vn -0.7071 -0.7071 -0.0000
vn -1.0000 0.0000 -0.0000
vn -0.7071 0.0000 0.7071
vn -0.5773 0.5774 0.5774
vn -0.7071 0.7071 0.0000
vn 0.3015 0.9045 0.3015
vn 0.0000 0.7071 -0.7071
vn -0.5774 0.5774 -0.5773
vn -0.7071 0.7071 0.0000
vn 0.0000 0.7071 0.7071
vn 0.0000 0.7071 -0.7071
vn 0.0000 0.7071 -0.7071
vn 0.0000 0.7071 0.7071
vn -1.0000 0.0000 -0.0000
vn -1.0000 0.0000 -0.0000
vn -1.0000 0.0000 -0.0000
vn -1.0000 0.0000 -0.0000
vn 1.0000 0.0000 -0.0000
vn 0.7071 -0.0000 0.7071
vn 0.5773 -0.5774 0.5774
vn 0.7071 -0.7071 -0.0000
vn 0.0000 0.0000 -1.0000
vn -0.0000 -0.7071 -0.7071
vn -0.0000 -0.7071 -0.7071
vn 0.0000 0.0000 -1.0000
vn 0.0000 0.0000 -1.0000
vn 0.0000 0.0000 -1.0000
vn 0.0000 0.0000 -1.0000
vn 0.0000 0.0000 -1.0000
vn 0.7071 0.7071 0.0000
vn 0.7071 0.7071 0.0000
vn -0.7071 0.7071 0.0000
vn -0.7071 0.7071 0.0000
vn -1.0000 0.0000 -0.0000
vn -1.0000 0.0000 -0.0000
vn -0.7071 0.7071 0.0000
vn -0.7071 0.7071 0.0000
vn 0.3015 -0.9045 0.3015
vn 0.7071 -0.7071 -0.0000
vn -0.7071 -0.7071 -0.0000
vn -0.7071 -0.7071 -0.0000
vn 1.0000 0.0000 -0.0000
vn 0.7071 0.0000 0.7071
vn 0.7071 0.0000 0.7071
vn 1.0000 0.0000 -0.0000
vn -1.0000 0.0000 -0.0000
vn -0.7071 -0.0000 0.7071
vn -0.7071 0.0000 0.7071
vn -1.0000 0.0000 -0.0000
vn 0.0000 0.0000 1.0000
vn 0.7071 0.0000 0.7071
vn 0.7071 0.0000 0.7071
vn 0.0000 0.0000 1.0000
vn 0.7071 0.0000 0.7071
vn -0.7071 0.0000 0.7071
vn -0.7071 0.0000 0.7071
vn 0.7071 0.0000 0.7071
vn 0.0000 0.0000 -1.0000
vn 0.0000 0.0000 -1.0000
vn -0.7071 0.0000 -0.7071
vn -0.7071 0.0000 -0.7071
vn 0.7071 0.0000 -0.7071
vn 0.7071 0.0000 0.7071
vn 0.7071 0.0000 0.7071
vn 0.7071 0.0000 -0.7071
vn 0.7071 0.0000 -0.7071
vn 0.7071 0.0000 0.7071
vn 0.5774 -0.5774 0.5773
vn 0.5774 -0.5774 -0.5774
vn -0.0000 -0.7071 -0.7071
vn 0.3015 -0.9045 0.3015
vn -0.7071 -0.7071 -0.0000
vn -0.5774 -0.5774 -0.5774
vn -0.7071 0.0000 -0.7071
vn -1.0000 0.0000 -0.0000
vn -0.7071 0.7071 0.0000
vn -0.5774 0.5774 -0.5773
vn -0.0000 -0.7071 -0.7071
vn -0.0000 -0.7071 0.7071
vn -0.0000 -0.7071 0.7071
vn -0.0000 -0.7071 -0.7071
vn -0.7071 0.0000 -0.7071
vn -1.0000 0.0000 -0.0000
vn -1.0000 0.0000 -0.0000
vn -0.7071 0.0000 -0.7071
vn 0.7071 0.7071 0.0000
vn 0.3015 0.9045 0.3015
vn -0.7071 0.7071 0.0000
vn -0.7071 0.7071 0.0000
vn -1.0000 0.0000 -0.0000
vn -1.0000 0.0000 -0.0000
vn -1.0000 0.0000 -0.0000
vn -1.0000 0.0000 -0.0000
vn 1.0000 0.0000 -0.0000
vn 1.0000 0.0000 -0.0000
vn 1.0000 0.0000 -0.0000
vn 1.0000 0.0000 -0.0000
vn 0.5774 0.5774 0.5774
vn 0.7071 0.7071 0.0000
vn -0.7071 0.7071 0.0000
vn -0.5773 0.5774 0.5774
vn 1.0000 0.0000 -0.0000
vn 1.0000 0.0000 -0.0000
vn 0.7071 -0.7071 -0.0000
vn 0.7071 -0.7071 -0.0000
vn -1.0000 0.0000 -0.0000
vn -1.0000 0.0000 -0.0000
vn -0.7071 0.7071 0.0000
vn -0.7071 0.7071 0.0000
vn 0.7071 -0.7071 -0.0000
vn 0.7071 -0.7071 -0.0000
vn -0.7071 -0.7071 -0.0000
vn -0.7071 -0.7071 -0.0000
vn -0.0000 -0.7071 -0.7071
vn -0.0000 -0.7071 0.7071
vn 0.3015 -0.9045 0.3015
vn -0.0000 -0.7071 -0.7071
vn 0.0000 0.0000 -1.0000
vn 0.0000 0.0000 -1.0000
vn 0.0000 0.0000 -1.0000
vn 0.0000 0.0000 -1.0000
vn 0.0000 0.7071 0.7071
vn 0.0000 0.7071 -0.7071
vn 0.0000 0.7071 -0.7071
vn 0.3015 0.9045 0.3015
vn 0.7071 0.0000 0.7071
vn 1.0000 0.0000 -0.0000
vn 1.0000 0.0000 -0.0000
vn 0.7071 0.0000 0.7071
vn 0.7071 0.0000 0.7071
vn 1.0000 0.0000 -0.0000
vn 0.7071 -0.7071 -0.0000
vn 0.3015 -0.9045 0.3015
vn 0.0000 0.0000 -1.0000
vn -0.0000 -0.7071 -0.7071
vn -0.0000 -0.7071 -0.7071
vn 0.0000 0.0000 -1.0000
vn 0.7071 0.0000 0.7071
vn 1.0000 0.0000 -0.0000
vn 1.0000 0.0000 -0.0000
vn 0.7071 0.0000 0.7071
vn 0.5774 -0.5774 -0.5774
vn 0.5774 -0.5774 0.5773
vn -0.0000 -0.7071 0.7071
vn -0.0000 -0.7071 -0.7071
vn 0.7071 0.0000 0.7071
vn 0.0000 0.0000 1.0000
vn 0.0000 0.0000 1.0000
vn 0.7071 0.0000 0.7071
vn 0.7071 0.0000 -0.7071
vn 0.7071 0.0000 -0.7071
vn 0.0000 0.0000 -1.0000
vn 0.0000 0.0000 -1.0000
vn 0.3015 0.9045 0.3015
vn 0.7071 0.7071 0.0000
vn 1.0000 0.0000 -0.0000
vn 0.7071 0.0000 0.7071
vn 0.7071 0.0000 -0.7071
vn 0.5774 -0.5774 -0.5774
vn -0.0000 -0.7071 -0.7071
vn 0.0000 0.0000 -1.0000
vn 0.5774 0.5774 0.5774
vn 0.5774 0.5774 -0.5773
vn 0.0000 0.7071 -0.7071
vn 0.0000 0.7071 0.7071
vn 0.7071 0.0000 0.7071
vn 0.0000 0.0000 1.0000
vn -0.0000 -0.7071 0.7071
vn 0.5774 -0.5774 0.5773
vn 0.7071 0.0000 0.7071
vn 0.0000 0.0000 1.0000
vn 0.0000 0.0000 1.0000
vn 0.7071 0.0000 0.7071
vn 0.7071 0.0000 -0.7071
vn 0.7071 0.0000 -0.7071
vn 0.0000 0.0000 -1.0000
vn 0.0000 0.0000 -1.0000
vn 0.0000 0.0000 -1.0000
vn 0.0000 0.0000 -1.0000
vn 0.0000 0.0000 -1.0000
vn 0.0000 0.0000 -1.0000
vn 0.0000 0.0000 1.0000
vn 0.0000 0.0000 1.0000
vn -0.0000 -0.7071 0.7071
vn -0.0000 -0.7071 0.7071
vn 1.0000 0.0000 -0.0000
vn 1.0000 0.0000 -0.0000
vn 1.0000 0.0000 -0.0000
vn 1.0000 0.0000 -0.0000
vn -0.7071 -0.7071 -0.0000
vn -0.7071 -0.7071 -0.0000
vn -1.0000 0.0000 -0.0000
vn -1.0000 0.0000 -0.0000
vn -0.5774 -0.5774 -0.5774
vn -0.7071 -0.7071 -0.0000
vn -1.0000 0.0000 -0.0000
vn -0.7071 0.0000 -0.7071
vn 0.7071 0.0000 -0.7071
vn 0.7071 0.0000 0.7071
vn 0.7071 0.0000 0.7071
vn 0.7071 0.0000 -0.7071
vn -0.7071 -0.7071 -0.0000
vn -0.5774 -0.5774 0.5773
vn -0.7071 -0.0000 0.7071
vn -1.0000 0.0000 -0.0000
vn 0.0000 0.0000 1.0000
vn 0.0000 0.0000 1.0000
vn 0.0000 0.0000 1.0000
vn 0.0000 0.0000 1.0000
vn 0.0000 0.0000 -1.0000
vn 0.0000 0.0000 -1.0000
vn 0.0000 0.0000 -1.0000
vn 0.0000 0.0000 -1.0000
vn 1.0000 0.0000 -0.0000
vn 0.7071 0.0000 0.7071
vn 0.7071 -0.0000 0.7071
vn 1.0000 0.0000 -0.0000
vn -0.7071 -0.7071 -0.0000
vn -0.7071 -0.7071 -0.0000
vn -1.0000 0.0000 -0.0000
vn -1.0000 0.0000 -0.0000
vn 0.0000 0.0000 1.0000
vn 0.7071 0.0000 0.7071
vn 0.7071 0.0000 0.7071
vn 0.0000 0.0000 1.0000
vn 0.7071 0.0000 0.7071
vn -0.7071 0.0000 0.7071
vn -0.7071 -0.0000 0.7071
vn 0.7071 -0.0000 0.7071
vn 0.0000 0.0000 -1.0000
vn 0.0000 0.0000 -1.0000
vn -0.7071 0.0000 -0.7071
vn -0.7071 0.0000 -0.7071
vn 0.5774 0.5774 -0.5773
vn 0.7071 0.0000 -0.7071
vn 0.0000 0.0000 -1.0000
vn 0.0000 0.7071 -0.7071
vn 0.5774 0.5774 0.5774
vn 0.0000 0.7071 0.7071
vn 0.0000 0.0000 1.0000
vn 0.7071 0.0000 0.7071
vn 0.0000 0.0000 1.0000
vn 0.0000 0.0000 1.0000
vn 0.0000 0.0000 1.0000
vn 0.0000 0.0000 1.0000
vn 0.0000 0.7071 -0.7071
vn 0.0000 0.0000 -1.0000
vn 0.0000 0.0000 -1.0000
vn 0.0000 0.7071 -0.7071
vn -1.0000 0.0000 -0.0000
vn -1.0000 0.0000 -0.0000
vn -1.0000 0.0000 -0.0000
vn -1.0000 0.0000 -0.0000
vn 0.7071 0.7071 0.0000
vn 0.7071 0.7071 0.0000
vn 1.0000 0.0000 -0.0000
vn 1.0000 0.0000 -0.0000
vn -0.7071 0.0000 -0.7071
vn -1.0000 0.0000 -0.0000
vn -1.0000 0.0000 -0.0000
vn -0.7071 0.0000 -0.7071
vn 0.5774 0.5774 -0.5773
vn 0.5774 0.5774 0.5774
vn 0.7071 0.0000 0.7071
vn 0.7071 0.0000 -0.7071
vn 0.0000 0.7071 -0.7071
vn 0.0000 0.0000 -1.0000
vn -0.7071 0.0000 -0.7071
vn -0.5774 0.5774 -0.5773
vn 0.5774 0.5774 0.5774
vn -0.5773 0.5774 0.5774
vn -0.7071 0.0000 0.7071
vn 0.7071 0.0000 0.7071
vn 0.0000 0.7071 0.7071
vn 0.3015 0.9045 0.3015
vn 0.7071 0.0000 0.7071
vn 0.0000 0.0000 1.0000
vn 0.7071 0.7071 0.0000
vn 0.5774 0.5774 0.5774
vn 0.7071 0.0000 0.7071
vn 1.0000 0.0000 -0.0000
vn 0.0000 0.7071 0.7071
vn 0.0000 0.7071 0.7071
vn 0.0000 0.0000 1.0000
vn 0.0000 0.0000 1.0000
vn -1.0000 0.0000 -0.0000
vn -1.0000 0.0000 -0.0000
vn -1.0000 0.0000 -0.0000
vn -1.0000 0.0000 -0.0000
vn 0.0000 0.7071 -0.7071
vn 0.0000 0.0000 -1.0000
vn 0.0000 0.0000 -1.0000
vn 0.0000 0.7071 -0.7071
vn -1.0000 0.0000 -0.0000
vn -0.7071 0.0000 0.7071
vn -0.7071 0.0000 0.7071
vn -1.0000 0.0000 -0.0000
# 312 vertex normals

vt 0.0000 1.0000 0.0000
vt 1.0000 0.0000 0.0000
vt 0.0000 0.0000 0.0000
vt 1.0000 1.0000 0.0000
# 4 texture coords

o A1
g A1
usemtl Primitive_
s 1
f 62/3/1 33/2/2 3/4/3 55/1/4 
f 61/3/5 54/2/6 7/4/7 34/1/8 
f 57/3/9 50/2/10 6/4/11 78/1/12 
s 2
f 40/3/13 34/2/14 7/4/15 27/1/16 
s 4
f 76/3/17 66/2/18 8/4/19 28/1/20 
s 2
f 5/3/21 32/2/22 4/4/23 25/1/24 
f 48/3/25 43/2/26 9/4/27 47/1/28 
s 4
f 58/3/29 51/2/30 22/4/31 26/1/32 
f 60/3/33 61/2/34 34/4/35 40/1/36 
s 1
f 63/3/37 44/2/38 10/4/39 53/1/40 
f 80/3/41 45/2/42 21/4/43 68/1/44 
s 2
f 29/3/45 39/2/46 15/4/47 28/1/48 
s 4
f 74/3/49 70/2/50 15/4/51 25/1/52 
s 2
f 6/3/53 35/2/54 14/4/55 24/1/56 
s 4
f 75/3/57 67/2/58 20/4/59 30/1/60 
f 59/3/61 54/2/62 19/4/63 31/1/64 
s 1
f 52/3/65 69/2/66 18/4/67 73/1/68 
f 67/3/69 66/2/70 19/4/71 20/1/72 
f 77/3/73 36/2/74 16/4/75 65/1/76 
s 4
f 71/3/77 72/2/78 23/4/79 17/1/80 
f 49/3/81 56/2/82 13/4/83 2/1/84 
s 2
f 33/3/85 6/2/86 24/4/87 3/1/88 
s 4
f 65/3/89 74/2/90 25/4/91 4/1/92 
s 2
f 44/3/93 42/2/94 78/4/95 10/1/96 
s 4
f 55/3/97 58/2/98 26/4/99 16/1/100 
s 2
f 39/3/101 5/2/102 25/4/103 15/1/104 
s 4
f 51/3/105 59/2/106 31/4/107 22/1/108 
f 37/3/109 75/2/110 30/4/111 41/1/112 
s 2
f 11/3/113 29/2/114 28/4/115 8/1/116 
s 4
f 38/3/117 60/2/118 40/4/119 35/1/120 
f 70/3/121 76/2/122 28/4/123 15/1/124 
s 2
f 35/3/125 40/2/126 27/4/127 14/1/128 
f 10/3/129 78/2/130 6/4/131 33/1/132 
s 1
f 68/3/133 21/2/134 36/4/135 77/1/136 
s 2
f 47/3/137 9/2/138 32/4/139 5/1/140 
s 4
f 69/3/141 37/2/142 41/4/143 18/1/144 
f 50/3/145 38/2/146 35/4/147 6/1/148 
s 1
f 53/3/149 10/2/150 33/4/151 62/1/152 
s 4
f 18/3/153 41/2/154 38/4/155 50/1/156 
s 2
f 2/3/157 13/2/158 42/4/159 44/1/160 
s 1
f 72/3/161 79/2/162 46/4/163 23/1/164 
f 71/3/165 17/2/166 45/4/167 80/1/168 
s 4
f 5/3/169 39/2/170 37/4/171 69/1/172 
s 1
f 49/3/173 2/2/174 44/4/175 63/1/176 
s 2
f 12/3/177 1/2/178 43/4/179 48/1/180 
s 1
f 56/3/181 64/2/182 42/4/183 13/1/184 
f 23/3/185 46/2/186 64/4/187 56/1/188 
f 17/3/189 49/2/190 63/4/191 45/1/192 
f 21/3/193 53/2/194 62/4/195 36/1/196 
f 64/3/197 57/2/198 78/4/199 42/1/200 
s 4
f 41/3/201 30/2/202 60/4/203 38/1/204 
f 14/3/205 27/2/206 59/4/207 51/1/208 
f 3/3/209 24/2/210 58/4/211 55/1/212 
f 17/3/213 23/2/214 56/4/215 49/1/216 
f 27/3/217 7/2/218 54/4/219 59/1/220 
s 1
f 79/3/221 52/2/222 73/4/223 46/1/224 
f 45/3/225 63/2/226 53/4/227 21/1/228 
s 4
f 30/3/229 20/2/230 61/4/231 60/1/232 
f 24/3/233 14/2/234 51/4/235 58/1/236 
s 1
f 73/3/237 18/2/238 50/4/239 57/1/240 
f 20/3/241 19/2/242 54/4/243 61/1/244 
f 36/3/245 62/2/246 55/4/247 16/1/248 
f 1/3/249 71/2/250 80/4/251 43/1/252 
f 12/3/253 48/2/254 79/4/255 72/1/256 
f 46/3/257 73/2/258 57/4/259 64/1/260 
f 9/3/261 68/2/262 77/4/263 32/1/264 
s 4
f 22/3/265 31/2/266 76/4/267 70/1/268 
f 39/3/269 29/2/270 75/4/271 37/1/272 
f 16/3/273 26/2/274 74/4/275 65/1/276 
f 1/3/277 12/2/278 72/4/279 71/1/280 
s 1
f 32/3/281 77/2/282 65/4/283 4/1/284 
f 11/3/285 8/2/286 66/4/287 67/1/288 
f 47/3/289 5/2/290 69/4/291 52/1/292 
s 4
f 29/3/293 11/2/294 67/4/295 75/1/296 
s 1
f 48/3/297 47/2/298 52/4/299 79/1/300 
s 4
f 26/3/301 22/2/302 70/4/303 74/1/304 
s 1
f 43/3/305 80/2/306 68/4/307 9/1/308 
s 4
f 31/3/309 19/2/310 66/4/311 76/1/312 
# 78 polygons

