# 3ds Max Wavefront OBJ Exporter v0.97b - (c)2007 guruware
# File Created: 17.06.2020 12:22:28

mtllib C.mtl

#
# object C
#

v  -294.0156 40.0000 -300.5020
v  -316.7275 40.0000 -242.8545
v  -334.4507 40.0000 -184.0518
v  -344.4731 40.0000 -137.1807
v  -350.1929 40.0000 -78.7148
v  -346.9048 40.0000 -13.5576
v  -337.7935 40.0000 36.5498
v  -323.0156 40.0000 83.4824
v  -302.9048 40.0000 126.9053
v  -277.7935 40.0000 166.4814
v  -248.0156 40.0000 201.8730
v  -213.9043 40.0000 232.7432
v  -175.7935 40.0000 258.7568
v  -134.0156 40.0000 279.5752
v  -88.9048 39.9999 294.8623
v  -40.7935 39.9999 304.2822
v  27.7349 39.9999 307.5020
v  104.4961 39.9999 293.1279
v  161.6880 40.0000 268.9805
v  198.7026 40.0000 246.8496
v  233.6094 40.0000 219.4990
v  265.5371 40.0000 186.8135
v  293.6138 40.0000 148.6836
v  316.9688 40.0000 104.9990
v  334.7300 40.0000 55.6465
v  346.0254 40.0000 0.5166
v  350.1929 40.0000 -67.1445
v  346.9780 40.0000 -123.3516
v  336.3989 40.0000 -188.3643
v  311.8071 40.0000 -262.4248
v  289.9844 40.0000 -307.5020
v  182.9844 40.0000 -307.5020
v  211.8965 40.0000 -258.5586
v  244.1436 40.0000 -177.9756
v  256.6699 40.0000 -118.1855
v  260.1035 40.0000 -76.4102
v  255.5830 40.0000 -9.9092
v  234.7412 40.0000 59.8535
v  199.1631 40.0000 117.9902
v  150.5107 40.0000 162.8828
v  106.0000 40.0000 186.4355
v  56.5474 40.0000 201.8613
v  0.9844 40.0000 206.4980
v  -53.5078 40.0000 201.7656
v  -118.7432 40.0000 179.3115
v  -174.0513 40.0000 141.2012
v  -217.3823 40.0000 89.5283
v  -246.6987 40.0000 26.4287
v  -259.4844 40.0000 -41.0205
v  -258.4507 40.0000 -104.7949
v  -246.4341 40.0000 -170.9980
v  -217.5088 40.0000 -247.7744
v  -189.0156 40.0000 -300.5020
v  -294.0156 -39.9999 -300.5020
v  -316.7275 -40.0000 -242.8545
v  -334.4507 -40.0000 -184.0518
v  -344.4731 -40.0000 -137.1807
v  -350.1929 -40.0000 -78.7148
v  -346.9048 -40.0000 -13.5576
v  -337.7935 -40.0000 36.5498
v  -323.0156 -40.0000 83.4824
v  -302.9048 -40.0000 126.9053
v  -277.7935 -40.0000 166.4814
v  -248.0156 -40.0000 201.8730
v  -213.9043 -40.0000 232.7432
v  -175.7935 -39.9976 258.7568
v  -134.0156 -40.0000 279.5752
v  -88.9048 -40.0000 294.8623
v  -40.7935 -40.0000 304.2822
v  27.7349 -40.0000 307.5020
v  104.4961 -40.0000 293.1279
v  161.6880 -40.0000 268.9805
v  198.7026 -39.9976 246.8496
v  233.6094 -40.0000 219.4990
v  265.5371 -40.0000 186.8135
v  293.6138 -40.0000 148.6836
v  316.9688 -40.0000 104.9990
v  334.7300 -40.0000 55.6465
v  346.0254 -40.0000 0.5166
v  350.1929 -40.0000 -67.1445
v  346.9780 -39.9975 -123.3516
v  336.3989 -40.0000 -188.3643
v  311.8071 -40.0000 -262.4248
v  289.9844 -39.9999 -307.5020
v  182.9844 -39.9999 -307.5020
v  211.8965 -40.0000 -258.5586
v  244.1436 -40.0000 -177.9756
v  256.6699 -40.0000 -118.1855
v  260.1035 -40.0000 -76.4102
v  255.5830 -40.0000 -9.9092
v  234.7412 -40.0000 59.8535
v  199.1631 -40.0000 117.9902
v  150.5107 -40.0000 162.8828
v  106.0000 -40.0000 186.4355
v  56.5474 -40.0000 201.8613
v  0.9844 -40.0000 206.4980
v  -53.5078 -39.9976 201.7656
v  -118.7432 -39.9976 179.3115
v  -174.0513 -40.0000 141.2012
v  -217.3823 -40.0000 89.5283
v  -246.6987 -40.0000 26.4287
v  -259.4844 -40.0000 -41.0205
v  -258.4507 -40.0000 -104.7949
v  -246.4341 -39.9975 -170.9980
v  -217.5088 -39.9975 -247.7744
v  -189.0156 -39.9999 -300.5020
# 106 vertices

vn -0.7164 0.6928 0.0828
vn -0.7109 0.6946 -0.1104
vn -0.7228 0.6908 -0.0170
vn -0.6995 0.6933 0.1730
vn -0.7109 0.6946 -0.1104
vn -0.7164 0.6928 0.0828
vn -0.6995 0.6933 0.1730
vn -0.6935 0.6980 -0.1783
vn -0.7109 0.6946 -0.1104
vn -0.6724 0.6929 0.2603
vn -0.6935 0.6980 -0.1783
vn -0.6995 0.6933 0.1730
vn -0.6724 0.6929 0.2603
vn -0.6766 0.6979 -0.2348
vn -0.6935 0.6980 -0.1783
vn -0.6331 0.6926 0.3455
vn -0.6766 0.6979 -0.2348
vn -0.6724 0.6929 0.2603
vn -0.6331 0.6926 0.3455
vn -0.4504 0.5997 -0.6615
vn -0.6766 0.6979 -0.2348
vn -0.5820 0.6923 0.4266
vn -0.4504 0.5997 -0.6615
vn -0.6331 0.6926 0.3455
vn -0.5820 0.6923 0.4266
vn 0.6845 0.7259 0.0672
vn -0.4504 0.5997 -0.6615
vn 0.6845 0.7259 0.0672
vn 0.6608 0.7280 0.1828
vn -0.4504 0.5997 -0.6615
vn 0.6608 0.7280 0.1828
vn 0.6289 0.7226 0.2868
vn -0.4504 0.5997 -0.6615
vn 0.6289 0.7226 0.2868
vn 0.7140 0.5557 -0.4259
vn -0.4504 0.5997 -0.6615
vn -0.5195 0.6922 0.5011
vn 0.6802 0.7307 -0.0583
vn -0.5820 0.6923 0.4266
vn 0.6802 0.7307 -0.0583
vn 0.6845 0.7259 0.0672
vn -0.5820 0.6923 0.4266
vn -0.5195 0.6922 0.5011
vn 0.6445 0.7360 -0.2073
vn 0.6802 0.7307 -0.0583
vn -0.4467 0.6921 0.5670
vn 0.6445 0.7360 -0.2073
vn -0.5195 0.6922 0.5011
vn -0.4467 0.6921 0.5670
vn 0.5696 0.7378 -0.3622
vn 0.6445 0.7360 -0.2073
vn -0.3653 0.6921 0.6225
vn 0.5696 0.7378 -0.3622
vn -0.4467 0.6921 0.5670
vn -0.3653 0.6921 0.6225
vn 0.4536 0.7386 -0.4986
vn 0.5696 0.7378 -0.3622
vn -0.2774 0.6921 0.6663
vn 0.4536 0.7386 -0.4986
vn -0.3653 0.6921 0.6225
vn -0.2774 0.6921 0.6663
vn 0.3036 0.7389 -0.6015
vn 0.4536 0.7386 -0.4986
vn -0.1855 0.6924 0.6972
vn 0.3036 0.7389 -0.6015
vn -0.2774 0.6921 0.6663
vn -0.1855 0.6924 0.6972
vn 0.1406 0.7357 -0.6626
vn 0.3036 0.7389 -0.6015
vn -0.0866 0.6910 0.7176
vn 0.1406 0.7357 -0.6626
vn -0.1855 0.6924 0.6972
vn 0.0505 0.6820 0.7296
vn 0.1406 0.7357 -0.6626
vn -0.0866 0.6910 0.7176
vn 0.0505 0.6820 0.7296
vn 0.0012 0.7267 -0.6869
vn 0.1406 0.7357 -0.6626
vn 0.0505 0.6820 0.7296
vn -0.1304 0.7326 -0.6680
vn 0.0012 0.7267 -0.6869
vn 0.2103 0.6838 0.6987
vn -0.1304 0.7326 -0.6680
vn 0.0505 0.6820 0.7296
vn 0.2103 0.6838 0.6987
vn -0.2633 0.7284 -0.6325
vn -0.1304 0.7326 -0.6680
vn 0.2103 0.6838 0.6987
vn -0.3903 0.7373 -0.5514
vn -0.2633 0.7284 -0.6325
vn 0.3265 0.6918 0.6441
vn -0.3903 0.7373 -0.5514
vn 0.2103 0.6838 0.6987
vn 0.4080 0.6932 0.5941
vn -0.3903 0.7373 -0.5514
vn 0.3265 0.6918 0.6441
vn 0.4080 0.6932 0.5941
vn -0.5203 0.7395 -0.4271
vn -0.3903 0.7373 -0.5514
vn -0.6183 0.7247 0.3041
vn 0.4230 0.6048 -0.6747
vn -0.7228 0.5544 -0.4125
vn 0.4816 0.6925 0.5372
vn -0.5203 0.7395 -0.4271
vn 0.4080 0.6932 0.5941
vn 0.4816 0.6925 0.5372
vn -0.6169 0.7373 -0.2753
vn -0.5203 0.7395 -0.4271
vn -0.6570 0.7272 0.1986
vn 0.4230 0.6048 -0.6747
vn -0.6183 0.7247 0.3041
vn 0.5503 0.6918 0.4675
vn -0.6169 0.7373 -0.2753
vn 0.4816 0.6925 0.5372
vn 0.5503 0.6918 0.4675
vn -0.6694 0.7330 -0.1212
vn -0.6169 0.7373 -0.2753
vn -0.6853 0.7214 0.0996
vn 0.4230 0.6048 -0.6747
vn -0.6570 0.7272 0.1986
vn -0.6895 0.7243 0.0049
vn 0.4230 0.6048 -0.6747
vn -0.6853 0.7214 0.0996
vn 0.5503 0.6918 0.4675
vn -0.6895 0.7243 0.0049
vn -0.6694 0.7330 -0.1212
vn 0.5503 0.6918 0.4675
vn 0.4230 0.6048 -0.6747
vn -0.6895 0.7243 0.0049
vn 0.6111 0.6913 0.3856
vn 0.4230 0.6048 -0.6747
vn 0.5503 0.6918 0.4675
vn 0.6111 0.6913 0.3856
vn 0.6682 0.6927 -0.2713
vn 0.4230 0.6048 -0.6747
vn 0.6605 0.6911 0.2935
vn 0.6682 0.6927 -0.2713
vn 0.6111 0.6913 0.3856
vn 0.6957 0.6913 0.1954
vn 0.6682 0.6927 -0.2713
vn 0.6605 0.6911 0.2935
vn 0.6957 0.6913 0.1954
vn 0.7032 0.6896 -0.1728
vn 0.6682 0.6927 -0.2713
vn 0.7159 0.6917 0.0949
vn 0.7032 0.6896 -0.1728
vn 0.6957 0.6913 0.1954
vn 0.7159 0.6917 0.0949
vn 0.7142 0.6956 -0.0783
vn 0.7032 0.6896 -0.1728
vn 0.7200 0.6940 0.0016
vn 0.7142 0.6956 -0.0783
vn 0.7159 0.6917 0.0949
vn -0.7163 -0.6929 0.0828
vn -0.7228 -0.6908 -0.0170
vn -0.7109 -0.6946 -0.1104
vn -0.6996 -0.6933 0.1730
vn -0.7163 -0.6929 0.0828
vn -0.7109 -0.6946 -0.1104
vn -0.6996 -0.6933 0.1730
vn -0.7109 -0.6946 -0.1104
vn -0.6936 -0.6979 -0.1784
vn -0.6723 -0.6930 0.2603
vn -0.6996 -0.6933 0.1730
vn -0.6936 -0.6979 -0.1784
vn -0.6723 -0.6930 0.2603
vn -0.6936 -0.6979 -0.1784
vn -0.6766 -0.6979 -0.2348
vn -0.6332 -0.6926 0.3456
vn -0.6723 -0.6930 0.2603
vn -0.6766 -0.6979 -0.2348
vn -0.6332 -0.6926 0.3456
vn -0.6766 -0.6979 -0.2348
vn -0.4503 -0.5997 -0.6615
vn -0.5820 -0.6924 0.4265
vn -0.6332 -0.6926 0.3456
vn -0.4503 -0.5997 -0.6615
vn -0.5820 -0.6924 0.4265
vn -0.4503 -0.5997 -0.6615
vn 0.6844 -0.7260 0.0672
vn 0.6844 -0.7260 0.0672
vn -0.4503 -0.5997 -0.6615
vn 0.6608 -0.7280 0.1828
vn 0.6608 -0.7280 0.1828
vn -0.4503 -0.5997 -0.6615
vn 0.6290 -0.7225 0.2869
vn 0.6290 -0.7225 0.2869
vn -0.4503 -0.5997 -0.6615
vn 0.7140 -0.5557 -0.4259
vn -0.5195 -0.6922 0.5011
vn -0.5820 -0.6924 0.4265
vn 0.6802 -0.7307 -0.0583
vn 0.6802 -0.7307 -0.0583
vn -0.5820 -0.6924 0.4265
vn 0.6844 -0.7260 0.0672
vn -0.5195 -0.6922 0.5011
vn 0.6802 -0.7307 -0.0583
vn 0.6445 -0.7360 -0.2073
vn -0.4467 -0.6921 0.5670
vn -0.5195 -0.6922 0.5011
vn 0.6445 -0.7360 -0.2073
vn -0.4467 -0.6921 0.5670
vn 0.6445 -0.7360 -0.2073
vn 0.5696 -0.7378 -0.3622
vn -0.3653 -0.6920 0.6226
vn -0.4467 -0.6921 0.5670
vn 0.5696 -0.7378 -0.3622
vn -0.3653 -0.6920 0.6226
vn 0.5696 -0.7378 -0.3622
vn 0.4536 -0.7387 -0.4986
vn -0.2774 -0.6922 0.6663
vn -0.3653 -0.6920 0.6226
vn 0.4536 -0.7387 -0.4986
vn -0.2774 -0.6922 0.6663
vn 0.4536 -0.7387 -0.4986
vn 0.3036 -0.7389 -0.6015
vn -0.1855 -0.6924 0.6972
vn -0.2774 -0.6922 0.6663
vn 0.3036 -0.7389 -0.6015
vn -0.1855 -0.6924 0.6972
vn 0.3036 -0.7389 -0.6015
vn 0.1406 -0.7357 -0.6626
vn -0.0866 -0.6910 0.7176
vn -0.1855 -0.6924 0.6972
vn 0.1406 -0.7357 -0.6626
vn 0.0505 -0.6820 0.7296
vn -0.0866 -0.6910 0.7176
vn 0.1406 -0.7357 -0.6626
vn 0.0505 -0.6820 0.7296
vn 0.1406 -0.7357 -0.6626
vn 0.0011 -0.7268 -0.6869
vn 0.0505 -0.6820 0.7296
vn 0.0011 -0.7268 -0.6869
vn -0.1304 -0.7326 -0.6680
vn 0.2103 -0.6838 0.6987
vn 0.0505 -0.6820 0.7296
vn -0.1304 -0.7326 -0.6680
vn 0.2103 -0.6838 0.6987
vn -0.1304 -0.7326 -0.6680
vn -0.2633 -0.7284 -0.6325
vn 0.2103 -0.6838 0.6987
vn -0.2633 -0.7284 -0.6325
vn -0.3903 -0.7373 -0.5514
vn 0.3265 -0.6918 0.6441
vn 0.2103 -0.6838 0.6987
vn -0.3903 -0.7373 -0.5514
vn 0.4080 -0.6932 0.5941
vn 0.3265 -0.6918 0.6441
vn -0.3903 -0.7373 -0.5514
vn 0.4080 -0.6932 0.5941
vn -0.3903 -0.7373 -0.5514
vn -0.5203 -0.7394 -0.4272
vn -0.6183 -0.7247 0.3041
vn -0.7228 -0.5544 -0.4125
vn 0.4230 -0.6048 -0.6747
vn 0.4815 -0.6925 0.5372
vn 0.4080 -0.6932 0.5941
vn -0.5203 -0.7394 -0.4272
vn 0.4815 -0.6925 0.5372
vn -0.5203 -0.7394 -0.4272
vn -0.6169 -0.7373 -0.2753
vn -0.6570 -0.7272 0.1986
vn -0.6183 -0.7247 0.3041
vn 0.4230 -0.6048 -0.6747
vn 0.5503 -0.6918 0.4675
vn 0.4815 -0.6925 0.5372
vn -0.6169 -0.7373 -0.2753
vn 0.5503 -0.6918 0.4675
vn -0.6169 -0.7373 -0.2753
vn -0.6694 -0.7330 -0.1212
vn -0.6854 -0.7213 0.0996
vn -0.6570 -0.7272 0.1986
vn 0.4230 -0.6048 -0.6747
vn -0.6894 -0.7244 0.0049
vn -0.6854 -0.7213 0.0996
vn 0.4230 -0.6048 -0.6747
vn 0.5503 -0.6918 0.4675
vn -0.6694 -0.7330 -0.1212
vn -0.6894 -0.7244 0.0049
vn 0.5503 -0.6918 0.4675
vn -0.6894 -0.7244 0.0049
vn 0.4230 -0.6048 -0.6747
vn 0.6111 -0.6913 0.3856
vn 0.5503 -0.6918 0.4675
vn 0.4230 -0.6048 -0.6747
vn 0.6111 -0.6913 0.3856
vn 0.4230 -0.6048 -0.6747
vn 0.6682 -0.6927 -0.2713
vn 0.6605 -0.6911 0.2935
vn 0.6111 -0.6913 0.3856
vn 0.6682 -0.6927 -0.2713
vn 0.6956 -0.6914 0.1953
vn 0.6605 -0.6911 0.2935
vn 0.6682 -0.6927 -0.2713
vn 0.6956 -0.6914 0.1953
vn 0.6682 -0.6927 -0.2713
vn 0.7032 -0.6896 -0.1728
vn 0.7160 -0.6916 0.0949
vn 0.6956 -0.6914 0.1953
vn 0.7032 -0.6896 -0.1728
vn 0.7160 -0.6916 0.0949
vn 0.7032 -0.6896 -0.1728
vn 0.7143 -0.6955 -0.0783
vn 0.7198 -0.6941 0.0016
vn 0.7160 -0.6916 0.0949
vn 0.7143 -0.6955 -0.0783
vn -0.6995 0.6933 0.1730
vn -0.7164 0.6928 0.0828
vn -0.7163 -0.6929 0.0828
vn -0.6996 -0.6933 0.1730
vn -0.2774 0.6921 0.6663
vn -0.3653 0.6921 0.6225
vn -0.3653 -0.6920 0.6226
vn -0.2774 -0.6922 0.6663
vn -0.0866 0.6910 0.7176
vn -0.1855 0.6924 0.6972
vn -0.1855 -0.6924 0.6972
vn -0.0866 -0.6910 0.7176
vn -0.6766 0.6979 -0.2348
vn -0.4504 0.5997 -0.6615
vn -0.4503 -0.5997 -0.6615
vn -0.6766 -0.6979 -0.2348
vn -0.1855 0.6924 0.6972
vn -0.2774 0.6921 0.6663
vn -0.2774 -0.6922 0.6663
vn -0.1855 -0.6924 0.6972
vn -0.7164 0.6928 0.0828
vn -0.7228 0.6908 -0.0170
vn -0.7228 -0.6908 -0.0170
vn -0.7163 -0.6929 0.0828
vn -0.3653 0.6921 0.6225
vn -0.4467 0.6921 0.5670
vn -0.4467 -0.6921 0.5670
vn -0.3653 -0.6920 0.6226
vn -0.4467 0.6921 0.5670
vn -0.5195 0.6922 0.5011
vn -0.5195 -0.6922 0.5011
vn -0.4467 -0.6921 0.5670
vn -0.5195 0.6922 0.5011
vn -0.5820 0.6923 0.4266
vn -0.5820 -0.6924 0.4265
vn -0.5195 -0.6922 0.5011
vn -0.6331 0.6926 0.3455
vn -0.6724 0.6929 0.2603
vn -0.6723 -0.6930 0.2603
vn -0.6332 -0.6926 0.3456
vn 0.7142 0.6956 -0.0783
vn 0.7200 0.6940 0.0016
vn 0.7198 -0.6941 0.0016
vn 0.7143 -0.6955 -0.0783
vn -0.5820 0.6923 0.4266
vn -0.6331 0.6926 0.3455
vn -0.6332 -0.6926 0.3456
vn -0.5820 -0.6924 0.4265
vn 0.7032 0.6896 -0.1728
vn 0.7142 0.6956 -0.0783
vn 0.7143 -0.6955 -0.0783
vn 0.7032 -0.6896 -0.1728
vn -0.6570 0.7272 0.1986
vn -0.6183 0.7247 0.3041
vn -0.6183 -0.7247 0.3041
vn -0.6570 -0.7272 0.1986
vn 0.7140 0.5557 -0.4259
vn 0.6289 0.7226 0.2868
vn 0.6290 -0.7225 0.2869
vn 0.7140 -0.5557 -0.4259
vn 0.6682 0.6927 -0.2713
vn 0.7032 0.6896 -0.1728
vn 0.7032 -0.6896 -0.1728
vn 0.6682 -0.6927 -0.2713
vn 0.6608 0.7280 0.1828
vn 0.6845 0.7259 0.0672
vn 0.6844 -0.7260 0.0672
vn 0.6608 -0.7280 0.1828
vn -0.6935 0.6980 -0.1783
vn -0.6766 0.6979 -0.2348
vn -0.6766 -0.6979 -0.2348
vn -0.6936 -0.6979 -0.1784
vn -0.7228 0.5544 -0.4125
vn 0.4230 0.6048 -0.6747
vn 0.4230 -0.6048 -0.6747
vn -0.7228 -0.5544 -0.4125
vn -0.6183 0.7247 0.3041
vn -0.7228 0.5544 -0.4125
vn -0.7228 -0.5544 -0.4125
vn -0.6183 -0.7247 0.3041
vn 0.6289 0.7226 0.2868
vn 0.6608 0.7280 0.1828
vn 0.6608 -0.7280 0.1828
vn 0.6290 -0.7225 0.2869
vn -0.7109 0.6946 -0.1104
vn -0.6935 0.6980 -0.1783
vn -0.6936 -0.6979 -0.1784
vn -0.7109 -0.6946 -0.1104
vn 0.4230 0.6048 -0.6747
vn 0.6682 0.6927 -0.2713
vn 0.6682 -0.6927 -0.2713
vn 0.4230 -0.6048 -0.6747
vn -0.1304 0.7326 -0.6680
vn -0.2633 0.7284 -0.6325
vn -0.2633 -0.7284 -0.6325
vn -0.1304 -0.7326 -0.6680
vn 0.1406 0.7357 -0.6626
vn 0.0012 0.7267 -0.6869
vn 0.0011 -0.7268 -0.6869
vn 0.1406 -0.7357 -0.6626
vn 0.0012 0.7267 -0.6869
vn -0.1304 0.7326 -0.6680
vn -0.1304 -0.7326 -0.6680
vn 0.0011 -0.7268 -0.6869
vn -0.3903 0.7373 -0.5514
vn -0.5203 0.7395 -0.4271
vn -0.5203 -0.7394 -0.4272
vn -0.3903 -0.7373 -0.5514
vn -0.5203 0.7395 -0.4271
vn -0.6169 0.7373 -0.2753
vn -0.6169 -0.7373 -0.2753
vn -0.5203 -0.7394 -0.4272
vn 0.4536 0.7386 -0.4986
vn 0.3036 0.7389 -0.6015
vn 0.3036 -0.7389 -0.6015
vn 0.4536 -0.7387 -0.4986
vn -0.6169 0.7373 -0.2753
vn -0.6694 0.7330 -0.1212
vn -0.6694 -0.7330 -0.1212
vn -0.6169 -0.7373 -0.2753
vn 0.3036 0.7389 -0.6015
vn 0.1406 0.7357 -0.6626
vn 0.1406 -0.7357 -0.6626
vn 0.3036 -0.7389 -0.6015
vn -0.6853 0.7214 0.0996
vn -0.6570 0.7272 0.1986
vn -0.6570 -0.7272 0.1986
vn -0.6854 -0.7213 0.0996
vn 0.6845 0.7259 0.0672
vn 0.6802 0.7307 -0.0583
vn 0.6802 -0.7307 -0.0583
vn 0.6844 -0.7260 0.0672
vn -0.6694 0.7330 -0.1212
vn -0.6895 0.7243 0.0049
vn -0.6894 -0.7244 0.0049
vn -0.6694 -0.7330 -0.1212
vn 0.6802 0.7307 -0.0583
vn 0.6445 0.7360 -0.2073
vn 0.6445 -0.7360 -0.2073
vn 0.6802 -0.7307 -0.0583
vn 0.5696 0.7378 -0.3622
vn 0.4536 0.7386 -0.4986
vn 0.4536 -0.7387 -0.4986
vn 0.5696 -0.7378 -0.3622
vn 0.6445 0.7360 -0.2073
vn 0.5696 0.7378 -0.3622
vn 0.5696 -0.7378 -0.3622
vn 0.6445 -0.7360 -0.2073
vn -0.6895 0.7243 0.0049
vn -0.6853 0.7214 0.0996
vn -0.6854 -0.7213 0.0996
vn -0.6894 -0.7244 0.0049
vn 0.7200 0.6940 0.0016
vn 0.7159 0.6917 0.0949
vn 0.7160 -0.6916 0.0949
vn 0.7198 -0.6941 0.0016
vn 0.7159 0.6917 0.0949
vn 0.6957 0.6913 0.1954
vn 0.6956 -0.6914 0.1953
vn 0.7160 -0.6916 0.0949
vn 0.6957 0.6913 0.1954
vn 0.6605 0.6911 0.2935
vn 0.6605 -0.6911 0.2935
vn 0.6956 -0.6914 0.1953
vn -0.4504 0.5997 -0.6615
vn 0.7140 0.5557 -0.4259
vn 0.7140 -0.5557 -0.4259
vn -0.4503 -0.5997 -0.6615
vn 0.6111 0.6913 0.3856
vn 0.5503 0.6918 0.4675
vn 0.5503 -0.6918 0.4675
vn 0.6111 -0.6913 0.3856
vn 0.6605 0.6911 0.2935
vn 0.6111 0.6913 0.3856
vn 0.6111 -0.6913 0.3856
vn 0.6605 -0.6911 0.2935
vn 0.2103 0.6838 0.6987
vn 0.0505 0.6820 0.7296
vn 0.0505 -0.6820 0.7296
vn 0.2103 -0.6838 0.6987
vn 0.4080 0.6932 0.5941
vn 0.3265 0.6918 0.6441
vn 0.3265 -0.6918 0.6441
vn 0.4080 -0.6932 0.5941
vn 0.0505 0.6820 0.7296
vn -0.0866 0.6910 0.7176
vn -0.0866 -0.6910 0.7176
vn 0.0505 -0.6820 0.7296
vn 0.5503 0.6918 0.4675
vn 0.4816 0.6925 0.5372
vn 0.4815 -0.6925 0.5372
vn 0.5503 -0.6918 0.4675
vn 0.4816 0.6925 0.5372
vn 0.4080 0.6932 0.5941
vn 0.4080 -0.6932 0.5941
vn 0.4815 -0.6925 0.5372
vn -0.2633 0.7284 -0.6325
vn -0.3903 0.7373 -0.5514
vn -0.3903 -0.7373 -0.5514
vn -0.2633 -0.7284 -0.6325
vn 0.3265 0.6918 0.6441
vn 0.2103 0.6838 0.6987
vn 0.2103 -0.6838 0.6987
vn 0.3265 -0.6918 0.6441
vn -0.7228 0.6908 -0.0170
vn -0.7109 0.6946 -0.1104
vn -0.7109 -0.6946 -0.1104
vn -0.7228 -0.6908 -0.0170
vn -0.6724 0.6929 0.2603
vn -0.6995 0.6933 0.1730
vn -0.6996 -0.6933 0.1730
vn -0.6723 -0.6930 0.2603
# 518 vertex normals

vt 0.0000 1.0000 0.0000
vt 1.0000 0.0000 0.0000
vt 0.0000 0.0000 0.0000
vt 1.0000 1.0000 0.0000
# 4 texture coords

o C
g C
usemtl Primitive_
s 1
f 6/3/1 4/2/2 5/4/3 
f 7/3/4 4/2/5 6/4/6 
f 7/3/7 3/2/8 4/4/9 
f 8/3/10 3/2/11 7/4/12 
f 8/3/13 2/2/14 3/4/15 
f 9/3/16 2/2/17 8/4/18 
f 9/3/19 1/2/20 2/4/21 
f 10/3/22 1/2/23 9/4/24 
f 10/3/25 50/2/26 1/4/27 
f 50/3/28 51/2/29 1/4/30 
f 51/3/31 52/2/32 1/4/33 
f 52/3/34 53/2/35 1/4/36 
f 11/3/37 49/2/38 10/4/39 
f 49/3/40 50/2/41 10/4/42 
f 11/3/43 48/2/44 49/4/45 
f 12/3/46 48/2/47 11/4/48 
f 12/3/49 47/2/50 48/4/51 
f 13/3/52 47/2/53 12/4/54 
f 13/3/55 46/2/56 47/4/57 
f 14/3/58 46/2/59 13/4/60 
f 14/3/61 45/2/62 46/4/63 
f 15/3/64 45/2/65 14/4/66 
f 15/3/67 44/2/68 45/4/69 
f 16/3/70 44/2/71 15/4/72 
f 17/3/73 44/2/74 16/4/75 
f 17/3/76 43/2/77 44/4/78 
f 17/3/79 42/2/80 43/4/81 
f 18/3/82 42/2/83 17/4/84 
f 18/3/85 41/2/86 42/4/87 
f 18/3/88 40/2/89 41/4/90 
f 19/3/91 40/2/92 18/4/93 
f 20/3/94 40/2/95 19/4/96 
f 20/3/97 39/2/98 40/4/99 
s 2
f 33/3/100 31/2/101 32/4/102 
s 1
f 21/3/103 39/2/104 20/4/105 
f 21/3/106 38/2/107 39/4/108 
s 2
f 34/3/109 31/2/110 33/4/111 
s 1
f 22/3/112 38/2/113 21/4/114 
f 22/3/115 37/2/116 38/4/117 
s 2
f 35/3/118 31/2/119 34/4/120 
f 36/3/121 31/2/122 35/4/123 
s 1
f 22/3/124 36/2/125 37/4/126 
s 2
f 22/3/127 31/2/128 36/4/129 
f 23/3/130 31/2/131 22/4/132 
f 23/3/133 30/2/134 31/4/135 
f 24/3/136 30/2/137 23/4/138 
f 25/3/139 30/2/140 24/4/141 
f 25/3/142 29/2/143 30/4/144 
f 26/3/145 29/2/146 25/4/147 
f 26/3/148 28/2/149 29/4/150 
f 27/3/151 28/2/152 26/4/153 
s 1
f 59/3/154 58/2/155 57/4/156 
f 60/3/157 59/2/158 57/4/159 
f 60/3/160 57/2/161 56/4/162 
f 61/3/163 60/2/164 56/4/165 
f 61/3/166 56/2/167 55/4/168 
f 62/3/169 61/2/170 55/4/171 
f 62/3/172 55/2/173 54/4/174 
f 63/3/175 62/2/176 54/4/177 
f 63/3/178 54/2/179 103/4/180 
s off
f 103/3/181 54/2/182 104/4/183 
f 104/3/184 54/2/185 105/4/186 
f 105/3/187 54/2/188 106/4/189 
s 1
f 64/3/190 63/2/191 102/4/192 
f 102/3/193 63/2/194 103/4/195 
f 64/3/196 102/2/197 101/4/198 
f 65/3/199 64/2/200 101/4/201 
f 65/3/202 101/2/203 100/4/204 
s off
f 66/3/205 65/2/206 100/4/207 
f 66/3/208 100/2/209 99/4/210 
f 67/3/211 66/2/212 99/4/213 
f 67/3/214 99/2/215 98/4/216 
s 1
f 68/3/217 67/2/218 98/4/219 
f 68/3/220 98/2/221 97/4/222 
s off
f 69/3/223 68/2/224 97/4/225 
f 70/3/226 69/2/227 97/4/228 
f 70/3/229 97/2/230 96/4/231 
s 1
f 70/3/232 96/2/233 95/4/234 
f 71/3/235 70/2/236 95/4/237 
f 71/3/238 95/2/239 94/4/240 
f 71/3/241 94/2/242 93/4/243 
f 72/3/244 71/2/245 93/4/246 
s off
f 73/3/247 72/2/248 93/4/249 
f 73/3/250 93/2/251 92/4/252 
s 1
f 86/3/253 85/2/254 84/4/255 
s off
f 74/3/256 73/2/257 92/4/258 
s 2
f 74/3/259 92/2/260 91/4/261 
s 1
f 87/3/262 86/2/263 84/4/264 
s 2
f 75/3/265 74/2/266 91/4/267 
f 75/3/268 91/2/269 90/4/270 
s 1
f 88/3/271 87/2/272 84/4/273 
f 89/3/274 88/2/275 84/4/276 
s 2
f 75/3/277 90/2/278 89/4/279 
s 1
f 75/3/280 89/2/281 84/4/282 
f 76/3/283 75/2/284 84/4/285 
f 76/3/286 84/2/287 83/4/288 
f 77/3/289 76/2/290 83/4/291 
f 78/3/292 77/2/293 83/4/294 
f 78/3/295 83/2/296 82/4/297 
f 79/3/298 78/2/299 82/4/300 
s off
f 79/3/301 82/2/302 81/4/303 
f 80/3/304 79/2/305 81/4/306 
f 7/3/307 6/2/308 59/4/309 60/1/310 
f 14/3/311 13/2/312 66/4/313 67/1/314 
f 16/3/315 15/2/316 68/4/317 69/1/318 
f 2/3/319 1/2/320 54/4/321 55/1/322 
f 15/3/323 14/2/324 67/4/325 68/1/326 
f 6/3/327 5/2/328 58/4/329 59/1/330 
f 13/3/331 12/2/332 65/4/333 66/1/334 
f 12/3/335 11/2/336 64/4/337 65/1/338 
f 11/3/339 10/2/340 63/4/341 64/1/342 
f 9/3/343 8/2/344 61/4/345 62/1/346 
f 28/3/347 27/2/348 80/4/349 81/1/350 
f 10/3/351 9/2/352 62/4/353 63/1/354 
f 29/3/355 28/2/356 81/4/357 82/1/358 
f 34/3/359 33/2/360 86/4/361 87/1/362 
f 53/3/363 52/2/364 105/4/365 106/1/366 
f 30/3/367 29/2/368 82/4/369 83/1/370 
f 51/3/371 50/2/372 103/4/373 104/1/374 
f 3/3/375 2/2/376 55/4/377 56/1/378 
f 32/3/379 31/2/380 84/4/381 85/1/382 
f 33/3/383 32/2/384 85/4/385 86/1/386 
f 52/3/387 51/2/388 104/4/389 105/1/390 
f 4/3/391 3/2/392 56/4/393 57/1/394 
f 31/3/395 30/2/396 83/4/397 84/1/398 
f 42/3/399 41/2/400 94/4/401 95/1/402 
f 44/3/403 43/2/404 96/4/405 97/1/406 
f 43/3/407 42/2/408 95/4/409 96/1/410 
f 40/3/411 39/2/412 92/4/413 93/1/414 
f 39/3/415 38/2/416 91/4/417 92/1/418 
f 46/3/419 45/2/420 98/4/421 99/1/422 
f 38/3/423 37/2/424 90/4/425 91/1/426 
f 45/3/427 44/2/428 97/4/429 98/1/430 
f 35/3/431 34/2/432 87/4/433 88/1/434 
f 50/3/435 49/2/436 102/4/437 103/1/438 
f 37/3/439 36/2/440 89/4/441 90/1/442 
f 49/3/443 48/2/444 101/4/445 102/1/446 
f 47/3/447 46/2/448 99/4/449 100/1/450 
f 48/3/451 47/2/452 100/4/453 101/1/454 
f 36/3/455 35/2/456 88/4/457 89/1/458 
f 27/3/459 26/2/460 79/4/461 80/1/462 
f 26/3/463 25/2/464 78/4/465 79/1/466 
f 25/3/467 24/2/468 77/4/469 78/1/470 
f 1/3/471 53/2/472 106/4/473 54/1/474 
f 23/3/475 22/2/476 75/4/477 76/1/478 
f 24/3/479 23/2/480 76/4/481 77/1/482 
f 18/3/483 17/2/484 70/4/485 71/1/486 
f 20/3/487 19/2/488 72/4/489 73/1/490 
f 17/3/491 16/2/492 69/4/493 70/1/494 
f 22/3/495 21/2/496 74/4/497 75/1/498 
f 21/3/499 20/2/500 73/4/501 74/1/502 
f 41/3/503 40/2/504 93/4/505 94/1/506 
f 19/3/507 18/2/508 71/4/509 72/1/510 
f 5/3/511 4/2/512 57/4/513 58/1/514 
f 8/3/515 7/2/516 60/4/517 61/1/518 
# 53 polygons - 102 triangles

