# 3ds Max Wavefront OBJ Exporter v0.97b - (c)2007 guruware
# File Created: 17.06.2020 12:22:54

mtllib C1.mtl

#
# object C1
#

v  -500.0000 -500.0001 500.0000
v  -500.0000 499.9999 500.0000
v  -500.0000 -499.9999 -500.0000
v  -500.0000 500.0001 -500.0000
v  500.0000 -500.0001 500.0000
v  500.0000 499.9999 500.0000
v  500.0000 -499.9999 -500.0000
v  500.0000 500.0001 -500.0000
v  -500.0000 -500.0000 -0.0000
v  -500.0000 -0.0001 500.0000
v  -500.0000 500.0000 -0.0000
v  -500.0000 0.0001 -500.0000
v  0.0000 -499.9999 -500.0000
v  0.0000 500.0001 -500.0000
v  500.0000 0.0001 -500.0000
v  500.0000 -500.0000 -0.0000
v  500.0000 500.0000 -0.0000
v  500.0000 -0.0001 500.0000
v  0.0000 -500.0001 500.0000
v  0.0000 499.9999 500.0000
v  0.0000 500.0000 -0.0000
v  0.0000 -500.0000 -0.0000
v  0.0000 -0.0001 500.0000
v  500.0000 0.0000 -0.0000
v  0.0000 0.0001 -500.0000
v  -500.0000 0.0000 -0.0000
# 26 vertices

vn -1.0000 0.0000 -0.0000
vn -0.7071 0.7071 0.0000
vn -0.5774 0.5774 -0.5774
vn -0.7071 0.0000 -0.7071
vn 0.0000 0.0000 -1.0000
vn 0.0000 0.7071 -0.7071
vn 0.5774 0.5774 -0.5774
vn 0.7071 0.0000 -0.7071
vn 1.0000 0.0000 -0.0000
vn 0.7071 0.7071 0.0000
vn 0.5774 0.5774 0.5774
vn 0.7071 0.0000 0.7071
vn 0.0000 0.0000 1.0000
vn 0.0000 0.7071 0.7071
vn -0.5774 0.5774 0.5774
vn -0.7071 0.0000 0.7071
vn 0.0000 -1.0000 -0.0000
vn 0.7071 -0.7071 -0.0000
vn 0.5774 -0.5774 0.5774
vn 0.0000 -0.7071 0.7071
vn 0.0000 1.0000 0.0000
vn -0.7071 0.7071 0.0000
vn -0.5774 0.5774 0.5774
vn 0.0000 0.7071 0.7071
vn 0.7071 0.7071 0.0000
vn 0.0000 1.0000 0.0000
vn 0.0000 0.7071 0.7071
vn 0.5774 0.5774 0.5774
vn 0.5774 0.5774 -0.5774
vn 0.0000 0.7071 -0.7071
vn 0.0000 1.0000 0.0000
vn 0.7071 0.7071 0.0000
vn 0.0000 0.7071 -0.7071
vn -0.5774 0.5774 -0.5774
vn -0.7071 0.7071 0.0000
vn 0.0000 1.0000 0.0000
vn -0.7071 -0.7071 -0.0000
vn 0.0000 -1.0000 -0.0000
vn 0.0000 -0.7071 0.7071
vn -0.5774 -0.5774 0.5774
vn -0.5774 -0.5774 -0.5774
vn 0.0000 -0.7071 -0.7071
vn 0.0000 -1.0000 -0.0000
vn -0.7071 -0.7071 -0.0000
vn 0.0000 -0.7071 -0.7071
vn 0.5774 -0.5774 -0.5774
vn 0.7071 -0.7071 -0.0000
vn 0.0000 -1.0000 -0.0000
vn 0.0000 -0.7071 0.7071
vn 0.0000 0.0000 1.0000
vn -0.7071 0.0000 0.7071
vn -0.5774 -0.5774 0.5774
vn 0.5774 -0.5774 0.5774
vn 0.7071 0.0000 0.7071
vn 0.0000 0.0000 1.0000
vn 0.0000 -0.7071 0.7071
vn 0.7071 0.0000 0.7071
vn 0.5774 0.5774 0.5774
vn 0.0000 0.7071 0.7071
vn 0.0000 0.0000 1.0000
vn 0.7071 -0.7071 -0.0000
vn 1.0000 0.0000 -0.0000
vn 0.7071 0.0000 0.7071
vn 0.5774 -0.5774 0.5774
vn 0.5774 -0.5774 -0.5774
vn 0.7071 0.0000 -0.7071
vn 1.0000 0.0000 -0.0000
vn 0.7071 -0.7071 -0.0000
vn 0.7071 0.0000 -0.7071
vn 0.5774 0.5774 -0.5774
vn 0.7071 0.7071 0.0000
vn 1.0000 0.0000 -0.0000
vn 0.0000 -0.7071 -0.7071
vn 0.0000 0.0000 -1.0000
vn 0.7071 0.0000 -0.7071
vn 0.5774 -0.5774 -0.5774
vn -0.5774 -0.5774 -0.5774
vn -0.7071 0.0000 -0.7071
vn 0.0000 0.0000 -1.0000
vn 0.0000 -0.7071 -0.7071
vn -0.7071 0.0000 -0.7071
vn -0.5774 0.5774 -0.5774
vn 0.0000 0.7071 -0.7071
vn 0.0000 0.0000 -1.0000
vn -0.7071 -0.7071 -0.0000
vn -1.0000 0.0000 -0.0000
vn -0.7071 0.0000 -0.7071
vn -0.5774 -0.5774 -0.5774
vn -0.5774 -0.5774 0.5774
vn -0.7071 0.0000 0.7071
vn -1.0000 0.0000 -0.0000
vn -0.7071 -0.7071 -0.0000
vn -0.7071 0.0000 0.7071
vn -0.5774 0.5774 0.5774
vn -0.7071 0.7071 0.0000
vn -1.0000 0.0000 -0.0000
# 96 vertex normals

vt 0.0000 1.0000 0.0000
vt 1.0000 0.0000 0.0000
vt 0.0000 0.0000 0.0000
vt 1.0000 1.0000 0.0000
# 4 texture coords

o C1
g C1
usemtl Primitive_
s 1
f 26/3/1 11/2/2 4/4/3 12/1/4 
s 2
f 25/3/5 14/2/6 8/4/7 15/1/8 
s 1
f 24/3/9 17/2/10 6/4/11 18/1/12 
s 2
f 23/3/13 20/2/14 2/4/15 10/1/16 
s 4
f 22/3/17 16/2/18 5/4/19 19/1/20 
f 21/3/21 11/2/22 2/4/23 20/1/24 
f 17/3/25 21/2/26 20/4/27 6/1/28 
f 8/3/29 14/2/30 21/4/31 17/1/32 
f 14/3/33 4/2/34 11/4/35 21/1/36 
f 9/3/37 22/2/38 19/4/39 1/1/40 
f 3/3/41 13/2/42 22/4/43 9/1/44 
f 13/3/45 7/2/46 16/4/47 22/1/48 
s 2
f 19/3/49 23/2/50 10/4/51 1/1/52 
f 5/3/53 18/2/54 23/4/55 19/1/56 
f 18/3/57 6/2/58 20/4/59 23/1/60 
s 1
f 16/3/61 24/2/62 18/4/63 5/1/64 
f 7/3/65 15/2/66 24/4/67 16/1/68 
f 15/3/69 8/2/70 17/4/71 24/1/72 
s 2
f 13/3/73 25/2/74 15/4/75 7/1/76 
f 3/3/77 12/2/78 25/4/79 13/1/80 
f 12/3/81 4/2/82 14/4/83 25/1/84 
s 1
f 9/3/85 26/2/86 12/4/87 3/1/88 
f 1/3/89 10/2/90 26/4/91 9/1/92 
f 10/3/93 2/2/94 11/4/95 26/1/96 
# 24 polygons

