# 3ds Max Wavefront OBJ Exporter v0.97b - (c)2007 guruware
# File Created: 17.06.2020 12:22:55

mtllib C2.mtl

#
# object C2
#

v  500.0000 -499.9999 -500.0000
v  500.0000 -500.0001 500.0000
v  -500.0000 -500.0001 500.0000
v  -500.0000 -499.9999 -500.0000
v  0.0000 0.0001 -500.0000
v  499.9995 499.9999 500.0005
v  -500.0000 499.9999 500.0000
v  -500.0000 500.0001 -500.0000
v  500.0000 -500.0000 -0.0000
v  -500.0000 -500.0000 -0.0000
v  500.0000 500.0000 0.0005
v  -500.0000 500.0000 -0.0000
v  0.0000 -499.9999 -500.0000
v  0.0000 -500.0001 500.0000
v  0.0000 500.0001 -500.0000
v  -0.0005 499.9999 500.0000
v  0.0000 500.0000 -0.0000
v  0.0000 -500.0000 -0.0000
v  500.0000 0.0001 -500.0000
v  500.0000 -0.0001 500.0000
v  -500.0000 -0.0001 500.0000
v  -500.0000 0.0001 -500.0000
v  -500.0000 0.0000 -0.0000
v  500.0000 -0.0000 -0.0000
v  0.0000 -0.0001 500.0000
v  0.0000 -0.0000 -0.0000
# 26 vertices

vn 0.0000 -1.0000 -0.0000
vn 0.0000 -0.7071 0.7071
vn -0.5774 -0.5774 0.5774
vn -0.7071 -0.7071 -0.0000
vn 0.3015 0.9045 -0.3015
vn -0.7071 0.7071 0.0000
vn -0.5774 0.5774 0.5774
vn -0.0000 0.7071 0.7071
vn 0.9045 0.3015 -0.3015
vn 0.5774 0.5774 -0.5773
vn 0.5773 0.5774 0.5774
vn 0.7071 0.0000 0.7071
vn 0.0000 0.0000 1.0000
vn -0.0000 0.7071 0.7071
vn -0.5774 0.5774 0.5774
vn -0.7071 0.0000 0.7071
vn -1.0000 0.0000 -0.0000
vn -0.7071 0.7071 0.0000
vn -0.5774 0.5774 -0.5774
vn -0.7071 0.0000 -0.7071
vn 0.3015 0.3015 -0.9045
vn 0.0000 -0.7071 -0.7071
vn -0.5774 -0.5774 -0.5774
vn -0.7071 0.0000 -0.7071
vn -0.7071 0.0000 0.7071
vn -0.5774 0.5774 0.5774
vn -0.7071 0.7071 0.0000
vn -1.0000 0.0000 -0.0000
vn 0.5774 0.5774 -0.5774
vn -0.5774 0.5774 -0.5774
vn -0.7071 0.7071 0.0000
vn 0.3015 0.9045 -0.3015
vn 0.0000 -0.7071 -0.7071
vn 0.0000 -1.0000 -0.0000
vn -0.7071 -0.7071 -0.0000
vn -0.5774 -0.5774 -0.5774
vn 0.5774 -0.5774 -0.5774
vn 0.7071 -0.7071 -0.0000
vn 0.0000 -1.0000 -0.0000
vn 0.0000 -0.7071 -0.7071
vn 0.5774 0.5774 -0.5774
vn 0.3015 0.9045 -0.3015
vn 0.5774 0.5774 -0.5774
vn 0.3015 0.3015 -0.9045
vn 0.5774 0.5774 -0.5774
vn 0.5774 -0.5774 -0.5774
vn 0.0000 -0.7071 -0.7071
vn 0.3015 0.3015 -0.9045
vn 0.7071 0.0000 0.7071
vn 0.5773 0.5774 0.5774
vn -0.0000 0.7071 0.7071
vn 0.0000 0.0000 1.0000
vn 0.5774 0.5774 -0.5773
vn 0.3015 0.9045 -0.3015
vn -0.0000 0.7071 0.7071
vn 0.5773 0.5774 0.5774
vn 0.7071 -0.7071 -0.0000
vn 0.5774 -0.5774 0.5774
vn 0.0000 -0.7071 0.7071
vn 0.0000 -1.0000 -0.0000
vn 0.5774 -0.5774 0.5774
vn 0.7071 0.0000 0.7071
vn 0.0000 0.0000 1.0000
vn 0.0000 -0.7071 0.7071
vn 0.5774 -0.5774 -0.5774
vn 0.5774 0.5774 -0.5774
vn 0.9045 0.3015 -0.3015
vn 0.7071 -0.7071 -0.0000
vn -0.5774 -0.5774 0.5774
vn -0.7071 0.0000 0.7071
vn -1.0000 0.0000 -0.0000
vn -0.7071 -0.7071 -0.0000
vn 0.5774 0.5774 -0.5774
vn 0.3015 0.3015 -0.9045
vn -0.7071 0.0000 -0.7071
vn -0.5774 0.5774 -0.5774
vn -0.7071 -0.7071 -0.0000
vn -1.0000 0.0000 -0.0000
vn -0.7071 0.0000 -0.7071
vn -0.5774 -0.5774 -0.5774
vn 0.0000 -0.7071 0.7071
vn 0.0000 0.0000 1.0000
vn -0.7071 0.0000 0.7071
vn -0.5774 -0.5774 0.5774
vn 0.7071 -0.7071 -0.0000
vn 0.9045 0.3015 -0.3015
vn 0.7071 0.0000 0.7071
vn 0.5774 -0.5774 0.5774
vn 0.5774 0.5774 -0.5774
vn 0.9045 0.3015 -0.3015
vn 0.5774 0.5774 -0.5774
vn 0.3015 0.3015 -0.9045
vn 0.5774 0.5774 -0.5774
vn 0.3015 0.9045 -0.3015
vn 0.5774 0.5774 -0.5773
vn 0.9045 0.3015 -0.3015
# 96 vertex normals

vt 0.0000 1.0000 0.0000
vt 1.0000 0.0000 0.0000
vt 0.0000 0.0000 0.0000
vt 1.0000 1.0000 0.0000
# 4 texture coords

o C2
g C2
usemtl Primitive_
s 1
f 18/3/1 14/2/2 3/4/3 10/1/4 
f 17/3/5 12/2/6 7/4/7 16/1/8 
s 2
f 24/3/9 11/2/10 6/4/11 20/1/12 
s 4
f 25/3/13 16/2/14 7/4/15 21/1/16 
s 2
f 23/3/17 12/2/18 8/4/19 22/1/20 
s 4
f 5/3/21 13/2/22 4/4/23 22/1/24 
s 2
f 21/3/25 7/2/26 12/4/27 23/1/28 
s 1
f 15/3/29 8/2/30 12/4/31 17/1/32 
f 13/3/33 18/2/34 10/4/35 4/1/36 
f 1/3/37 9/2/38 18/4/39 13/1/40 
s off
f 15/3/41 17/2/42 26/4/43 5/1/44 
s 4
f 19/3/45 1/2/46 13/4/47 5/1/48 
f 20/3/49 6/2/50 16/4/51 25/1/52 
s 1
f 11/3/53 17/2/54 16/4/55 6/1/56 
f 9/3/57 2/2/58 14/4/59 18/1/60 
s 4
f 2/3/61 20/2/62 25/4/63 14/1/64 
s 2
f 1/3/65 19/2/66 24/4/67 9/1/68 
f 3/3/69 21/2/70 23/4/71 10/1/72 
s 4
f 15/3/73 5/2/74 22/4/75 8/1/76 
s 2
f 10/3/77 23/2/78 22/4/79 4/1/80 
s 4
f 14/3/81 25/2/82 21/4/83 3/1/84 
s 2
f 9/3/85 24/2/86 20/4/87 2/1/88 
s off
f 26/3/89 24/2/90 19/4/91 5/1/92 
f 26/3/93 17/2/94 11/4/95 24/1/96 
# 24 polygons

