# 3ds Max Wavefront OBJ Exporter v0.97b - (c)2007 guruware
# File Created: 17.06.2020 12:22:55

mtllib C3.mtl

#
# object C3
#

v  500.0000 500.0001 -499.9998
v  500.0000 -499.9998 -500.0000
v  -500.0000 -499.9998 -500.0000
v  -500.0000 500.0002 -499.9998
v  0.0000 499.9999 -0.0000
v  0.0000 -500.0000 -0.0000
v  -500.0000 -499.9999 499.9998
v  -500.0000 499.9998 500.0000
v  0.0000 500.0001 -499.9998
v  0.0000 -499.9998 -500.0000
v  0.0000 499.9997 500.0000
v  -0.0005 -500.0001 499.9998
v  500.0000 499.9998 -0.0000
v  500.0000 -500.0001 -0.0000
v  -500.0000 -499.9998 -0.0000
v  -500.0000 500.0001 -0.0000
v  -500.0000 0.0003 -500.0000
v  500.0000 0.0001 -500.0000
v  0.0000 -0.0000 -0.0000
v  -500.0000 -0.0000 500.0000
v  0.0000 -0.0002 500.0000
v  0.0000 0.0002 -500.0000
v  -500.0000 0.0001 -0.0000
v  500.0000 -0.0001 -0.0000
# 24 vertices

vn 0.0000 0.0000 -1.0000
vn -0.0000 -0.7071 -0.7071
vn -0.5774 -0.5774 -0.5774
vn -0.7071 0.0000 -0.7071
vn 0.7071 -0.0000 0.7071
vn -0.7071 -0.0000 0.7071
vn -0.5774 -0.5774 0.5774
vn 0.5773 -0.5774 0.5774
vn 0.7071 0.0000 0.7071
vn 0.7071 0.0000 0.7071
vn 0.3015 -0.9045 0.3015
vn 0.5774 -0.5774 0.5774
vn 0.3015 -0.9045 0.3015
vn 0.5773 -0.5774 0.5774
vn -0.5774 -0.5774 0.5774
vn -0.7071 -0.7071 -0.0000
vn -1.0000 0.0000 -0.0000
vn -0.7071 -0.0000 0.7071
vn -0.5774 0.5774 0.5774
vn -0.7071 0.7071 0.0000
vn 0.3015 0.9045 0.3015
vn 0.0000 0.7071 -0.7071
vn -0.5774 0.5774 -0.5774
vn -0.7071 0.7071 0.0000
vn 0.5774 0.5774 0.5774
vn 0.5774 0.5774 -0.5773
vn 0.0000 0.7071 -0.7071
vn 0.3015 0.9045 0.3015
vn -0.5774 -0.5774 -0.5774
vn -0.7071 -0.7071 -0.0000
vn -1.0000 0.0000 -0.0000
vn -0.7071 0.0000 -0.7071
vn 0.7071 0.0000 0.7071
vn 0.7071 -0.0000 0.7071
vn 0.5773 -0.5774 0.5774
vn 0.3015 -0.9045 0.3015
vn 0.7071 0.0000 -0.7071
vn 0.5774 -0.5774 -0.5774
vn -0.0000 -0.7071 -0.7071
vn 0.0000 0.0000 -1.0000
vn 0.5774 -0.5774 -0.5774
vn 0.5774 -0.5774 0.5774
vn 0.3015 -0.9045 0.3015
vn -0.0000 -0.7071 -0.7071
vn 0.5774 0.5774 -0.5773
vn 0.7071 0.0000 -0.7071
vn 0.0000 0.0000 -1.0000
vn 0.0000 0.7071 -0.7071
vn 0.5774 0.5774 0.5774
vn 0.3015 0.9045 0.3015
vn -0.7071 0.7071 0.0000
vn -0.5774 0.5774 0.5774
vn -0.7071 0.0000 -0.7071
vn -1.0000 0.0000 -0.0000
vn -0.7071 0.7071 0.0000
vn -0.5774 0.5774 -0.5774
vn -0.0000 -0.7071 -0.7071
vn 0.3015 -0.9045 0.3015
vn -0.7071 -0.7071 -0.0000
vn -0.5774 -0.5774 -0.5774
vn 0.7071 0.0000 -0.7071
vn 0.7071 0.0000 0.7071
vn 0.5774 -0.5774 0.5774
vn 0.5774 -0.5774 -0.5774
vn 0.5774 0.5774 -0.5773
vn 0.5774 0.5774 0.5774
vn 0.7071 0.0000 0.7071
vn 0.7071 0.0000 -0.7071
vn 0.3015 0.9045 0.3015
vn 0.5774 0.5774 0.5774
vn 0.7071 -0.0000 0.7071
vn 0.7071 0.0000 0.7071
vn -0.7071 -0.7071 -0.0000
vn -0.5774 -0.5774 0.5774
vn -0.7071 -0.0000 0.7071
vn -1.0000 0.0000 -0.0000
vn 0.5774 0.5774 0.5774
vn 0.3015 0.9045 0.3015
vn 0.7071 0.0000 0.7071
vn 0.7071 0.0000 0.7071
vn 0.5774 0.5774 0.5774
vn -0.5774 0.5774 0.5774
vn -0.7071 -0.0000 0.7071
vn 0.7071 -0.0000 0.7071
vn 0.0000 0.7071 -0.7071
vn 0.0000 0.0000 -1.0000
vn -0.7071 0.0000 -0.7071
vn -0.5774 0.5774 -0.5774
# 88 vertex normals

vt 0.0000 1.0000 0.0000
vt 1.0000 0.0000 0.0000
vt 0.0000 0.0000 0.0000
vt 1.0000 1.0000 0.0000
# 4 texture coords

o C3
g C3
usemtl Primitive_
s 1
f 22/3/1 10/2/2 3/4/3 17/1/4 
f 21/3/5 20/2/6 7/4/7 12/1/8 
f 24/3/9 19/2/10 6/4/11 14/1/12 
s 2
f 6/3/13 12/2/14 7/4/15 15/1/16 
s 4
f 23/3/17 20/2/18 8/4/19 16/1/20 
s 2
f 5/3/21 9/2/22 4/4/23 16/1/24 
f 13/3/25 1/2/26 9/4/27 5/1/28 
s 4
f 3/3/29 15/2/30 23/4/31 17/1/32 
f 19/3/33 21/2/34 12/4/35 6/1/36 
s 1
f 18/3/37 2/2/38 10/4/39 22/1/40 
s 2
f 2/3/41 14/2/42 6/4/43 10/1/44 
s 1
f 1/3/45 18/2/46 22/4/47 9/1/48 
s 2
f 11/3/49 5/2/50 16/4/51 8/1/52 
s 4
f 17/3/53 23/2/54 16/4/55 4/1/56 
s 2
f 10/3/57 6/2/58 15/4/59 3/1/60 
s 4
f 18/3/61 24/2/62 14/4/63 2/1/64 
f 1/3/65 13/2/66 24/4/67 18/1/68 
f 5/3/69 11/2/70 21/4/71 19/1/72 
f 15/3/73 7/2/74 20/4/75 23/1/76 
s 1
f 13/3/77 5/2/78 19/4/79 24/1/80 
f 11/3/81 8/2/82 20/4/83 21/1/84 
f 9/3/85 22/2/86 17/4/87 4/1/88 
# 22 polygons

