# 3ds Max Wavefront OBJ Exporter v0.97b - (c)2007 guruware
# File Created: 17.06.2020 12:22:55

mtllib C4.mtl

#
# object C4
#

v  500.0000 -499.9999 -500.0000
v  500.0000 -500.0001 499.9999
v  -500.0000 -500.0001 499.9998
v  -500.0000 -499.9999 -500.0002
v  499.9995 -0.0001 500.0002
v  -500.0000 -0.0001 499.9998
v  -500.0000 0.0001 -500.0000
v  500.0000 0.0001 -499.9998
v  0.0000 -499.9999 -500.0001
v  0.0000 -500.0001 499.9998
v  0.0000 0.0001 -499.9998
v  -0.0005 -0.0001 500.0000
v  0.0000 500.0000 0.0002
v  -500.0000 500.0000 -0.0001
v  500.0000 -500.0000 -0.0001
v  -500.0000 -500.0000 -0.0002
v  500.0000 -0.0000 0.0002
v  -500.0000 0.0000 -0.0001
v  -500.0000 500.0001 -499.9999
v  0.0000 500.0001 -499.9998
v  0.0000 -0.0000 0.0001
v  0.0000 -500.0000 -0.0001
# 22 vertices

vn 0.0000 -1.0000 -0.0000
vn -0.0000 -0.7071 0.7071
vn -0.5774 -0.5774 0.5774
vn -0.7071 -0.7071 -0.0000
vn 0.3015 0.9045 0.3015
vn -0.9045 0.3015 0.3015
vn -0.5774 0.5774 0.5774
vn -0.0000 0.7071 0.7071
vn 0.3015 0.3015 -0.9045
vn 0.0000 -0.7071 -0.7071
vn -0.5774 -0.5774 -0.5774
vn -0.7071 0.0000 -0.7071
vn -0.7071 -0.7071 -0.0000
vn -0.9045 0.3015 0.3015
vn -0.7071 0.0000 -0.7071
vn -0.5774 -0.5774 -0.5774
vn -0.0000 -0.7071 0.7071
vn -0.0000 0.7071 0.7071
vn -0.5774 0.5774 0.5774
vn -0.5774 -0.5774 0.5774
vn 0.7071 -0.7071 -0.0000
vn 0.7071 0.7071 0.0000
vn 0.5773 0.5774 0.5774
vn 0.5774 -0.5774 0.5774
vn 0.5774 -0.5774 0.5774
vn 0.5773 0.5774 0.5774
vn -0.0000 0.7071 0.7071
vn -0.0000 -0.7071 0.7071
vn 0.3015 0.9045 0.3015
vn 0.3015 0.3015 -0.9045
vn 0.5774 0.5774 -0.5774
vn 0.5774 0.5774 0.5774
vn 0.5774 0.5774 -0.5774
vn 0.5774 -0.5774 -0.5774
vn 0.0000 -0.7071 -0.7071
vn 0.3015 0.3015 -0.9045
vn 0.3015 0.3015 -0.9045
vn -0.7071 0.0000 -0.7071
vn -0.5774 0.5774 -0.5774
vn 0.5774 0.5774 -0.5774
vn 0.7071 0.7071 0.0000
vn 0.3015 0.9045 0.3015
vn -0.0000 0.7071 0.7071
vn 0.5773 0.5774 0.5774
vn 0.7071 -0.7071 -0.0000
vn 0.5774 -0.5774 0.5774
vn -0.0000 -0.7071 0.7071
vn 0.0000 -1.0000 -0.0000
vn 0.5774 -0.5774 -0.5774
vn 0.7071 -0.7071 -0.0000
vn 0.0000 -1.0000 -0.0000
vn 0.0000 -0.7071 -0.7071
vn 0.5774 0.5774 -0.5774
vn 0.3015 0.3015 -0.9045
vn 0.3015 0.9045 0.3015
vn 0.7071 0.7071 0.0000
vn 0.5774 -0.5774 -0.5774
vn 0.5774 0.5774 -0.5774
vn 0.7071 0.7071 0.0000
vn 0.7071 -0.7071 -0.0000
vn -0.5774 -0.5774 0.5774
vn -0.5774 0.5774 0.5774
vn -0.9045 0.3015 0.3015
vn -0.7071 -0.7071 -0.0000
vn -0.7071 0.0000 -0.7071
vn -0.9045 0.3015 0.3015
vn -0.5774 0.5774 0.5774
vn -0.5774 0.5774 -0.5774
vn 0.5774 0.5774 -0.5774
vn -0.5774 0.5774 -0.5774
vn -0.5774 0.5774 0.5774
vn 0.5774 0.5774 0.5774
vn -0.9045 0.3015 0.3015
vn 0.3015 0.9045 0.3015
vn 0.5774 0.5774 0.5774
vn -0.5774 0.5774 0.5774
vn 0.0000 -0.7071 -0.7071
vn 0.0000 -1.0000 -0.0000
vn -0.7071 -0.7071 -0.0000
vn -0.5774 -0.5774 -0.5774
# 80 vertex normals

vt 0.0000 1.0000 0.0000
vt 1.0000 0.0000 0.0000
vt 0.0000 0.0000 0.0000
vt 1.0000 1.0000 0.0000
# 4 texture coords

o C4
g C4
usemtl Primitive_
s 1
f 22/3/1 10/2/2 3/4/3 16/1/4 
f 21/3/5 18/2/6 6/4/7 12/1/8 
s 2
f 11/3/9 9/2/10 4/4/11 7/1/12 
s 4
f 16/3/13 18/2/14 7/4/15 4/1/16 
s 2
f 10/3/17 12/2/18 6/4/19 3/1/20 
s 4
f 15/3/21 17/2/22 5/4/23 2/1/24 
s 2
f 2/3/25 5/2/26 12/4/27 10/1/28 
s off
f 21/3/29 11/2/30 20/4/31 13/1/32 
s 2
f 8/3/33 1/2/34 9/4/35 11/1/36 
f 11/3/37 7/2/38 19/4/39 20/1/40 
s 1
f 17/3/41 21/2/42 12/4/43 5/1/44 
f 15/3/45 2/2/46 10/4/47 22/1/48 
f 1/3/49 15/2/50 22/4/51 9/1/52 
f 8/3/53 11/2/54 21/4/55 17/1/56 
s 4
f 1/3/57 8/2/58 17/4/59 15/1/60 
f 3/3/61 6/2/62 18/4/63 16/1/64 
f 7/3/65 18/2/66 14/4/67 19/1/68 
s off
f 20/3/69 19/2/70 14/4/71 13/1/72 
f 18/3/73 21/2/74 13/4/75 14/1/76 
s 1
f 9/3/77 22/2/78 16/4/79 4/1/80 
# 20 polygons

