# 3ds Max Wavefront OBJ Exporter v0.97b - (c)2007 guruware
# File Created: 17.06.2020 12:22:55

mtllib C5.mtl

#
# object C5
#

v  500.0000 -499.9999 -500.0000
v  500.0000 -500.0001 499.9999
v  -500.0000 -500.0001 499.9998
v  -500.0000 -499.9999 -500.0002
v  500.0000 0.0001 -499.9998
v  499.9995 -0.0001 500.0002
v  -500.0000 0.0000 -0.0000
v  -500.0000 0.0001 -500.0000
v  500.0000 -0.0000 0.0002
v  -500.0000 -500.0000 -0.0002
v  -500.0000 -0.0001 499.9999
v  500.0000 -500.0000 -0.0000
v  0.0000 -499.9999 -500.0001
v  0.0000 -500.0001 499.9998
v  0.0000 0.0001 -499.9999
v  0.0000 -500.0000 -0.0001
v  0.0000 -0.0000 0.0001
v  0.0000 -0.0001 500.0001
# 18 vertices

vn 0.0000 -1.0000 -0.0000
vn -0.0000 -0.7071 0.7071
vn -0.5774 -0.5774 0.5774
vn -0.7071 -0.7071 -0.0000
vn 0.0000 1.0000 0.0000
vn -0.7071 0.7071 0.0000
vn -0.5774 0.5774 0.5774
vn -0.0000 0.7071 0.7071
vn 0.0000 -0.7071 -0.7071
vn 0.0000 -1.0000 -0.0000
vn -0.7071 -0.7071 -0.0000
vn -0.5774 -0.5774 -0.5774
vn 0.0000 0.7071 -0.7071
vn -0.5774 0.5774 -0.5774
vn -0.7071 0.7071 0.0000
vn 0.0000 1.0000 0.0000
vn -0.5774 -0.5774 0.5774
vn -0.5774 0.5774 0.5774
vn -0.7071 0.7071 0.0000
vn -0.7071 -0.7071 -0.0000
vn 0.0000 0.7071 -0.7071
vn 0.0000 -0.7071 -0.7071
vn -0.5774 -0.5774 -0.5774
vn -0.5774 0.5774 -0.5774
vn 0.5774 -0.5774 -0.5774
vn 0.5774 0.5774 -0.5774
vn 0.7071 0.7071 0.0000
vn 0.7071 -0.7071 -0.0000
vn -0.7071 -0.7071 -0.0000
vn -0.7071 0.7071 0.0000
vn -0.5774 0.5774 -0.5774
vn -0.5774 -0.5774 -0.5774
vn -0.0000 -0.7071 0.7071
vn -0.0000 0.7071 0.7071
vn -0.5774 0.5774 0.5774
vn -0.5774 -0.5774 0.5774
vn 0.7071 -0.7071 -0.0000
vn 0.7071 0.7071 0.0000
vn 0.5773 0.5774 0.5774
vn 0.5774 -0.5774 0.5774
vn 0.5774 -0.5774 0.5774
vn 0.5773 0.5774 0.5774
vn -0.0000 0.7071 0.7071
vn -0.0000 -0.7071 0.7071
vn 0.5774 0.5774 -0.5774
vn 0.5774 -0.5774 -0.5774
vn 0.0000 -0.7071 -0.7071
vn 0.0000 0.7071 -0.7071
vn 0.5774 0.5774 -0.5774
vn 0.0000 0.7071 -0.7071
vn 0.0000 1.0000 0.0000
vn 0.7071 0.7071 0.0000
vn 0.5774 -0.5774 -0.5774
vn 0.7071 -0.7071 -0.0000
vn 0.0000 -1.0000 -0.0000
vn 0.0000 -0.7071 -0.7071
vn 0.7071 0.7071 0.0000
vn 0.0000 1.0000 0.0000
vn -0.0000 0.7071 0.7071
vn 0.5773 0.5774 0.5774
vn 0.7071 -0.7071 -0.0000
vn 0.5774 -0.5774 0.5774
vn -0.0000 -0.7071 0.7071
vn 0.0000 -1.0000 -0.0000
# 64 vertex normals

vt 0.0000 1.0000 0.0000
vt 1.0000 0.0000 0.0000
vt 0.0000 0.0000 0.0000
vt 1.0000 1.0000 0.0000
# 4 texture coords

o C5
g C5
usemtl Primitive_
s 1
f 16/3/1 14/2/2 3/4/3 10/1/4 
f 17/3/5 7/2/6 11/4/7 18/1/8 
f 13/3/9 16/2/10 10/4/11 4/1/12 
f 15/3/13 8/2/14 7/4/15 17/1/16 
s 2
f 3/3/17 11/2/18 7/4/19 10/1/20 
s 4
f 15/3/21 13/2/22 4/4/23 8/1/24 
s 2
f 1/3/25 5/2/26 9/4/27 12/1/28 
f 10/3/29 7/2/30 8/4/31 4/1/32 
s 4
f 14/3/33 18/2/34 11/4/35 3/1/36 
s 2
f 12/3/37 9/2/38 6/4/39 2/1/40 
s 4
f 2/3/41 6/2/42 18/4/43 14/1/44 
f 5/3/45 1/2/46 13/4/47 15/1/48 
s 1
f 5/3/49 15/2/50 17/4/51 9/1/52 
f 1/3/53 12/2/54 16/4/55 13/1/56 
f 9/3/57 17/2/58 18/4/59 6/1/60 
f 12/3/61 2/2/62 14/4/63 16/1/64 
# 16 polygons

