# 3ds Max Wavefront OBJ Exporter v0.97b - (c)2007 guruware
# File Created: 17.06.2020 12:22:54

mtllib C7.mtl

#
# object C7
#

v  0.0000 -499.9999 -500.0000
v  0.0000 -500.0000 -0.0000
v  -500.0000 -500.0000 -0.0000
v  -500.0000 -499.9999 -500.0000
v  0.0000 0.0001 -499.9995
v  -500.0000 0.0001 -500.0000
v  0.0000 -0.0000 0.0005
v  -500.0000 0.0000 -0.0000
# 8 vertices

vn 0.5774 -0.5773 -0.5774
vn 0.5774 -0.5774 0.5774
vn -0.5774 -0.5774 0.5774
vn -0.5774 -0.5774 -0.5774
vn 0.5774 0.5774 -0.5773
vn -0.5773 0.5774 -0.5774
vn -0.5774 0.5774 0.5774
vn 0.5774 0.5774 0.5774
vn 0.5774 0.5774 -0.5773
vn 0.5774 -0.5773 -0.5774
vn -0.5774 -0.5774 -0.5774
vn -0.5773 0.5774 -0.5774
vn 0.5774 -0.5773 -0.5774
vn 0.5774 0.5774 -0.5773
vn 0.5774 0.5774 0.5774
vn 0.5774 -0.5774 0.5774
vn -0.5774 -0.5774 0.5774
vn -0.5774 0.5774 0.5774
vn -0.5773 0.5774 -0.5774
vn -0.5774 -0.5774 -0.5774
vn 0.5774 -0.5774 0.5774
vn 0.5774 0.5774 0.5774
vn -0.5774 0.5774 0.5774
vn -0.5774 -0.5774 0.5774
# 24 vertex normals

vt 0.0000 1.0000 0.0000
vt 1.0000 0.0000 0.0000
vt 0.0000 0.0000 0.0000
vt 1.0000 1.0000 0.0000
# 4 texture coords

o C7
g C7
usemtl Primitive_
s off
f 1/3/1 2/2/2 3/4/3 4/1/4 
f 5/3/5 6/2/6 8/4/7 7/1/8 
f 5/3/9 1/2/10 4/4/11 6/1/12 
f 1/3/13 5/2/14 7/4/15 2/1/16 
f 3/3/17 8/2/18 6/4/19 4/1/20 
f 2/3/21 7/2/22 8/4/23 3/1/24 
# 6 polygons

