# 3ds Max Wavefront OBJ Exporter v0.97b - (c)2007 guruware
# File Created: 17.06.2020 12:22:37

mtllib CH3.mtl

#
# object CH3
#

v  -500.0000 -74.9999 -500.0000
v  -500.0000 75.0001 -500.0000
v  -500.0000 -75.0001 500.0000
v  -500.0000 74.9999 500.0000
v  -597.5454 -75.0001 490.3926
v  -597.5454 74.9999 490.3926
v  -691.3418 -75.0001 461.9395
v  -691.3418 74.9999 461.9395
v  -777.7852 -75.0001 415.7344
v  -777.7852 74.9999 415.7344
v  -853.5537 -75.0000 353.5527
v  -853.5537 74.9999 353.5527
v  -915.7354 -75.0000 277.7852
v  -915.7354 74.9999 277.7852
v  -961.9395 -75.0000 191.3408
v  -961.9395 75.0000 191.3418
v  -990.3926 -75.0000 97.5449
v  -990.3926 75.0000 97.5449
v  -1000.0000 -75.0000 -0.0010
v  -1000.0000 75.0000 -0.0000
v  -990.3926 -75.0000 -97.5459
v  -990.3926 75.0000 -97.5459
v  -961.9395 -75.0000 -191.3418
v  -961.9395 75.0000 -191.3418
v  -915.7344 -74.9999 -277.7852
v  -915.7344 75.0000 -277.7852
v  -853.5527 -74.9999 -353.5537
v  -853.5527 75.0000 -353.5537
v  -777.7847 -74.9999 -415.7354
v  -777.7847 75.0001 -415.7354
v  -691.3408 -74.9999 -461.9404
v  -691.3408 75.0001 -461.9404
v  -597.5444 -74.9999 -490.3926
v  -597.5444 75.0001 -490.3926
v  -500.0000 -74.9999 -250.0000
v  -500.0000 75.0000 -250.0000
v  -500.0000 -75.0000 250.0000
v  -500.0000 74.9999 250.0000
v  -548.7725 -75.0000 245.1963
v  -548.7725 74.9999 245.1963
v  -595.6709 -75.0000 230.9697
v  -595.6709 74.9999 230.9697
v  -638.8926 -75.0000 207.8672
v  -638.8926 75.0000 207.8672
v  -676.7769 -75.0000 176.7764
v  -676.7769 75.0000 176.7764
v  -707.8672 -75.0000 138.8926
v  -707.8672 75.0000 138.8926
v  -730.9697 -75.0000 95.6709
v  -730.9697 75.0000 95.6709
v  -745.1963 -75.0000 48.7725
v  -745.1963 75.0000 48.7725
v  -750.0000 -75.0000 -0.0000
v  -750.0000 75.0000 -0.0000
v  -745.1963 -75.0000 -48.7725
v  -745.1963 75.0000 -48.7725
v  -730.9697 -75.0000 -95.6709
v  -730.9697 75.0000 -95.6709
v  -707.8672 -75.0000 -138.8926
v  -707.8672 75.0000 -138.8926
v  -676.7764 -75.0000 -176.7773
v  -676.7764 75.0000 -176.7773
v  -638.8921 -75.0000 -207.8682
v  -638.8921 75.0000 -207.8672
v  -595.6704 -74.9999 -230.9697
v  -595.6704 75.0000 -230.9697
v  -548.7720 -74.9999 -245.1963
v  -548.7720 75.0000 -245.1963
v  0.0000 -74.9999 -250.0000
v  -250.0000 -74.9999 -250.0000
v  -250.0000 75.0000 -250.0000
v  0.0000 75.0000 -250.0000
v  -250.0000 75.0001 -500.0000
v  0.0000 75.0001 -500.0000
v  -250.0000 -74.9999 -500.0000
v  0.0000 -74.9999 -500.0000
v  0.0000 -75.0000 250.0000
v  -250.0000 -75.0000 250.0000
v  -250.0000 74.9999 250.0000
v  0.0000 74.9999 250.0000
v  -250.0000 74.9999 500.0000
v  0.0000 74.9999 500.0000
v  -250.0000 -75.0001 500.0000
v  0.0000 -75.0001 500.0000
# 84 vertices

vn -0.0352 -0.6963 0.7169
vn -0.0352 0.6962 0.7170
vn -0.1420 0.6858 0.7138
vn -0.1420 -0.6857 0.7139
vn -0.1420 -0.6857 0.7139
vn -0.1420 0.6858 0.7138
vn -0.2785 0.6857 0.6724
vn -0.2785 -0.6857 0.6724
vn -0.2785 -0.6857 0.6724
vn -0.2785 0.6857 0.6724
vn -0.4044 0.6857 0.6052
vn -0.4044 -0.6857 0.6052
vn -0.4044 -0.6857 0.6052
vn -0.4044 0.6857 0.6052
vn -0.5147 0.6857 0.5147
vn -0.5147 -0.6857 0.5147
vn -0.5147 -0.6857 0.5147
vn -0.5147 0.6857 0.5147
vn -0.6052 0.6857 0.4044
vn -0.6052 -0.6857 0.4044
vn -0.6052 -0.6857 0.4044
vn -0.6052 0.6857 0.4044
vn -0.6725 0.6857 0.2785
vn -0.6725 -0.6857 0.2785
vn -0.6725 -0.6857 0.2785
vn -0.6725 0.6857 0.2785
vn -0.7139 0.6857 0.1420
vn -0.7139 -0.6857 0.1420
vn -0.7139 -0.6857 0.1420
vn -0.7139 0.6857 0.1420
vn -0.7279 0.6857 0.0000
vn -0.7279 -0.6857 -0.0000
vn -0.7279 -0.6857 -0.0000
vn -0.7279 0.6857 0.0000
vn -0.7139 0.6857 -0.1420
vn -0.7139 -0.6857 -0.1420
vn -0.7139 -0.6857 -0.1420
vn -0.7139 0.6857 -0.1420
vn -0.6725 0.6857 -0.2786
vn -0.6725 -0.6857 -0.2786
vn -0.6725 -0.6857 -0.2786
vn -0.6725 0.6857 -0.2786
vn -0.6052 0.6857 -0.4044
vn -0.6052 -0.6857 -0.4044
vn -0.6052 -0.6857 -0.4044
vn -0.6052 0.6857 -0.4044
vn -0.5147 0.6857 -0.5147
vn -0.5147 -0.6857 -0.5147
vn -0.5147 -0.6857 -0.5147
vn -0.5147 0.6857 -0.5147
vn -0.4044 0.6857 -0.6052
vn -0.4044 -0.6857 -0.6052
vn -0.4044 -0.6857 -0.6052
vn -0.4044 0.6857 -0.6052
vn -0.2785 0.6857 -0.6725
vn -0.2785 -0.6857 -0.6725
vn -0.2785 -0.6857 -0.6725
vn -0.2785 0.6857 -0.6725
vn -0.1420 0.6857 -0.7139
vn -0.1420 -0.6857 -0.7139
vn -0.1420 -0.6857 -0.7139
vn -0.1420 0.6857 -0.7139
vn -0.0352 0.6962 -0.7170
vn -0.0352 -0.6962 -0.7170
vn -0.1420 -0.6857 0.7139
vn -0.2785 -0.6857 0.6724
vn 0.2616 -0.7298 -0.6316
vn 0.1334 -0.7298 -0.6705
vn -0.6725 -0.6857 -0.2786
vn -0.6052 -0.6857 -0.4044
vn 0.5684 -0.7298 0.3798
vn 0.6316 -0.7298 0.2616
vn -0.2785 0.6857 0.6724
vn -0.1420 0.6858 0.7138
vn 0.1334 0.7298 -0.6705
vn 0.2616 0.7298 -0.6316
vn -0.6052 0.6857 -0.4044
vn -0.6725 0.6857 -0.2786
vn 0.6316 0.7298 0.2616
vn 0.5684 0.7298 0.3798
vn -0.2785 -0.6857 0.6724
vn -0.4044 -0.6857 0.6052
vn 0.3798 -0.7298 -0.5684
vn 0.2616 -0.7298 -0.6316
vn -0.6052 -0.6857 -0.4044
vn -0.5147 -0.6857 -0.5147
vn 0.4834 -0.7298 0.4834
vn 0.5684 -0.7298 0.3798
vn -0.4044 0.6857 0.6052
vn -0.2785 0.6857 0.6724
vn 0.2616 0.7298 -0.6316
vn 0.3798 0.7298 -0.5684
vn -0.5147 0.6857 -0.5147
vn -0.6052 0.6857 -0.4044
vn 0.5684 0.7298 0.3798
vn 0.4834 0.7299 0.4834
vn -0.4044 -0.6857 0.6052
vn -0.5147 -0.6857 0.5147
vn 0.4834 -0.7298 -0.4834
vn 0.3798 -0.7298 -0.5684
vn -0.5147 -0.6857 -0.5147
vn -0.4044 -0.6857 -0.6052
vn 0.3798 -0.7299 0.5684
vn 0.4834 -0.7298 0.4834
vn -0.5147 0.6857 0.5147
vn -0.4044 0.6857 0.6052
vn 0.3798 0.7298 -0.5684
vn 0.4834 0.7298 -0.4834
vn -0.4044 0.6857 -0.6052
vn -0.5147 0.6857 -0.5147
vn 0.4834 0.7299 0.4834
vn 0.3798 0.7298 0.5684
vn -0.5147 -0.6857 0.5147
vn -0.6052 -0.6857 0.4044
vn 0.5684 -0.7298 -0.3798
vn 0.4834 -0.7298 -0.4834
vn -0.4044 -0.6857 -0.6052
vn -0.2785 -0.6857 -0.6725
vn 0.2616 -0.7298 0.6316
vn 0.3798 -0.7299 0.5684
vn -0.6052 0.6857 0.4044
vn -0.5147 0.6857 0.5147
vn 0.4834 0.7298 -0.4834
vn 0.5684 0.7298 -0.3798
vn -0.2785 0.6857 -0.6725
vn -0.4044 0.6857 -0.6052
vn 0.3798 0.7298 0.5684
vn 0.2616 0.7298 0.6316
vn -0.6052 -0.6857 0.4044
vn -0.6725 -0.6857 0.2785
vn 0.6316 -0.7298 -0.2616
vn 0.5684 -0.7298 -0.3798
vn -0.2785 -0.6857 -0.6725
vn -0.1420 -0.6857 -0.7139
vn 0.1334 -0.7298 0.6705
vn 0.2616 -0.7298 0.6316
vn -0.6725 0.6857 0.2785
vn -0.6052 0.6857 0.4044
vn 0.5684 0.7298 -0.3798
vn 0.6316 0.7298 -0.2616
vn -0.1420 0.6857 -0.7139
vn -0.2785 0.6857 -0.6725
vn 0.2616 0.7298 0.6316
vn 0.1334 0.7298 0.6705
vn -0.6725 -0.6857 0.2785
vn -0.7139 -0.6857 0.1420
vn 0.6705 -0.7298 -0.1334
vn 0.6316 -0.7298 -0.2616
vn -0.1420 -0.6857 -0.7139
vn -0.0352 -0.6962 -0.7170
vn 0.0341 -0.7183 0.6949
vn 0.1334 -0.7298 0.6705
vn -0.7139 0.6857 0.1420
vn -0.6725 0.6857 0.2785
vn 0.6316 0.7298 -0.2616
vn 0.6705 0.7298 -0.1334
vn -0.0352 0.6962 -0.7170
vn -0.1420 0.6857 -0.7139
vn 0.1334 0.7298 0.6705
vn 0.0341 0.7183 0.6949
vn -0.7139 -0.6857 0.1420
vn -0.7279 -0.6857 -0.0000
vn 0.6836 -0.7298 -0.0000
vn 0.6705 -0.7298 -0.1334
vn -0.7279 0.6857 0.0000
vn -0.7139 0.6857 0.1420
vn 0.6705 0.7298 -0.1334
vn 0.6836 0.7298 0.0000
vn -0.7279 -0.6857 -0.0000
vn -0.7139 -0.6857 -0.1420
vn 0.6705 -0.7298 0.1334
vn 0.6836 -0.7298 -0.0000
vn -0.7139 0.6857 -0.1420
vn -0.7279 0.6857 0.0000
vn 0.6836 0.7298 0.0000
vn 0.6705 0.7298 0.1334
vn -0.0352 -0.6963 0.7169
vn -0.1420 -0.6857 0.7139
vn 0.1334 -0.7298 -0.6705
vn 0.0341 -0.7183 -0.6949
vn -0.7139 -0.6857 -0.1420
vn -0.6725 -0.6857 -0.2786
vn 0.6316 -0.7298 0.2616
vn 0.6705 -0.7298 0.1334
vn -0.1420 0.6858 0.7138
vn -0.0352 0.6962 0.7170
vn 0.0341 0.7183 -0.6949
vn 0.1334 0.7298 -0.6705
vn -0.6725 0.6857 -0.2786
vn -0.7139 0.6857 -0.1420
vn 0.6705 0.7298 0.1334
vn 0.6316 0.7298 0.2616
vn 0.0341 -0.7183 -0.6949
vn 0.1334 -0.7298 -0.6705
vn 0.1334 0.7298 -0.6705
vn 0.0341 0.7183 -0.6949
vn 0.1334 -0.7298 -0.6705
vn 0.2616 -0.7298 -0.6316
vn 0.2616 0.7298 -0.6316
vn 0.1334 0.7298 -0.6705
vn 0.2616 -0.7298 -0.6316
vn 0.3798 -0.7298 -0.5684
vn 0.3798 0.7298 -0.5684
vn 0.2616 0.7298 -0.6316
vn 0.3798 -0.7298 -0.5684
vn 0.4834 -0.7298 -0.4834
vn 0.4834 0.7298 -0.4834
vn 0.3798 0.7298 -0.5684
vn 0.4834 -0.7298 -0.4834
vn 0.5684 -0.7298 -0.3798
vn 0.5684 0.7298 -0.3798
vn 0.4834 0.7298 -0.4834
vn 0.5684 -0.7298 -0.3798
vn 0.6316 -0.7298 -0.2616
vn 0.6316 0.7298 -0.2616
vn 0.5684 0.7298 -0.3798
vn 0.6316 -0.7298 -0.2616
vn 0.6705 -0.7298 -0.1334
vn 0.6705 0.7298 -0.1334
vn 0.6316 0.7298 -0.2616
vn 0.6705 -0.7298 -0.1334
vn 0.6836 -0.7298 -0.0000
vn 0.6836 0.7298 0.0000
vn 0.6705 0.7298 -0.1334
vn 0.6836 -0.7298 -0.0000
vn 0.6705 -0.7298 0.1334
vn 0.6705 0.7298 0.1334
vn 0.6836 0.7298 0.0000
vn 0.6705 -0.7298 0.1334
vn 0.6316 -0.7298 0.2616
vn 0.6316 0.7298 0.2616
vn 0.6705 0.7298 0.1334
vn 0.6316 -0.7298 0.2616
vn 0.5684 -0.7298 0.3798
vn 0.5684 0.7298 0.3798
vn 0.6316 0.7298 0.2616
vn 0.5684 -0.7298 0.3798
vn 0.4834 -0.7298 0.4834
vn 0.4834 0.7299 0.4834
vn 0.5684 0.7298 0.3798
vn 0.4834 -0.7298 0.4834
vn 0.3798 -0.7299 0.5684
vn 0.3798 0.7298 0.5684
vn 0.4834 0.7299 0.4834
vn 0.3798 -0.7299 0.5684
vn 0.2616 -0.7298 0.6316
vn 0.2616 0.7298 0.6316
vn 0.3798 0.7298 0.5684
vn 0.2616 -0.7298 0.6316
vn 0.1334 -0.7298 0.6705
vn 0.1334 0.7298 0.6705
vn 0.2616 0.7298 0.6316
vn 0.1334 -0.7298 0.6705
vn 0.0341 -0.7183 0.6949
vn 0.0341 0.7183 0.6949
vn 0.1334 0.7298 0.6705
vn -0.0352 -0.6962 -0.7170
vn 0.0000 -0.7071 -0.7071
vn 0.0000 -0.7071 0.7071
vn 0.0341 -0.7183 0.6949
vn 0.0000 -0.7071 -0.7071
vn 0.5774 -0.5774 -0.5774
vn 0.5774 -0.5774 0.5774
vn 0.0000 -0.7071 0.7071
vn -0.0352 0.6962 -0.7170
vn 0.0000 0.7071 -0.7071
vn 0.0000 -0.7071 -0.7071
vn -0.0352 -0.6962 -0.7170
vn 0.0000 0.7071 -0.7071
vn 0.5774 0.5774 -0.5774
vn 0.5774 -0.5774 -0.5774
vn 0.0000 -0.7071 -0.7071
vn 0.0341 0.7183 0.6949
vn 0.0000 0.7071 0.7071
vn 0.0000 0.7071 -0.7071
vn -0.0352 0.6962 -0.7170
vn 0.0000 0.7071 0.7071
vn 0.5774 0.5774 0.5774
vn 0.5774 0.5774 -0.5774
vn 0.0000 0.7071 -0.7071
vn 0.0341 -0.7183 0.6949
vn 0.0000 -0.7071 0.7071
vn 0.0000 0.7071 0.7071
vn 0.0341 0.7183 0.6949
vn 0.0000 -0.7071 0.7071
vn 0.5774 -0.5774 0.5774
vn 0.5774 0.5774 0.5774
vn 0.0000 0.7071 0.7071
vn -0.0352 -0.6963 0.7169
vn 0.0341 -0.7183 -0.6949
vn 0.0000 -0.7071 -0.7071
vn 0.0000 -0.7071 0.7071
vn 0.0000 -0.7071 0.7071
vn 0.0000 -0.7071 -0.7071
vn 0.5774 -0.5774 -0.5774
vn 0.5774 -0.5774 0.5774
vn -0.0352 0.6962 0.7170
vn -0.0352 -0.6963 0.7169
vn 0.0000 -0.7071 0.7071
vn 0.0000 0.7071 0.7071
vn 0.0000 0.7071 0.7071
vn 0.0000 -0.7071 0.7071
vn 0.5774 -0.5774 0.5774
vn 0.5774 0.5774 0.5774
vn 0.5774 -0.5774 -0.5774
vn 0.5774 0.5774 -0.5774
vn 0.5774 0.5774 0.5774
vn 0.5774 -0.5774 0.5774
vn 0.0341 0.7183 -0.6949
vn -0.0352 0.6962 0.7170
vn 0.0000 0.7071 0.7071
vn 0.0000 0.7071 -0.7071
vn 0.0000 0.7071 -0.7071
vn 0.0000 0.7071 0.7071
vn 0.5774 0.5774 0.5774
vn 0.5774 0.5774 -0.5774
vn 0.5774 -0.5774 -0.5774
vn 0.5774 0.5774 -0.5774
vn 0.5774 0.5774 0.5774
vn 0.5774 -0.5774 0.5774
vn 0.0341 -0.7183 -0.6949
vn 0.0341 0.7183 -0.6949
vn 0.0000 0.7071 -0.7071
vn 0.0000 -0.7071 -0.7071
vn 0.0000 -0.7071 -0.7071
vn 0.0000 0.7071 -0.7071
vn 0.5774 0.5774 -0.5774
vn 0.5774 -0.5774 -0.5774
# 328 vertex normals

vt 0.0000 1.0000 0.0000
vt 1.0000 0.0000 0.0000
vt 0.0000 0.0000 0.0000
vt 1.0000 1.0000 0.0000
# 4 texture coords

o CH3
g CH3
usemtl Primitive_
s off
f 3/3/1 4/2/2 6/4/3 5/1/4 
f 5/3/5 6/2/6 8/4/7 7/1/8 
f 7/3/9 8/2/10 10/4/11 9/1/12 
f 9/3/13 10/2/14 12/4/15 11/1/16 
f 11/3/17 12/2/18 14/4/19 13/1/20 
f 13/3/21 14/2/22 16/4/23 15/1/24 
f 15/3/25 16/2/26 18/4/27 17/1/28 
f 17/3/29 18/2/30 20/4/31 19/1/32 
f 19/3/33 20/2/34 22/4/35 21/1/36 
f 21/3/37 22/2/38 24/4/39 23/1/40 
f 23/3/41 24/2/42 26/4/43 25/1/44 
f 25/3/45 26/2/46 28/4/47 27/1/48 
f 27/3/49 28/2/50 30/4/51 29/1/52 
f 29/3/53 30/2/54 32/4/55 31/1/56 
f 31/3/57 32/2/58 34/4/59 33/1/60 
f 33/3/61 34/2/62 2/4/63 1/1/64 
s 1
f 5/3/65 7/2/66 41/4/67 39/1/68 
f 23/3/69 25/2/70 59/4/71 57/1/72 
f 8/3/73 6/2/74 40/4/75 42/1/76 
f 26/3/77 24/2/78 58/4/79 60/1/80 
f 7/3/81 9/2/82 43/4/83 41/1/84 
f 25/3/85 27/2/86 61/4/87 59/1/88 
f 10/3/89 8/2/90 42/4/91 44/1/92 
f 28/3/93 26/2/94 60/4/95 62/1/96 
f 9/3/97 11/2/98 45/4/99 43/1/100 
f 27/3/101 29/2/102 63/4/103 61/1/104 
f 12/3/105 10/2/106 44/4/107 46/1/108 
f 30/3/109 28/2/110 62/4/111 64/1/112 
f 11/3/113 13/2/114 47/4/115 45/1/116 
f 29/3/117 31/2/118 65/4/119 63/1/120 
f 14/3/121 12/2/122 46/4/123 48/1/124 
f 32/3/125 30/2/126 64/4/127 66/1/128 
f 13/3/129 15/2/130 49/4/131 47/1/132 
f 31/3/133 33/2/134 67/4/135 65/1/136 
f 16/3/137 14/2/138 48/4/139 50/1/140 
f 34/3/141 32/2/142 66/4/143 68/1/144 
f 15/3/145 17/2/146 51/4/147 49/1/148 
f 33/3/149 1/2/150 35/4/151 67/1/152 
f 18/3/153 16/2/154 50/4/155 52/1/156 
f 2/3/157 34/2/158 68/4/159 36/1/160 
f 17/3/161 19/2/162 53/4/163 51/1/164 
f 20/3/165 18/2/166 52/4/167 54/1/168 
f 19/3/169 21/2/170 55/4/171 53/1/172 
f 22/3/173 20/2/174 54/4/175 56/1/176 
f 3/3/177 5/2/178 39/4/179 37/1/180 
f 21/3/181 23/2/182 57/4/183 55/1/184 
f 6/3/185 4/2/186 38/4/187 40/1/188 
f 24/3/189 22/2/190 56/4/191 58/1/192 
s off
f 37/3/193 39/2/194 40/4/195 38/1/196 
f 39/3/197 41/2/198 42/4/199 40/1/200 
f 41/3/201 43/2/202 44/4/203 42/1/204 
f 43/3/205 45/2/206 46/4/207 44/1/208 
f 45/3/209 47/2/210 48/4/211 46/1/212 
f 47/3/213 49/2/214 50/4/215 48/1/216 
f 49/3/217 51/2/218 52/4/219 50/1/220 
f 51/3/221 53/2/222 54/4/223 52/1/224 
f 53/3/225 55/2/226 56/4/227 54/1/228 
f 55/3/229 57/2/230 58/4/231 56/1/232 
f 57/3/233 59/2/234 60/4/235 58/1/236 
f 59/3/237 61/2/238 62/4/239 60/1/240 
f 61/3/241 63/2/242 64/4/243 62/1/244 
f 63/3/245 65/2/246 66/4/247 64/1/248 
f 65/3/249 67/2/250 68/4/251 66/1/252 
f 67/3/253 35/2/254 36/4/255 68/1/256 
s 1
f 1/3/257 75/2/258 70/4/259 35/1/260 
f 75/3/261 76/2/262 69/4/263 70/1/264 
s 2
f 2/3/265 73/2/266 75/4/267 1/1/268 
f 73/3/269 74/2/270 76/4/271 75/1/272 
s 1
f 36/3/273 71/2/274 73/4/275 2/1/276 
f 71/3/277 72/2/278 74/4/279 73/1/280 
s 2
f 35/3/281 70/2/282 71/4/283 36/1/284 
f 70/3/285 69/2/286 72/4/287 71/1/288 
s 1
f 3/3/289 37/2/290 78/4/291 83/1/292 
f 83/3/293 78/2/294 77/4/295 84/1/296 
s 2
f 4/3/297 3/2/298 83/4/299 81/1/300 
f 81/3/301 83/2/302 84/4/303 82/1/304 
s off
f 76/3/305 74/2/306 72/4/307 69/1/308 
s 1
f 38/3/309 4/2/310 81/4/311 79/1/312 
f 79/3/313 81/2/314 82/4/315 80/1/316 
s off
f 77/3/317 80/2/318 82/4/319 84/1/320 
s 2
f 37/3/321 38/2/322 79/4/323 78/1/324 
f 78/3/325 79/2/326 80/4/327 77/1/328 
# 82 polygons

