# 3ds Max Wavefront OBJ Exporter v0.97b - (c)2007 guruware
# File Created: 17.06.2020 12:22:47

mtllib CO1.mtl

#
# object CO1
#

v  0.0000 -499.9999 -500.0000
v  433.0127 -500.0000 250.0000
v  0.0000 500.0000 -0.0000
v  -433.0127 -500.0000 250.0000
# 4 vertices

vn 0.0000 -0.3874 -0.9219
vn 0.0000 1.0000 -0.0000
vn 0.7984 -0.3874 0.4610
vn 0.7984 -0.3874 0.4610
vn 0.0000 1.0000 -0.0000
vn -0.7984 -0.3874 0.4610
vn -0.7984 -0.3874 0.4610
vn 0.0000 1.0000 -0.0000
vn 0.0000 -0.3874 -0.9219
vn 0.0000 -0.3874 -0.9219
vn 0.7984 -0.3874 0.4610
vn -0.7984 -0.3874 0.4610
# 12 vertex normals

vt 1.0000 0.0000 0.0000
vt 0.0000 0.0000 0.0000
vt 1.0000 1.0000 0.0000
# 3 texture coords

o CO1
g CO1
usemtl Primitive_
s off
f 1/2/1 3/1/2 2/3/3 
f 2/2/4 3/1/5 4/3/6 
f 4/2/7 3/1/8 1/3/9 
f 1/2/10 2/1/11 4/3/12 
# 0 polygons - 4 triangles

