# 3ds Max Wavefront OBJ Exporter v0.97b - (c)2007 guruware
# File Created: 17.06.2020 12:22:46

mtllib CO4.mtl

#
# object CO4
#

v  0.0000 -499.9999 -500.0001
v  433.0127 -499.9999 -250.0001
v  433.0127 -500.0000 249.9999
v  0.0000 -500.0001 499.9999
v  0.0000 500.0000 0.0001
v  -433.0127 -500.0000 249.9999
v  -433.0127 -499.9999 -250.0000
# 7 vertices

vn -0.0000 -0.4324 -0.9017
vn -0.0000 1.0000 0.0000
vn 0.7809 -0.4324 -0.4509
vn 0.7809 -0.4324 -0.4509
vn -0.0000 1.0000 0.0000
vn 0.7809 -0.4324 0.4509
vn 0.7809 -0.4324 0.4509
vn -0.0000 1.0000 0.0000
vn -0.0000 -0.4324 0.9017
vn -0.0000 -0.4324 0.9017
vn -0.0000 1.0000 0.0000
vn -0.7809 -0.4324 0.4509
vn -0.7809 -0.4324 0.4509
vn -0.0000 1.0000 0.0000
vn -0.7809 -0.4324 -0.4509
vn -0.7809 -0.4324 -0.4509
vn -0.0000 1.0000 0.0000
vn -0.0000 -0.4324 -0.9017
vn -0.0000 -0.4324 -0.9017
vn 0.7809 -0.4324 -0.4509
vn 0.7809 -0.4324 0.4509
vn -0.0000 -0.4324 0.9017
vn -0.7809 -0.4324 0.4509
vn -0.7809 -0.4324 -0.4509
# 24 vertex normals

vt 0.5000 1.0000 0.0000
vt 0.9330 0.2500 0.0000
vt 0.0000 0.0000 0.0000
vt 0.9330 0.7500 0.0000
vt 0.5000 0.0000 0.0000
vt 0.0670 0.2500 0.0000
vt 0.0670 0.7500 0.0000
vt 1.0000 0.0000 0.0000
vt 1.0000 1.0000 0.0000
# 9 texture coords

o CO4
g CO4
usemtl Primitive_
s off
f 1/3/1 5/8/2 2/9/3 
f 2/3/4 5/8/5 3/9/6 
f 3/3/7 5/8/8 4/9/9 
f 4/3/10 5/8/11 6/9/12 
f 6/3/13 5/8/14 7/9/15 
f 7/3/16 5/8/17 1/9/18 
f 1/1/19 2/4/20 3/2/21 4/5/22 6/6/23 7/7/24 
# 1 polygons - 6 triangles

