# 3ds Max Wavefront OBJ Exporter v0.97b - (c)2007 guruware
# File Created: 17.06.2020 12:22:46

mtllib CO6.mtl

#
# object CO6
#

v  0.0000 -499.9999 -500.0000
v  97.5449 -499.9999 -490.3926
v  191.3418 -499.9999 -461.9399
v  277.7852 -499.9999 -415.7349
v  353.5537 -499.9999 -353.5535
v  415.7344 -499.9999 -277.7852
v  461.9395 -499.9999 -191.3418
v  490.3926 -499.9999 -97.5452
v  500.0000 -500.0000 -0.0000
v  0.0000 500.0000 -0.0000
v  490.3926 -500.0000 97.5449
v  461.9395 -500.0000 191.3416
v  415.7344 -500.0000 277.7849
v  353.5537 -500.0000 353.5532
v  277.7852 -500.0000 415.7346
v  191.3418 -500.0000 461.9397
v  97.5449 -500.0001 490.3926
v  0.0000 -500.0001 500.0000
v  -97.5449 -500.0001 490.3926
v  -191.3418 -500.0000 461.9395
v  -277.7852 -500.0000 415.7346
v  -353.5537 -500.0000 353.5530
v  -415.7354 -500.0000 277.7847
v  -461.9395 -500.0000 191.3413
v  -490.3926 -500.0000 97.5447
v  -500.0000 -500.0000 -0.0005
v  -490.3926 -499.9999 -97.5457
v  -461.9395 -499.9999 -191.3423
v  -415.7344 -499.9999 -277.7856
v  -353.5527 -499.9999 -353.5540
v  -277.7842 -499.9999 -415.7354
v  -191.3408 -499.9999 -461.9402
v  -97.5439 -499.9999 -490.3928
# 33 vertices

vn 0.0000 -0.5033 -0.8641
vn 0.0000 1.0000 0.0000
vn 0.1686 -0.5033 -0.8475
vn 0.1686 -0.5033 -0.8475
vn 0.0000 1.0000 0.0000
vn 0.3307 -0.5033 -0.7983
vn 0.3307 -0.5033 -0.7983
vn 0.0000 1.0000 0.0000
vn 0.4801 -0.5033 -0.7185
vn 0.4801 -0.5033 -0.7185
vn 0.0000 1.0000 0.0000
vn 0.6110 -0.5033 -0.6110
vn 0.6110 -0.5033 -0.6110
vn 0.0000 1.0000 0.0000
vn 0.7185 -0.5033 -0.4801
vn 0.7185 -0.5033 -0.4801
vn 0.0000 1.0000 0.0000
vn 0.7983 -0.5033 -0.3307
vn 0.7983 -0.5033 -0.3307
vn 0.0000 1.0000 0.0000
vn 0.8475 -0.5033 -0.1686
vn 0.8475 -0.5033 -0.1686
vn 0.0000 1.0000 0.0000
vn 0.8641 -0.5033 -0.0000
vn 0.8641 -0.5033 -0.0000
vn 0.0000 1.0000 0.0000
vn 0.8475 -0.5033 0.1686
vn 0.8475 -0.5033 0.1686
vn 0.0000 1.0000 0.0000
vn 0.7983 -0.5033 0.3307
vn 0.7983 -0.5033 0.3307
vn 0.0000 1.0000 0.0000
vn 0.7185 -0.5033 0.4801
vn 0.7185 -0.5033 0.4801
vn 0.0000 1.0000 0.0000
vn 0.6110 -0.5033 0.6110
vn 0.6110 -0.5033 0.6110
vn 0.0000 1.0000 0.0000
vn 0.4801 -0.5033 0.7185
vn 0.4801 -0.5033 0.7185
vn 0.0000 1.0000 0.0000
vn 0.3307 -0.5033 0.7983
vn 0.3307 -0.5033 0.7983
vn 0.0000 1.0000 0.0000
vn 0.1686 -0.5033 0.8475
vn 0.1686 -0.5033 0.8475
vn 0.0000 1.0000 0.0000
vn 0.0000 -0.5033 0.8641
vn 0.0000 -0.5033 0.8641
vn 0.0000 1.0000 0.0000
vn -0.1686 -0.5033 0.8475
vn -0.1686 -0.5033 0.8475
vn 0.0000 1.0000 0.0000
vn -0.3307 -0.5033 0.7983
vn -0.3307 -0.5033 0.7983
vn 0.0000 1.0000 0.0000
vn -0.4801 -0.5033 0.7185
vn -0.4801 -0.5033 0.7185
vn 0.0000 1.0000 0.0000
vn -0.6110 -0.5033 0.6110
vn -0.6110 -0.5033 0.6110
vn 0.0000 1.0000 0.0000
vn -0.7185 -0.5033 0.4801
vn -0.7185 -0.5033 0.4801
vn 0.0000 1.0000 0.0000
vn -0.7983 -0.5033 0.3307
vn -0.7983 -0.5033 0.3307
vn 0.0000 1.0000 0.0000
vn -0.8475 -0.5033 0.1686
vn -0.8475 -0.5033 0.1686
vn 0.0000 1.0000 0.0000
vn -0.8641 -0.5033 -0.0000
vn -0.8641 -0.5033 -0.0000
vn 0.0000 1.0000 0.0000
vn -0.8475 -0.5033 -0.1686
vn -0.8475 -0.5033 -0.1686
vn 0.0000 1.0000 0.0000
vn -0.7983 -0.5033 -0.3307
vn -0.7983 -0.5033 -0.3307
vn 0.0000 1.0000 0.0000
vn -0.7185 -0.5033 -0.4801
vn -0.7185 -0.5033 -0.4801
vn 0.0000 1.0000 0.0000
vn -0.6110 -0.5033 -0.6110
vn -0.6110 -0.5033 -0.6110
vn 0.0000 1.0000 0.0000
vn -0.4801 -0.5033 -0.7185
vn -0.4801 -0.5033 -0.7185
vn 0.0000 1.0000 0.0000
vn -0.3307 -0.5033 -0.7983
vn -0.3307 -0.5033 -0.7983
vn 0.0000 1.0000 0.0000
vn -0.1686 -0.5033 -0.8475
vn -0.1686 -0.5033 -0.8475
vn 0.0000 1.0000 0.0000
vn 0.0000 -0.5033 -0.8641
vn 0.0000 -0.5033 -0.8641
vn 0.1686 -0.5033 -0.8475
vn 0.3307 -0.5033 -0.7983
vn 0.4801 -0.5033 -0.7185
vn 0.6110 -0.5033 -0.6110
vn 0.7185 -0.5033 -0.4801
vn 0.7983 -0.5033 -0.3307
vn 0.8475 -0.5033 -0.1686
vn 0.8641 -0.5033 -0.0000
vn 0.8475 -0.5033 0.1686
vn 0.7983 -0.5033 0.3307
vn 0.7185 -0.5033 0.4801
vn 0.6110 -0.5033 0.6110
vn 0.4801 -0.5033 0.7185
vn 0.3307 -0.5033 0.7983
vn 0.1686 -0.5033 0.8475
vn 0.0000 -0.5033 0.8641
vn -0.1686 -0.5033 0.8475
vn -0.3307 -0.5033 0.7983
vn -0.4801 -0.5033 0.7185
vn -0.6110 -0.5033 0.6110
vn -0.7185 -0.5033 0.4801
vn -0.7983 -0.5033 0.3307
vn -0.8475 -0.5033 0.1686
vn -0.8641 -0.5033 -0.0000
vn -0.8475 -0.5033 -0.1686
vn -0.7983 -0.5033 -0.3307
vn -0.7185 -0.5033 -0.4801
vn -0.6110 -0.5033 -0.6110
vn -0.4801 -0.5033 -0.7185
vn -0.3307 -0.5033 -0.7983
vn -0.1686 -0.5033 -0.8475
# 128 vertex normals

vt 0.8536 0.1464 0.0000
vt 0.7778 0.0843 0.0000
vt 0.6913 0.0381 0.0000
vt 0.5975 0.0096 0.0000
vt 0.5000 0.0000 0.0000
vt 0.3087 0.0381 0.0000
vt 0.4025 0.0096 0.0000
vt 0.9619 0.3087 0.0000
vt 0.2222 0.0843 0.0000
vt 0.1464 0.1464 0.0000
vt 1.0000 1.0000 0.0000
vt 0.6913 0.9619 0.0000
vt 0.0000 0.0000 0.0000
vt 0.5975 0.9904 0.0000
vt 0.7778 0.9157 0.0000
vt 0.8536 0.8536 0.0000
vt 0.9157 0.7778 0.0000
vt 0.9619 0.6913 0.0000
vt 0.9904 0.5975 0.0000
vt 0.9904 0.4025 0.0000
vt 0.9157 0.2222 0.0000
vt 0.4025 0.9904 0.0000
vt 1.0000 0.5000 0.0000
vt 1.0000 0.0000 0.0000
vt 0.5000 1.0000 0.0000
vt 0.0843 0.2222 0.0000
vt 0.0381 0.3087 0.0000
vt 0.0096 0.4025 0.0000
vt 0.0000 0.5000 0.0000
vt 0.0096 0.5975 0.0000
vt 0.0381 0.6913 0.0000
vt 0.0843 0.7778 0.0000
vt 0.1464 0.8536 0.0000
vt 0.2222 0.9157 0.0000
vt 0.3087 0.9619 0.0000
# 35 texture coords

o CO6
g CO6
usemtl Primitive_
s off
f 1/13/1 10/24/2 2/11/3 
f 2/13/4 10/24/5 3/11/6 
f 3/13/7 10/24/8 4/11/9 
f 4/13/10 10/24/11 5/11/12 
f 5/13/13 10/24/14 6/11/15 
f 6/13/16 10/24/17 7/11/18 
f 7/13/19 10/24/20 8/11/21 
f 8/13/22 10/24/23 9/11/24 
f 9/13/25 10/24/26 11/11/27 
f 11/13/28 10/24/29 12/11/30 
f 12/13/31 10/24/32 13/11/33 
f 13/13/34 10/24/35 14/11/36 
f 14/13/37 10/24/38 15/11/39 
f 15/13/40 10/24/41 16/11/42 
f 16/13/43 10/24/44 17/11/45 
f 17/13/46 10/24/47 18/11/48 
f 18/13/49 10/24/50 19/11/51 
f 19/13/52 10/24/53 20/11/54 
f 20/13/55 10/24/56 21/11/57 
f 21/13/58 10/24/59 22/11/60 
f 22/13/61 10/24/62 23/11/63 
f 23/13/64 10/24/65 24/11/66 
f 24/13/67 10/24/68 25/11/69 
f 25/13/70 10/24/71 26/11/72 
f 26/13/73 10/24/74 27/11/75 
f 27/13/76 10/24/77 28/11/78 
f 28/13/79 10/24/80 29/11/81 
f 29/13/82 10/24/83 30/11/84 
f 30/13/85 10/24/86 31/11/87 
f 31/13/88 10/24/89 32/11/90 
f 32/13/91 10/24/92 33/11/93 
f 33/13/94 10/24/95 1/11/96 
f 1/25/97 2/14/98 3/12/99 4/15/100 5/16/101 6/17/102 7/18/103 8/19/104 9/23/105 11/20/106 12/8/107 13/21/108 14/1/109 15/2/110 16/3/111 17/4/112 18/5/113 19/7/114 20/6/115 21/9/116 22/10/117 23/26/118 24/27/119 25/28/120 26/29/121 27/30/122 28/31/123 29/32/124 30/33/125 31/34/126 32/35/127 33/22/128 
# 1 polygons - 32 triangles

