# 3ds Max Wavefront OBJ Exporter v0.97b - (c)2007 guruware
# File Created: 17.06.2020 12:22:45

mtllib CO7.mtl

#
# object CO7
#

v  0.0000 249.8250 -250.1748
v  48.8066 249.8250 -245.3677
v  95.7383 249.8250 -231.1313
v  138.9902 249.8250 -208.0127
v  176.9004 249.8250 -176.9004
v  208.0127 249.8250 -138.9897
v  231.1318 249.8250 -95.7378
v  245.3682 249.8250 -48.8066
v  250.1748 249.8250 -0.0000
v  245.3682 249.8250 48.8066
v  231.1318 249.8250 95.7378
v  208.0127 249.8250 138.9897
v  176.9004 249.8250 176.9004
v  138.9893 249.8250 208.0127
v  95.7373 249.8249 231.1318
v  48.8066 249.8250 245.3682
v  0.0000 249.8250 250.1748
v  -48.8066 249.8250 245.3682
v  -95.7383 249.8250 231.1313
v  -138.9902 249.8249 208.0127
v  -176.9004 249.8249 176.9004
v  -208.0127 249.8250 138.9897
v  -231.1318 249.8250 95.7378
v  -245.3682 249.8250 48.8066
v  -250.1748 249.8250 -0.0000
v  -245.3682 249.8250 -48.8071
v  -231.1318 249.8250 -95.7383
v  -208.0127 249.8250 -138.9897
v  -176.9004 249.8250 -176.9004
v  -138.9893 249.8250 -208.0132
v  -95.7373 249.8250 -231.1318
v  -48.8066 249.8250 -245.3682
v  0.0000 -249.8250 -500.0000
v  97.5449 -249.8250 -490.3926
v  191.3418 -249.8250 -461.9399
v  277.7852 -249.8250 -415.7349
v  353.5537 -249.8250 -353.5532
v  415.7344 -249.8250 -277.7852
v  461.9395 -249.8250 -191.3418
v  490.3926 -249.8250 -97.5454
v  500.0000 -249.8250 -0.0000
v  490.3926 -249.8250 97.5449
v  461.9395 -249.8250 191.3418
v  415.7344 -249.8251 277.7852
v  353.5537 -249.8251 353.5532
v  277.7852 -249.8251 415.7349
v  191.3418 -249.8251 461.9399
v  97.5449 -249.8251 490.3926
v  0.0000 -249.8251 500.0000
v  -97.5449 -249.8251 490.3926
v  -191.3418 -249.8251 461.9395
v  -277.7852 -249.8251 415.7344
v  -353.5537 -249.8251 353.5532
v  -415.7354 -249.8251 277.7847
v  -461.9395 -249.8250 191.3413
v  -490.3926 -249.8250 97.5449
v  -500.0000 -249.8250 -0.0005
v  -490.3926 -249.8250 -97.5459
v  -461.9395 -249.8250 -191.3423
v  -415.7344 -249.8250 -277.7856
v  -353.5527 -249.8250 -353.5537
v  -277.7842 -249.8250 -415.7354
v  -191.3408 -249.8250 -461.9399
v  -97.5439 -249.8250 -490.3926
# 64 vertices

vn 0.0000 0.8360 -0.5487
vn -0.1070 0.8360 -0.5382
vn -0.2100 0.8360 -0.5069
vn -0.3048 0.8360 -0.4562
vn -0.3880 0.8360 -0.3880
vn -0.4562 0.8360 -0.3048
vn -0.5069 0.8360 -0.2100
vn -0.5382 0.8360 -0.1070
vn -0.5487 0.8360 0.0000
vn -0.5382 0.8360 0.1070
vn -0.5069 0.8360 0.2100
vn -0.4562 0.8360 0.3048
vn -0.3880 0.8360 0.3880
vn -0.3048 0.8360 0.4562
vn -0.2100 0.8360 0.5069
vn -0.1070 0.8360 0.5382
vn 0.0000 0.8360 0.5487
vn 0.1070 0.8360 0.5382
vn 0.2100 0.8360 0.5069
vn 0.3048 0.8360 0.4562
vn 0.3880 0.8360 0.3880
vn 0.4562 0.8360 0.3048
vn 0.5069 0.8360 0.2100
vn 0.5382 0.8360 0.1070
vn 0.5487 0.8360 0.0000
vn 0.5382 0.8360 -0.1070
vn 0.5069 0.8360 -0.2100
vn 0.4562 0.8360 -0.3048
vn 0.3880 0.8360 -0.3880
vn 0.3048 0.8360 -0.4562
vn 0.2100 0.8360 -0.5069
vn 0.1070 0.8360 -0.5382
vn -0.3048 0.8360 -0.4562
vn -0.2100 0.8360 -0.5069
vn -0.3307 -0.5033 -0.7983
vn -0.4801 -0.5033 -0.7185
vn -0.0000 -0.5033 -0.8641
vn 0.1686 -0.5033 -0.8475
vn 0.3307 -0.5033 -0.7983
vn 0.4801 -0.5033 -0.7185
vn 0.6110 -0.5033 -0.6110
vn 0.7185 -0.5033 -0.4801
vn 0.7983 -0.5033 -0.3307
vn 0.8475 -0.5033 -0.1686
vn 0.8641 -0.5033 0.0000
vn 0.8475 -0.5033 0.1686
vn 0.7983 -0.5033 0.3307
vn 0.7185 -0.5033 0.4801
vn 0.6110 -0.5033 0.6110
vn 0.4801 -0.5033 0.7185
vn 0.3307 -0.5033 0.7983
vn 0.1686 -0.5033 0.8475
vn 0.0000 -0.5033 0.8641
vn -0.1686 -0.5033 0.8475
vn -0.3307 -0.5033 0.7983
vn -0.4801 -0.5033 0.7185
vn -0.6110 -0.5033 0.6110
vn -0.7185 -0.5033 0.4801
vn -0.7983 -0.5033 0.3307
vn -0.8475 -0.5033 0.1686
vn -0.8641 -0.5033 -0.0000
vn -0.8475 -0.5033 -0.1686
vn -0.7983 -0.5033 -0.3307
vn -0.7185 -0.5033 -0.4801
vn -0.6110 -0.5033 -0.6110
vn -0.4801 -0.5033 -0.7185
vn -0.3307 -0.5033 -0.7983
vn -0.1686 -0.5033 -0.8475
vn 0.5382 0.8360 0.1070
vn 0.5069 0.8360 0.2100
vn 0.7983 -0.5033 0.3307
vn 0.8475 -0.5033 0.1686
vn 0.3048 0.8360 -0.4562
vn 0.3880 0.8360 -0.3880
vn 0.6110 -0.5033 -0.6110
vn 0.4801 -0.5033 -0.7185
vn 0.0000 0.8360 0.5487
vn -0.1070 0.8360 0.5382
vn -0.1686 -0.5033 0.8475
vn 0.0000 -0.5033 0.8641
vn -0.5382 0.8360 0.1070
vn -0.5487 0.8360 0.0000
vn -0.8641 -0.5033 -0.0000
vn -0.8475 -0.5033 0.1686
vn -0.2100 0.8360 -0.5069
vn -0.1070 0.8360 -0.5382
vn -0.1686 -0.5033 -0.8475
vn -0.3307 -0.5033 -0.7983
vn 0.5069 0.8360 0.2100
vn 0.4562 0.8360 0.3048
vn 0.7185 -0.5033 0.4801
vn 0.7983 -0.5033 0.3307
vn 0.3880 0.8360 -0.3880
vn 0.4562 0.8360 -0.3048
vn 0.7185 -0.5033 -0.4801
vn 0.6110 -0.5033 -0.6110
vn -0.1070 0.8360 0.5382
vn -0.2100 0.8360 0.5069
vn -0.3307 -0.5033 0.7983
vn -0.1686 -0.5033 0.8475
vn -0.1070 0.8360 -0.5382
vn 0.0000 0.8360 -0.5487
vn -0.0000 -0.5033 -0.8641
vn -0.1686 -0.5033 -0.8475
vn -0.5487 0.8360 0.0000
vn -0.5382 0.8360 -0.1070
vn -0.8475 -0.5033 -0.1686
vn -0.8641 -0.5033 -0.0000
vn 0.4562 0.8360 0.3048
vn 0.3880 0.8360 0.3880
vn 0.6110 -0.5033 0.6110
vn 0.7185 -0.5033 0.4801
vn 0.4562 0.8360 -0.3048
vn 0.5069 0.8360 -0.2100
vn 0.7983 -0.5033 -0.3307
vn 0.7185 -0.5033 -0.4801
vn -0.2100 0.8360 0.5069
vn -0.3048 0.8360 0.4562
vn -0.4801 -0.5033 0.7185
vn -0.3307 -0.5033 0.7983
vn -0.5382 0.8360 -0.1070
vn -0.5069 0.8360 -0.2100
vn -0.7983 -0.5033 -0.3307
vn -0.8475 -0.5033 -0.1686
vn 0.3880 0.8360 0.3880
vn 0.3048 0.8360 0.4562
vn 0.4801 -0.5033 0.7185
vn 0.6110 -0.5033 0.6110
vn 0.5069 0.8360 -0.2100
vn 0.5382 0.8360 -0.1070
vn 0.8475 -0.5033 -0.1686
vn 0.7983 -0.5033 -0.3307
vn -0.3048 0.8360 0.4562
vn -0.3880 0.8360 0.3880
vn -0.6110 -0.5033 0.6110
vn -0.4801 -0.5033 0.7185
vn 0.0000 0.8360 -0.5487
vn 0.1070 0.8360 -0.5382
vn 0.1686 -0.5033 -0.8475
vn -0.0000 -0.5033 -0.8641
vn -0.5069 0.8360 -0.2100
vn -0.4562 0.8360 -0.3048
vn -0.7185 -0.5033 -0.4801
vn -0.7983 -0.5033 -0.3307
vn 0.3048 0.8360 0.4562
vn 0.2100 0.8360 0.5069
vn 0.3307 -0.5033 0.7983
vn 0.4801 -0.5033 0.7185
vn 0.5382 0.8360 -0.1070
vn 0.5487 0.8360 0.0000
vn 0.8641 -0.5033 0.0000
vn 0.8475 -0.5033 -0.1686
vn -0.3880 0.8360 0.3880
vn -0.4562 0.8360 0.3048
vn -0.7185 -0.5033 0.4801
vn -0.6110 -0.5033 0.6110
vn -0.4562 0.8360 -0.3048
vn -0.3880 0.8360 -0.3880
vn -0.6110 -0.5033 -0.6110
vn -0.7185 -0.5033 -0.4801
vn 0.1070 0.8360 -0.5382
vn 0.2100 0.8360 -0.5069
vn 0.3307 -0.5033 -0.7983
vn 0.1686 -0.5033 -0.8475
vn 0.2100 0.8360 0.5069
vn 0.1070 0.8360 0.5382
vn 0.1686 -0.5033 0.8475
vn 0.3307 -0.5033 0.7983
vn -0.4562 0.8360 0.3048
vn -0.5069 0.8360 0.2100
vn -0.7983 -0.5033 0.3307
vn -0.7185 -0.5033 0.4801
vn -0.3880 0.8360 -0.3880
vn -0.3048 0.8360 -0.4562
vn -0.4801 -0.5033 -0.7185
vn -0.6110 -0.5033 -0.6110
vn 0.5487 0.8360 0.0000
vn 0.5382 0.8360 0.1070
vn 0.8475 -0.5033 0.1686
vn 0.8641 -0.5033 0.0000
vn 0.2100 0.8360 -0.5069
vn 0.3048 0.8360 -0.4562
vn 0.4801 -0.5033 -0.7185
vn 0.3307 -0.5033 -0.7983
vn 0.1070 0.8360 0.5382
vn 0.0000 0.8360 0.5487
vn 0.0000 -0.5033 0.8641
vn 0.1686 -0.5033 0.8475
vn -0.5069 0.8360 0.2100
vn -0.5382 0.8360 0.1070
vn -0.8475 -0.5033 0.1686
vn -0.7983 -0.5033 0.3307
# 192 vertex normals

vt 0.7778 0.0843 0.0000
vt 0.6913 0.0381 0.0000
vt 0.5975 0.0096 0.0000
vt 0.5000 0.0000 0.0000
vt 0.4025 0.0096 0.0000
vt 0.3087 0.0381 0.0000
vt 0.0843 0.2222 0.0000
vt 0.1464 0.1464 0.0000
vt 0.2222 0.0843 0.0000
vt 0.8536 0.1464 0.0000
vt 1.0000 1.0000 0.0000
vt 0.7778 0.9157 0.0000
vt 0.5975 0.9904 0.0000
vt 0.9157 0.7778 0.0000
vt 0.6913 0.9619 0.0000
vt 0.8536 0.8536 0.0000
vt 0.9619 0.6913 0.0000
vt 0.9904 0.5975 0.0000
vt 0.9904 0.4025 0.0000
vt 0.9619 0.3087 0.0000
vt 0.9157 0.2222 0.0000
vt 0.0000 0.0000 0.0000
vt 1.0000 0.5000 0.0000
vt 1.0000 0.0000 0.0000
vt 0.5000 1.0000 0.0000
vt 0.0000 1.0000 0.0000
vt 0.0381 0.3087 0.0000
vt 0.0096 0.4025 0.0000
vt 0.0000 0.5000 0.0000
vt 0.0096 0.5975 0.0000
vt 0.0381 0.6913 0.0000
vt 0.0843 0.7778 0.0000
vt 0.1464 0.8536 0.0000
vt 0.2222 0.9157 0.0000
vt 0.3087 0.9619 0.0000
vt 0.4025 0.9904 0.0000
# 36 texture coords

o CO7
g CO7
usemtl Primitive_
s off
f 1/25/1 32/13/2 31/15/3 30/12/4 29/16/5 28/14/6 27/17/7 26/18/8 25/23/9 24/19/10 23/20/11 22/21/12 21/10/13 20/1/14 19/2/15 18/3/16 17/4/17 16/5/18 15/6/19 14/9/20 13/8/21 12/7/22 11/27/23 10/28/24 9/29/25 8/30/26 7/31/27 6/32/28 5/33/29 4/34/30 3/35/31 2/36/32 
f 30/22/33 31/24/34 63/11/35 62/26/36 
f 33/25/37 34/13/38 35/15/39 36/12/40 37/16/41 38/14/42 39/17/43 40/18/44 41/23/45 42/19/46 43/20/47 44/21/48 45/10/49 46/1/50 47/2/51 48/3/52 49/4/53 50/5/54 51/6/55 52/9/56 53/8/57 54/7/58 55/27/59 56/28/60 57/29/61 58/30/62 59/31/63 60/32/64 61/33/65 62/34/66 63/35/67 64/36/68 
f 10/22/69 11/24/70 43/11/71 42/26/72 
f 4/22/73 5/24/74 37/11/75 36/26/76 
f 17/22/77 18/24/78 50/11/79 49/26/80 
f 24/22/81 25/24/82 57/11/83 56/26/84 
f 31/22/85 32/24/86 64/11/87 63/26/88 
f 11/22/89 12/24/90 44/11/91 43/26/92 
f 5/22/93 6/24/94 38/11/95 37/26/96 
f 18/22/97 19/24/98 51/11/99 50/26/100 
f 32/22/101 1/24/102 33/11/103 64/26/104 
f 25/22/105 26/24/106 58/11/107 57/26/108 
f 12/22/109 13/24/110 45/11/111 44/26/112 
f 6/22/113 7/24/114 39/11/115 38/26/116 
f 19/22/117 20/24/118 52/11/119 51/26/120 
f 26/22/121 27/24/122 59/11/123 58/26/124 
f 13/22/125 14/24/126 46/11/127 45/26/128 
f 7/22/129 8/24/130 40/11/131 39/26/132 
f 20/22/133 21/24/134 53/11/135 52/26/136 
f 1/22/137 2/24/138 34/11/139 33/26/140 
f 27/22/141 28/24/142 60/11/143 59/26/144 
f 14/22/145 15/24/146 47/11/147 46/26/148 
f 8/22/149 9/24/150 41/11/151 40/26/152 
f 21/22/153 22/24/154 54/11/155 53/26/156 
f 28/22/157 29/24/158 61/11/159 60/26/160 
f 2/22/161 3/24/162 35/11/163 34/26/164 
f 15/22/165 16/24/166 48/11/167 47/26/168 
f 22/22/169 23/24/170 55/11/171 54/26/172 
f 29/22/173 30/24/174 62/11/175 61/26/176 
f 9/22/177 10/24/178 42/11/179 41/26/180 
f 3/22/181 4/24/182 36/11/183 35/26/184 
f 16/22/185 17/24/186 49/11/187 48/26/188 
f 23/22/189 24/24/190 56/11/191 55/26/192 
# 34 polygons

