# 3ds Max Wavefront OBJ Exporter v0.97b - (c)2007 guruware
# File Created: 17.06.2020 12:22:53

mtllib CU6.mtl

#
# object CU6
#

v  -500.0000 -500.0001 500.0000
v  -500.0000 -0.0001 500.0000
v  -500.0000 -499.9999 -500.0000
v  500.0000 -500.0001 500.0000
v  500.0000 -499.9999 -500.0000
v  -500.0000 -500.0000 -0.0000
v  -500.0000 0.0000 -0.0000
v  -500.0000 0.0001 -500.0000
v  0.0000 -499.9999 -500.0000
v  500.0000 -500.0000 -0.0000
v  0.0000 -500.0001 500.0000
v  0.0000 -0.0001 500.0000
v  0.0000 0.0000 -0.0000
v  0.0000 -500.0000 -0.0000
v  0.0000 0.0001 -500.0000
# 15 vertices

vn 0.0000 -1.0000 -0.0000
vn 0.9239 -0.3827 -0.0000
vn 0.7735 -0.3204 0.5469
vn 0.0000 -0.7071 0.7071
vn 0.3827 0.9239 0.0000
vn -0.7071 0.7071 0.0000
vn -0.5774 0.5774 0.5774
vn 0.2971 0.7173 0.6303
vn 0.9239 -0.3827 -0.0000
vn 0.3827 0.9239 0.0000
vn 0.2971 0.7173 0.6303
vn 0.7735 -0.3204 0.5469
vn 0.7735 -0.3204 -0.5469
vn 0.2971 0.7173 -0.6303
vn 0.3827 0.9239 0.0000
vn 0.9239 -0.3827 -0.0000
vn 0.2971 0.7173 -0.6303
vn -0.5774 0.5774 -0.5774
vn -0.7071 0.7071 0.0000
vn 0.3827 0.9239 0.0000
vn -0.7071 -0.7071 -0.0000
vn 0.0000 -1.0000 -0.0000
vn 0.0000 -0.7071 0.7071
vn -0.5774 -0.5774 0.5774
vn -0.5774 -0.5774 -0.5774
vn 0.0000 -0.7071 -0.7071
vn 0.0000 -1.0000 -0.0000
vn -0.7071 -0.7071 -0.0000
vn 0.0000 -0.7071 -0.7071
vn 0.7735 -0.3204 -0.5469
vn 0.9239 -0.3827 -0.0000
vn 0.0000 -1.0000 -0.0000
vn 0.0000 -0.7071 0.7071
vn 0.2971 0.7173 0.6303
vn -0.5774 0.5774 0.5774
vn -0.5774 -0.5774 0.5774
vn 0.7735 -0.3204 0.5469
vn 0.2971 0.7173 0.6303
vn 0.0000 -0.7071 0.7071
vn 0.0000 -0.7071 -0.7071
vn 0.2971 0.7173 -0.6303
vn 0.7735 -0.3204 -0.5469
vn -0.5774 -0.5774 -0.5774
vn -0.5774 0.5774 -0.5774
vn 0.2971 0.7173 -0.6303
vn 0.0000 -0.7071 -0.7071
vn -0.7071 -0.7071 -0.0000
vn -0.7071 0.7071 0.0000
vn -0.5774 0.5774 -0.5774
vn -0.5774 -0.5774 -0.5774
vn -0.5774 -0.5774 0.5774
vn -0.5774 0.5774 0.5774
vn -0.7071 0.7071 0.0000
vn -0.7071 -0.7071 -0.0000
# 54 vertex normals

vt 0.0000 1.0000 0.0000
vt 1.0000 0.0000 0.0000
vt 0.0000 0.0000 0.0000
vt 1.0000 1.0000 0.0000
# 4 texture coords

o CU6
g CU6
usemtl Primitive_
s 1
f 14/3/1 10/2/2 4/4/3 11/1/4 
f 13/3/5 7/2/6 2/4/7 12/1/8 
s 2
f 10/3/9 13/2/10 12/4/11 4/1/12 
f 5/3/13 15/2/14 13/4/15 10/1/16 
s 1
f 15/3/17 8/2/18 7/4/19 13/1/20 
f 6/3/21 14/2/22 11/4/23 1/1/24 
f 3/3/25 9/2/26 14/4/27 6/1/28 
f 9/3/29 5/2/30 10/4/31 14/1/32 
s 4
f 11/3/33 12/2/34 2/4/35 1/1/36 
f 4/2/37 12/4/38 11/1/39 
f 9/3/40 15/2/41 5/1/42 
f 3/3/43 8/2/44 15/4/45 9/1/46 
s 2
f 6/3/47 7/2/48 8/4/49 3/1/50 
f 1/3/51 2/2/52 7/4/53 6/1/54 
# 12 polygons - 2 triangles

