# 3ds Max Wavefront OBJ Exporter v0.97b - (c)2007 guruware
# File Created: 17.06.2020 12:22:52

mtllib CU7.mtl

#
# object CU7
#

v  -500.0000 -500.0001 500.0000
v  -500.0000 -0.0001 500.0000
v  -500.0000 -499.9999 -500.0000
v  500.0000 -500.0001 500.0000
v  500.0000 -499.9999 -500.0000
v  -500.0000 -500.0000 -0.0000
v  -500.0000 0.0000 -0.0000
v  -500.0000 0.0001 -500.0000
v  0.0000 -249.9999 -500.0000
v  500.0000 -500.0000 -0.0000
v  0.0000 -500.0000 -0.0000
v  0.0000 -250.0000 -0.0000
v  0.0000 -250.0001 500.0000
v  0.0000 -500.0001 500.0000
v  0.0000 -499.9999 -500.0000
# 15 vertices

vn 0.0000 -0.7071 -0.7071
vn 0.8189 -0.1933 -0.5405
vn 0.9732 -0.2298 -0.0000
vn 0.0000 -1.0000 -0.0000
vn 0.0000 -1.0000 -0.0000
vn 0.9732 -0.2298 -0.0000
vn 0.8187 -0.1937 0.5405
vn 0.0000 -0.7071 0.7071
vn 0.0000 -0.7071 0.7071
vn 0.3162 0.6325 0.7071
vn -0.4366 0.7067 0.5568
vn -0.5774 -0.5774 0.5774
vn -0.5774 -0.5774 -0.5774
vn -0.4368 0.7065 -0.5569
vn 0.3162 0.6325 -0.7071
vn 0.0000 -0.7071 -0.7071
vn -0.5774 -0.5774 -0.5774
vn 0.0000 -0.7071 -0.7071
vn 0.0000 -1.0000 -0.0000
vn -0.7071 -0.7071 -0.0000
vn 0.0000 -0.7071 -0.7071
vn 0.3162 0.6325 -0.7071
vn 0.8189 -0.1933 -0.5405
vn -0.7071 -0.7071 -0.0000
vn 0.0000 -1.0000 -0.0000
vn 0.0000 -0.7071 0.7071
vn -0.5774 -0.5774 0.5774
vn 0.9732 -0.2298 -0.0000
vn 0.4472 0.8944 0.0000
vn 0.3162 0.6325 0.7071
vn 0.8187 -0.1937 0.5405
vn 0.8189 -0.1933 -0.5405
vn 0.3162 0.6325 -0.7071
vn 0.4472 0.8944 0.0000
vn 0.9732 -0.2298 -0.0000
vn 0.3162 0.6325 -0.7071
vn -0.4368 0.7065 -0.5569
vn -0.5257 0.8507 0.0000
vn 0.4472 0.8944 0.0000
vn 0.8187 -0.1937 0.5405
vn 0.3162 0.6325 0.7071
vn 0.0000 -0.7071 0.7071
vn -0.7071 -0.7071 -0.0000
vn -0.5257 0.8507 0.0000
vn -0.4368 0.7065 -0.5569
vn -0.5774 -0.5774 -0.5774
vn -0.5774 -0.5774 0.5774
vn -0.4366 0.7067 0.5568
vn -0.5257 0.8507 0.0000
vn -0.7071 -0.7071 -0.0000
vn 0.4472 0.8944 0.0000
vn -0.5257 0.8507 0.0000
vn -0.4366 0.7067 0.5568
vn 0.3162 0.6325 0.7071
# 54 vertex normals

vt 0.0000 1.0000 0.0000
vt 1.0000 0.0000 0.0000
vt 0.0000 0.0000 0.0000
vt 1.0000 1.0000 0.0000
# 4 texture coords

o CU7
g CU7
usemtl Primitive_
s 1
f 15/3/1 5/2/2 10/4/3 11/1/4 
f 11/3/5 10/2/6 4/4/7 14/1/8 
s 2
f 14/3/9 13/2/10 2/4/11 1/1/12 
f 3/3/13 8/2/14 9/4/15 15/1/16 
s 1
f 3/3/17 15/2/18 11/4/19 6/1/20 
s 2
f 15/3/21 9/2/22 5/4/23 
s 1
f 6/3/24 11/2/25 14/4/26 1/1/27 
s 4
f 10/3/28 12/2/29 13/4/30 4/1/31 
f 5/3/32 9/2/33 12/4/34 10/1/35 
f 9/3/36 8/2/37 7/4/38 12/1/39 
s 2
f 4/3/40 13/2/41 14/4/42 
s 8
f 6/3/43 7/2/44 8/4/45 3/1/46 
f 1/3/47 2/2/48 7/4/49 6/1/50 
s 4
f 12/3/51 7/2/52 2/4/53 13/1/54 
# 12 polygons - 2 triangles

