# 3ds Max Wavefront OBJ Exporter v0.97b - (c)2007 guruware
# File Created: 17.06.2020 12:22:50

mtllib CU9.mtl

#
# object CU9
#

v  -500.0000 -500.0001 500.0000
v  -500.0000 -499.9999 -500.0000
v  500.0000 -500.0001 500.0000
v  500.0000 -499.9999 -500.0000
v  -500.0000 -500.0000 -0.0000
v  -500.0000 0.0001 -500.0000
v  0.0000 -499.9999 -500.0000
v  500.0000 -500.0000 -0.0000
v  0.0000 -500.0001 500.0000
v  0.0000 -0.0001 500.0000
v  0.0000 0.0000 -0.0000
v  0.0000 -500.0000 -0.0000
v  0.0000 0.0001 -500.0000
v  -1000.0000 -500.0000 -0.0000
v  -1000.0000 -500.0001 500.0000
v  -1000.0000 -499.9999 -500.0000
v  -500.0000 -0.0001 500.0000
v  -500.0000 0.0000 -0.0000
# 18 vertices

vn 0.0000 -1.0000 -0.0000
vn 0.9239 -0.3827 -0.0000
vn 0.7735 -0.3204 0.5469
vn 0.0000 -0.7071 0.7071
vn 0.3827 0.9239 0.0000
vn -0.3827 0.9239 0.0000
vn -0.2971 0.7173 0.6303
vn 0.2971 0.7173 0.6303
vn 0.9239 -0.3827 -0.0000
vn 0.3827 0.9239 0.0000
vn 0.2971 0.7173 0.6303
vn 0.7735 -0.3204 0.5469
vn 0.7735 -0.3204 -0.5469
vn 0.2971 0.7173 -0.6303
vn 0.3827 0.9239 0.0000
vn 0.9239 -0.3827 -0.0000
vn 0.2971 0.7173 -0.6303
vn -0.2971 0.7173 -0.6303
vn -0.3827 0.9239 0.0000
vn 0.3827 0.9239 0.0000
vn 0.0000 -1.0000 -0.0000
vn 0.0000 -1.0000 -0.0000
vn 0.0000 -0.7071 0.7071
vn 0.0000 -0.7071 0.7071
vn 0.0000 -0.7071 -0.7071
vn 0.0000 -0.7071 -0.7071
vn 0.0000 -1.0000 -0.0000
vn 0.0000 -1.0000 -0.0000
vn 0.0000 -0.7071 -0.7071
vn 0.7735 -0.3204 -0.5469
vn 0.9239 -0.3827 -0.0000
vn 0.0000 -1.0000 -0.0000
vn 0.0000 -0.7071 0.7071
vn 0.2971 0.7173 0.6303
vn -0.2971 0.7173 0.6303
vn 0.0000 -0.7071 0.7071
vn 0.7735 -0.3204 0.5469
vn 0.2971 0.7173 0.6303
vn 0.0000 -0.7071 0.7071
vn 0.0000 -0.7071 -0.7071
vn 0.2971 0.7173 -0.6303
vn 0.7735 -0.3204 -0.5469
vn 0.0000 -0.7071 -0.7071
vn -0.2971 0.7173 -0.6303
vn 0.2971 0.7173 -0.6303
vn 0.0000 -0.7071 -0.7071
vn -0.2971 0.7173 -0.6303
vn 0.0000 -0.7071 -0.7071
vn -0.7735 -0.3204 -0.5469
vn 0.0000 -0.7071 0.7071
vn -0.2971 0.7173 0.6303
vn -0.7735 -0.3204 0.5469
vn -0.9239 -0.3827 -0.0000
vn -0.3827 0.9239 0.0000
vn -0.2971 0.7173 -0.6303
vn -0.7735 -0.3204 -0.5469
vn -0.7735 -0.3204 0.5469
vn -0.2971 0.7173 0.6303
vn -0.3827 0.9239 0.0000
vn -0.9239 -0.3827 -0.0000
vn 0.0000 -1.0000 -0.0000
vn 0.0000 -0.7071 0.7071
vn -0.7735 -0.3204 0.5469
vn -0.9239 -0.3827 -0.0000
vn 0.0000 -0.7071 -0.7071
vn 0.0000 -1.0000 -0.0000
vn -0.9239 -0.3827 -0.0000
vn -0.7735 -0.3204 -0.5469
# 68 vertex normals

vt 0.0000 1.0000 0.0000
vt 1.0000 0.0000 0.0000
vt 0.0000 0.0000 0.0000
vt 1.0000 1.0000 0.0000
# 4 texture coords

o CU9
g CU9
usemtl Primitive_
s 1
f 12/3/1 8/2/2 3/4/3 9/1/4 
f 11/3/5 18/2/6 17/4/7 10/1/8 
s 2
f 8/3/9 11/2/10 10/4/11 3/1/12 
f 4/3/13 13/2/14 11/4/15 8/1/16 
s 1
f 13/3/17 6/2/18 18/4/19 11/1/20 
f 5/3/21 12/2/22 9/4/23 1/1/24 
f 2/3/25 7/2/26 12/4/27 5/1/28 
f 7/3/29 4/2/30 8/4/31 12/1/32 
s 4
f 9/3/33 10/2/34 17/4/35 1/1/36 
f 3/3/37 10/2/38 9/4/39 
f 7/3/40 13/2/41 4/4/42 
f 2/3/43 6/2/44 13/4/45 7/1/46 
f 6/3/47 2/2/48 16/4/49 
f 1/3/50 17/2/51 15/4/52 
s 2
f 14/3/53 18/2/54 6/4/55 16/1/56 
f 15/3/57 17/2/58 18/4/59 14/1/60 
s 1
f 5/3/61 1/2/62 15/4/63 14/1/64 
f 2/3/65 5/2/66 14/4/67 16/1/68 
# 14 polygons - 4 triangles

