# 3ds Max Wavefront OBJ Exporter v0.97b - (c)2007 guruware
# File Created: 17.06.2020 12:22:49

mtllib CY1.mtl

#
# object CY1
#

v  0.0000 -499.9999 -500.0000
v  0.0000 500.0001 -500.0000
v  433.0127 -500.0000 250.0000
v  433.0127 499.9999 250.0000
v  -433.0127 -500.0000 250.0000
v  -433.0127 499.9999 250.0000
# 6 vertices

vn 0.0000 -0.5547 -0.8321
vn 0.0000 0.5547 -0.8321
vn 0.7206 0.5547 0.4160
vn 0.7206 -0.5547 0.4160
vn 0.7206 -0.5547 0.4160
vn 0.7206 0.5547 0.4160
vn -0.7206 0.5547 0.4160
vn -0.7206 -0.5547 0.4160
vn 0.7206 0.5547 0.4160
vn 0.0000 0.5547 -0.8321
vn -0.7206 0.5547 0.4160
vn -0.7206 -0.5547 0.4160
vn -0.7206 0.5547 0.4160
vn 0.0000 0.5547 -0.8321
vn 0.0000 -0.5547 -0.8321
vn 0.0000 -0.5547 -0.8321
vn 0.7206 -0.5547 0.4160
vn -0.7206 -0.5547 0.4160
# 18 vertex normals

vt 0.0000 1.0000 0.0000
vt 1.0000 0.0000 0.0000
vt 0.0000 0.0000 0.0000
vt 1.0000 1.0000 0.0000
# 4 texture coords

o CY1
g CY1
usemtl Primitive_
s off
f 1/3/1 2/2/2 4/4/3 3/1/4 
f 3/3/5 4/2/6 6/4/7 5/1/8 
f 4/3/9 2/2/10 6/4/11 
f 5/3/12 6/2/13 2/4/14 1/1/15 
f 1/3/16 3/2/17 5/4/18 
# 3 polygons - 2 triangles

