# 3ds Max Wavefront OBJ Exporter v0.97b - (c)2007 guruware
# File Created: 17.06.2020 12:22:49

mtllib CY2.mtl

#
# object CY2
#

v  0.0000 -499.9999 -500.0000
v  0.0000 500.0001 -500.0000
v  475.5283 -499.9999 -154.5088
v  475.5283 500.0000 -154.5083
v  293.8926 -500.0000 404.5083
v  293.8926 499.9999 404.5088
v  -293.8926 -500.0000 404.5083
v  -293.8926 499.9999 404.5088
v  -475.5283 -499.9999 -154.5088
v  -475.5283 500.0000 -154.5083
# 10 vertices

vn 0.0000 -0.5957 -0.8032
vn 0.0000 0.5957 -0.8032
vn 0.7639 0.5957 -0.2482
vn 0.7639 -0.5957 -0.2482
vn 0.7639 -0.5957 -0.2482
vn 0.7639 0.5957 -0.2482
vn 0.4721 0.5957 0.6498
vn 0.4721 -0.5957 0.6498
vn 0.4721 -0.5957 0.6498
vn 0.4721 0.5957 0.6498
vn -0.4721 0.5957 0.6498
vn -0.4721 -0.5957 0.6498
vn 0.7639 0.5957 -0.2482
vn 0.0000 0.5957 -0.8032
vn -0.7639 0.5957 -0.2482
vn -0.4721 0.5957 0.6498
vn 0.4721 0.5957 0.6498
vn -0.4721 -0.5957 0.6498
vn -0.4721 0.5957 0.6498
vn -0.7639 0.5957 -0.2482
vn -0.7639 -0.5957 -0.2482
vn -0.7639 -0.5957 -0.2482
vn -0.7639 0.5957 -0.2482
vn 0.0000 0.5957 -0.8032
vn 0.0000 -0.5957 -0.8032
vn 0.0000 -0.5957 -0.8032
vn 0.7639 -0.5957 -0.2482
vn 0.4721 -0.5957 0.6498
vn -0.4721 -0.5957 0.6498
vn -0.7639 -0.5957 -0.2482
# 30 vertex normals

vt 0.0000 1.0000 0.0000
vt 0.5000 1.0000 0.0000
vt 0.0000 0.0000 0.0000
vt 0.9755 0.6545 0.0000
vt 0.7939 0.0955 0.0000
vt 0.2061 0.0955 0.0000
vt 0.0245 0.6545 0.0000
vt 1.0000 0.0000 0.0000
vt 1.0000 1.0000 0.0000
# 9 texture coords

o CY2
g CY2
usemtl Primitive_
s off
f 1/3/1 2/8/2 4/9/3 3/1/4 
f 3/3/5 4/8/6 6/9/7 5/1/8 
f 5/3/9 6/8/10 8/9/11 7/1/12 
f 4/2/13 2/4/14 10/5/15 8/6/16 6/7/17 
f 7/3/18 8/8/19 10/9/20 9/1/21 
f 9/3/22 10/8/23 2/9/24 1/1/25 
f 1/2/26 3/4/27 5/5/28 7/6/29 9/7/30 
# 7 polygons

