# 3ds Max Wavefront OBJ Exporter v0.97b - (c)2007 guruware
# File Created: 17.06.2020 12:22:48

mtllib CY4.mtl

#
# object CY4
#

v  0.0000 -499.9999 -500.0001
v  0.0000 500.0001 -499.9999
v  390.9160 -499.9999 -311.7450
v  390.9160 500.0000 -311.7448
v  487.4639 -500.0000 111.2604
v  487.4639 499.9999 111.2606
v  216.9414 -500.0000 450.4844
v  216.9414 499.9999 450.4845
v  -216.9414 -500.0000 450.4844
v  -216.9414 499.9999 450.4845
v  -487.4639 -500.0000 111.2604
v  -487.4639 499.9999 111.2606
v  -390.9160 -499.9999 -311.7449
v  -390.9160 500.0000 -311.7447
# 14 vertices

vn -0.0000 -0.6212 -0.7836
vn -0.0000 0.6212 -0.7836
vn 0.6127 0.6212 -0.4886
vn 0.6127 -0.6212 -0.4886
vn 0.6127 -0.6212 -0.4886
vn 0.6127 0.6212 -0.4886
vn 0.7640 0.6212 0.1744
vn 0.7639 -0.6213 0.1743
vn 0.7639 -0.6213 0.1743
vn 0.7640 0.6212 0.1744
vn 0.3399 0.6213 0.7060
vn 0.3400 -0.6212 0.7060
vn 0.3400 -0.6212 0.7060
vn 0.3399 0.6213 0.7060
vn -0.3399 0.6213 0.7060
vn -0.3400 -0.6212 0.7060
vn -0.3400 -0.6212 0.7060
vn -0.3399 0.6213 0.7060
vn -0.7640 0.6212 0.1744
vn -0.7639 -0.6213 0.1743
vn 0.6127 0.6212 -0.4886
vn -0.0000 0.6212 -0.7836
vn -0.6127 0.6212 -0.4886
vn -0.7640 0.6212 0.1744
vn -0.3399 0.6213 0.7060
vn 0.3399 0.6213 0.7060
vn 0.7640 0.6212 0.1744
vn -0.7639 -0.6213 0.1743
vn -0.7640 0.6212 0.1744
vn -0.6127 0.6212 -0.4886
vn -0.6127 -0.6212 -0.4886
vn -0.6127 -0.6212 -0.4886
vn -0.6127 0.6212 -0.4886
vn -0.0000 0.6212 -0.7836
vn -0.0000 -0.6212 -0.7836
vn -0.0000 -0.6212 -0.7836
vn 0.6127 -0.6212 -0.4886
vn 0.7639 -0.6213 0.1743
vn 0.3400 -0.6212 0.7060
vn -0.3400 -0.6212 0.7060
vn -0.7639 -0.6213 0.1743
vn -0.6127 -0.6212 -0.4886
# 42 vertex normals

vt 0.0000 1.0000 0.0000
vt 0.5000 1.0000 0.0000
vt 0.0000 0.0000 0.0000
vt 0.8909 0.8117 0.0000
vt 0.9875 0.3887 0.0000
vt 0.7169 0.0495 0.0000
vt 0.2831 0.0495 0.0000
vt 0.0125 0.3887 0.0000
vt 0.1091 0.8117 0.0000
vt 1.0000 0.0000 0.0000
vt 1.0000 1.0000 0.0000
# 11 texture coords

o CY4
g CY4
usemtl Primitive_
s off
f 1/3/1 2/10/2 4/11/3 3/1/4 
f 3/3/5 4/10/6 6/11/7 5/1/8 
f 5/3/9 6/10/10 8/11/11 7/1/12 
f 7/3/13 8/10/14 10/11/15 9/1/16 
f 9/3/17 10/10/18 12/11/19 11/1/20 
f 4/2/21 2/4/22 14/5/23 12/6/24 10/7/25 8/8/26 6/9/27 
f 11/3/28 12/10/29 14/11/30 13/1/31 
f 13/3/32 14/10/33 2/11/34 1/1/35 
f 1/2/36 3/4/37 5/5/38 7/6/39 9/7/40 11/8/41 13/9/42 
# 9 polygons

