# 3ds Max Wavefront OBJ Exporter v0.97b - (c)2007 guruware
# File Created: 17.06.2020 12:22:48

mtllib CY5.mtl

#
# object CY5
#

v  0.0000 -499.9999 -500.0000
v  0.0000 500.0001 -499.9999
v  353.5537 -499.9999 -353.5535
v  353.5537 500.0000 -353.5532
v  500.0000 -500.0000 -0.0000
v  500.0000 500.0000 0.0001
v  353.5537 -500.0000 353.5533
v  353.5537 499.9999 353.5535
v  0.0000 -500.0001 499.9999
v  0.0000 499.9999 500.0001
v  -353.5537 -500.0000 353.5532
v  -353.5537 499.9999 353.5534
v  -500.0000 -500.0000 -0.0001
v  -500.0000 500.0000 0.0001
v  -353.5537 -499.9999 -353.5535
v  -353.5537 500.0000 -353.5532
# 16 vertices

vn 0.0000 -0.6303 -0.7764
vn 0.0000 0.6303 -0.7764
vn 0.5490 0.6303 -0.5490
vn 0.5490 -0.6303 -0.5490
vn 0.5490 -0.6303 -0.5490
vn 0.5490 0.6303 -0.5490
vn 0.7764 0.6303 0.0000
vn 0.7764 -0.6303 -0.0000
vn 0.7764 -0.6303 -0.0000
vn 0.7764 0.6303 0.0000
vn 0.5490 0.6303 0.5490
vn 0.5490 -0.6303 0.5490
vn 0.5490 -0.6303 0.5490
vn 0.5490 0.6303 0.5490
vn -0.0000 0.6303 0.7764
vn -0.0000 -0.6303 0.7764
vn -0.0000 -0.6303 0.7764
vn -0.0000 0.6303 0.7764
vn -0.5490 0.6303 0.5490
vn -0.5490 -0.6303 0.5490
vn -0.5490 -0.6303 0.5490
vn -0.5490 0.6303 0.5490
vn -0.7764 0.6303 0.0000
vn -0.7764 -0.6303 -0.0000
vn 0.5490 0.6303 -0.5490
vn 0.0000 0.6303 -0.7764
vn -0.5490 0.6303 -0.5490
vn -0.7764 0.6303 0.0000
vn -0.5490 0.6303 0.5490
vn -0.0000 0.6303 0.7764
vn 0.5490 0.6303 0.5490
vn 0.7764 0.6303 0.0000
vn -0.7764 -0.6303 -0.0000
vn -0.7764 0.6303 0.0000
vn -0.5490 0.6303 -0.5490
vn -0.5490 -0.6303 -0.5490
vn -0.5490 -0.6303 -0.5490
vn -0.5490 0.6303 -0.5490
vn 0.0000 0.6303 -0.7764
vn 0.0000 -0.6303 -0.7764
vn 0.0000 -0.6303 -0.7764
vn 0.5490 -0.6303 -0.5490
vn 0.7764 -0.6303 -0.0000
vn 0.5490 -0.6303 0.5490
vn -0.0000 -0.6303 0.7764
vn -0.5490 -0.6303 0.5490
vn -0.7764 -0.6303 -0.0000
vn -0.5490 -0.6303 -0.5490
# 48 vertex normals

vt 0.0000 1.0000 0.0000
vt 0.5000 1.0000 0.0000
vt 0.0000 0.0000 0.0000
vt 0.8536 0.8536 0.0000
vt 0.8536 0.1464 0.0000
vt 0.5000 0.0000 0.0000
vt 0.1464 0.1464 0.0000
vt 0.0000 0.5000 0.0000
vt 1.0000 0.5000 0.0000
vt 0.1464 0.8536 0.0000
vt 1.0000 0.0000 0.0000
vt 1.0000 1.0000 0.0000
# 12 texture coords

o CY5
g CY5
usemtl Primitive_
s off
f 1/3/1 2/11/2 4/12/3 3/1/4 
f 3/3/5 4/11/6 6/12/7 5/1/8 
f 5/3/9 6/11/10 8/12/11 7/1/12 
f 7/3/13 8/11/14 10/12/15 9/1/16 
f 9/3/17 10/11/18 12/12/19 11/1/20 
f 11/3/21 12/11/22 14/12/23 13/1/24 
f 4/2/25 2/4/26 16/9/27 14/5/28 12/6/29 10/7/30 8/8/31 6/10/32 
f 13/3/33 14/11/34 16/12/35 15/1/36 
f 15/3/37 16/11/38 2/12/39 1/1/40 
f 1/2/41 3/4/42 5/9/43 7/5/44 9/6/45 11/7/46 13/8/47 15/10/48 
# 10 polygons

