# 3ds Max Wavefront OBJ Exporter v0.97b - (c)2007 guruware
# File Created: 17.06.2020 12:22:48

mtllib CY7.mtl

#
# object CY7
#

v  0.0000 -499.9999 -500.0000
v  0.0000 500.0001 -500.0000
v  293.8926 -499.9999 -404.5088
v  293.8926 500.0000 -404.5083
v  475.5283 -499.9999 -154.5088
v  475.5283 500.0000 -154.5083
v  475.5283 -500.0000 154.5083
v  475.5283 499.9999 154.5088
v  293.8926 -500.0000 404.5083
v  293.8926 499.9999 404.5088
v  0.0000 -500.0001 500.0000
v  0.0000 499.9999 500.0000
v  -293.8926 -500.0000 404.5083
v  -293.8926 499.9999 404.5088
v  -475.5283 -500.0000 154.5083
v  -475.5283 499.9999 154.5088
v  -475.5283 -499.9999 -154.5088
v  -475.5283 500.0000 -154.5083
v  -293.8926 -499.9999 -404.5088
v  -293.8926 500.0000 -404.5083
# 20 vertices

vn 0.0000 -0.6437 -0.7653
vn 0.0000 0.6437 -0.7653
vn 0.4498 0.6437 -0.6191
vn 0.4498 -0.6437 -0.6191
vn 0.4498 -0.6437 -0.6191
vn 0.4498 0.6437 -0.6191
vn 0.7278 0.6437 -0.2365
vn 0.7278 -0.6437 -0.2365
vn 0.7278 -0.6437 -0.2365
vn 0.7278 0.6437 -0.2365
vn 0.7278 0.6437 0.2365
vn 0.7278 -0.6437 0.2365
vn 0.7278 -0.6437 0.2365
vn 0.7278 0.6437 0.2365
vn 0.4498 0.6437 0.6191
vn 0.4498 -0.6437 0.6191
vn 0.4498 -0.6437 0.6191
vn 0.4498 0.6437 0.6191
vn 0.0000 0.6437 0.7653
vn 0.0000 -0.6437 0.7653
vn 0.0000 -0.6437 0.7653
vn 0.0000 0.6437 0.7653
vn -0.4498 0.6437 0.6191
vn -0.4498 -0.6437 0.6191
vn -0.4498 -0.6437 0.6191
vn -0.4498 0.6437 0.6191
vn -0.7278 0.6437 0.2365
vn -0.7278 -0.6437 0.2365
vn -0.7278 -0.6437 0.2365
vn -0.7278 0.6437 0.2365
vn -0.7278 0.6437 -0.2365
vn -0.7278 -0.6437 -0.2365
vn 0.4498 0.6437 -0.6191
vn 0.0000 0.6437 -0.7653
vn -0.4498 0.6437 -0.6191
vn -0.7278 0.6437 -0.2365
vn -0.7278 0.6437 0.2365
vn -0.4498 0.6437 0.6191
vn 0.0000 0.6437 0.7653
vn 0.4498 0.6437 0.6191
vn 0.7278 0.6437 0.2365
vn 0.7278 0.6437 -0.2365
vn -0.7278 -0.6437 -0.2365
vn -0.7278 0.6437 -0.2365
vn -0.4498 0.6437 -0.6191
vn -0.4498 -0.6437 -0.6191
vn -0.4498 -0.6437 -0.6191
vn -0.4498 0.6437 -0.6191
vn 0.0000 0.6437 -0.7653
vn 0.0000 -0.6437 -0.7653
vn 0.0000 -0.6437 -0.7653
vn 0.4498 -0.6437 -0.6191
vn 0.7278 -0.6437 -0.2365
vn 0.7278 -0.6437 0.2365
vn 0.4498 -0.6437 0.6191
vn 0.0000 -0.6437 0.7653
vn -0.4498 -0.6437 0.6191
vn -0.7278 -0.6437 0.2365
vn -0.7278 -0.6437 -0.2365
vn -0.4498 -0.6437 -0.6191
# 60 vertex normals

vt 0.0000 1.0000 0.0000
vt 0.5000 1.0000 0.0000
vt 0.0000 0.0000 0.0000
vt 0.7939 0.9045 0.0000
vt 0.9755 0.6545 0.0000
vt 0.9755 0.3455 0.0000
vt 0.7939 0.0955 0.0000
vt 0.5000 0.0000 0.0000
vt 0.2061 0.0955 0.0000
vt 0.0245 0.3455 0.0000
vt 0.0245 0.6545 0.0000
vt 0.2061 0.9045 0.0000
vt 1.0000 0.0000 0.0000
vt 1.0000 1.0000 0.0000
# 14 texture coords

o CY7
g CY7
usemtl Primitive_
s off
f 1/3/1 2/13/2 4/14/3 3/1/4 
f 3/3/5 4/13/6 6/14/7 5/1/8 
f 5/3/9 6/13/10 8/14/11 7/1/12 
f 7/3/13 8/13/14 10/14/15 9/1/16 
f 9/3/17 10/13/18 12/14/19 11/1/20 
f 11/3/21 12/13/22 14/14/23 13/1/24 
f 13/3/25 14/13/26 16/14/27 15/1/28 
f 15/3/29 16/13/30 18/14/31 17/1/32 
f 4/2/33 2/4/34 20/5/35 18/6/36 16/7/37 14/8/38 12/9/39 10/10/40 8/11/41 6/12/42 
f 17/3/43 18/13/44 20/14/45 19/1/46 
f 19/3/47 20/13/48 2/14/49 1/1/50 
f 1/2/51 3/4/52 5/5/53 7/6/54 9/7/55 11/8/56 13/9/57 15/10/58 17/11/59 19/12/60 
# 12 polygons

