# 3ds Max Wavefront OBJ Exporter v0.97b - (c)2007 guruware
# File Created: 17.06.2020 12:22:47

mtllib CY8.mtl

#
# object CY8
#

v  0.0000 -499.9999 -500.0000
v  0.0000 500.0001 -500.0000
v  191.3418 -499.9999 -461.9399
v  191.3418 500.0000 -461.9395
v  353.5537 -499.9999 -353.5537
v  353.5537 500.0000 -353.5532
v  461.9395 -499.9999 -191.3418
v  461.9395 500.0000 -191.3418
v  500.0000 -500.0000 -0.0000
v  500.0000 500.0000 -0.0000
v  461.9395 -500.0000 191.3418
v  461.9395 499.9999 191.3418
v  353.5537 -500.0000 353.5532
v  353.5537 499.9999 353.5537
v  191.3418 -500.0000 461.9395
v  191.3418 499.9999 461.9399
v  0.0000 -500.0001 500.0000
v  0.0000 499.9999 500.0000
v  -191.3418 -500.0000 461.9395
v  -191.3418 499.9999 461.9399
v  -353.5537 -500.0000 353.5532
v  -353.5537 499.9999 353.5537
v  -461.9395 -500.0000 191.3418
v  -461.9395 499.9999 191.3418
v  -500.0000 -500.0000 -0.0000
v  -500.0000 500.0000 -0.0000
v  -461.9395 -499.9999 -191.3418
v  -461.9395 500.0000 -191.3418
v  -353.5537 -499.9999 -353.5537
v  -353.5537 500.0000 -353.5532
v  -191.3418 -499.9999 -461.9399
v  -191.3418 500.0000 -461.9399
# 32 vertices

vn 0.0000 -0.6657 -0.7462
vn 0.0000 0.6657 -0.7462
vn 0.2856 0.6657 -0.6894
vn 0.2856 -0.6657 -0.6894
vn 0.2856 -0.6657 -0.6894
vn 0.2856 0.6657 -0.6894
vn 0.5276 0.6657 -0.5276
vn 0.5276 -0.6657 -0.5276
vn 0.5276 -0.6657 -0.5276
vn 0.5276 0.6657 -0.5276
vn 0.6894 0.6657 -0.2856
vn 0.6894 -0.6657 -0.2856
vn 0.6894 -0.6657 -0.2856
vn 0.6894 0.6657 -0.2856
vn 0.7462 0.6657 0.0000
vn 0.7462 -0.6657 -0.0000
vn 0.7462 -0.6657 -0.0000
vn 0.7462 0.6657 0.0000
vn 0.6894 0.6657 0.2856
vn 0.6894 -0.6657 0.2856
vn 0.6894 -0.6657 0.2856
vn 0.6894 0.6657 0.2856
vn 0.5276 0.6657 0.5276
vn 0.5276 -0.6657 0.5276
vn 0.5276 -0.6657 0.5276
vn 0.5276 0.6657 0.5276
vn 0.2856 0.6657 0.6894
vn 0.2856 -0.6657 0.6894
vn 0.2856 -0.6657 0.6894
vn 0.2856 0.6657 0.6894
vn 0.0000 0.6657 0.7462
vn 0.0000 -0.6657 0.7462
vn 0.0000 -0.6657 0.7462
vn 0.0000 0.6657 0.7462
vn -0.2856 0.6657 0.6894
vn -0.2856 -0.6657 0.6894
vn -0.2856 -0.6657 0.6894
vn -0.2856 0.6657 0.6894
vn -0.5276 0.6657 0.5276
vn -0.5276 -0.6657 0.5276
vn -0.5276 -0.6657 0.5276
vn -0.5276 0.6657 0.5276
vn -0.6894 0.6657 0.2856
vn -0.6894 -0.6657 0.2856
vn -0.6894 -0.6657 0.2856
vn -0.6894 0.6657 0.2856
vn -0.7462 0.6657 0.0000
vn -0.7462 -0.6657 -0.0000
vn -0.7462 -0.6657 -0.0000
vn -0.7462 0.6657 0.0000
vn -0.6894 0.6657 -0.2856
vn -0.6894 -0.6657 -0.2856
vn -0.6894 -0.6657 -0.2856
vn -0.6894 0.6657 -0.2856
vn -0.5276 0.6657 -0.5276
vn -0.5276 -0.6657 -0.5276
vn 0.2856 0.6657 -0.6894
vn 0.0000 0.6657 -0.7462
vn -0.2856 0.6657 -0.6894
vn -0.5276 0.6657 -0.5276
vn -0.6894 0.6657 -0.2856
vn -0.7462 0.6657 0.0000
vn -0.6894 0.6657 0.2856
vn -0.5276 0.6657 0.5276
vn -0.2856 0.6657 0.6894
vn 0.0000 0.6657 0.7462
vn 0.2856 0.6657 0.6894
vn 0.5276 0.6657 0.5276
vn 0.6894 0.6657 0.2856
vn 0.7462 0.6657 0.0000
vn 0.6894 0.6657 -0.2856
vn 0.5276 0.6657 -0.5276
vn -0.5276 -0.6657 -0.5276
vn -0.5276 0.6657 -0.5276
vn -0.2856 0.6657 -0.6894
vn -0.2856 -0.6657 -0.6894
vn -0.2856 -0.6657 -0.6894
vn -0.2856 0.6657 -0.6894
vn 0.0000 0.6657 -0.7462
vn 0.0000 -0.6657 -0.7462
vn 0.0000 -0.6657 -0.7462
vn 0.2856 -0.6657 -0.6894
vn 0.5276 -0.6657 -0.5276
vn 0.6894 -0.6657 -0.2856
vn 0.7462 -0.6657 -0.0000
vn 0.6894 -0.6657 0.2856
vn 0.5276 -0.6657 0.5276
vn 0.2856 -0.6657 0.6894
vn 0.0000 -0.6657 0.7462
vn -0.2856 -0.6657 0.6894
vn -0.5276 -0.6657 0.5276
vn -0.6894 -0.6657 0.2856
vn -0.7462 -0.6657 -0.0000
vn -0.6894 -0.6657 -0.2856
vn -0.5276 -0.6657 -0.5276
vn -0.2856 -0.6657 -0.6894
# 96 vertex normals

vt 0.0000 1.0000 0.0000
vt 0.5000 1.0000 0.0000
vt 0.0000 0.0000 0.0000
vt 0.6913 0.9619 0.0000
vt 0.8536 0.8536 0.0000
vt 0.9619 0.6913 0.0000
vt 0.9619 0.3087 0.0000
vt 0.8536 0.1464 0.0000
vt 1.0000 0.5000 0.0000
vt 0.6913 0.0381 0.0000
vt 0.5000 0.0000 0.0000
vt 0.3087 0.0381 0.0000
vt 0.0381 0.3087 0.0000
vt 0.0000 0.5000 0.0000
vt 0.0381 0.6913 0.0000
vt 0.1464 0.8536 0.0000
vt 0.3087 0.9619 0.0000
vt 1.0000 0.0000 0.0000
vt 1.0000 1.0000 0.0000
vt 0.1464 0.1464 0.0000
# 20 texture coords

o CY8
g CY8
usemtl Primitive_
s off
f 1/3/1 2/18/2 4/19/3 3/1/4 
f 3/3/5 4/18/6 6/19/7 5/1/8 
f 5/3/9 6/18/10 8/19/11 7/1/12 
f 7/3/13 8/18/14 10/19/15 9/1/16 
f 9/3/17 10/18/18 12/19/19 11/1/20 
f 11/3/21 12/18/22 14/19/23 13/1/24 
f 13/3/25 14/18/26 16/19/27 15/1/28 
f 15/3/29 16/18/30 18/19/31 17/1/32 
f 17/3/33 18/18/34 20/19/35 19/1/36 
f 19/3/37 20/18/38 22/19/39 21/1/40 
f 21/3/41 22/18/42 24/19/43 23/1/44 
f 23/3/45 24/18/46 26/19/47 25/1/48 
f 25/3/49 26/18/50 28/19/51 27/1/52 
f 27/3/53 28/18/54 30/19/55 29/1/56 
f 4/2/57 2/4/58 32/5/59 30/6/60 28/9/61 26/7/62 24/8/63 22/10/64 20/11/65 18/12/66 16/20/67 14/13/68 12/14/69 10/15/70 8/16/71 6/17/72 
f 29/3/73 30/18/74 32/19/75 31/1/76 
f 31/3/77 32/18/78 2/19/79 1/1/80 
f 1/2/81 3/4/82 5/5/83 7/6/84 9/9/85 11/7/86 13/8/87 15/10/88 17/11/89 19/12/90 21/20/91 23/13/92 25/14/93 27/15/94 29/16/95 31/17/96 
# 18 polygons

