# 3ds Max Wavefront OBJ Exporter v0.97b - (c)2007 guruware
# File Created: 17.06.2020 12:22:24

mtllib E.mtl

#
# object E
#

v  -341.0000 40.0000 -189.0001
v  -341.0000 40.0000 198.0000
v  341.0000 40.0000 197.9999
v  341.0000 40.0000 -198.0000
v  253.0000 40.0000 -198.0000
v  253.0000 40.0000 99.9999
v  41.0000 40.0000 99.9999
v  41.0000 40.0000 -178.9999
v  -47.0000 40.0000 -178.9999
v  -47.0000 40.0000 99.9999
v  -253.0000 40.0000 99.9999
v  -253.0000 40.0000 -189.0001
v  -341.0000 -39.9975 -189.0001
v  -341.0000 -40.0000 198.0000
v  341.0000 -40.0000 197.9999
v  341.0000 -40.0000 -198.0000
v  253.0000 -40.0000 -198.0000
v  253.0000 -40.0000 99.9999
v  41.0000 -40.0000 99.9999
v  41.0000 -40.0000 -178.9999
v  -47.0000 -40.0000 -178.9999
v  -47.0000 -40.0000 99.9999
v  -253.0000 -40.0000 99.9999
v  -253.0000 -40.0000 -189.0001
# 24 vertices

vn 0.5774 0.5774 0.5774
vn 0.3015 0.9045 -0.3015
vn -0.5774 0.5774 0.5774
vn 0.3015 0.9045 -0.3015
vn -0.5774 0.5774 -0.5774
vn -0.5774 0.5774 0.5774
vn 0.3015 0.9045 -0.3015
vn 0.5774 0.5774 -0.5774
vn -0.5774 0.5774 -0.5774
vn 0.5774 0.5774 0.5774
vn -0.3015 0.9045 -0.3015
vn 0.3015 0.9045 -0.3015
vn 0.5774 0.5774 0.5774
vn 0.3015 0.9045 -0.3015
vn -0.3015 0.9045 -0.3015
vn 0.3015 0.9045 -0.3015
vn -0.5774 0.5774 -0.5774
vn -0.3015 0.9045 -0.3015
vn 0.3015 0.9045 -0.3015
vn 0.5774 0.5774 -0.5774
vn -0.5774 0.5774 -0.5774
vn 0.5774 0.5774 0.5774
vn -0.3015 0.9045 -0.3015
vn 0.3015 0.9045 -0.3015
vn 0.5774 0.5774 0.5774
vn -0.5774 0.5774 -0.5774
vn -0.3015 0.9045 -0.3015
vn 0.5774 0.5774 0.5774
vn 0.5774 0.5774 -0.5774
vn -0.5774 0.5774 -0.5774
vn 0.5774 -0.5774 0.5774
vn -0.5774 -0.5774 0.5773
vn 0.3015 -0.9045 -0.3015
vn 0.3015 -0.9045 -0.3015
vn -0.5774 -0.5774 0.5773
vn -0.5774 -0.5773 -0.5773
vn 0.3015 -0.9045 -0.3015
vn -0.5774 -0.5773 -0.5773
vn 0.5773 -0.5774 -0.5774
vn 0.5774 -0.5774 0.5774
vn 0.3015 -0.9045 -0.3015
vn -0.3015 -0.9045 -0.3015
vn 0.5774 -0.5774 0.5774
vn -0.3015 -0.9045 -0.3015
vn 0.3015 -0.9045 -0.3015
vn 0.3015 -0.9045 -0.3015
vn -0.3015 -0.9045 -0.3015
vn -0.5774 -0.5774 -0.5774
vn 0.3015 -0.9045 -0.3015
vn -0.5774 -0.5774 -0.5774
vn 0.5774 -0.5774 -0.5774
vn 0.5774 -0.5774 0.5774
vn 0.3015 -0.9045 -0.3015
vn -0.3015 -0.9045 -0.3015
vn 0.5774 -0.5774 0.5774
vn -0.3015 -0.9045 -0.3015
vn -0.5774 -0.5774 -0.5774
vn 0.5774 -0.5774 0.5774
vn -0.5774 -0.5774 -0.5774
vn 0.5774 -0.5774 -0.5774
vn 0.5774 0.5774 -0.5774
vn 0.3015 0.9045 -0.3015
vn 0.3015 -0.9045 -0.3015
vn 0.5774 -0.5774 -0.5774
vn 0.3015 0.9045 -0.3015
vn -0.3015 0.9045 -0.3015
vn -0.3015 -0.9045 -0.3015
vn 0.3015 -0.9045 -0.3015
vn -0.5774 0.5774 -0.5774
vn 0.5774 0.5774 -0.5774
vn 0.5774 -0.5774 -0.5774
vn -0.5774 -0.5774 -0.5774
vn -0.3015 0.9045 -0.3015
vn -0.5774 0.5774 -0.5774
vn -0.5774 -0.5774 -0.5774
vn -0.3015 -0.9045 -0.3015
vn 0.5774 0.5774 0.5774
vn -0.5774 0.5774 0.5774
vn -0.5774 -0.5774 0.5773
vn 0.5774 -0.5774 0.5774
vn -0.5774 0.5774 0.5774
vn -0.5774 0.5774 -0.5774
vn -0.5774 -0.5773 -0.5773
vn -0.5774 -0.5774 0.5773
vn -0.5774 0.5774 -0.5774
vn 0.5774 0.5774 -0.5774
vn 0.5774 -0.5774 -0.5774
vn -0.5774 -0.5774 -0.5774
vn -0.3015 0.9045 -0.3015
vn -0.5774 0.5774 -0.5774
vn -0.5774 -0.5774 -0.5774
vn -0.3015 -0.9045 -0.3015
vn 0.5774 0.5774 -0.5774
vn 0.5774 0.5774 0.5774
vn 0.5774 -0.5774 0.5774
vn 0.5774 -0.5774 -0.5774
vn -0.5774 0.5774 -0.5774
vn 0.5774 0.5774 -0.5774
vn 0.5773 -0.5774 -0.5774
vn -0.5774 -0.5773 -0.5773
vn 0.5774 0.5774 -0.5774
vn 0.3015 0.9045 -0.3015
vn 0.3015 -0.9045 -0.3015
vn 0.5773 -0.5774 -0.5774
vn 0.3015 0.9045 -0.3015
vn -0.3015 0.9045 -0.3015
vn -0.3015 -0.9045 -0.3015
vn 0.3015 -0.9045 -0.3015
# 108 vertex normals

vt 0.0000 1.0000 0.0000
vt 1.0000 0.0000 0.0000
vt 0.0000 0.0000 0.0000
vt 1.0000 1.0000 0.0000
# 4 texture coords

o E
g E
usemtl Primitive_
s 1
f 3/3/1 11/2/2 2/4/3 
f 11/3/4 1/2/5 2/4/6 
f 11/3/7 12/2/8 1/4/9 
f 3/3/10 10/2/11 11/4/12 
f 3/3/13 7/2/14 10/4/15 
f 7/3/16 9/2/17 10/4/18 
f 7/3/19 8/2/20 9/4/21 
f 3/3/22 6/2/23 7/4/24 
f 3/3/25 5/2/26 6/4/27 
f 3/3/28 4/2/29 5/4/30 
f 15/3/31 14/2/32 23/4/33 
s off
f 23/3/34 14/2/35 13/4/36 
f 23/3/37 13/2/38 24/4/39 
s 1
f 15/3/40 23/2/41 22/4/42 
f 15/3/43 22/2/44 19/4/45 
f 19/3/46 22/2/47 21/4/48 
f 19/3/49 21/2/50 20/4/51 
f 15/3/52 19/2/53 18/4/54 
f 15/3/55 18/2/56 17/4/57 
f 15/3/58 17/2/59 16/4/60 
s off
f 8/3/61 7/2/62 19/4/63 20/1/64 
f 7/3/65 6/2/66 18/4/67 19/1/68 
f 9/3/69 8/2/70 20/4/71 21/1/72 
f 10/3/73 9/2/74 21/4/75 22/1/76 
f 3/3/77 2/2/78 14/4/79 15/1/80 
f 2/3/81 1/2/82 13/4/83 14/1/84 
f 5/3/85 4/2/86 16/4/87 17/1/88 
f 6/3/89 5/2/90 17/4/91 18/1/92 
f 4/3/93 3/2/94 15/4/95 16/1/96 
f 1/3/97 12/2/98 24/4/99 13/1/100 
f 12/3/101 11/2/102 23/4/103 24/1/104 
f 11/3/105 10/2/106 22/4/107 23/1/108 
# 12 polygons - 20 triangles

