# 3ds Max Wavefront OBJ Exporter v0.97b - (c)2007 guruware
# File Created: 17.06.2020 12:22:26

mtllib F.mtl

#
# object F
#

v  -341.0000 40.0000 -182.0000
v  -341.0000 40.0000 182.0000
v  341.0000 40.0000 182.0000
v  341.0000 40.0000 84.0000
v  24.0000 40.0000 84.0000
v  24.0000 40.0000 -182.0000
v  -64.0000 40.0000 -182.0000
v  -64.0000 40.0000 84.0000
v  -253.0000 40.0000 84.0000
v  -253.0000 40.0000 -182.0000
v  -341.0000 -40.0000 -182.0000
v  -341.0000 -39.9976 182.0000
v  341.0000 -40.0000 182.0000
v  341.0000 -40.0000 84.0000
v  24.0000 -40.0000 84.0000
v  24.0000 -40.0000 -182.0000
v  -64.0000 -40.0000 -182.0000
v  -64.0000 -40.0000 84.0000
v  -253.0000 -40.0000 84.0000
v  -253.0000 -40.0000 -182.0000
# 20 vertices

vn 0.5774 0.5774 0.5774
vn 0.3015 0.9045 -0.3015
vn -0.5774 0.5774 0.5774
vn 0.3015 0.9045 -0.3015
vn -0.5774 0.5774 -0.5774
vn -0.5774 0.5774 0.5774
vn 0.3015 0.9045 -0.3015
vn 0.5774 0.5774 -0.5774
vn -0.5774 0.5774 -0.5774
vn 0.5774 0.5774 0.5774
vn -0.3015 0.9045 -0.3015
vn 0.3015 0.9045 -0.3015
vn 0.5774 0.5774 0.5774
vn 0.3015 0.9045 -0.3015
vn -0.3015 0.9045 -0.3015
vn 0.3015 0.9045 -0.3015
vn -0.5774 0.5774 -0.5774
vn -0.3015 0.9045 -0.3015
vn 0.3015 0.9045 -0.3015
vn 0.5774 0.5774 -0.5774
vn -0.5774 0.5774 -0.5774
vn 0.5774 0.5774 0.5774
vn 0.5774 0.5774 -0.5774
vn 0.3015 0.9045 -0.3015
vn 0.5773 -0.5773 0.5774
vn -0.5774 -0.5773 0.5774
vn 0.3015 -0.9045 -0.3015
vn 0.3015 -0.9045 -0.3015
vn -0.5774 -0.5773 0.5774
vn -0.5774 -0.5773 -0.5773
vn 0.3015 -0.9045 -0.3015
vn -0.5774 -0.5773 -0.5773
vn 0.5774 -0.5774 -0.5774
vn 0.5773 -0.5773 0.5774
vn 0.3015 -0.9045 -0.3015
vn -0.3015 -0.9045 -0.3015
vn 0.5773 -0.5773 0.5774
vn -0.3015 -0.9045 -0.3015
vn 0.3015 -0.9045 -0.3015
vn 0.3015 -0.9045 -0.3015
vn -0.3015 -0.9045 -0.3015
vn -0.5774 -0.5774 -0.5774
vn 0.3015 -0.9045 -0.3015
vn -0.5774 -0.5774 -0.5774
vn 0.5774 -0.5774 -0.5774
vn 0.5773 -0.5773 0.5774
vn 0.3015 -0.9045 -0.3015
vn 0.5774 -0.5774 -0.5774
vn -0.5774 0.5774 -0.5774
vn 0.5774 0.5774 -0.5774
vn 0.5774 -0.5774 -0.5774
vn -0.5774 -0.5773 -0.5773
vn 0.3015 0.9045 -0.3015
vn 0.5774 0.5774 -0.5774
vn 0.5774 -0.5774 -0.5774
vn 0.3015 -0.9045 -0.3015
vn 0.5774 0.5774 -0.5774
vn 0.5774 0.5774 0.5774
vn 0.5773 -0.5773 0.5774
vn 0.5774 -0.5774 -0.5774
vn 0.5774 0.5774 0.5774
vn -0.5774 0.5774 0.5774
vn -0.5774 -0.5773 0.5774
vn 0.5773 -0.5773 0.5774
vn -0.5774 0.5774 0.5774
vn -0.5774 0.5774 -0.5774
vn -0.5774 -0.5773 -0.5773
vn -0.5774 -0.5773 0.5774
vn 0.5774 0.5774 -0.5774
vn 0.3015 0.9045 -0.3015
vn 0.3015 -0.9045 -0.3015
vn 0.5774 -0.5774 -0.5774
vn -0.5774 0.5774 -0.5774
vn 0.5774 0.5774 -0.5774
vn 0.5774 -0.5774 -0.5774
vn -0.5774 -0.5774 -0.5774
vn 0.5774 0.5774 -0.5774
vn 0.3015 0.9045 -0.3015
vn 0.3015 -0.9045 -0.3015
vn 0.5774 -0.5774 -0.5774
vn 0.3015 0.9045 -0.3015
vn -0.3015 0.9045 -0.3015
vn -0.3015 -0.9045 -0.3015
vn 0.3015 -0.9045 -0.3015
vn -0.3015 0.9045 -0.3015
vn -0.5774 0.5774 -0.5774
vn -0.5774 -0.5774 -0.5774
vn -0.3015 -0.9045 -0.3015
# 88 vertex normals

vt 0.0000 1.0000 0.0000
vt 1.0000 0.0000 0.0000
vt 0.0000 0.0000 0.0000
vt 1.0000 1.0000 0.0000
# 4 texture coords

o F
g F
usemtl Primitive_
s 1
f 3/3/1 9/2/2 2/4/3 
f 9/3/4 1/2/5 2/4/6 
f 9/3/7 10/2/8 1/4/9 
f 3/3/10 8/2/11 9/4/12 
f 3/3/13 5/2/14 8/4/15 
f 5/3/16 7/2/17 8/4/18 
f 5/3/19 6/2/20 7/4/21 
f 3/3/22 4/2/23 5/4/24 
s off
f 13/3/25 12/2/26 19/4/27 
f 19/3/28 12/2/29 11/4/30 
f 19/3/31 11/2/32 20/4/33 
s 1
f 13/3/34 19/2/35 18/4/36 
f 13/3/37 18/2/38 15/4/39 
f 15/3/40 18/2/41 17/4/42 
f 15/3/43 17/2/44 16/4/45 
f 13/3/46 15/2/47 14/4/48 
s off
f 1/3/49 10/2/50 20/4/51 11/1/52 
f 5/3/53 4/2/54 14/4/55 15/1/56 
f 4/3/57 3/2/58 13/4/59 14/1/60 
f 3/3/61 2/2/62 12/4/63 13/1/64 
f 2/3/65 1/2/66 11/4/67 12/1/68 
f 10/3/69 9/2/70 19/4/71 20/1/72 
f 7/3/73 6/2/74 16/4/75 17/1/76 
f 6/3/77 5/2/78 15/4/79 16/1/80 
f 9/3/81 8/2/82 18/4/83 19/1/84 
f 8/3/85 7/2/86 17/4/87 18/1/88 
# 10 polygons - 16 triangles

