# 3ds Max Wavefront OBJ Exporter v0.97b - (c)2007 guruware
# File Created: 17.06.2020 12:22:27

mtllib H.mtl

#
# object H
#

v  -341.0000 40.0000 -289.0000
v  -341.0000 40.0000 -191.0000
v  -44.0000 40.0000 -191.0000
v  -44.0000 40.0000 190.9990
v  -341.0000 40.0000 190.9990
v  -341.0000 40.0000 289.0000
v  341.0000 40.0000 289.0000
v  341.0000 40.0000 190.9990
v  44.0000 40.0000 190.9990
v  44.0000 40.0000 -191.0000
v  341.0000 40.0000 -191.0000
v  341.0000 40.0000 -289.0000
v  -341.0000 -40.0000 -289.0000
v  -341.0000 -40.0000 -191.0000
v  -44.0000 -40.0000 -191.0000
v  -44.0000 -40.0000 190.9990
v  -341.0000 -40.0000 190.9990
v  -341.0000 -40.0000 289.0000
v  341.0000 -40.0000 289.0000
v  341.0000 -40.0000 190.9990
v  44.0000 -40.0000 190.9990
v  44.0000 -40.0000 -191.0000
v  341.0000 -40.0000 -191.0000
v  341.0000 -40.0000 -289.0000
# 24 vertices

vn 0.5774 0.5774 0.5774
vn -0.5774 0.5774 -0.5774
vn -0.5774 0.5774 0.5774
vn 0.5774 0.5774 0.5774
vn -0.3015 0.9045 -0.3015
vn -0.5774 0.5774 -0.5774
vn -0.3015 0.9045 0.3015
vn -0.5774 0.5774 -0.5774
vn -0.5774 0.5774 0.5774
vn -0.3015 0.9045 0.3015
vn 0.5774 0.5774 -0.5774
vn -0.5774 0.5774 -0.5774
vn 0.5774 0.5774 0.5774
vn 0.3015 0.9045 -0.3015
vn -0.3015 0.9045 -0.3015
vn 0.3015 0.9045 -0.3015
vn -0.3015 0.9045 0.3015
vn -0.3015 0.9045 -0.3015
vn 0.3015 0.9045 -0.3015
vn 0.3015 0.9045 0.3015
vn -0.3015 0.9045 0.3015
vn 0.3015 0.9045 0.3015
vn 0.5774 0.5774 -0.5774
vn -0.3015 0.9045 0.3015
vn 0.5774 0.5774 0.5774
vn 0.5774 0.5774 -0.5774
vn 0.3015 0.9045 -0.3015
vn 0.5774 0.5774 0.5774
vn 0.5774 0.5774 -0.5774
vn 0.3015 0.9045 0.3015
vn 0.5774 -0.5774 0.5774
vn -0.5774 -0.5774 0.5774
vn -0.5774 -0.5774 -0.5774
vn 0.5774 -0.5774 0.5774
vn -0.5774 -0.5774 -0.5774
vn -0.3015 -0.9045 -0.3015
vn -0.3015 -0.9045 0.3015
vn -0.5774 -0.5774 0.5774
vn -0.5774 -0.5774 -0.5774
vn -0.3015 -0.9045 0.3015
vn -0.5774 -0.5774 -0.5774
vn 0.5774 -0.5774 -0.5774
vn 0.5774 -0.5774 0.5774
vn -0.3015 -0.9045 -0.3015
vn 0.3015 -0.9045 -0.3015
vn 0.3015 -0.9045 -0.3015
vn -0.3015 -0.9045 -0.3015
vn -0.3015 -0.9045 0.3015
vn 0.3015 -0.9045 -0.3015
vn -0.3015 -0.9045 0.3015
vn 0.3015 -0.9045 0.3015
vn 0.3015 -0.9045 0.3015
vn -0.3015 -0.9045 0.3015
vn 0.5774 -0.5774 -0.5774
vn 0.5774 -0.5774 0.5774
vn 0.3015 -0.9045 -0.3015
vn 0.5774 -0.5774 -0.5774
vn 0.5774 -0.5774 0.5774
vn 0.3015 -0.9045 0.3015
vn 0.5774 -0.5774 -0.5774
vn -0.5774 0.5774 -0.5774
vn 0.5774 0.5774 -0.5774
vn 0.5774 -0.5774 -0.5774
vn -0.5774 -0.5774 -0.5774
vn 0.5774 0.5774 -0.5774
vn 0.5774 0.5774 0.5774
vn 0.5774 -0.5774 0.5774
vn 0.5774 -0.5774 -0.5774
vn 0.5774 0.5774 0.5774
vn 0.3015 0.9045 0.3015
vn 0.3015 -0.9045 0.3015
vn 0.5774 -0.5774 0.5774
vn 0.3015 0.9045 0.3015
vn 0.3015 0.9045 -0.3015
vn 0.3015 -0.9045 -0.3015
vn 0.3015 -0.9045 0.3015
vn 0.5774 0.5774 0.5774
vn -0.5774 0.5774 0.5774
vn -0.5774 -0.5774 0.5774
vn 0.5774 -0.5774 0.5774
vn 0.5774 0.5774 -0.5774
vn 0.5774 0.5774 0.5774
vn 0.5774 -0.5774 0.5774
vn 0.5774 -0.5774 -0.5774
vn 0.3015 0.9045 -0.3015
vn 0.5774 0.5774 -0.5774
vn 0.5774 -0.5774 -0.5774
vn 0.3015 -0.9045 -0.3015
vn -0.5774 0.5774 0.5774
vn -0.5774 0.5774 -0.5774
vn -0.5774 -0.5774 -0.5774
vn -0.5774 -0.5774 0.5774
vn -0.5774 0.5774 0.5774
vn -0.5774 0.5774 -0.5774
vn -0.5774 -0.5774 -0.5774
vn -0.5774 -0.5774 0.5774
vn -0.3015 0.9045 0.3015
vn -0.5774 0.5774 0.5774
vn -0.5774 -0.5774 0.5774
vn -0.3015 -0.9045 0.3015
vn -0.3015 0.9045 -0.3015
vn -0.3015 0.9045 0.3015
vn -0.3015 -0.9045 0.3015
vn -0.3015 -0.9045 -0.3015
vn -0.5774 0.5774 -0.5774
vn -0.3015 0.9045 -0.3015
vn -0.3015 -0.9045 -0.3015
vn -0.5774 -0.5774 -0.5774
# 108 vertex normals

vt 0.0000 1.0000 0.0000
vt 1.0000 0.0000 0.0000
vt 0.0000 0.0000 0.0000
vt 1.0000 1.0000 0.0000
# 4 texture coords

o H
g H
usemtl Primitive_
s 1
f 7/3/1 5/2/2 6/4/3 
f 7/3/4 4/2/5 5/4/6 
f 3/3/7 1/2/8 2/4/9 
f 3/3/10 12/2/11 1/4/12 
f 7/3/13 9/2/14 4/4/15 
f 9/3/16 3/2/17 4/4/18 
f 9/3/19 10/2/20 3/4/21 
f 10/3/22 12/2/23 3/4/24 
f 7/3/25 8/2/26 9/4/27 
f 11/3/28 12/2/29 10/4/30 
f 19/3/31 18/2/32 17/4/33 
f 19/3/34 17/2/35 16/4/36 
f 15/3/37 14/2/38 13/4/39 
f 15/3/40 13/2/41 24/4/42 
f 19/3/43 16/2/44 21/4/45 
f 21/3/46 16/2/47 15/4/48 
f 21/3/49 15/2/50 22/4/51 
f 22/3/52 15/2/53 24/4/54 
f 19/3/55 21/2/56 20/4/57 
f 23/3/58 22/2/59 24/4/60 
s off
f 1/3/61 12/2/62 24/4/63 13/1/64 
f 12/3/65 11/2/66 23/4/67 24/1/68 
f 11/3/69 10/2/70 22/4/71 23/1/72 
f 10/3/73 9/2/74 21/4/75 22/1/76 
f 7/3/77 6/2/78 18/4/79 19/1/80 
f 8/3/81 7/2/82 19/4/83 20/1/84 
f 9/3/85 8/2/86 20/4/87 21/1/88 
f 6/3/89 5/2/90 17/4/91 18/1/92 
f 2/3/93 1/2/94 13/4/95 14/1/96 
f 3/3/97 2/2/98 14/4/99 15/1/100 
f 4/3/101 3/2/102 15/4/103 16/1/104 
f 5/3/105 4/2/106 16/4/107 17/1/108 
# 12 polygons - 20 triangles

