# 3ds Max Wavefront OBJ Exporter v0.97b - (c)2007 guruware
# File Created: 17.06.2020 12:22:27

mtllib J.mtl

#
# object J
#

v  -455.9946 40.0000 -118.0000
v  -455.9946 40.0000 -20.0000
v  255.9028 40.0000 -19.2402
v  303.3677 40.0000 -11.4297
v  330.7920 40.0000 1.6777
v  345.5981 40.0000 17.4824
v  356.1758 40.0000 38.2764
v  362.4966 40.0000 73.8223
v  363.0054 40.0000 118.0000
v  454.0044 40.0000 99.9990
v  455.9946 40.0000 78.5547
v  451.9868 40.0000 21.5000
v  433.6895 40.0000 -29.2207
v  402.9854 40.0000 -67.5039
v  361.3076 40.0000 -94.5234
v  310.1460 40.0000 -111.0830
v  257.8013 40.0000 -117.5195
v  -455.9946 -40.0000 -118.0000
v  -455.9946 -40.0000 -20.0000
v  255.9028 -39.9976 -19.2402
v  303.3677 -39.9976 -11.4297
v  330.7920 -40.0000 1.6777
v  345.5981 -40.0000 17.4824
v  356.1758 -40.0000 38.2764
v  362.4966 -40.0000 73.8223
v  363.0054 -40.0000 118.0000
v  454.0044 -40.0000 99.9990
v  455.9946 -40.0000 78.5547
v  451.9868 -40.0000 21.5000
v  433.6895 -40.0000 -29.2207
v  402.9854 -40.0000 -67.5039
v  361.3076 -40.0000 -94.5234
v  310.1460 -40.0000 -111.0830
v  257.8013 -40.0000 -117.5195
# 34 vertices

vn -0.0564 0.7259 0.6855
vn -0.5772 0.5773 -0.5776
vn -0.5777 0.5775 0.5769
vn -0.0564 0.7259 0.6855
vn 0.0443 0.6937 -0.7189
vn -0.5772 0.5773 -0.5776
vn -0.0564 0.7259 0.6855
vn 0.1571 0.6863 -0.7102
vn 0.0443 0.6937 -0.7189
vn -0.2016 0.7402 0.6415
vn 0.1571 0.6863 -0.7102
vn -0.0564 0.7259 0.6855
vn -0.3899 0.7512 0.5326
vn 0.1571 0.6863 -0.7102
vn -0.2016 0.7402 0.6415
vn -0.3899 0.7512 0.5326
vn 0.3155 0.6788 -0.6631
vn 0.1571 0.6863 -0.7102
vn -0.5505 0.7402 0.3861
vn 0.3155 0.6788 -0.6631
vn -0.3899 0.7512 0.5326
vn -0.6360 0.7417 0.2131
vn 0.3155 0.6788 -0.6631
vn -0.5505 0.7402 0.3861
vn -0.6846 0.7261 0.0644
vn 0.3155 0.6788 -0.6631
vn -0.6360 0.7417 0.2131
vn 0.5973 0.5940 0.5389
vn -0.6846 0.7261 0.0644
vn -0.5188 0.5683 0.6387
vn 0.5973 0.5940 0.5389
vn 0.3155 0.6788 -0.6631
vn -0.6846 0.7261 0.0644
vn 0.5973 0.5940 0.5389
vn 0.4960 0.6730 -0.5487
vn 0.3155 0.6788 -0.6631
vn 0.5973 0.5940 0.5389
vn 0.6459 0.6720 -0.3622
vn 0.4960 0.6730 -0.5487
vn 0.5973 0.5940 0.5389
vn 0.7197 0.6774 -0.1520
vn 0.6459 0.6720 -0.3622
vn 0.5973 0.5940 0.5389
vn 0.7245 0.6893 0.0081
vn 0.7197 0.6774 -0.1520
vn -0.0564 -0.7257 0.6857
vn -0.5777 -0.5775 0.5769
vn -0.5772 -0.5773 -0.5776
vn -0.0564 -0.7257 0.6857
vn -0.5772 -0.5773 -0.5776
vn 0.0443 -0.6937 -0.7189
vn -0.0564 -0.7257 0.6857
vn 0.0443 -0.6937 -0.7189
vn 0.1571 -0.6863 -0.7102
vn -0.2016 -0.7403 0.6414
vn -0.0564 -0.7257 0.6857
vn 0.1571 -0.6863 -0.7102
vn -0.3899 -0.7512 0.5326
vn -0.2016 -0.7403 0.6414
vn 0.1571 -0.6863 -0.7102
vn -0.3899 -0.7512 0.5326
vn 0.1571 -0.6863 -0.7102
vn 0.3155 -0.6788 -0.6631
vn -0.5505 -0.7401 0.3861
vn -0.3899 -0.7512 0.5326
vn 0.3155 -0.6788 -0.6631
vn -0.6360 -0.7417 0.2131
vn -0.5505 -0.7401 0.3861
vn 0.3155 -0.6788 -0.6631
vn -0.6846 -0.7261 0.0644
vn -0.6360 -0.7417 0.2131
vn 0.3155 -0.6788 -0.6631
vn 0.5973 -0.5940 0.5389
vn -0.5186 -0.5683 0.6388
vn -0.6846 -0.7261 0.0644
vn 0.5973 -0.5940 0.5389
vn -0.6846 -0.7261 0.0644
vn 0.3155 -0.6788 -0.6631
vn 0.5973 -0.5940 0.5389
vn 0.3155 -0.6788 -0.6631
vn 0.4960 -0.6730 -0.5487
vn 0.5973 -0.5940 0.5389
vn 0.4960 -0.6730 -0.5487
vn 0.6459 -0.6720 -0.3622
vn 0.5973 -0.5940 0.5389
vn 0.6459 -0.6720 -0.3622
vn 0.7197 -0.6774 -0.1520
vn 0.5973 -0.5940 0.5389
vn 0.7197 -0.6774 -0.1520
vn 0.7245 -0.6893 0.0081
vn -0.5505 0.7402 0.3861
vn -0.3899 0.7512 0.5326
vn -0.3899 -0.7512 0.5326
vn -0.5505 -0.7401 0.3861
vn -0.3899 0.7512 0.5326
vn -0.2016 0.7402 0.6415
vn -0.2016 -0.7403 0.6414
vn -0.3899 -0.7512 0.5326
vn -0.0564 0.7259 0.6855
vn -0.5777 0.5775 0.5769
vn -0.5777 -0.5775 0.5769
vn -0.0564 -0.7257 0.6857
vn 0.7245 0.6893 0.0081
vn 0.5973 0.5940 0.5389
vn 0.5973 -0.5940 0.5389
vn 0.7245 -0.6893 0.0081
vn 0.5973 0.5940 0.5389
vn -0.5188 0.5683 0.6387
vn -0.5186 -0.5683 0.6388
vn 0.5973 -0.5940 0.5389
vn -0.5188 0.5683 0.6387
vn -0.6846 0.7261 0.0644
vn -0.6846 -0.7261 0.0644
vn -0.5186 -0.5683 0.6388
vn -0.5772 0.5773 -0.5776
vn 0.0443 0.6937 -0.7189
vn 0.0443 -0.6937 -0.7189
vn -0.5772 -0.5773 -0.5776
vn -0.6360 0.7417 0.2131
vn -0.5505 0.7402 0.3861
vn -0.5505 -0.7401 0.3861
vn -0.6360 -0.7417 0.2131
vn -0.6846 0.7261 0.0644
vn -0.6360 0.7417 0.2131
vn -0.6360 -0.7417 0.2131
vn -0.6846 -0.7261 0.0644
vn 0.4960 0.6730 -0.5487
vn 0.6459 0.6720 -0.3622
vn 0.6459 -0.6720 -0.3622
vn 0.4960 -0.6730 -0.5487
vn 0.3155 0.6788 -0.6631
vn 0.4960 0.6730 -0.5487
vn 0.4960 -0.6730 -0.5487
vn 0.3155 -0.6788 -0.6631
vn 0.1571 0.6863 -0.7102
vn 0.3155 0.6788 -0.6631
vn 0.3155 -0.6788 -0.6631
vn 0.1571 -0.6863 -0.7102
vn 0.6459 0.6720 -0.3622
vn 0.7197 0.6774 -0.1520
vn 0.7197 -0.6774 -0.1520
vn 0.6459 -0.6720 -0.3622
vn 0.7197 0.6774 -0.1520
vn 0.7245 0.6893 0.0081
vn 0.7245 -0.6893 0.0081
vn 0.7197 -0.6774 -0.1520
vn 0.0443 0.6937 -0.7189
vn 0.1571 0.6863 -0.7102
vn 0.1571 -0.6863 -0.7102
vn 0.0443 -0.6937 -0.7189
vn -0.5777 0.5775 0.5769
vn -0.5772 0.5773 -0.5776
vn -0.5772 -0.5773 -0.5776
vn -0.5777 -0.5775 0.5769
vn -0.2016 0.7402 0.6415
vn -0.0564 0.7259 0.6855
vn -0.0564 -0.7257 0.6857
vn -0.2016 -0.7403 0.6414
# 158 vertex normals

vt 0.0000 1.0000 0.0000
vt 1.0000 0.0000 0.0000
vt 0.0000 0.0000 0.0000
vt 1.0000 1.0000 0.0000
# 4 texture coords

o J
g J
usemtl Primitive_
s 1
f 3/3/1 1/2/2 2/4/3 
f 3/3/4 17/2/5 1/4/6 
f 3/3/7 16/2/8 17/4/9 
f 4/3/10 16/2/11 3/4/12 
f 5/3/13 16/2/14 4/4/15 
f 5/3/16 15/2/17 16/4/18 
f 6/3/19 15/2/20 5/4/21 
f 7/3/22 15/2/23 6/4/24 
f 8/3/25 15/2/26 7/4/27 
f 10/3/28 8/2/29 9/4/30 
f 10/3/31 15/2/32 8/4/33 
f 10/3/34 14/2/35 15/4/36 
f 10/3/37 13/2/38 14/4/39 
f 10/3/40 12/2/41 13/4/42 
s off
f 10/3/43 11/2/44 12/4/45 
f 20/3/46 19/2/47 18/4/48 
f 20/3/49 18/2/50 34/4/51 
f 20/3/52 34/2/53 33/4/54 
f 21/3/55 20/2/56 33/4/57 
f 22/3/58 21/2/59 33/4/60 
s 1
f 22/3/61 33/2/62 32/4/63 
f 23/3/64 22/2/65 32/4/66 
f 24/3/67 23/2/68 32/4/69 
f 25/3/70 24/2/71 32/4/72 
f 27/3/73 26/2/74 25/4/75 
f 27/3/76 25/2/77 32/4/78 
f 27/3/79 32/2/80 31/4/81 
f 27/3/82 31/2/83 30/4/84 
f 27/3/85 30/2/86 29/4/87 
s off
f 27/3/88 29/2/89 28/4/90 
f 6/3/91 5/2/92 22/4/93 23/1/94 
f 5/3/95 4/2/96 21/4/97 22/1/98 
f 3/3/99 2/2/100 19/4/101 20/1/102 
f 11/3/103 10/2/104 27/4/105 28/1/106 
f 10/3/107 9/2/108 26/4/109 27/1/110 
f 9/3/111 8/2/112 25/4/113 26/1/114 
f 1/3/115 17/2/116 34/4/117 18/1/118 
f 7/3/119 6/2/120 23/4/121 24/1/122 
f 8/3/123 7/2/124 24/4/125 25/1/126 
f 14/3/127 13/2/128 30/4/129 31/1/130 
f 15/3/131 14/2/132 31/4/133 32/1/134 
f 16/3/135 15/2/136 32/4/137 33/1/138 
f 13/3/139 12/2/140 29/4/141 30/1/142 
f 12/3/143 11/2/144 28/4/145 29/1/146 
f 17/3/147 16/2/148 33/4/149 34/1/150 
f 2/3/151 1/2/152 18/4/153 19/1/154 
f 4/3/155 3/2/156 20/4/157 21/1/158 
# 17 polygons - 30 triangles

