# 3ds Max Wavefront OBJ Exporter v0.97b - (c)2007 guruware
# File Created: 17.06.2020 12:22:29

mtllib N.mtl

#
# object N
#

v  -341.0000 40.0000 -316.0000
v  -341.0000 40.0000 -224.0010
v  187.0000 40.0000 -224.0010
v  -341.0000 40.0000 237.9990
v  -341.0000 39.9999 316.0000
v  341.0000 39.9999 316.0000
v  341.0000 40.0000 223.9990
v  -184.0000 40.0000 223.9990
v  341.0000 40.0000 -232.0000
v  341.0000 40.0000 -316.0000
v  -341.0000 -39.9999 -316.0000
v  -341.0000 -40.0000 -224.0010
v  187.0000 -40.0000 -224.0010
v  -341.0000 -40.0000 237.9990
v  -341.0000 -40.0000 316.0000
v  341.0000 -40.0000 316.0000
v  341.0000 -40.0000 223.9990
v  -184.0000 -39.9976 223.9990
v  341.0000 -40.0000 -232.0000
v  341.0000 -39.9999 -316.0000
# 20 vertices

vn 0.5774 0.5774 0.5774
vn -0.7110 0.6249 -0.3226
vn -0.5774 0.5774 0.5774
vn 0.5774 0.5774 0.5774
vn 0.1815 0.9811 -0.0678
vn -0.7110 0.6249 -0.3226
vn 0.1815 0.9811 -0.0678
vn -0.1823 0.9808 0.0685
vn -0.7110 0.6249 -0.3226
vn -0.1823 0.9808 0.0685
vn -0.5774 0.5774 -0.5774
vn -0.5774 0.5774 0.5774
vn -0.1823 0.9808 0.0685
vn 0.5774 0.5774 -0.5774
vn -0.5774 0.5774 -0.5774
vn 0.5774 0.5774 0.5774
vn 0.5774 0.5774 -0.5774
vn 0.1815 0.9811 -0.0678
vn 0.7106 0.6246 0.3240
vn -0.1823 0.9808 0.0685
vn 0.1815 0.9811 -0.0678
vn 0.7106 0.6246 0.3240
vn 0.5774 0.5774 -0.5774
vn -0.1823 0.9808 0.0685
vn 0.5773 -0.5774 0.5773
vn -0.5774 -0.5774 0.5774
vn -0.7110 -0.6249 -0.3226
vn 0.5773 -0.5774 0.5773
vn -0.7110 -0.6249 -0.3226
vn 0.1815 -0.9810 -0.0678
vn 0.1815 -0.9810 -0.0678
vn -0.7110 -0.6249 -0.3226
vn -0.1823 -0.9808 0.0685
vn -0.1823 -0.9808 0.0685
vn -0.5774 -0.5774 0.5774
vn -0.5774 -0.5774 -0.5774
vn -0.1823 -0.9808 0.0685
vn -0.5774 -0.5774 -0.5774
vn 0.5774 -0.5774 -0.5774
vn 0.5773 -0.5774 0.5773
vn 0.1815 -0.9810 -0.0678
vn 0.5773 -0.5774 -0.5774
vn 0.7106 -0.6246 0.3240
vn 0.1815 -0.9810 -0.0678
vn -0.1823 -0.9808 0.0685
vn 0.7106 -0.6246 0.3240
vn -0.1823 -0.9808 0.0685
vn 0.5774 -0.5774 -0.5774
vn 0.5774 0.5774 -0.5774
vn 0.7106 0.6246 0.3240
vn 0.7106 -0.6246 0.3240
vn 0.5774 -0.5774 -0.5774
vn 0.5774 0.5774 -0.5774
vn 0.5774 0.5774 0.5774
vn 0.5773 -0.5774 0.5773
vn 0.5773 -0.5774 -0.5774
vn 0.5774 0.5774 0.5774
vn -0.5774 0.5774 0.5774
vn -0.5774 -0.5774 0.5774
vn 0.5773 -0.5774 0.5773
vn 0.7106 0.6246 0.3240
vn 0.1815 0.9811 -0.0678
vn 0.1815 -0.9810 -0.0678
vn 0.7106 -0.6246 0.3240
vn 0.1815 0.9811 -0.0678
vn 0.5774 0.5774 -0.5774
vn 0.5773 -0.5774 -0.5774
vn 0.1815 -0.9810 -0.0678
vn -0.5774 0.5774 0.5774
vn -0.5774 0.5774 -0.5774
vn -0.5774 -0.5774 -0.5774
vn -0.5774 -0.5774 0.5774
vn -0.5774 0.5774 0.5774
vn -0.7110 0.6249 -0.3226
vn -0.7110 -0.6249 -0.3226
vn -0.5774 -0.5774 0.5774
vn -0.5774 0.5774 -0.5774
vn 0.5774 0.5774 -0.5774
vn 0.5774 -0.5774 -0.5774
vn -0.5774 -0.5774 -0.5774
vn -0.7110 0.6249 -0.3226
vn -0.1823 0.9808 0.0685
vn -0.1823 -0.9808 0.0685
vn -0.7110 -0.6249 -0.3226
vn -0.1823 0.9808 0.0685
vn -0.5774 0.5774 0.5774
vn -0.5774 -0.5774 0.5774
vn -0.1823 -0.9808 0.0685
# 88 vertex normals

vt 0.0000 1.0000 0.0000
vt 1.0000 0.0000 0.0000
vt 0.0000 0.0000 0.0000
vt 1.0000 1.0000 0.0000
# 4 texture coords

o N
g N
usemtl Primitive_
s 1
f 6/3/1 4/2/2 5/4/3 
f 6/3/4 8/2/5 4/4/6 
f 8/3/7 3/2/8 4/4/9 
f 3/3/10 1/2/11 2/4/12 
f 3/3/13 10/2/14 1/4/15 
f 6/3/16 7/2/17 8/4/18 
f 9/3/19 3/2/20 8/4/21 
f 9/3/22 10/2/23 3/4/24 
s off
f 16/3/25 15/2/26 14/4/27 
f 16/3/28 14/2/29 18/4/30 
f 18/3/31 14/2/32 13/4/33 
s 1
f 13/3/34 12/2/35 11/4/36 
f 13/3/37 11/2/38 20/4/39 
s off
f 16/3/40 18/2/41 17/4/42 
f 19/3/43 18/2/44 13/4/45 
s 1
f 19/3/46 13/2/47 20/4/48 
s off
f 10/3/49 9/2/50 19/4/51 20/1/52 
f 7/3/53 6/2/54 16/4/55 17/1/56 
f 6/3/57 5/2/58 15/4/59 16/1/60 
f 9/3/61 8/2/62 18/4/63 19/1/64 
f 8/3/65 7/2/66 17/4/67 18/1/68 
f 2/3/69 1/2/70 11/4/71 12/1/72 
f 5/3/73 4/2/74 14/4/75 15/1/76 
f 1/3/77 10/2/78 20/4/79 11/1/80 
f 4/3/81 3/2/82 13/4/83 14/1/84 
f 3/3/85 2/2/86 12/4/87 13/1/88 
# 10 polygons - 16 triangles

