# 3ds Max Wavefront OBJ Exporter v0.97b - (c)2007 guruware
# File Created: 17.06.2020 12:22:40

mtllib R1.mtl

#
# object R1
#

v  0.0000 225.0026 489.9426
v  387.9316 225.0027 303.1245
v  483.7422 225.0029 -116.6516
v  0.0000 -366.6942 -0.0002
v  215.2852 225.0031 -453.2861
v  -215.2852 225.0031 -453.2861
v  -483.7422 225.0029 -116.6519
v  -387.9316 225.0027 303.1245
v  0.0000 366.6941 283.7051
v  213.0000 366.6941 181.1299
v  265.6074 366.6942 -49.3550
v  118.2051 366.6943 -234.1892
v  -118.2051 366.6943 -234.1892
v  -265.6074 366.6942 -49.3550
v  -213.0000 366.6941 181.1299
# 15 vertices

vn 0.0000 0.1166 0.9932
vn 0.0000 -1.0000 0.0065
vn 0.7793 0.1217 0.6147
vn 0.7793 0.1217 0.6147
vn 0.0000 -1.0000 0.0065
vn 0.9650 0.1320 -0.2266
vn 0.9650 0.1320 -0.2266
vn 0.0000 -1.0000 0.0065
vn 0.4273 0.1393 -0.8933
vn 0.4273 0.1393 -0.8933
vn 0.0000 -1.0000 0.0065
vn -0.4273 0.1393 -0.8933
vn -0.4273 0.1393 -0.8933
vn 0.0000 -1.0000 0.0065
vn -0.9650 0.1320 -0.2266
vn -0.9650 0.1320 -0.2266
vn 0.0000 -1.0000 0.0065
vn -0.7793 0.1217 0.6147
vn -0.7793 0.1217 0.6147
vn 0.0000 -1.0000 0.0065
vn 0.0000 0.1166 0.9932
vn 0.0000 0.1166 0.9932
vn 0.7793 0.1217 0.6147
vn 0.2776 0.9323 0.2317
vn 0.0000 0.9293 0.3693
vn 0.0000 0.9293 0.3693
vn 0.2776 0.9323 0.2317
vn 0.3377 0.9388 -0.0676
vn 0.1471 0.9436 -0.2965
vn -0.1471 0.9436 -0.2965
vn -0.3377 0.9388 -0.0676
vn -0.2776 0.9323 0.2317
vn 0.7793 0.1217 0.6147
vn 0.9650 0.1320 -0.2266
vn 0.3377 0.9388 -0.0676
vn 0.2776 0.9323 0.2317
vn -0.9650 0.1320 -0.2266
vn -0.7793 0.1217 0.6147
vn -0.2776 0.9323 0.2317
vn -0.3377 0.9388 -0.0676
vn -0.4273 0.1393 -0.8933
vn -0.9650 0.1320 -0.2266
vn -0.3377 0.9388 -0.0676
vn -0.1471 0.9436 -0.2965
vn 0.4273 0.1393 -0.8933
vn -0.4273 0.1393 -0.8933
vn -0.1471 0.9436 -0.2965
vn 0.1471 0.9436 -0.2965
vn 0.9650 0.1320 -0.2266
vn 0.4273 0.1393 -0.8933
vn 0.1471 0.9436 -0.2965
vn 0.3377 0.9388 -0.0676
vn -0.7793 0.1217 0.6147
vn 0.0000 0.1166 0.9932
vn 0.0000 0.9293 0.3693
vn -0.2776 0.9323 0.2317
# 56 vertex normals

vt 0.0000 1.0000 0.0000
vt 0.5000 1.0000 0.0000
vt 0.0000 0.0000 0.0000
vt 0.8909 0.8117 0.0000
vt 0.9875 0.3887 0.0000
vt 0.7169 0.0495 0.0000
vt 0.2831 0.0495 0.0000
vt 0.0125 0.3887 0.0000
vt 0.1091 0.8117 0.0000
vt 1.0000 0.0000 0.0000
vt 1.0000 1.0000 0.0000
# 11 texture coords

o R1
g R1
usemtl Primitive_
s off
f 1/3/1 4/10/2 2/11/3 
f 2/3/4 4/10/5 3/11/6 
f 3/3/7 4/10/8 5/11/9 
f 5/3/10 4/10/11 6/11/12 
f 6/3/13 4/10/14 7/11/15 
f 7/3/16 4/10/17 8/11/18 
f 8/3/19 4/10/20 1/11/21 
f 1/3/22 2/10/23 10/11/24 9/1/25 
f 9/2/26 10/4/27 11/5/28 12/6/29 13/7/30 14/8/31 15/9/32 
f 2/3/33 3/10/34 11/11/35 10/1/36 
f 7/3/37 8/10/38 15/11/39 14/1/40 
f 6/3/41 7/10/42 14/11/43 13/1/44 
f 5/3/45 6/10/46 13/11/47 12/1/48 
f 3/3/49 5/10/50 12/11/51 11/1/52 
f 8/3/53 1/10/54 9/11/55 15/1/56 
# 8 polygons - 7 triangles

