# 3ds Max Wavefront OBJ Exporter v0.97b - (c)2007 guruware
# File Created: 17.06.2020 12:22:39

mtllib R3.mtl

#
# object R3
#

v  0.0000 -408.5526 -0.0000
v  0.0000 408.5526 -0.0000
v  0.0000 0.0001 -557.6826
v  108.7988 0.0001 -546.9668
v  213.4160 0.0001 -515.2314
v  309.8320 0.0001 -463.6963
v  394.3418 0.0001 -394.3408
v  463.6953 0.0001 -309.8320
v  515.2305 0.0000 -213.4160
v  546.9668 0.0000 -108.7988
v  557.6816 0.0000 -0.0000
v  546.9668 -0.0000 108.7988
v  515.2324 -0.0000 213.4160
v  463.6953 -0.0001 309.8320
v  394.3418 -0.0001 394.3408
v  309.8320 -0.0001 463.6963
v  213.4160 -0.0001 515.2314
v  108.7988 -0.0001 546.9668
v  0.0000 -0.0001 557.6826
v  -108.7988 -0.0001 546.9668
v  -213.4160 -0.0001 515.2314
v  -309.8320 -0.0001 463.6963
v  -394.3418 -0.0001 394.3408
v  -463.6953 -0.0001 309.8311
v  -515.2324 -0.0000 213.4150
v  -546.9668 -0.0000 108.7979
v  -557.6816 0.0000 -0.0010
v  -546.9668 0.0000 -108.7988
v  -515.2305 0.0000 -213.4160
v  -463.6953 0.0001 -309.8320
v  -394.3398 0.0001 -394.3418
v  -309.8320 0.0001 -463.6963
v  -213.4160 0.0001 -515.2314
v  -108.7969 0.0001 -546.9668
# 34 vertices

vn -0.0000 -1.0000 -0.0000
vn -0.0000 0.0000 -1.0000
vn 0.1951 0.0000 -0.9808
vn -0.0000 -1.0000 -0.0000
vn 0.1951 0.0000 -0.9808
vn 0.3827 0.0000 -0.9239
vn -0.0000 -1.0000 -0.0000
vn 0.3827 0.0000 -0.9239
vn 0.5556 0.0000 -0.8315
vn -0.0000 -1.0000 -0.0000
vn 0.5556 0.0000 -0.8315
vn 0.7071 0.0000 -0.7071
vn -0.0000 -1.0000 -0.0000
vn 0.7071 0.0000 -0.7071
vn 0.8315 -0.0000 -0.5556
vn -0.0000 -1.0000 -0.0000
vn 0.8315 -0.0000 -0.5556
vn 0.9239 0.0000 -0.3827
vn -0.0000 -1.0000 -0.0000
vn 0.9239 0.0000 -0.3827
vn 0.9808 -0.0000 -0.1951
vn -0.0000 -1.0000 -0.0000
vn 0.9808 -0.0000 -0.1951
vn 1.0000 0.0000 -0.0000
vn -0.0000 -1.0000 -0.0000
vn 1.0000 0.0000 -0.0000
vn 0.9808 0.0000 0.1951
vn -0.0000 -1.0000 -0.0000
vn 0.9808 0.0000 0.1951
vn 0.9239 -0.0000 0.3827
vn -0.0000 -1.0000 -0.0000
vn 0.9239 -0.0000 0.3827
vn 0.8315 -0.0000 0.5556
vn -0.0000 -1.0000 -0.0000
vn 0.8315 -0.0000 0.5556
vn 0.7071 -0.0000 0.7071
vn -0.0000 -1.0000 -0.0000
vn 0.7071 -0.0000 0.7071
vn 0.5556 -0.0000 0.8315
vn -0.0000 -1.0000 -0.0000
vn 0.5556 -0.0000 0.8315
vn 0.3827 -0.0000 0.9239
vn -0.0000 -1.0000 -0.0000
vn 0.3827 -0.0000 0.9239
vn 0.1951 -0.0000 0.9808
vn -0.0000 -1.0000 -0.0000
vn 0.1951 -0.0000 0.9808
vn 0.0000 -0.0000 1.0000
vn -0.0000 -1.0000 -0.0000
vn 0.0000 -0.0000 1.0000
vn -0.1951 -0.0000 0.9808
vn -0.0000 -1.0000 -0.0000
vn -0.1951 -0.0000 0.9808
vn -0.3827 -0.0000 0.9239
vn -0.0000 -1.0000 -0.0000
vn -0.3827 -0.0000 0.9239
vn -0.5556 -0.0000 0.8315
vn -0.0000 -1.0000 -0.0000
vn -0.5556 -0.0000 0.8315
vn -0.7071 -0.0000 0.7071
vn -0.0000 -1.0000 -0.0000
vn -0.7071 -0.0000 0.7071
vn -0.8315 -0.0000 0.5556
vn -0.0000 -1.0000 -0.0000
vn -0.8315 -0.0000 0.5556
vn -0.9239 -0.0000 0.3827
vn -0.0000 -1.0000 -0.0000
vn -0.9239 -0.0000 0.3827
vn -0.9808 -0.0000 0.1951
vn -0.0000 -1.0000 -0.0000
vn -0.9808 -0.0000 0.1951
vn -1.0000 0.0000 -0.0000
vn -0.0000 -1.0000 -0.0000
vn -1.0000 0.0000 -0.0000
vn -0.9808 -0.0000 -0.1951
vn -0.0000 -1.0000 -0.0000
vn -0.9808 -0.0000 -0.1951
vn -0.9239 0.0000 -0.3827
vn -0.0000 -1.0000 -0.0000
vn -0.9239 0.0000 -0.3827
vn -0.8315 -0.0000 -0.5556
vn -0.0000 -1.0000 -0.0000
vn -0.8315 -0.0000 -0.5556
vn -0.7071 -0.0000 -0.7071
vn -0.0000 -1.0000 -0.0000
vn -0.7071 -0.0000 -0.7071
vn -0.5556 0.0000 -0.8315
vn -0.0000 -1.0000 -0.0000
vn -0.5556 0.0000 -0.8315
vn -0.3827 0.0000 -0.9239
vn -0.0000 -1.0000 -0.0000
vn -0.3827 0.0000 -0.9239
vn -0.1951 -0.0000 -0.9808
vn -0.1951 -0.0000 -0.9808
vn -0.0000 1.0000 0.0000
vn -0.0000 0.0000 -1.0000
vn -0.3827 0.0000 -0.9239
vn -0.0000 1.0000 0.0000
vn -0.1951 -0.0000 -0.9808
vn -0.5556 0.0000 -0.8315
vn -0.0000 1.0000 0.0000
vn -0.3827 0.0000 -0.9239
vn -0.7071 -0.0000 -0.7071
vn -0.0000 1.0000 0.0000
vn -0.5556 0.0000 -0.8315
vn -0.8315 -0.0000 -0.5556
vn -0.0000 1.0000 0.0000
vn -0.7071 -0.0000 -0.7071
vn -0.9239 0.0000 -0.3827
vn -0.0000 1.0000 0.0000
vn -0.8315 -0.0000 -0.5556
vn -0.9808 -0.0000 -0.1951
vn -0.0000 1.0000 0.0000
vn -0.9239 0.0000 -0.3827
vn -1.0000 0.0000 -0.0000
vn -0.0000 1.0000 0.0000
vn -0.9808 -0.0000 -0.1951
vn -0.9808 -0.0000 0.1951
vn -0.0000 1.0000 0.0000
vn -1.0000 0.0000 -0.0000
vn -0.9239 -0.0000 0.3827
vn -0.0000 1.0000 0.0000
vn -0.9808 -0.0000 0.1951
vn -0.8315 -0.0000 0.5556
vn -0.0000 1.0000 0.0000
vn -0.9239 -0.0000 0.3827
vn -0.7071 -0.0000 0.7071
vn -0.0000 1.0000 0.0000
vn -0.8315 -0.0000 0.5556
vn -0.5556 -0.0000 0.8315
vn -0.0000 1.0000 0.0000
vn -0.7071 -0.0000 0.7071
vn -0.3827 -0.0000 0.9239
vn -0.0000 1.0000 0.0000
vn -0.5556 -0.0000 0.8315
vn -0.1951 -0.0000 0.9808
vn -0.0000 1.0000 0.0000
vn -0.3827 -0.0000 0.9239
vn 0.0000 -0.0000 1.0000
vn -0.0000 1.0000 0.0000
vn -0.1951 -0.0000 0.9808
vn 0.1951 -0.0000 0.9808
vn -0.0000 1.0000 0.0000
vn 0.0000 -0.0000 1.0000
vn 0.3827 -0.0000 0.9239
vn -0.0000 1.0000 0.0000
vn 0.1951 -0.0000 0.9808
vn 0.5556 -0.0000 0.8315
vn -0.0000 1.0000 0.0000
vn 0.3827 -0.0000 0.9239
vn 0.7071 -0.0000 0.7071
vn -0.0000 1.0000 0.0000
vn 0.5556 -0.0000 0.8315
vn 0.8315 -0.0000 0.5556
vn -0.0000 1.0000 0.0000
vn 0.7071 -0.0000 0.7071
vn 0.9239 -0.0000 0.3827
vn -0.0000 1.0000 0.0000
vn 0.8315 -0.0000 0.5556
vn 0.9808 0.0000 0.1951
vn -0.0000 1.0000 0.0000
vn 0.9239 -0.0000 0.3827
vn 1.0000 0.0000 -0.0000
vn -0.0000 1.0000 0.0000
vn 0.9808 0.0000 0.1951
vn 0.9808 -0.0000 -0.1951
vn -0.0000 1.0000 0.0000
vn 1.0000 0.0000 -0.0000
vn 0.9239 0.0000 -0.3827
vn -0.0000 1.0000 0.0000
vn 0.9808 -0.0000 -0.1951
vn 0.8315 -0.0000 -0.5556
vn -0.0000 1.0000 0.0000
vn 0.9239 0.0000 -0.3827
vn 0.7071 0.0000 -0.7071
vn -0.0000 1.0000 0.0000
vn 0.8315 -0.0000 -0.5556
vn 0.5556 0.0000 -0.8315
vn -0.0000 1.0000 0.0000
vn 0.7071 0.0000 -0.7071
vn 0.3827 0.0000 -0.9239
vn -0.0000 1.0000 0.0000
vn 0.5556 0.0000 -0.8315
vn 0.1951 0.0000 -0.9808
vn -0.0000 1.0000 0.0000
vn 0.3827 0.0000 -0.9239
vn -0.0000 0.0000 -1.0000
vn -0.0000 1.0000 0.0000
vn 0.1951 0.0000 -0.9808
vn -0.0000 -1.0000 -0.0000
vn -0.1951 -0.0000 -0.9808
vn -0.0000 0.0000 -1.0000
# 192 vertex normals

vt 0.5000 1.0000 0.0000
vt 0.0000 0.0000 0.0000
vt 1.0000 1.0000 0.0000
vt 0.5000 0.0000 0.0000
# 4 texture coords

o R3
g R3
usemtl Primitive_
s off
f 1/2/1 3/4/2 4/1/3 
f 1/2/4 4/4/5 5/1/6 
f 1/2/7 5/4/8 6/1/9 
f 1/2/10 6/4/11 7/1/12 
f 1/2/13 7/4/14 8/1/15 
f 1/2/16 8/4/17 9/1/18 
f 1/2/19 9/4/20 10/1/21 
f 1/2/22 10/4/23 11/1/24 
f 1/2/25 11/4/26 12/1/27 
f 1/2/28 12/4/29 13/1/30 
f 1/2/31 13/4/32 14/1/33 
f 1/2/34 14/4/35 15/1/36 
f 1/2/37 15/4/38 16/1/39 
f 1/2/40 16/4/41 17/1/42 
f 1/2/43 17/4/44 18/1/45 
f 1/2/46 18/4/47 19/1/48 
f 1/2/49 19/4/50 20/1/51 
f 1/2/52 20/4/53 21/1/54 
f 1/2/55 21/4/56 22/1/57 
f 1/2/58 22/4/59 23/1/60 
f 1/2/61 23/4/62 24/1/63 
f 1/2/64 24/4/65 25/1/66 
f 1/2/67 25/4/68 26/1/69 
f 1/2/70 26/4/71 27/1/72 
f 1/2/73 27/4/74 28/1/75 
f 1/2/76 28/4/77 29/1/78 
f 1/2/79 29/4/80 30/1/81 
f 1/2/82 30/4/83 31/1/84 
f 1/2/85 31/4/86 32/1/87 
f 1/2/88 32/4/89 33/1/90 
f 1/2/91 33/4/92 34/1/93 
f 34/4/94 2/3/95 3/1/96 
f 33/4/97 2/3/98 34/1/99 
f 32/4/100 2/3/101 33/1/102 
f 31/4/103 2/3/104 32/1/105 
f 30/4/106 2/3/107 31/1/108 
f 29/4/109 2/3/110 30/1/111 
f 28/4/112 2/3/113 29/1/114 
f 27/4/115 2/3/116 28/1/117 
f 26/4/118 2/3/119 27/1/120 
f 25/4/121 2/3/122 26/1/123 
f 24/4/124 2/3/125 25/1/126 
f 23/4/127 2/3/128 24/1/129 
f 22/4/130 2/3/131 23/1/132 
f 21/4/133 2/3/134 22/1/135 
f 20/4/136 2/3/137 21/1/138 
f 19/4/139 2/3/140 20/1/141 
f 18/4/142 2/3/143 19/1/144 
f 17/4/145 2/3/146 18/1/147 
f 16/4/148 2/3/149 17/1/150 
f 15/4/151 2/3/152 16/1/153 
f 14/4/154 2/3/155 15/1/156 
f 13/4/157 2/3/158 14/1/159 
f 12/4/160 2/3/161 13/1/162 
f 11/4/163 2/3/164 12/1/165 
f 10/4/166 2/3/167 11/1/168 
f 9/4/169 2/3/170 10/1/171 
f 8/4/172 2/3/173 9/1/174 
f 7/4/175 2/3/176 8/1/177 
f 6/4/178 2/3/179 7/1/180 
f 5/4/181 2/3/182 6/1/183 
f 4/4/184 2/3/185 5/1/186 
f 3/4/187 2/3/188 4/1/189 
f 1/2/190 34/4/191 3/1/192 
# 0 polygons - 64 triangles

