# 3ds Max Wavefront OBJ Exporter v0.97b - (c)2007 guruware
# File Created: 17.06.2020 12:22:44

mtllib SP2.mtl

#
# object SP2
#

v  0.0000 -500.0000 -0.0000
v  361.8027 -223.6098 262.8628
v  -138.1934 -223.6100 425.3247
v  -447.2129 -223.6078 -0.0000
v  -138.1934 -223.6098 -425.3247
v  361.8027 -223.6097 -262.8628
v  138.1934 223.6098 425.3247
v  -361.8027 223.6097 262.8628
v  -361.8027 223.6098 -262.8628
v  138.1934 223.6100 -425.3247
v  447.2129 223.6078 -0.0000
v  0.0000 500.0000 -0.0000
v  -81.2285 -425.3272 249.9976
v  212.6621 -425.3271 154.5059
v  131.4336 -262.8689 404.5059
v  425.3242 -262.8680 -0.0000
v  212.6621 -425.3270 -154.5059
v  -262.8652 -425.3258 -0.0000
v  -344.0938 -262.8681 249.9985
v  -81.2285 -425.3271 -249.9976
v  -344.0938 -262.8681 -249.9985
v  131.4336 -262.8687 -404.5059
v  475.5293 -0.0000 154.5063
v  475.5293 0.0000 -154.5063
v  0.0000 -0.0001 500.0000
v  293.8926 -0.0001 404.5083
v  -475.5293 -0.0000 154.5063
v  -293.8926 -0.0001 404.5083
v  -293.8926 0.0001 -404.5083
v  -475.5293 0.0000 -154.5063
v  293.8926 0.0001 -404.5083
v  0.0000 0.0001 -500.0000
v  344.0938 262.8681 249.9985
v  -131.4336 262.8687 404.5059
v  -425.3242 262.8680 -0.0000
v  -131.4336 262.8689 -404.5059
v  344.0938 262.8681 -249.9985
v  81.2285 425.3271 249.9976
v  262.8652 425.3258 -0.0000
v  -212.6621 425.3270 154.5059
v  -212.6621 425.3271 -154.5059
v  81.2285 425.3272 -249.9976
# 42 vertices

vn -0.0000 -1.0000 -0.0000
vn 0.4253 -0.8507 0.3090
vn -0.1625 -0.8507 0.5000
vn 0.7236 -0.4472 0.5257
vn 0.4253 -0.8507 0.3090
vn 0.8506 -0.5257 -0.0000
vn -0.0000 -1.0000 -0.0000
vn -0.1625 -0.8507 0.5000
vn -0.5257 -0.8507 -0.0000
vn -0.0000 -1.0000 -0.0000
vn -0.5257 -0.8507 -0.0000
vn -0.1625 -0.8507 -0.5000
vn -0.0000 -1.0000 -0.0000
vn -0.1625 -0.8507 -0.5000
vn 0.4253 -0.8507 -0.3090
vn 0.7236 -0.4472 0.5257
vn 0.8506 -0.5257 -0.0000
vn 0.9511 0.0000 0.3090
vn -0.2764 -0.4472 0.8506
vn 0.2629 -0.5257 0.8090
vn 0.0000 -0.0000 1.0000
vn -0.8944 -0.4472 -0.0000
vn -0.6882 -0.5257 0.5000
vn -0.9511 -0.0000 0.3090
vn -0.2764 -0.4472 -0.8506
vn -0.6882 -0.5257 -0.5000
vn -0.5878 -0.0000 -0.8090
vn 0.7236 -0.4472 -0.5257
vn 0.2629 -0.5257 -0.8090
vn 0.5878 0.0000 -0.8090
vn 0.7236 -0.4472 0.5257
vn 0.9511 0.0000 0.3090
vn 0.5878 0.0000 0.8090
vn -0.2764 -0.4472 0.8506
vn 0.0000 -0.0000 1.0000
vn -0.5878 -0.0000 0.8090
vn -0.8944 -0.4472 -0.0000
vn -0.9511 -0.0000 0.3090
vn -0.9511 -0.0000 -0.3090
vn -0.2764 -0.4472 -0.8506
vn -0.5878 -0.0000 -0.8090
vn -0.0000 0.0000 -1.0000
vn 0.7236 -0.4472 -0.5257
vn 0.5878 0.0000 -0.8090
vn 0.9511 0.0000 -0.3090
vn 0.2764 0.4472 0.8506
vn 0.6882 0.5257 0.5000
vn 0.1625 0.8507 0.5000
vn -0.7236 0.4472 0.5257
vn -0.2629 0.5257 0.8090
vn -0.4253 0.8507 0.3090
vn -0.7236 0.4472 -0.5257
vn -0.8506 0.5257 0.0000
vn -0.4253 0.8507 -0.3090
vn 0.2764 0.4472 -0.8506
vn -0.2629 0.5257 -0.8090
vn 0.1625 0.8507 -0.5000
vn 0.8944 0.4472 0.0000
vn 0.6882 0.5257 -0.5000
vn 0.5257 0.8507 0.0000
vn 0.5257 0.8507 0.0000
vn 0.1625 0.8507 -0.5000
vn 0.0000 1.0000 0.0000
vn 0.5257 0.8507 0.0000
vn 0.6882 0.5257 -0.5000
vn 0.1625 0.8507 -0.5000
vn 0.6882 0.5257 -0.5000
vn 0.2764 0.4472 -0.8506
vn 0.1625 0.8507 -0.5000
vn 0.1625 0.8507 -0.5000
vn -0.4253 0.8507 -0.3090
vn 0.0000 1.0000 0.0000
vn 0.1625 0.8507 -0.5000
vn -0.2629 0.5257 -0.8090
vn -0.4253 0.8507 -0.3090
vn -0.2629 0.5257 -0.8090
vn -0.7236 0.4472 -0.5257
vn -0.4253 0.8507 -0.3090
vn -0.4253 0.8507 -0.3090
vn -0.4253 0.8507 0.3090
vn 0.0000 1.0000 0.0000
vn -0.4253 0.8507 -0.3090
vn -0.8506 0.5257 0.0000
vn -0.4253 0.8507 0.3090
vn -0.8506 0.5257 0.0000
vn -0.7236 0.4472 0.5257
vn -0.4253 0.8507 0.3090
vn -0.4253 0.8507 0.3090
vn 0.1625 0.8507 0.5000
vn 0.0000 1.0000 0.0000
vn -0.4253 0.8507 0.3090
vn -0.2629 0.5257 0.8090
vn 0.1625 0.8507 0.5000
vn -0.2629 0.5257 0.8090
vn 0.2764 0.4472 0.8506
vn 0.1625 0.8507 0.5000
vn 0.1625 0.8507 0.5000
vn 0.5257 0.8507 0.0000
vn 0.0000 1.0000 0.0000
vn 0.1625 0.8507 0.5000
vn 0.6882 0.5257 0.5000
vn 0.5257 0.8507 0.0000
vn 0.6882 0.5257 0.5000
vn 0.8944 0.4472 0.0000
vn 0.5257 0.8507 0.0000
vn 0.9511 0.0000 -0.3090
vn 0.6882 0.5257 -0.5000
vn 0.8944 0.4472 0.0000
vn 0.9511 0.0000 -0.3090
vn 0.5878 0.0000 -0.8090
vn 0.6882 0.5257 -0.5000
vn 0.5878 0.0000 -0.8090
vn 0.2764 0.4472 -0.8506
vn 0.6882 0.5257 -0.5000
vn -0.0000 0.0000 -1.0000
vn -0.2629 0.5257 -0.8090
vn 0.2764 0.4472 -0.8506
vn -0.0000 0.0000 -1.0000
vn -0.5878 -0.0000 -0.8090
vn -0.2629 0.5257 -0.8090
vn -0.5878 -0.0000 -0.8090
vn -0.7236 0.4472 -0.5257
vn -0.2629 0.5257 -0.8090
vn -0.9511 -0.0000 -0.3090
vn -0.8506 0.5257 0.0000
vn -0.7236 0.4472 -0.5257
vn -0.9511 -0.0000 -0.3090
vn -0.9511 -0.0000 0.3090
vn -0.8506 0.5257 0.0000
vn -0.9511 -0.0000 0.3090
vn -0.7236 0.4472 0.5257
vn -0.8506 0.5257 0.0000
vn -0.5878 -0.0000 0.8090
vn -0.2629 0.5257 0.8090
vn -0.7236 0.4472 0.5257
vn -0.5878 -0.0000 0.8090
vn 0.0000 -0.0000 1.0000
vn -0.2629 0.5257 0.8090
vn 0.0000 -0.0000 1.0000
vn 0.2764 0.4472 0.8506
vn -0.2629 0.5257 0.8090
vn 0.5878 0.0000 0.8090
vn 0.6882 0.5257 0.5000
vn 0.2764 0.4472 0.8506
vn 0.5878 0.0000 0.8090
vn 0.9511 0.0000 0.3090
vn 0.6882 0.5257 0.5000
vn 0.9511 0.0000 0.3090
vn 0.8944 0.4472 0.0000
vn 0.6882 0.5257 0.5000
vn 0.5878 0.0000 -0.8090
vn -0.0000 0.0000 -1.0000
vn 0.2764 0.4472 -0.8506
vn 0.5878 0.0000 -0.8090
vn 0.2629 -0.5257 -0.8090
vn -0.0000 0.0000 -1.0000
vn 0.2629 -0.5257 -0.8090
vn -0.2764 -0.4472 -0.8506
vn -0.0000 0.0000 -1.0000
vn -0.5878 -0.0000 -0.8090
vn -0.9511 -0.0000 -0.3090
vn -0.7236 0.4472 -0.5257
vn -0.5878 -0.0000 -0.8090
vn -0.6882 -0.5257 -0.5000
vn -0.9511 -0.0000 -0.3090
vn -0.6882 -0.5257 -0.5000
vn -0.8944 -0.4472 -0.0000
vn -0.9511 -0.0000 -0.3090
vn -0.9511 -0.0000 0.3090
vn -0.5878 -0.0000 0.8090
vn -0.7236 0.4472 0.5257
vn -0.9511 -0.0000 0.3090
vn -0.6882 -0.5257 0.5000
vn -0.5878 -0.0000 0.8090
vn -0.6882 -0.5257 0.5000
vn -0.2764 -0.4472 0.8506
vn -0.5878 -0.0000 0.8090
vn 0.0000 -0.0000 1.0000
vn 0.5878 0.0000 0.8090
vn 0.2764 0.4472 0.8506
vn 0.0000 -0.0000 1.0000
vn 0.2629 -0.5257 0.8090
vn 0.5878 0.0000 0.8090
vn 0.2629 -0.5257 0.8090
vn 0.7236 -0.4472 0.5257
vn 0.5878 0.0000 0.8090
vn 0.9511 0.0000 0.3090
vn 0.9511 0.0000 -0.3090
vn 0.8944 0.4472 0.0000
vn 0.9511 0.0000 0.3090
vn 0.8506 -0.5257 -0.0000
vn 0.9511 0.0000 -0.3090
vn 0.8506 -0.5257 -0.0000
vn 0.7236 -0.4472 -0.5257
vn 0.9511 0.0000 -0.3090
vn 0.4253 -0.8507 -0.3090
vn 0.2629 -0.5257 -0.8090
vn 0.7236 -0.4472 -0.5257
vn 0.4253 -0.8507 -0.3090
vn -0.1625 -0.8507 -0.5000
vn 0.2629 -0.5257 -0.8090
vn -0.1625 -0.8507 -0.5000
vn -0.2764 -0.4472 -0.8506
vn 0.2629 -0.5257 -0.8090
vn -0.1625 -0.8507 -0.5000
vn -0.6882 -0.5257 -0.5000
vn -0.2764 -0.4472 -0.8506
vn -0.1625 -0.8507 -0.5000
vn -0.5257 -0.8507 -0.0000
vn -0.6882 -0.5257 -0.5000
vn -0.5257 -0.8507 -0.0000
vn -0.8944 -0.4472 -0.0000
vn -0.6882 -0.5257 -0.5000
vn -0.5257 -0.8507 -0.0000
vn -0.6882 -0.5257 0.5000
vn -0.8944 -0.4472 -0.0000
vn -0.5257 -0.8507 -0.0000
vn -0.1625 -0.8507 0.5000
vn -0.6882 -0.5257 0.5000
vn -0.1625 -0.8507 0.5000
vn -0.2764 -0.4472 0.8506
vn -0.6882 -0.5257 0.5000
vn 0.8506 -0.5257 -0.0000
vn 0.4253 -0.8507 -0.3090
vn 0.7236 -0.4472 -0.5257
vn 0.8506 -0.5257 -0.0000
vn 0.4253 -0.8507 0.3090
vn 0.4253 -0.8507 -0.3090
vn 0.4253 -0.8507 0.3090
vn -0.0000 -1.0000 -0.0000
vn 0.4253 -0.8507 -0.3090
vn -0.1625 -0.8507 0.5000
vn 0.2629 -0.5257 0.8090
vn -0.2764 -0.4472 0.8506
vn -0.1625 -0.8507 0.5000
vn 0.4253 -0.8507 0.3090
vn 0.2629 -0.5257 0.8090
vn 0.4253 -0.8507 0.3090
vn 0.7236 -0.4472 0.5257
vn 0.2629 -0.5257 0.8090
# 240 vertex normals

vt 1.0000 0.0000 0.0000
vt 0.0000 0.0000 0.0000
vt 1.0000 1.0000 0.0000
# 3 texture coords

o SP2
g SP2
usemtl Primitive_
s off
f 1/2/1 14/1/2 13/3/3 
f 2/2/4 14/1/5 16/3/6 
f 1/2/7 13/1/8 18/3/9 
f 1/2/10 18/1/11 20/3/12 
f 1/2/13 20/1/14 17/3/15 
f 2/2/16 16/1/17 23/3/18 
f 3/2/19 15/1/20 25/3/21 
f 4/2/22 19/1/23 27/3/24 
f 5/2/25 21/1/26 29/3/27 
f 6/2/28 22/1/29 31/3/30 
f 2/2/31 23/1/32 26/3/33 
f 3/2/34 25/1/35 28/3/36 
f 4/2/37 27/1/38 30/3/39 
f 5/2/40 29/1/41 32/3/42 
f 6/2/43 31/1/44 24/3/45 
f 7/2/46 33/1/47 38/3/48 
f 8/2/49 34/1/50 40/3/51 
f 9/2/52 35/1/53 41/3/54 
f 10/2/55 36/1/56 42/3/57 
f 11/2/58 37/1/59 39/3/60 
f 39/2/61 42/1/62 12/3/63 
f 39/2/64 37/1/65 42/3/66 
f 37/2/67 10/1/68 42/3/69 
f 42/2/70 41/1/71 12/3/72 
f 42/2/73 36/1/74 41/3/75 
f 36/2/76 9/1/77 41/3/78 
f 41/2/79 40/1/80 12/3/81 
f 41/2/82 35/1/83 40/3/84 
f 35/2/85 8/1/86 40/3/87 
f 40/2/88 38/1/89 12/3/90 
f 40/2/91 34/1/92 38/3/93 
f 34/2/94 7/1/95 38/3/96 
f 38/2/97 39/1/98 12/3/99 
f 38/2/100 33/1/101 39/3/102 
f 33/2/103 11/1/104 39/3/105 
f 24/2/106 37/1/107 11/3/108 
f 24/2/109 31/1/110 37/3/111 
f 31/2/112 10/1/113 37/3/114 
f 32/2/115 36/1/116 10/3/117 
f 32/2/118 29/1/119 36/3/120 
f 29/2/121 9/1/122 36/3/123 
f 30/2/124 35/1/125 9/3/126 
f 30/2/127 27/1/128 35/3/129 
f 27/2/130 8/1/131 35/3/132 
f 28/2/133 34/1/134 8/3/135 
f 28/2/136 25/1/137 34/3/138 
f 25/2/139 7/1/140 34/3/141 
f 26/2/142 33/1/143 7/3/144 
f 26/2/145 23/1/146 33/3/147 
f 23/2/148 11/1/149 33/3/150 
f 31/2/151 32/1/152 10/3/153 
f 31/2/154 22/1/155 32/3/156 
f 22/2/157 5/1/158 32/3/159 
f 29/2/160 30/1/161 9/3/162 
f 29/2/163 21/1/164 30/3/165 
f 21/2/166 4/1/167 30/3/168 
f 27/2/169 28/1/170 8/3/171 
f 27/2/172 19/1/173 28/3/174 
f 19/2/175 3/1/176 28/3/177 
f 25/2/178 26/1/179 7/3/180 
f 25/2/181 15/1/182 26/3/183 
f 15/2/184 2/1/185 26/3/186 
f 23/2/187 24/1/188 11/3/189 
f 23/2/190 16/1/191 24/3/192 
f 16/2/193 6/1/194 24/3/195 
f 17/2/196 22/1/197 6/3/198 
f 17/2/199 20/1/200 22/3/201 
f 20/2/202 5/1/203 22/3/204 
f 20/2/205 21/1/206 5/3/207 
f 20/2/208 18/1/209 21/3/210 
f 18/2/211 4/1/212 21/3/213 
f 18/2/214 19/1/215 4/3/216 
f 18/2/217 13/1/218 19/3/219 
f 13/2/220 3/1/221 19/3/222 
f 16/2/223 17/1/224 6/3/225 
f 16/2/226 14/1/227 17/3/228 
f 14/2/229 1/1/230 17/3/231 
f 13/2/232 15/1/233 3/3/234 
f 13/2/235 14/1/236 15/3/237 
f 14/2/238 2/1/239 15/3/240 
# 0 polygons - 80 triangles

