# 3ds Max Wavefront OBJ Exporter v0.97b - (c)2007 guruware
# File Created: 17.06.2020 12:22:44

mtllib SP3.mtl

#
# object SP3
#

v  0.0000 404.5085 -293.8926
v  0.0000 154.5086 -475.5283
v  0.0000 -154.5084 -475.5283
v  0.0000 -404.5085 -293.8926
v  254.5176 404.5085 -146.9463
v  411.8203 154.5085 -237.7642
v  411.8203 -154.5085 -237.7642
v  254.5176 -404.5085 -146.9463
v  254.5176 404.5085 146.9465
v  411.8203 154.5084 237.7642
v  411.8203 -154.5085 237.7642
v  254.5176 -404.5085 146.9463
v  0.0000 500.0000 0.0002
v  0.0000 404.5084 293.8928
v  0.0000 154.5084 475.5283
v  0.0000 -154.5086 475.5283
v  0.0000 -404.5086 293.8926
v  -254.5195 404.5085 146.9463
v  -411.8203 154.5084 237.7642
v  -411.8203 -154.5085 237.7642
v  -254.5176 -404.5085 146.9463
v  -254.5176 404.5085 -146.9463
v  -411.8203 154.5085 -237.7642
v  -411.8203 -154.5085 -237.7642
v  -254.5176 -404.5085 -146.9463
v  0.0000 -500.0000 -0.0000
# 26 vertices

vn -0.0000 -1.0000 -0.0000
vn 0.0000 -0.7628 -0.6466
vn 0.5600 -0.7628 -0.3233
vn 0.0000 -0.2834 -0.9590
vn 0.0000 0.2834 -0.9590
vn 0.8305 0.2834 -0.4795
vn 0.8305 -0.2834 -0.4795
vn 0.0000 0.7628 -0.6466
vn 0.0000 1.0000 0.0000
vn 0.5600 0.7628 -0.3233
vn 0.0000 -0.7628 -0.6466
vn 0.0000 -0.2834 -0.9590
vn 0.8305 -0.2834 -0.4795
vn 0.5600 -0.7628 -0.3233
vn 0.0000 0.2834 -0.9590
vn 0.0000 0.7628 -0.6466
vn 0.5600 0.7628 -0.3233
vn 0.8305 0.2834 -0.4795
vn -0.0000 -1.0000 -0.0000
vn 0.5600 -0.7628 -0.3233
vn 0.5600 -0.7628 0.3233
vn 0.8305 -0.2834 -0.4795
vn 0.8305 0.2834 -0.4795
vn 0.8305 0.2834 0.4795
vn 0.8305 -0.2834 0.4795
vn 0.5600 0.7628 -0.3233
vn 0.0000 1.0000 0.0000
vn 0.5600 0.7628 0.3233
vn 0.5600 -0.7628 -0.3233
vn 0.8305 -0.2834 -0.4795
vn 0.8305 -0.2834 0.4795
vn 0.5600 -0.7628 0.3233
vn 0.8305 0.2834 -0.4795
vn 0.5600 0.7628 -0.3233
vn 0.5600 0.7628 0.3233
vn 0.8305 0.2834 0.4795
vn -0.0000 -1.0000 -0.0000
vn 0.5600 -0.7628 0.3233
vn 0.0000 -0.7628 0.6466
vn 0.8305 -0.2834 0.4795
vn 0.8305 0.2834 0.4795
vn 0.0000 0.2834 0.9590
vn 0.0000 -0.2834 0.9590
vn 0.5600 0.7628 0.3233
vn 0.0000 1.0000 0.0000
vn 0.0000 0.7628 0.6466
vn 0.5600 -0.7628 0.3233
vn 0.8305 -0.2834 0.4795
vn 0.0000 -0.2834 0.9590
vn 0.0000 -0.7628 0.6466
vn 0.8305 0.2834 0.4795
vn 0.5600 0.7628 0.3233
vn 0.0000 0.7628 0.6466
vn 0.0000 0.2834 0.9590
vn -0.0000 -1.0000 -0.0000
vn 0.0000 -0.7628 0.6466
vn -0.5600 -0.7628 0.3233
vn 0.0000 -0.2834 0.9590
vn 0.0000 0.2834 0.9590
vn -0.8305 0.2834 0.4795
vn -0.8305 -0.2834 0.4795
vn 0.0000 0.7628 0.6466
vn 0.0000 1.0000 0.0000
vn -0.5600 0.7628 0.3233
vn 0.0000 -0.7628 0.6466
vn 0.0000 -0.2834 0.9590
vn -0.8305 -0.2834 0.4795
vn -0.5600 -0.7628 0.3233
vn 0.0000 0.2834 0.9590
vn 0.0000 0.7628 0.6466
vn -0.5600 0.7628 0.3233
vn -0.8305 0.2834 0.4795
vn -0.0000 -1.0000 -0.0000
vn -0.5600 -0.7628 0.3233
vn -0.5600 -0.7628 -0.3233
vn -0.8305 -0.2834 0.4795
vn -0.8305 0.2834 0.4795
vn -0.8305 0.2834 -0.4795
vn -0.8305 -0.2834 -0.4795
vn -0.5600 0.7628 0.3233
vn 0.0000 1.0000 0.0000
vn -0.5600 0.7628 -0.3233
vn -0.5600 -0.7628 0.3233
vn -0.8305 -0.2834 0.4795
vn -0.8305 -0.2834 -0.4795
vn -0.5600 -0.7628 -0.3233
vn -0.8305 0.2834 0.4795
vn -0.5600 0.7628 0.3233
vn -0.5600 0.7628 -0.3233
vn -0.8305 0.2834 -0.4795
vn -0.0000 -1.0000 -0.0000
vn -0.5600 -0.7628 -0.3233
vn 0.0000 -0.7628 -0.6466
vn -0.8305 -0.2834 -0.4795
vn -0.8305 0.2834 -0.4795
vn 0.0000 0.2834 -0.9590
vn 0.0000 -0.2834 -0.9590
vn -0.5600 0.7628 -0.3233
vn 0.0000 1.0000 0.0000
vn 0.0000 0.7628 -0.6466
vn -0.5600 -0.7628 -0.3233
vn -0.8305 -0.2834 -0.4795
vn 0.0000 -0.2834 -0.9590
vn 0.0000 -0.7628 -0.6466
vn -0.8305 0.2834 -0.4795
vn -0.5600 0.7628 -0.3233
vn 0.0000 0.7628 -0.6466
vn 0.0000 0.2834 -0.9590
# 108 vertex normals

vt 0.0000 1.0000 0.0000
vt 1.0000 0.0000 0.0000
vt 0.0000 0.0000 0.0000
vt 1.0000 1.0000 0.0000
# 4 texture coords

o SP3
g SP3
usemtl Primitive_
s off
f 26/3/1 4/2/2 8/4/3 
f 3/3/4 2/2/5 6/4/6 7/1/7 
f 1/3/8 13/2/9 5/4/10 
f 4/3/11 3/2/12 7/4/13 8/1/14 
f 2/3/15 1/2/16 5/4/17 6/1/18 
f 26/3/19 8/2/20 12/4/21 
f 7/3/22 6/2/23 10/4/24 11/1/25 
f 5/3/26 13/2/27 9/4/28 
f 8/3/29 7/2/30 11/4/31 12/1/32 
f 6/3/33 5/2/34 9/4/35 10/1/36 
f 26/3/37 12/2/38 17/4/39 
f 11/3/40 10/2/41 15/4/42 16/1/43 
f 9/3/44 13/2/45 14/4/46 
f 12/3/47 11/2/48 16/4/49 17/1/50 
f 10/3/51 9/2/52 14/4/53 15/1/54 
f 26/3/55 17/2/56 21/4/57 
f 16/3/58 15/2/59 19/4/60 20/1/61 
f 14/3/62 13/2/63 18/4/64 
f 17/3/65 16/2/66 20/4/67 21/1/68 
f 15/3/69 14/2/70 18/4/71 19/1/72 
f 26/3/73 21/2/74 25/4/75 
f 20/3/76 19/2/77 23/4/78 24/1/79 
f 18/3/80 13/2/81 22/4/82 
f 21/3/83 20/2/84 24/4/85 25/1/86 
f 19/3/87 18/2/88 22/4/89 23/1/90 
f 26/3/91 25/2/92 4/4/93 
f 24/3/94 23/2/95 2/4/96 3/1/97 
f 22/3/98 13/2/99 1/4/100 
f 25/3/101 24/2/102 3/4/103 4/1/104 
f 23/3/105 22/2/106 1/4/107 2/1/108 
# 18 polygons - 12 triangles

