# 3ds Max Wavefront OBJ Exporter v0.97b - (c)2007 guruware
# File Created: 17.06.2020 12:22:44

mtllib SP5.mtl

#
# object SP5
#

v  0.0000 461.9398 -191.3417
v  0.0000 500.0000 -0.0000
v  0.0000 0.0000 -0.0001
v  0.0000 461.9397 191.3417
v  0.0000 353.5533 353.5532
v  0.0000 191.3416 461.9396
v  0.0000 -0.0001 499.9998
v  0.0000 -191.3418 461.9395
v  0.0000 -353.5534 353.5531
v  0.0000 -461.9398 191.3414
v  -135.2988 461.9397 135.2990
v  -250.0000 353.5533 249.9999
v  -326.6406 191.3417 326.6406
v  -353.5527 -0.0001 353.5532
v  -326.6406 -191.3418 326.6405
v  -250.0000 -353.5534 249.9998
v  -135.2988 -461.9398 135.2988
v  0.0000 -500.0000 -0.0001
v  -191.3418 461.9397 -0.0000
v  -353.5527 353.5534 -0.0000
v  -461.9395 191.3417 -0.0000
v  -500.0000 -0.0000 -0.0001
v  -461.9395 -191.3418 -0.0001
v  -353.5527 -353.5534 -0.0001
v  -191.3418 -461.9397 -0.0001
v  -135.2988 461.9398 -135.2990
v  -250.0000 353.5534 -249.9999
v  -326.6406 191.3418 -326.6406
v  -353.5527 0.0000 -353.5533
v  -326.6406 -191.3417 -326.6406
v  -250.0000 -353.5533 -250.0000
v  -135.2988 -461.9397 -135.2991
v  0.0000 353.5534 -353.5532
v  0.0000 191.3418 -461.9396
v  0.0000 0.0001 -499.9999
v  0.0000 -191.3417 -461.9397
v  0.0000 -353.5533 -353.5533
v  0.0000 -461.9397 -191.3418
# 38 vertices

vn 0.5998 -0.7252 -0.3381
vn 0.5524 -0.5700 -0.6082
vn 1.0000 0.0000 -0.0000
vn 0.6115 0.7912 0.0000
vn 0.5998 0.7252 0.3381
vn 1.0000 0.0000 -0.0000
vn 0.5524 -0.5700 -0.6082
vn 0.5226 -0.3127 -0.7932
vn 1.0000 0.0000 -0.0000
vn 0.5998 -0.7252 0.3381
vn 0.6115 -0.7912 -0.0000
vn 1.0000 0.0000 -0.0000
vn 0.5524 -0.5700 0.6082
vn 0.5998 -0.7252 0.3381
vn 1.0000 0.0000 -0.0000
vn 0.5226 -0.3127 -0.7932
vn 0.5125 0.0000 -0.8587
vn 1.0000 0.0000 -0.0000
vn 0.5226 -0.3127 0.7932
vn 0.5524 -0.5700 0.6082
vn 1.0000 0.0000 -0.0000
vn 0.5998 0.7252 -0.3381
vn 0.6115 0.7912 0.0000
vn 1.0000 0.0000 -0.0000
vn 0.6115 -0.7912 -0.0000
vn 0.5998 -0.7252 -0.3381
vn 1.0000 0.0000 -0.0000
vn 0.5524 0.5700 0.6082
vn 0.5226 0.3127 0.7932
vn 1.0000 0.0000 -0.0000
vn 0.5226 0.3127 0.7932
vn 0.5125 -0.0000 0.8587
vn 1.0000 0.0000 -0.0000
vn 0.5125 0.0000 -0.8587
vn 0.5226 0.3127 -0.7932
vn 1.0000 0.0000 -0.0000
vn 0.5524 0.5700 -0.6082
vn 0.5998 0.7252 -0.3381
vn 1.0000 0.0000 -0.0000
vn 0.5998 0.7252 0.3381
vn 0.5524 0.5700 0.6082
vn 1.0000 0.0000 -0.0000
vn 0.5226 0.3127 -0.7932
vn 0.5524 0.5700 -0.6082
vn 1.0000 0.0000 -0.0000
vn 0.5125 -0.0000 0.8587
vn 0.5226 -0.3127 0.7932
vn 1.0000 0.0000 -0.0000
vn 0.5998 0.7252 0.3381
vn 0.6115 0.7912 0.0000
vn -0.2988 0.9063 0.2988
vn 0.6115 -0.7912 -0.0000
vn 0.5998 -0.7252 0.3381
vn -0.2988 -0.9063 0.2988
vn 0.5524 -0.5700 0.6082
vn 0.5226 -0.3127 0.7932
vn -0.6578 -0.3668 0.6578
vn -0.5159 -0.6839 0.5159
vn 0.5125 -0.0000 0.8587
vn 0.5226 0.3127 0.7932
vn -0.6578 0.3668 0.6578
vn -0.7071 -0.0000 0.7071
vn 0.5524 0.5700 0.6082
vn 0.5998 0.7252 0.3381
vn -0.2988 0.9063 0.2988
vn -0.5159 0.6839 0.5159
vn 0.5998 -0.7252 0.3381
vn 0.5524 -0.5700 0.6082
vn -0.5159 -0.6839 0.5159
vn -0.2988 -0.9063 0.2988
vn 0.5226 -0.3127 0.7932
vn 0.5125 -0.0000 0.8587
vn -0.7071 -0.0000 0.7071
vn -0.6578 -0.3668 0.6578
vn 0.5226 0.3127 0.7932
vn 0.5524 0.5700 0.6082
vn -0.5159 0.6839 0.5159
vn -0.6578 0.3668 0.6578
vn -0.5159 -0.6839 0.5159
vn -0.6578 -0.3668 0.6578
vn -0.9303 -0.3668 -0.0000
vn -0.7296 -0.6839 -0.0000
vn -0.7071 -0.0000 0.7071
vn -0.6578 0.3668 0.6578
vn -0.9303 0.3668 0.0000
vn -1.0000 0.0000 -0.0000
vn -0.5159 0.6839 0.5159
vn -0.2988 0.9063 0.2988
vn -0.4226 0.9063 0.0000
vn -0.7296 0.6839 0.0000
vn -0.2988 -0.9063 0.2988
vn -0.5159 -0.6839 0.5159
vn -0.7296 -0.6839 -0.0000
vn -0.4226 -0.9063 -0.0000
vn -0.6578 -0.3668 0.6578
vn -0.7071 -0.0000 0.7071
vn -1.0000 0.0000 -0.0000
vn -0.9303 -0.3668 -0.0000
vn -0.6578 0.3668 0.6578
vn -0.5159 0.6839 0.5159
vn -0.7296 0.6839 0.0000
vn -0.9303 0.3668 0.0000
vn -0.2988 0.9063 0.2988
vn 0.6115 0.7912 0.0000
vn -0.4226 0.9063 0.0000
vn 0.6115 -0.7912 -0.0000
vn -0.2988 -0.9063 0.2988
vn -0.4226 -0.9063 -0.0000
vn -0.4226 -0.9063 -0.0000
vn -0.7296 -0.6839 -0.0000
vn -0.5159 -0.6839 -0.5159
vn -0.2988 -0.9063 -0.2988
vn -0.9303 -0.3668 -0.0000
vn -1.0000 0.0000 -0.0000
vn -0.7071 0.0000 -0.7071
vn -0.6578 -0.3668 -0.6578
vn -0.9303 0.3668 0.0000
vn -0.7296 0.6839 0.0000
vn -0.5159 0.6839 -0.5159
vn -0.6578 0.3668 -0.6578
vn -0.4226 0.9063 0.0000
vn 0.6115 0.7912 0.0000
vn -0.2988 0.9063 -0.2988
vn 0.6115 -0.7912 -0.0000
vn -0.4226 -0.9063 -0.0000
vn -0.2988 -0.9063 -0.2988
vn -0.7296 -0.6839 -0.0000
vn -0.9303 -0.3668 -0.0000
vn -0.6578 -0.3668 -0.6578
vn -0.5159 -0.6839 -0.5159
vn -1.0000 0.0000 -0.0000
vn -0.9303 0.3668 0.0000
vn -0.6578 0.3668 -0.6578
vn -0.7071 0.0000 -0.7071
vn -0.7296 0.6839 0.0000
vn -0.4226 0.9063 0.0000
vn -0.2988 0.9063 -0.2988
vn -0.5159 0.6839 -0.5159
vn -0.6578 -0.3668 -0.6578
vn -0.7071 0.0000 -0.7071
vn 0.5125 0.0000 -0.8587
vn 0.5226 -0.3127 -0.7932
vn -0.6578 0.3668 -0.6578
vn -0.5159 0.6839 -0.5159
vn 0.5524 0.5700 -0.6082
vn 0.5226 0.3127 -0.7932
vn -0.2988 0.9063 -0.2988
vn 0.6115 0.7912 0.0000
vn 0.5998 0.7252 -0.3381
vn 0.6115 -0.7912 -0.0000
vn -0.2988 -0.9063 -0.2988
vn 0.5998 -0.7252 -0.3381
vn -0.5159 -0.6839 -0.5159
vn -0.6578 -0.3668 -0.6578
vn 0.5226 -0.3127 -0.7932
vn 0.5524 -0.5700 -0.6082
vn -0.7071 0.0000 -0.7071
vn -0.6578 0.3668 -0.6578
vn 0.5226 0.3127 -0.7932
vn 0.5125 0.0000 -0.8587
vn -0.5159 0.6839 -0.5159
vn -0.2988 0.9063 -0.2988
vn 0.5998 0.7252 -0.3381
vn 0.5524 0.5700 -0.6082
vn -0.2988 -0.9063 -0.2988
vn -0.5159 -0.6839 -0.5159
vn 0.5524 -0.5700 -0.6082
vn 0.5998 -0.7252 -0.3381
# 168 vertex normals

vt 0.0000 1.0000 0.0000
vt 1.0000 0.0000 0.0000
vt 0.0000 0.0000 0.0000
vt 1.0000 1.0000 0.0000
# 4 texture coords

o SP5
g SP5
usemtl Primitive_
s 1
f 38/3/1 37/2/2 3/4/3 
f 2/3/4 4/2/5 3/4/6 
f 37/3/7 36/2/8 3/4/9 
f 10/3/10 18/2/11 3/4/12 
f 9/3/13 10/2/14 3/4/15 
f 36/3/16 35/2/17 3/4/18 
f 8/3/19 9/2/20 3/4/21 
f 1/3/22 2/2/23 3/4/24 
f 18/3/25 38/2/26 3/4/27 
f 5/3/28 6/2/29 3/4/30 
f 6/3/31 7/2/32 3/4/33 
f 35/3/34 34/2/35 3/4/36 
f 33/3/37 1/2/38 3/4/39 
f 4/3/40 5/2/41 3/4/42 
f 34/3/43 33/2/44 3/4/45 
f 7/3/46 8/2/47 3/4/48 
s off
f 4/3/49 2/2/50 11/4/51 
f 18/3/52 10/2/53 17/4/54 
f 9/3/55 8/2/56 15/4/57 16/1/58 
f 7/3/59 6/2/60 13/4/61 14/1/62 
f 5/3/63 4/2/64 11/4/65 12/1/66 
f 10/3/67 9/2/68 16/4/69 17/1/70 
f 8/3/71 7/2/72 14/4/73 15/1/74 
f 6/3/75 5/2/76 12/4/77 13/1/78 
f 16/3/79 15/2/80 23/4/81 24/1/82 
f 14/3/83 13/2/84 21/4/85 22/1/86 
f 12/3/87 11/2/88 19/4/89 20/1/90 
f 17/3/91 16/2/92 24/4/93 25/1/94 
f 15/3/95 14/2/96 22/4/97 23/1/98 
f 13/3/99 12/2/100 20/4/101 21/1/102 
f 11/3/103 2/2/104 19/4/105 
f 18/3/106 17/2/107 25/4/108 
f 25/3/109 24/2/110 31/4/111 32/1/112 
f 23/3/113 22/2/114 29/4/115 30/1/116 
f 21/3/117 20/2/118 27/4/119 28/1/120 
f 19/3/121 2/2/122 26/4/123 
f 18/3/124 25/2/125 32/4/126 
f 24/3/127 23/2/128 30/4/129 31/1/130 
f 22/3/131 21/2/132 28/4/133 29/1/134 
f 20/3/135 19/2/136 26/4/137 27/1/138 
f 30/3/139 29/2/140 35/4/141 36/1/142 
f 28/3/143 27/2/144 33/4/145 34/1/146 
f 26/3/147 2/2/148 1/4/149 
f 18/3/150 32/2/151 38/4/152 
f 31/3/153 30/2/154 36/4/155 37/1/156 
f 29/3/157 28/2/158 34/4/159 35/1/160 
f 27/3/161 26/2/162 1/4/163 33/1/164 
f 32/3/165 31/2/166 37/4/167 38/1/168 
# 24 polygons - 24 triangles

