# 3ds Max Wavefront OBJ Exporter v0.97b - (c)2007 guruware
# File Created: 17.06.2020 12:22:43

mtllib SP6.mtl

#
# object SP6
#

v  353.5527 0.0000 -353.5535
v  326.6406 -191.3417 -326.6409
v  250.0000 -353.5533 -250.0000
v  135.2988 -461.9397 -135.2991
v  500.0000 -0.0000 -0.0000
v  461.9395 -191.3418 -0.0000
v  353.5527 -353.5534 -0.0002
v  191.3418 -461.9397 -0.0002
v  353.5527 -0.0001 353.5532
v  326.6406 -191.3418 326.6406
v  250.0000 -353.5534 249.9998
v  135.2988 -461.9398 135.2988
v  0.0000 -0.0001 499.9998
v  0.0000 -191.3418 461.9395
v  0.0000 -353.5534 353.5532
v  0.0000 -461.9398 191.3416
v  -353.5527 -0.0001 353.5532
v  -326.6406 -191.3418 326.6406
v  -250.0000 -353.5534 249.9998
v  -135.2988 -461.9398 135.2988
v  0.0000 -500.0000 -0.0002
v  -500.0000 -0.0000 -0.0000
v  -461.9395 -191.3418 -0.0000
v  -353.5527 -353.5534 -0.0002
v  -191.3418 -461.9397 -0.0002
v  -353.5527 0.0000 -353.5532
v  -326.6406 -191.3417 -326.6406
v  -250.0000 -353.5533 -250.0000
v  -135.2988 -461.9397 -135.2991
v  0.0000 0.0001 -500.0000
v  0.0000 -191.3417 -461.9397
v  0.0000 -353.5533 -353.5535
v  0.0000 -461.9397 -191.3418
# 33 vertices

vn -0.0000 -0.3668 -0.9303
vn -0.0000 0.5553 -0.8317
vn 0.5881 0.5553 -0.5881
vn 0.6578 -0.3668 -0.6578
vn -0.0000 -1.0000 -0.0000
vn 0.0000 -0.9063 -0.4226
vn 0.2988 -0.9063 -0.2988
vn -0.0000 -0.6839 -0.7296
vn -0.0000 -0.3668 -0.9303
vn 0.6578 -0.3668 -0.6578
vn 0.5159 -0.6839 -0.5159
vn 0.0000 -0.9063 -0.4226
vn -0.0000 -0.6839 -0.7296
vn 0.5159 -0.6839 -0.5159
vn 0.2988 -0.9063 -0.2988
vn -0.0000 -1.0000 -0.0000
vn 0.2988 -0.9063 -0.2988
vn 0.4226 -0.9063 -0.0000
vn 0.5159 -0.6839 -0.5159
vn 0.6578 -0.3668 -0.6578
vn 0.9303 -0.3668 0.0000
vn 0.7296 -0.6839 -0.0000
vn 0.2988 -0.9063 -0.2988
vn 0.5159 -0.6839 -0.5159
vn 0.7296 -0.6839 -0.0000
vn 0.4226 -0.9063 -0.0000
vn 0.6578 -0.3668 -0.6578
vn 0.5881 0.5553 -0.5881
vn 0.8317 0.5553 0.0000
vn 0.9303 -0.3668 0.0000
vn 0.4226 -0.9063 -0.0000
vn 0.7296 -0.6839 -0.0000
vn 0.5159 -0.6839 0.5159
vn 0.2988 -0.9063 0.2988
vn 0.9303 -0.3668 0.0000
vn 0.8317 0.5553 0.0000
vn 0.5881 0.5553 0.5881
vn 0.6578 -0.3668 0.6578
vn -0.0000 -1.0000 -0.0000
vn 0.4226 -0.9063 -0.0000
vn 0.2988 -0.9063 0.2988
vn 0.7296 -0.6839 -0.0000
vn 0.9303 -0.3668 0.0000
vn 0.6578 -0.3668 0.6578
vn 0.5159 -0.6839 0.5159
vn 0.2988 -0.9063 0.2988
vn 0.5159 -0.6839 0.5159
vn 0.0000 -0.6839 0.7296
vn 0.0000 -0.9063 0.4226
vn 0.6578 -0.3668 0.6578
vn 0.5881 0.5553 0.5881
vn 0.0000 0.5553 0.8317
vn 0.0000 -0.3668 0.9303
vn -0.0000 -1.0000 -0.0000
vn 0.2988 -0.9063 0.2988
vn 0.0000 -0.9063 0.4226
vn 0.5159 -0.6839 0.5159
vn 0.6578 -0.3668 0.6578
vn 0.0000 -0.3668 0.9303
vn 0.0000 -0.6839 0.7296
vn -0.0000 -1.0000 -0.0000
vn 0.0000 -0.9063 0.4226
vn -0.2988 -0.9063 0.2988
vn 0.0000 -0.6839 0.7296
vn 0.0000 -0.3668 0.9303
vn -0.6578 -0.3668 0.6578
vn -0.5159 -0.6839 0.5159
vn 0.0000 -0.9063 0.4226
vn 0.0000 -0.6839 0.7296
vn -0.5159 -0.6839 0.5159
vn -0.2988 -0.9063 0.2988
vn 0.0000 -0.3668 0.9303
vn 0.0000 0.5553 0.8317
vn -0.5881 0.5553 0.5881
vn -0.6578 -0.3668 0.6578
vn -0.5159 -0.6839 0.5159
vn -0.6578 -0.3668 0.6578
vn -0.9303 -0.3668 0.0000
vn -0.7296 -0.6839 -0.0000
vn -0.2988 -0.9063 0.2988
vn -0.5159 -0.6839 0.5159
vn -0.7296 -0.6839 -0.0000
vn -0.4226 -0.9063 -0.0000
vn -0.6578 -0.3668 0.6578
vn -0.5881 0.5553 0.5881
vn -0.8317 0.5553 0.0000
vn -0.9303 -0.3668 0.0000
vn -0.0000 -1.0000 -0.0000
vn -0.2988 -0.9063 0.2988
vn -0.4226 -0.9063 -0.0000
vn -0.4226 -0.9063 -0.0000
vn -0.7296 -0.6839 -0.0000
vn -0.5159 -0.6839 -0.5159
vn -0.2988 -0.9063 -0.2988
vn -0.9303 -0.3668 0.0000
vn -0.8317 0.5553 0.0000
vn -0.5881 0.5553 -0.5881
vn -0.6578 -0.3668 -0.6578
vn -0.0000 -1.0000 -0.0000
vn -0.4226 -0.9063 -0.0000
vn -0.2988 -0.9063 -0.2988
vn -0.7296 -0.6839 -0.0000
vn -0.9303 -0.3668 0.0000
vn -0.6578 -0.3668 -0.6578
vn -0.5159 -0.6839 -0.5159
vn -0.6578 -0.3668 -0.6578
vn -0.5881 0.5553 -0.5881
vn -0.0000 0.5553 -0.8317
vn -0.0000 -0.3668 -0.9303
vn -0.0000 -1.0000 -0.0000
vn -0.2988 -0.9063 -0.2988
vn 0.0000 -0.9063 -0.4226
vn -0.5159 -0.6839 -0.5159
vn -0.6578 -0.3668 -0.6578
vn -0.0000 -0.3668 -0.9303
vn -0.0000 -0.6839 -0.7296
vn 0.8317 0.5553 0.0000
vn 0.5881 0.5553 -0.5881
vn -0.0000 0.5553 -0.8317
vn -0.5881 0.5553 -0.5881
vn -0.8317 0.5553 0.0000
vn -0.5881 0.5553 0.5881
vn 0.0000 0.5553 0.8317
vn 0.5881 0.5553 0.5881
vn -0.2988 -0.9063 -0.2988
vn -0.5159 -0.6839 -0.5159
vn -0.0000 -0.6839 -0.7296
vn 0.0000 -0.9063 -0.4226
# 128 vertex normals

vt 0.0000 1.0000 0.0000
vt 0.5000 1.0000 0.0000
vt 0.0000 0.0000 0.0000
vt 0.8536 0.8536 0.0000
vt 0.8536 0.1464 0.0000
vt 0.5000 0.0000 0.0000
vt 0.1464 0.1464 0.0000
vt 0.0000 0.5000 0.0000
vt 1.0000 0.5000 0.0000
vt 0.1464 0.8536 0.0000
vt 1.0000 0.0000 0.0000
vt 1.0000 1.0000 0.0000
# 12 texture coords

o SP6
g SP6
usemtl Primitive_
s off
f 31/3/1 30/11/2 1/12/3 2/1/4 
f 21/3/5 33/11/6 4/12/7 
f 32/3/8 31/11/9 2/12/10 3/1/11 
f 33/3/12 32/11/13 3/12/14 4/1/15 
f 21/3/16 4/11/17 8/12/18 
f 3/3/19 2/11/20 6/12/21 7/1/22 
f 4/3/23 3/11/24 7/12/25 8/1/26 
f 2/3/27 1/11/28 5/12/29 6/1/30 
f 8/3/31 7/11/32 11/12/33 12/1/34 
f 6/3/35 5/11/36 9/12/37 10/1/38 
f 21/3/39 8/11/40 12/12/41 
f 7/3/42 6/11/43 10/12/44 11/1/45 
f 12/3/46 11/11/47 15/12/48 16/1/49 
f 10/3/50 9/11/51 13/12/52 14/1/53 
f 21/3/54 12/11/55 16/12/56 
f 11/3/57 10/11/58 14/12/59 15/1/60 
f 21/3/61 16/11/62 20/12/63 
f 15/3/64 14/11/65 18/12/66 19/1/67 
f 16/3/68 15/11/69 19/12/70 20/1/71 
f 14/3/72 13/11/73 17/12/74 18/1/75 
f 19/3/76 18/11/77 23/12/78 24/1/79 
f 20/3/80 19/11/81 24/12/82 25/1/83 
f 18/3/84 17/11/85 22/12/86 23/1/87 
f 21/3/88 20/11/89 25/12/90 
f 25/3/91 24/11/92 28/12/93 29/1/94 
f 23/3/95 22/11/96 26/12/97 27/1/98 
f 21/3/99 25/11/100 29/12/101 
f 24/3/102 23/11/103 27/12/104 28/1/105 
f 27/3/106 26/11/107 30/12/108 31/1/109 
f 21/3/110 29/11/111 33/12/112 
f 28/3/113 27/11/114 31/12/115 32/1/116 
f 5/2/117 1/4/118 30/9/119 26/5/120 22/6/121 17/7/122 13/8/123 9/10/124 
f 29/3/125 28/11/126 32/12/127 33/1/128 
# 25 polygons - 8 triangles

