# 3ds Max Wavefront OBJ Exporter v0.97b - (c)2007 guruware
# File Created: 17.06.2020 12:22:42

mtllib ST1.mtl

#
# object ST1
#

v  0.0000 0.0001 -500.0000
v  -122.4414 0.0000 -140.6724
v  -475.5273 0.0000 -154.5083
v  -198.1152 -0.0000 92.2251
v  -293.8926 -0.0001 404.5083
v  0.0000 -0.0000 236.1636
v  293.8926 -0.0001 404.5083
v  198.1152 -0.0000 92.2251
v  475.5273 0.0000 -154.5088
v  122.4414 0.0000 -140.6724
v  0.0000 -13.8204 -500.0000
v  -122.4414 -13.8204 -140.6724
v  -475.5273 -13.8204 -154.5083
v  -198.1152 -13.8205 92.2251
v  -293.8926 -13.8205 404.5083
v  0.0000 -13.8205 236.1636
v  293.8926 -13.8205 404.5083
v  198.1152 -13.8205 92.2251
v  475.5273 -13.8204 -154.5088
v  122.4414 -13.8204 -140.6724
# 20 vertices

vn -0.2800 0.8690 -0.4079
vn 0.0000 0.8378 0.5460
vn 0.2800 0.8690 -0.4079
vn -0.2800 0.8690 -0.4079
vn -0.7779 0.5446 -0.3135
vn -0.5058 0.8510 0.1417
vn -0.5058 0.8510 0.1417
vn -0.5227 0.5461 0.6546
vn 0.0000 0.8378 0.5460
vn 0.0000 0.8378 0.5460
vn 0.5227 0.5461 0.6546
vn 0.5058 0.8510 0.1417
vn 0.5058 0.8510 0.1417
vn 0.7779 0.5446 -0.3135
vn 0.2800 0.8690 -0.4079
vn 0.2800 0.8690 -0.4079
vn 0.0000 0.5439 -0.8391
vn -0.2800 0.8690 -0.4079
vn -0.2800 0.8690 -0.4079
vn -0.5058 0.8510 0.1417
vn 0.0000 0.8378 0.5460
vn 0.0000 0.8378 0.5460
vn 0.5058 0.8510 0.1417
vn 0.2800 0.8690 -0.4079
vn -0.2800 -0.8690 -0.4079
vn 0.2800 -0.8690 -0.4079
vn 0.0000 -0.8377 0.5462
vn -0.2800 -0.8690 -0.4079
vn -0.5058 -0.8510 0.1417
vn -0.7779 -0.5446 -0.3135
vn -0.5058 -0.8510 0.1417
vn 0.0000 -0.8377 0.5462
vn -0.5231 -0.5462 0.6543
vn 0.0000 -0.8377 0.5462
vn 0.5058 -0.8510 0.1417
vn 0.5231 -0.5462 0.6543
vn 0.5058 -0.8510 0.1417
vn 0.2800 -0.8690 -0.4079
vn 0.7779 -0.5446 -0.3135
vn 0.2800 -0.8690 -0.4079
vn -0.2800 -0.8690 -0.4079
vn 0.0000 -0.5439 -0.8391
vn -0.2800 -0.8690 -0.4079
vn 0.0000 -0.8377 0.5462
vn -0.5058 -0.8510 0.1417
vn 0.0000 -0.8377 0.5462
vn 0.2800 -0.8690 -0.4079
vn 0.5058 -0.8510 0.1417
vn 0.0000 0.8378 0.5460
vn 0.0000 -0.8377 0.5462
vn 0.5231 -0.5462 0.6543
vn 0.5227 0.5461 0.6546
vn -0.7779 0.5446 -0.3135
vn -0.7779 -0.5446 -0.3135
vn -0.5058 -0.8510 0.1417
vn -0.5058 0.8510 0.1417
vn 0.2800 0.8690 -0.4079
vn 0.2800 -0.8690 -0.4079
vn 0.0000 -0.5439 -0.8391
vn 0.0000 0.5439 -0.8391
vn 0.5227 0.5461 0.6546
vn 0.5231 -0.5462 0.6543
vn 0.5058 -0.8510 0.1417
vn 0.5058 0.8510 0.1417
vn -0.5058 0.8510 0.1417
vn -0.5058 -0.8510 0.1417
vn -0.5231 -0.5462 0.6543
vn -0.5227 0.5461 0.6546
vn 0.0000 0.5439 -0.8391
vn 0.0000 -0.5439 -0.8391
vn -0.2800 -0.8690 -0.4079
vn -0.2800 0.8690 -0.4079
vn 0.5058 0.8510 0.1417
vn 0.5058 -0.8510 0.1417
vn 0.7779 -0.5446 -0.3135
vn 0.7779 0.5446 -0.3135
vn -0.5227 0.5461 0.6546
vn -0.5231 -0.5462 0.6543
vn 0.0000 -0.8377 0.5462
vn 0.0000 0.8378 0.5460
vn -0.2800 0.8690 -0.4079
vn -0.2800 -0.8690 -0.4079
vn -0.7779 -0.5446 -0.3135
vn -0.7779 0.5446 -0.3135
vn 0.7779 0.5446 -0.3135
vn 0.7779 -0.5446 -0.3135
vn 0.2800 -0.8690 -0.4079
vn 0.2800 0.8690 -0.4079
# 88 vertex normals

vt 0.0000 1.0000 0.0000
vt 1.0000 0.0000 0.0000
vt 0.0000 0.0000 0.0000
vt 1.0000 1.0000 0.0000
# 4 texture coords

o ST1
g ST1
usemtl Primitive_
s 1
f 2/3/1 6/2/2 10/4/3 
f 2/3/4 3/2/5 4/4/6 
f 4/3/7 5/2/8 6/4/9 
f 6/3/10 7/2/11 8/4/12 
f 8/3/13 9/2/14 10/4/15 
f 10/3/16 1/2/17 2/4/18 
f 2/3/19 4/2/20 6/4/21 
f 6/3/22 8/2/23 10/4/24 
f 12/3/25 20/2/26 16/4/27 
f 12/3/28 14/2/29 13/4/30 
f 14/3/31 16/2/32 15/4/33 
f 16/3/34 18/2/35 17/4/36 
f 18/3/37 20/2/38 19/4/39 
f 20/3/40 12/2/41 11/4/42 
f 12/3/43 16/2/44 14/4/45 
f 16/3/46 20/2/47 18/4/48 
s off
f 6/3/49 16/2/50 17/4/51 7/1/52 
f 3/3/53 13/2/54 14/4/55 4/1/56 
f 10/3/57 20/2/58 11/4/59 1/1/60 
f 7/3/61 17/2/62 18/4/63 8/1/64 
f 4/3/65 14/2/66 15/4/67 5/1/68 
f 1/3/69 11/2/70 12/4/71 2/1/72 
f 8/3/73 18/2/74 19/4/75 9/1/76 
f 5/3/77 15/2/78 16/4/79 6/1/80 
f 2/3/81 12/2/82 13/4/83 3/1/84 
f 9/3/85 19/2/86 20/4/87 10/1/88 
# 10 polygons - 16 triangles

