# 3ds Max Wavefront OBJ Exporter v0.97b - (c)2007 guruware
# File Created: 17.06.2020 12:22:24

mtllib T.mtl

#
# object T
#

v  -341.0000 40.0000 -285.0000
v  -341.0000 40.0000 285.0000
v  -253.0000 40.0000 285.0000
v  -253.0000 40.0000 49.0000
v  341.0000 40.0000 49.0000
v  341.0000 40.0000 -49.0000
v  -253.0000 40.0000 -49.0000
v  -253.0000 40.0000 -285.0000
v  -341.0000 -40.0000 -285.0000
v  -341.0000 -40.0000 285.0000
v  -253.0000 -40.0000 285.0000
v  -253.0000 -40.0000 49.0000
v  341.0000 -40.0000 49.0000
v  341.0000 -40.0000 -49.0000
v  -253.0000 -40.0000 -49.0000
v  -253.0000 -40.0000 -285.0000
# 16 vertices

vn 0.5774 0.5774 0.5774
vn -0.5774 0.5774 -0.5774
vn -0.5774 0.5774 0.5774
vn 0.5774 0.5774 0.5774
vn 0.5774 0.5774 -0.5774
vn -0.5774 0.5774 -0.5774
vn -0.5774 0.5774 0.5774
vn 0.5774 0.5774 -0.5774
vn 0.5774 0.5774 0.5774
vn 0.5774 0.5774 0.5774
vn 0.9045 0.3015 -0.3015
vn -0.5774 0.5774 0.5774
vn 0.9045 0.3015 -0.3015
vn 0.5774 0.5774 -0.5774
vn -0.5774 0.5774 0.5774
vn 0.5774 0.5774 0.5774
vn 0.5774 0.5774 -0.5774
vn 0.9045 0.3015 -0.3015
vn 0.5774 -0.5774 0.5774
vn -0.5774 -0.5774 0.5774
vn -0.5774 -0.5774 -0.5774
vn 0.5774 -0.5774 0.5774
vn -0.5774 -0.5774 -0.5774
vn 0.5774 -0.5774 -0.5774
vn 0.9045 -0.3015 0.3015
vn 0.5774 -0.5774 0.5774
vn 0.5774 -0.5774 -0.5774
vn 0.5774 -0.5774 0.5774
vn 0.9045 -0.3015 0.3015
vn -0.5774 -0.5774 -0.5774
vn -0.5774 -0.5774 -0.5774
vn 0.9045 -0.3015 0.3015
vn 0.5774 -0.5774 -0.5774
vn 0.5774 -0.5774 0.5774
vn -0.5774 -0.5774 -0.5774
vn 0.5774 -0.5774 -0.5774
vn -0.5774 0.5774 -0.5774
vn 0.5774 0.5774 -0.5774
vn 0.5774 -0.5774 -0.5774
vn -0.5774 -0.5774 -0.5774
vn 0.5774 0.5774 0.5774
vn -0.5774 0.5774 0.5774
vn -0.5774 -0.5774 0.5774
vn 0.5774 -0.5774 0.5774
vn -0.5774 0.5774 0.5774
vn 0.5774 0.5774 0.5774
vn 0.5774 -0.5774 0.5774
vn 0.9045 -0.3015 0.3015
vn 0.5774 0.5774 -0.5774
vn 0.5774 0.5774 0.5774
vn 0.5774 -0.5774 0.5774
vn 0.5774 -0.5774 -0.5774
vn 0.5774 0.5774 0.5774
vn -0.5774 0.5774 0.5774
vn 0.9045 -0.3015 0.3015
vn 0.5774 -0.5774 0.5774
vn 0.9045 0.3015 -0.3015
vn 0.5774 0.5774 -0.5774
vn 0.5774 -0.5774 -0.5774
vn -0.5774 -0.5774 -0.5774
vn 0.5774 0.5774 -0.5774
vn 0.9045 0.3015 -0.3015
vn -0.5774 -0.5774 -0.5774
vn 0.5774 -0.5774 -0.5774
vn -0.5774 0.5774 0.5774
vn -0.5774 0.5774 -0.5774
vn -0.5774 -0.5774 -0.5774
vn -0.5774 -0.5774 0.5774
# 68 vertex normals

vt 0.0000 1.0000 0.0000
vt 1.0000 0.0000 0.0000
vt 0.0000 0.0000 0.0000
vt 1.0000 1.0000 0.0000
# 4 texture coords

o T
g T
usemtl Primitive_
s 1
f 3/3/1 1/2/2 2/4/3 
f 3/3/4 8/2/5 1/4/6 
f 4/3/7 8/2/8 3/4/9 
f 5/3/10 7/2/11 4/4/12 
s off
f 7/3/13 8/2/14 4/4/15 
s 1
f 5/3/16 6/2/17 7/4/18 
f 11/3/19 10/2/20 9/4/21 
f 11/3/22 9/2/23 16/4/24 
s off
f 12/3/25 11/2/26 16/4/27 
s 1
f 13/3/28 12/2/29 15/4/30 
s off
f 15/3/31 12/2/32 16/4/33 
s 1
f 13/3/34 15/2/35 14/4/36 
s off
f 1/3/37 8/2/38 16/4/39 9/1/40 
f 3/3/41 2/2/42 10/4/43 11/1/44 
f 4/3/45 3/2/46 11/4/47 12/1/48 
f 6/3/49 5/2/50 13/4/51 14/1/52 
f 5/3/53 4/2/54 12/4/55 13/1/56 
f 7/3/57 6/2/58 14/4/59 15/1/60 
f 8/3/61 7/2/62 15/4/63 16/1/64 
f 2/3/65 1/2/66 9/4/67 10/1/68 
# 8 polygons - 12 triangles

