# 3ds Max Wavefront OBJ Exporter v0.97b - (c)2007 guruware
# File Created: 17.06.2020 12:22:42

mtllib T2.mtl

#
# object T2
#

v  562.5000 108.2532 -0.0000
v  437.5000 108.2532 -0.0000
v  437.5000 -108.2532 -0.0000
v  562.5000 -108.2532 -0.0000
v  487.1387 108.2532 -281.2500
v  378.8867 108.2532 -218.7500
v  378.8867 -108.2531 -218.7500
v  487.1387 -108.2531 -281.2500
v  281.2500 108.2532 -487.1396
v  218.7500 108.2532 -378.8857
v  218.7500 -108.2531 -378.8857
v  281.2500 -108.2531 -487.1396
v  0.0000 108.2533 -562.5000
v  0.0000 108.2532 -437.5000
v  0.0000 -108.2531 -437.5000
v  0.0000 -108.2531 -562.5000
v  -281.2500 108.2533 -487.1396
v  -218.7500 108.2532 -378.8857
v  -218.7500 -108.2531 -378.8857
v  -281.2500 -108.2531 -487.1396
v  -487.1387 108.2532 -281.2500
v  -378.8867 108.2532 -218.7500
v  -378.8867 -108.2531 -218.7500
v  -487.1387 -108.2531 -281.2500
v  -562.5000 108.2532 -0.0000
v  -437.5000 108.2532 -0.0000
v  -437.5000 -108.2532 -0.0000
v  -562.5000 -108.2532 -0.0000
v  -487.1387 108.2531 281.2500
v  -378.8867 108.2531 218.7500
v  -378.8867 -108.2532 218.7500
v  -487.1387 -108.2532 281.2500
v  -281.2500 108.2531 487.1396
v  -218.7500 108.2531 378.8857
v  -218.7500 -108.2532 378.8857
v  -281.2500 -108.2533 487.1396
v  0.0000 108.2531 562.5000
v  0.0000 108.2531 437.5000
v  0.0000 -108.2532 437.5000
v  0.0000 -108.2533 562.5000
v  281.2500 108.2531 487.1396
v  218.7500 108.2531 378.8857
v  218.7500 -108.2532 378.8857
v  281.2500 -108.2532 487.1396
v  487.1387 108.2531 281.2500
v  378.8867 108.2531 218.7500
v  378.8867 -108.2532 218.7500
v  487.1387 -108.2532 281.2500
# 48 vertices

vn 0.0000 -0.6533 0.7571
vn 0.3785 -0.6532 0.6557
vn 0.3786 0.6532 0.6557
vn 0.0000 0.6531 0.7572
vn 0.7572 0.6532 0.0000
vn 0.6557 0.6532 -0.3786
vn -0.5522 0.7703 0.3189
vn -0.6377 0.7703 0.0000
vn -0.6377 -0.7703 -0.0000
vn -0.5523 -0.7702 0.3189
vn 0.6557 -0.6533 -0.3785
vn 0.7572 -0.6532 -0.0000
vn 0.3189 -0.7703 -0.5523
vn 0.5522 -0.7703 -0.3189
vn 0.5523 0.7702 -0.3189
vn 0.3189 0.7703 -0.5523
vn 0.6557 0.6532 -0.3786
vn 0.3785 0.6532 -0.6557
vn -0.3189 0.7703 0.5523
vn -0.5522 0.7703 0.3189
vn 0.0000 -0.6531 -0.7572
vn -0.3786 -0.6532 -0.6557
vn -0.3785 0.6532 -0.6557
vn 0.0000 0.6533 -0.7571
vn -0.5523 -0.7702 0.3189
vn -0.3189 -0.7703 0.5523
vn 0.3786 -0.6532 -0.6557
vn 0.6557 -0.6533 -0.3785
vn -0.6557 -0.6533 -0.3785
vn -0.7572 -0.6532 -0.0000
vn -0.7572 0.6532 0.0000
vn -0.6557 0.6532 -0.3786
vn 0.3785 0.6532 -0.6557
vn 0.0000 0.6533 -0.7571
vn 0.0000 0.7703 0.6377
vn -0.3189 0.7703 0.5523
vn -0.3786 -0.6532 -0.6557
vn -0.6557 -0.6533 -0.3785
vn -0.6557 0.6532 -0.3786
vn -0.3785 0.6532 -0.6557
vn -0.3189 -0.7703 0.5523
vn 0.0000 -0.7703 0.6377
vn 0.0000 -0.6531 -0.7572
vn 0.3786 -0.6532 -0.6557
vn 0.7572 -0.6532 -0.0000
vn 0.6557 -0.6533 -0.3785
vn 0.6557 0.6532 -0.3786
vn 0.7572 0.6532 0.0000
vn 0.0000 0.6533 -0.7571
vn -0.3785 0.6532 -0.6557
vn 0.3189 0.7703 0.5523
vn 0.0000 0.7703 0.6377
vn -0.5522 -0.7703 -0.3189
vn -0.3189 -0.7703 -0.5523
vn -0.3189 0.7703 -0.5523
vn -0.5523 0.7702 -0.3189
vn 0.0000 -0.7703 0.6377
vn 0.3189 -0.7703 0.5523
vn -0.3786 -0.6532 -0.6557
vn 0.0000 -0.6531 -0.7572
vn -0.3785 -0.6532 0.6557
vn 0.0000 -0.6533 0.7571
vn 0.0000 0.6531 0.7572
vn -0.3786 0.6532 0.6557
vn -0.3785 0.6532 -0.6557
vn -0.6557 0.6532 -0.3786
vn 0.5522 0.7703 0.3189
vn 0.3189 0.7703 0.5523
vn -0.3189 0.7703 0.5523
vn -0.3189 -0.7703 0.5523
vn -0.5523 -0.7702 0.3189
vn -0.5522 0.7703 0.3189
vn 0.3189 -0.7703 0.5523
vn 0.5523 -0.7702 0.3189
vn -0.6557 -0.6533 -0.3785
vn -0.3786 -0.6532 -0.6557
vn 0.3785 -0.6532 0.6557
vn 0.6557 -0.6532 0.3786
vn 0.6557 0.6533 0.3785
vn 0.3786 0.6532 0.6557
vn -0.6557 0.6532 -0.3786
vn -0.7572 0.6532 0.0000
vn 0.6377 0.7703 0.0000
vn 0.5522 0.7703 0.3189
vn -0.6557 -0.6532 0.3786
vn -0.3785 -0.6532 0.6557
vn -0.3786 0.6532 0.6557
vn -0.6557 0.6533 0.3785
vn 0.5523 -0.7702 0.3189
vn 0.6377 -0.7703 -0.0000
vn -0.7572 -0.6532 -0.0000
vn -0.6557 -0.6533 -0.3785
vn -0.3189 0.7703 -0.5523
vn -0.3189 -0.7703 -0.5523
vn 0.0000 -0.7703 -0.6377
vn 0.0000 0.7703 -0.6377
vn -0.7572 0.6532 0.0000
vn -0.6557 0.6533 0.3785
vn 0.5523 0.7702 -0.3189
vn 0.6377 0.7703 0.0000
vn 0.6377 0.7703 0.0000
vn 0.6377 -0.7703 -0.0000
vn 0.5523 -0.7702 0.3189
vn 0.5522 0.7703 0.3189
vn 0.6377 -0.7703 -0.0000
vn 0.5522 -0.7703 -0.3189
vn -0.6557 -0.6532 0.3786
vn -0.7572 -0.6532 -0.0000
vn 0.3189 0.7703 0.5523
vn 0.3189 -0.7703 0.5523
vn 0.0000 -0.7703 0.6377
vn 0.0000 0.7703 0.6377
vn -0.6557 0.6533 0.3785
vn -0.3786 0.6532 0.6557
vn 0.3189 0.7703 -0.5523
vn 0.5523 0.7702 -0.3189
vn 0.5522 0.7703 0.3189
vn 0.5523 -0.7702 0.3189
vn 0.3189 -0.7703 0.5523
vn 0.3189 0.7703 0.5523
vn 0.5522 -0.7703 -0.3189
vn 0.3189 -0.7703 -0.5523
vn -0.3785 -0.6532 0.6557
vn -0.6557 -0.6532 0.3786
vn -0.5523 -0.7702 0.3189
vn -0.6377 -0.7703 -0.0000
vn -0.6377 0.7703 0.0000
vn -0.5522 0.7703 0.3189
vn -0.3786 0.6532 0.6557
vn 0.0000 0.6531 0.7572
vn 0.0000 0.7703 -0.6377
vn 0.3189 0.7703 -0.5523
vn 0.6557 -0.6532 0.3786
vn 0.7572 -0.6532 -0.0000
vn 0.7572 0.6532 0.0000
vn 0.6557 0.6533 0.3785
vn 0.3189 -0.7703 -0.5523
vn 0.0000 -0.7703 -0.6377
vn 0.0000 -0.6533 0.7571
vn -0.3785 -0.6532 0.6557
vn -0.6377 0.7703 0.0000
vn -0.6377 -0.7703 -0.0000
vn -0.5522 -0.7703 -0.3189
vn -0.5523 0.7702 -0.3189
vn 0.0000 0.6531 0.7572
vn 0.3786 0.6532 0.6557
vn -0.3189 0.7703 -0.5523
vn 0.0000 0.7703 -0.6377
vn 0.6557 -0.6533 -0.3785
vn 0.3786 -0.6532 -0.6557
vn 0.3785 0.6532 -0.6557
vn 0.6557 0.6532 -0.3786
vn 0.0000 -0.7703 -0.6377
vn -0.3189 -0.7703 -0.5523
vn 0.3785 -0.6532 0.6557
vn 0.0000 -0.6533 0.7571
vn 0.0000 -0.7703 -0.6377
vn 0.3189 -0.7703 -0.5523
vn 0.3189 0.7703 -0.5523
vn 0.0000 0.7703 -0.6377
vn 0.3786 0.6532 0.6557
vn 0.6557 0.6533 0.3785
vn -0.5523 0.7702 -0.3189
vn -0.3189 0.7703 -0.5523
vn 0.3786 -0.6532 -0.6557
vn 0.0000 -0.6531 -0.7572
vn 0.0000 0.6533 -0.7571
vn 0.3785 0.6532 -0.6557
vn -0.3189 -0.7703 -0.5523
vn -0.5522 -0.7703 -0.3189
vn 0.6557 -0.6532 0.3786
vn 0.3785 -0.6532 0.6557
vn -0.7572 -0.6532 -0.0000
vn -0.6557 -0.6532 0.3786
vn -0.6557 0.6533 0.3785
vn -0.7572 0.6532 0.0000
vn 0.6557 0.6533 0.3785
vn 0.7572 0.6532 0.0000
vn -0.6377 0.7703 0.0000
vn -0.5523 0.7702 -0.3189
vn 0.0000 0.7703 0.6377
vn 0.0000 -0.7703 0.6377
vn -0.3189 -0.7703 0.5523
vn -0.3189 0.7703 0.5523
vn -0.5522 -0.7703 -0.3189
vn -0.6377 -0.7703 -0.0000
vn 0.7572 -0.6532 -0.0000
vn 0.6557 -0.6532 0.3786
vn 0.5522 -0.7703 -0.3189
vn 0.6377 -0.7703 -0.0000
vn 0.6377 0.7703 0.0000
vn 0.5523 0.7702 -0.3189
# 192 vertex normals

vt 0.0000 1.0000 0.0000
vt 1.0000 0.0000 0.0000
vt 0.0000 0.0000 0.0000
vt 1.0000 1.0000 0.0000
# 4 texture coords

o T2
g T2
usemtl Primitive_
s off
f 40/3/1 44/2/2 41/4/3 37/1/4 
s 1
f 1/3/5 5/2/6 6/4/7 2/1/8 
f 3/3/9 7/2/10 8/4/11 4/1/12 
s off
f 35/3/13 31/2/14 30/4/15 34/1/16 
s 1
f 5/3/17 9/2/18 10/4/19 6/1/20 
s off
f 16/3/21 20/2/22 17/4/23 13/1/24 
s 1
f 7/3/25 11/2/26 12/4/27 8/1/28 
s off
f 24/3/29 28/2/30 25/4/31 21/1/32 
s 1
f 9/3/33 13/2/34 14/4/35 10/1/36 
s off
f 20/3/37 24/2/38 21/4/39 17/1/40 
s 1
f 11/3/41 15/2/42 16/4/43 12/1/44 
s off
f 4/3/45 8/2/46 5/4/47 1/1/48 
s 1
f 13/3/49 17/2/50 18/4/51 14/1/52 
s off
f 47/3/53 43/2/54 42/4/55 46/1/56 
s 1
f 15/3/57 19/2/58 20/4/59 16/1/60 
s off
f 36/3/61 40/2/62 37/4/63 33/1/64 
s 1
f 17/3/65 21/2/66 22/4/67 18/1/68 
s off
f 10/3/69 11/2/70 7/4/71 6/1/72 
s 1
f 19/3/73 23/2/74 24/4/75 20/1/76 
s off
f 44/3/77 48/2/78 45/4/79 41/1/80 
s 1
f 21/3/81 25/2/82 26/4/83 22/1/84 
s off
f 32/3/85 36/2/86 33/4/87 29/1/88 
s 1
f 23/3/89 27/2/90 28/4/91 24/1/92 
s off
f 42/3/93 43/2/94 39/4/95 38/1/96 
s 1
f 25/3/97 29/2/98 30/4/99 26/1/100 
s off
f 26/3/101 27/2/102 23/4/103 22/1/104 
s 1
f 27/3/105 31/2/106 32/4/107 28/1/108 
s off
f 18/3/109 19/2/110 15/4/111 14/1/112 
s 1
f 29/3/113 33/2/114 34/4/115 30/1/116 
s off
f 22/3/117 23/2/118 19/4/119 18/1/120 
s 1
f 31/3/121 35/2/122 36/4/123 32/1/124 
s off
f 7/3/125 3/2/126 2/4/127 6/1/128 
s 1
f 33/3/129 37/2/130 38/4/131 34/1/132 
s off
f 48/3/133 4/2/134 1/4/135 45/1/136 
s 1
f 35/3/137 39/2/138 40/4/139 36/1/140 
s off
f 2/3/141 3/2/142 47/4/143 46/1/144 
s 1
f 37/3/145 41/2/146 42/4/147 38/1/148 
s off
f 8/3/149 12/2/150 9/4/151 5/1/152 
s 1
f 39/3/153 43/2/154 44/4/155 40/1/156 
s off
f 39/3/157 35/2/158 34/4/159 38/1/160 
s 1
f 41/3/161 45/2/162 46/4/163 42/1/164 
s off
f 12/3/165 16/2/166 13/4/167 9/1/168 
s 1
f 43/3/169 47/2/170 48/4/171 44/1/172 
s off
f 28/3/173 32/2/174 29/4/175 25/1/176 
s 1
f 45/3/177 1/2/178 2/4/179 46/1/180 
s off
f 14/3/181 15/2/182 11/4/183 10/1/184 
s 1
f 47/3/185 3/2/186 4/4/187 48/1/188 
s off
f 31/3/189 27/2/190 26/4/191 30/1/192 
# 48 polygons

