# 3ds Max Wavefront OBJ Exporter v0.97b - (c)2007 guruware
# File Created: 17.06.2020 12:22:47

mtllib TU1.mtl

#
# object TU1
#

v  0.0000 -499.9999 -500.0000
v  0.0000 500.0001 -500.0000
v  97.5449 -499.9999 -490.3926
v  97.5449 500.0001 -490.3926
v  191.3418 -499.9999 -461.9395
v  191.3418 500.0000 -461.9395
v  277.7852 -499.9999 -415.7354
v  277.7852 500.0000 -415.7344
v  353.5537 -499.9999 -353.5537
v  353.5537 500.0000 -353.5537
v  415.7344 -499.9999 -277.7852
v  415.7344 500.0000 -277.7852
v  461.9395 -499.9999 -191.3418
v  461.9395 500.0000 -191.3418
v  490.3926 -499.9999 -97.5449
v  490.3926 500.0000 -97.5449
v  500.0000 -500.0000 -0.0000
v  500.0000 500.0000 -0.0000
v  490.3926 -500.0000 97.5449
v  490.3926 499.9999 97.5449
v  461.9395 -500.0000 191.3418
v  461.9395 499.9999 191.3418
v  415.7344 -500.0000 277.7852
v  415.7344 499.9999 277.7852
v  353.5537 -500.0000 353.5537
v  353.5537 499.9999 353.5537
v  277.7852 -500.0000 415.7344
v  277.7852 499.9999 415.7354
v  191.3418 -500.0000 461.9395
v  191.3418 499.9999 461.9395
v  97.5449 -500.0001 490.3926
v  97.5449 499.9999 490.3926
v  0.0000 -500.0001 500.0000
v  0.0000 499.9999 500.0000
v  -97.5449 -500.0001 490.3926
v  -97.5449 499.9999 490.3926
v  -191.3418 -500.0000 461.9395
v  -191.3418 499.9999 461.9395
v  -277.7852 -500.0000 415.7344
v  -277.7852 499.9999 415.7344
v  -353.5537 -500.0000 353.5527
v  -353.5537 499.9999 353.5537
v  -415.7354 -500.0000 277.7852
v  -415.7354 499.9999 277.7852
v  -461.9395 -500.0000 191.3408
v  -461.9395 499.9999 191.3418
v  -490.3926 -500.0000 97.5449
v  -490.3926 499.9999 97.5449
v  -500.0000 -500.0000 -0.0010
v  -500.0000 500.0000 -0.0000
v  -490.3926 -499.9999 -97.5459
v  -490.3926 500.0000 -97.5459
v  -461.9395 -499.9999 -191.3428
v  -461.9395 500.0000 -191.3418
v  -415.7344 -499.9999 -277.7861
v  -415.7344 500.0000 -277.7852
v  -353.5527 -499.9999 -353.5537
v  -353.5527 500.0000 -353.5537
v  -277.7842 -499.9999 -415.7354
v  -277.7842 500.0000 -415.7354
v  -191.3408 -499.9999 -461.9404
v  -191.3408 500.0000 -461.9404
v  -97.5439 -499.9999 -490.3926
v  -97.5439 500.0001 -490.3926
v  0.0000 -499.9999 -400.0000
v  78.0361 -499.9999 -392.3145
v  78.0361 500.0000 -392.3145
v  0.0000 500.0000 -400.0000
v  153.0732 -499.9999 -369.5518
v  153.0732 500.0000 -369.5518
v  222.2285 -499.9999 -332.5879
v  222.2285 500.0000 -332.5879
v  282.8428 -499.9999 -282.8428
v  282.8428 500.0000 -282.8428
v  332.5879 -499.9999 -222.2285
v  332.5879 500.0000 -222.2275
v  369.5518 -499.9999 -153.0732
v  369.5518 500.0000 -153.0732
v  392.3145 -500.0000 -78.0361
v  392.3145 500.0000 -78.0361
v  400.0000 -500.0000 -0.0000
v  400.0000 500.0000 -0.0000
v  392.3145 -500.0000 78.0361
v  392.3145 500.0000 78.0361
v  369.5518 -500.0000 153.0732
v  369.5518 499.9999 153.0732
v  332.5879 -500.0000 222.2275
v  332.5879 499.9999 222.2285
v  282.8428 -500.0000 282.8428
v  282.8428 499.9999 282.8428
v  222.2285 -500.0000 332.5879
v  222.2285 499.9999 332.5879
v  153.0732 -500.0000 369.5518
v  153.0732 499.9999 369.5518
v  78.0361 -500.0000 392.3145
v  78.0361 499.9999 392.3145
v  0.0000 -500.0000 400.0000
v  0.0000 499.9999 400.0000
v  -78.0361 -500.0000 392.3135
v  -78.0361 499.9999 392.3145
v  -153.0732 -500.0000 369.5518
v  -153.0732 499.9999 369.5518
v  -222.2285 -500.0000 332.5879
v  -222.2285 499.9999 332.5879
v  -282.8428 -500.0000 282.8428
v  -282.8428 499.9999 282.8428
v  -332.5879 -500.0000 222.2275
v  -332.5879 499.9999 222.2275
v  -369.5518 -500.0000 153.0732
v  -369.5518 499.9999 153.0732
v  -392.3145 -500.0000 78.0361
v  -392.3145 500.0000 78.0361
v  -400.0000 -500.0000 -0.0010
v  -400.0000 500.0000 -0.0000
v  -392.3145 -500.0000 -78.0371
v  -392.3145 500.0000 -78.0361
v  -369.5518 -499.9999 -153.0742
v  -369.5518 500.0000 -153.0732
v  -332.5879 -499.9999 -222.2285
v  -332.5879 500.0000 -222.2285
v  -282.8428 -499.9999 -282.8428
v  -282.8428 500.0000 -282.8428
v  -222.2275 -499.9999 -332.5879
v  -222.2275 500.0000 -332.5879
v  -153.0732 -499.9999 -369.5518
v  -153.0732 500.0000 -369.5518
v  -78.0352 -499.9999 -392.3145
v  -78.0352 500.0000 -392.3145
# 128 vertices

vn -0.0000 -0.6857 -0.7279
vn -0.0000 0.6857 -0.7279
vn 0.1420 0.6857 -0.7139
vn 0.1420 -0.6857 -0.7139
vn 0.1420 -0.6857 -0.7139
vn 0.1420 0.6857 -0.7139
vn 0.2786 0.6857 -0.6725
vn 0.2785 -0.6857 -0.6725
vn 0.2785 -0.6857 -0.6725
vn 0.2786 0.6857 -0.6725
vn 0.4044 0.6857 -0.6052
vn 0.4044 -0.6857 -0.6052
vn 0.4044 -0.6857 -0.6052
vn 0.4044 0.6857 -0.6052
vn 0.5147 0.6857 -0.5147
vn 0.5147 -0.6857 -0.5147
vn 0.5147 -0.6857 -0.5147
vn 0.5147 0.6857 -0.5147
vn 0.6052 0.6857 -0.4044
vn 0.6052 -0.6857 -0.4044
vn 0.6052 -0.6857 -0.4044
vn 0.6052 0.6857 -0.4044
vn 0.6725 0.6857 -0.2786
vn 0.6725 -0.6857 -0.2786
vn 0.6725 -0.6857 -0.2786
vn 0.6725 0.6857 -0.2786
vn 0.7139 0.6857 -0.1420
vn 0.7139 -0.6857 -0.1420
vn 0.7139 -0.6857 -0.1420
vn 0.7139 0.6857 -0.1420
vn 0.7279 0.6857 0.0000
vn 0.7279 -0.6857 -0.0000
vn 0.7279 -0.6857 -0.0000
vn 0.7279 0.6857 0.0000
vn 0.7139 0.6857 0.1420
vn 0.7139 -0.6857 0.1420
vn 0.7139 -0.6857 0.1420
vn 0.7139 0.6857 0.1420
vn 0.6725 0.6857 0.2786
vn 0.6725 -0.6857 0.2786
vn 0.6725 -0.6857 0.2786
vn 0.6725 0.6857 0.2786
vn 0.6052 0.6857 0.4044
vn 0.6052 -0.6857 0.4044
vn 0.6052 -0.6857 0.4044
vn 0.6052 0.6857 0.4044
vn 0.5147 0.6857 0.5147
vn 0.5147 -0.6857 0.5147
vn 0.5147 -0.6857 0.5147
vn 0.5147 0.6857 0.5147
vn 0.4044 0.6857 0.6052
vn 0.4044 -0.6857 0.6052
vn 0.4044 -0.6857 0.6052
vn 0.4044 0.6857 0.6052
vn 0.2785 0.6857 0.6725
vn 0.2786 -0.6857 0.6725
vn 0.2786 -0.6857 0.6725
vn 0.2785 0.6857 0.6725
vn 0.1420 0.6857 0.7139
vn 0.1420 -0.6857 0.7139
vn 0.1420 -0.6857 0.7139
vn 0.1420 0.6857 0.7139
vn 0.0000 0.6857 0.7279
vn 0.0000 -0.6857 0.7279
vn 0.0000 -0.6857 0.7279
vn 0.0000 0.6857 0.7279
vn -0.1420 0.6857 0.7139
vn -0.1420 -0.6857 0.7139
vn -0.1420 -0.6857 0.7139
vn -0.1420 0.6857 0.7139
vn -0.2786 0.6857 0.6725
vn -0.2786 -0.6857 0.6725
vn -0.2786 -0.6857 0.6725
vn -0.2786 0.6857 0.6725
vn -0.4044 0.6857 0.6052
vn -0.4044 -0.6857 0.6052
vn -0.4044 -0.6857 0.6052
vn -0.4044 0.6857 0.6052
vn -0.5147 0.6857 0.5147
vn -0.5147 -0.6857 0.5147
vn -0.5147 -0.6857 0.5147
vn -0.5147 0.6857 0.5147
vn -0.6052 0.6857 0.4044
vn -0.6052 -0.6857 0.4044
vn -0.6052 -0.6857 0.4044
vn -0.6052 0.6857 0.4044
vn -0.6725 0.6857 0.2785
vn -0.6725 -0.6857 0.2785
vn -0.6725 -0.6857 0.2785
vn -0.6725 0.6857 0.2785
vn -0.7139 0.6857 0.1420
vn -0.7139 -0.6857 0.1420
vn -0.7139 -0.6857 0.1420
vn -0.7139 0.6857 0.1420
vn -0.7279 0.6857 0.0000
vn -0.7279 -0.6857 -0.0000
vn -0.7279 -0.6857 -0.0000
vn -0.7279 0.6857 0.0000
vn -0.7139 0.6857 -0.1420
vn -0.7139 -0.6857 -0.1420
vn -0.7139 -0.6857 -0.1420
vn -0.7139 0.6857 -0.1420
vn -0.6725 0.6857 -0.2786
vn -0.6725 -0.6857 -0.2786
vn -0.6725 -0.6857 -0.2786
vn -0.6725 0.6857 -0.2786
vn -0.6052 0.6857 -0.4044
vn -0.6052 -0.6857 -0.4044
vn -0.6052 -0.6857 -0.4044
vn -0.6052 0.6857 -0.4044
vn -0.5147 0.6857 -0.5147
vn -0.5147 -0.6857 -0.5147
vn -0.5147 -0.6857 -0.5147
vn -0.5147 0.6857 -0.5147
vn -0.4044 0.6857 -0.6052
vn -0.4044 -0.6857 -0.6052
vn -0.4044 -0.6857 -0.6052
vn -0.4044 0.6857 -0.6052
vn -0.2785 0.6857 -0.6725
vn -0.2785 -0.6857 -0.6725
vn 0.7139 0.6857 0.1420
vn 0.7279 0.6857 0.0000
vn -0.6836 0.7298 -0.0000
vn -0.6705 0.7298 -0.1334
vn -0.2785 -0.6857 -0.6725
vn -0.2785 0.6857 -0.6725
vn -0.1420 0.6857 -0.7139
vn -0.1420 -0.6857 -0.7139
vn -0.1420 -0.6857 -0.7139
vn -0.1420 0.6857 -0.7139
vn -0.0000 0.6857 -0.7279
vn -0.0000 -0.6857 -0.7279
vn -0.1420 -0.6857 0.7139
vn -0.2786 -0.6857 0.6725
vn 0.2616 -0.7298 -0.6316
vn 0.1334 -0.7298 -0.6705
vn -0.0000 -0.6857 -0.7279
vn 0.1420 -0.6857 -0.7139
vn -0.1334 -0.7298 0.6705
vn 0.0000 -0.7298 0.6836
vn -0.6725 -0.6857 -0.2786
vn -0.6052 -0.6857 -0.4044
vn 0.5684 -0.7298 0.3798
vn 0.6316 -0.7298 0.2616
vn -0.2786 0.6857 0.6725
vn -0.1420 0.6857 0.7139
vn 0.1334 0.7299 -0.6705
vn 0.2616 0.7298 -0.6316
vn 0.1420 0.6857 -0.7139
vn -0.0000 0.6857 -0.7279
vn 0.0000 0.7298 0.6836
vn -0.1334 0.7298 0.6705
vn -0.6052 0.6857 -0.4044
vn -0.6725 0.6857 -0.2786
vn 0.6316 0.7298 0.2616
vn 0.5684 0.7298 0.3798
vn 0.7139 -0.6857 0.1420
vn 0.6725 -0.6857 0.2786
vn -0.6316 -0.7298 -0.2616
vn -0.6705 -0.7298 -0.1334
vn -0.2786 -0.6857 0.6725
vn -0.4044 -0.6857 0.6052
vn 0.3798 -0.7298 -0.5684
vn 0.2616 -0.7298 -0.6316
vn 0.6725 0.6857 0.2786
vn 0.7139 0.6857 0.1420
vn -0.6705 0.7298 -0.1334
vn -0.6316 0.7298 -0.2616
vn -0.6052 -0.6857 -0.4044
vn -0.5147 -0.6857 -0.5147
vn 0.4834 -0.7298 0.4834
vn 0.5684 -0.7298 0.3798
vn -0.4044 0.6857 0.6052
vn -0.2786 0.6857 0.6725
vn 0.2616 0.7298 -0.6316
vn 0.3798 0.7298 -0.5684
vn 0.1420 -0.6857 -0.7139
vn 0.2785 -0.6857 -0.6725
vn -0.2616 -0.7298 0.6316
vn -0.1334 -0.7298 0.6705
vn -0.5147 0.6857 -0.5147
vn -0.6052 0.6857 -0.4044
vn 0.5684 0.7298 0.3798
vn 0.4834 0.7298 0.4834
vn 0.6725 -0.6857 0.2786
vn 0.6052 -0.6857 0.4044
vn -0.5684 -0.7298 -0.3798
vn -0.6316 -0.7298 -0.2616
vn 0.2786 0.6857 -0.6725
vn 0.1420 0.6857 -0.7139
vn -0.1334 0.7298 0.6705
vn -0.2616 0.7298 0.6316
vn -0.4044 -0.6857 0.6052
vn -0.5147 -0.6857 0.5147
vn 0.4834 -0.7298 -0.4834
vn 0.3798 -0.7298 -0.5684
vn 0.6052 0.6857 0.4044
vn 0.6725 0.6857 0.2786
vn -0.6316 0.7298 -0.2616
vn -0.5684 0.7298 -0.3798
vn -0.5147 -0.6857 -0.5147
vn -0.4044 -0.6857 -0.6052
vn 0.3798 -0.7298 0.5684
vn 0.4834 -0.7298 0.4834
vn -0.5147 0.6857 0.5147
vn -0.4044 0.6857 0.6052
vn 0.3798 0.7298 -0.5684
vn 0.4834 0.7298 -0.4834
vn 0.2785 -0.6857 -0.6725
vn 0.4044 -0.6857 -0.6052
vn -0.3798 -0.7298 0.5684
vn -0.2616 -0.7298 0.6316
vn -0.4044 0.6857 -0.6052
vn -0.5147 0.6857 -0.5147
vn 0.4834 0.7298 0.4834
vn 0.3798 0.7298 0.5684
vn 0.6052 -0.6857 0.4044
vn 0.5147 -0.6857 0.5147
vn -0.4834 -0.7298 -0.4834
vn -0.5684 -0.7298 -0.3798
vn 0.4044 0.6857 -0.6052
vn 0.2786 0.6857 -0.6725
vn -0.2616 0.7298 0.6316
vn -0.3798 0.7298 0.5684
vn -0.5147 -0.6857 0.5147
vn -0.6052 -0.6857 0.4044
vn 0.5684 -0.7298 -0.3798
vn 0.4834 -0.7298 -0.4834
vn 0.5147 0.6857 0.5147
vn 0.6052 0.6857 0.4044
vn -0.5684 0.7298 -0.3798
vn -0.4834 0.7298 -0.4834
vn -0.4044 -0.6857 -0.6052
vn -0.2785 -0.6857 -0.6725
vn 0.2616 -0.7298 0.6316
vn 0.3798 -0.7298 0.5684
vn -0.6052 0.6857 0.4044
vn -0.5147 0.6857 0.5147
vn 0.4834 0.7298 -0.4834
vn 0.5684 0.7298 -0.3798
vn 0.4044 -0.6857 -0.6052
vn 0.5147 -0.6857 -0.5147
vn -0.4834 -0.7298 0.4834
vn -0.3798 -0.7298 0.5684
vn -0.2785 0.6857 -0.6725
vn -0.4044 0.6857 -0.6052
vn 0.3798 0.7298 0.5684
vn 0.2616 0.7298 0.6316
vn 0.5147 -0.6857 0.5147
vn 0.4044 -0.6857 0.6052
vn -0.3798 -0.7298 -0.5684
vn -0.4834 -0.7298 -0.4834
vn 0.5147 0.6857 -0.5147
vn 0.4044 0.6857 -0.6052
vn -0.3798 0.7298 0.5684
vn -0.4834 0.7298 0.4834
vn -0.6052 -0.6857 0.4044
vn -0.6725 -0.6857 0.2785
vn 0.6316 -0.7298 -0.2616
vn 0.5684 -0.7298 -0.3798
vn 0.4044 0.6857 0.6052
vn 0.5147 0.6857 0.5147
vn -0.4834 0.7298 -0.4834
vn -0.3798 0.7298 -0.5684
vn -0.2785 -0.6857 -0.6725
vn -0.1420 -0.6857 -0.7139
vn 0.1334 -0.7298 0.6705
vn 0.2616 -0.7298 0.6316
vn -0.6725 0.6857 0.2785
vn -0.6052 0.6857 0.4044
vn 0.5684 0.7298 -0.3798
vn 0.6316 0.7298 -0.2616
vn 0.5147 -0.6857 -0.5147
vn 0.6052 -0.6857 -0.4044
vn -0.5684 -0.7298 0.3798
vn -0.4834 -0.7298 0.4834
vn -0.1420 0.6857 -0.7139
vn -0.2785 0.6857 -0.6725
vn 0.2616 0.7298 0.6316
vn 0.1334 0.7298 0.6705
vn 0.4044 -0.6857 0.6052
vn 0.2786 -0.6857 0.6725
vn -0.2616 -0.7298 -0.6316
vn -0.3798 -0.7298 -0.5684
vn 0.6052 0.6857 -0.4044
vn 0.5147 0.6857 -0.5147
vn -0.4834 0.7298 0.4834
vn -0.5684 0.7298 0.3798
vn -0.6725 -0.6857 0.2785
vn -0.7139 -0.6857 0.1420
vn 0.6705 -0.7298 -0.1334
vn 0.6316 -0.7298 -0.2616
vn 0.2785 0.6857 0.6725
vn 0.4044 0.6857 0.6052
vn -0.3798 0.7298 -0.5684
vn -0.2616 0.7298 -0.6316
vn -0.1420 -0.6857 -0.7139
vn -0.0000 -0.6857 -0.7279
vn 0.0000 -0.7298 0.6836
vn 0.1334 -0.7298 0.6705
vn -0.7139 0.6857 0.1420
vn -0.6725 0.6857 0.2785
vn 0.6316 0.7298 -0.2616
vn 0.6705 0.7298 -0.1334
vn 0.6052 -0.6857 -0.4044
vn 0.6725 -0.6857 -0.2786
vn -0.6316 -0.7298 0.2616
vn -0.5684 -0.7298 0.3798
vn -0.0000 0.6857 -0.7279
vn -0.1420 0.6857 -0.7139
vn 0.1334 0.7298 0.6705
vn 0.0000 0.7298 0.6836
vn 0.2786 -0.6857 0.6725
vn 0.1420 -0.6857 0.7139
vn -0.1334 -0.7298 -0.6705
vn -0.2616 -0.7298 -0.6316
vn 0.6725 0.6857 -0.2786
vn 0.6052 0.6857 -0.4044
vn -0.5684 0.7298 0.3798
vn -0.6316 0.7298 0.2616
vn -0.7139 -0.6857 0.1420
vn -0.7279 -0.6857 -0.0000
vn 0.6836 -0.7298 0.0000
vn 0.6705 -0.7298 -0.1334
vn 0.1420 0.6857 0.7139
vn 0.2785 0.6857 0.6725
vn -0.2616 0.7298 -0.6316
vn -0.1334 0.7298 -0.6705
vn -0.7279 0.6857 0.0000
vn -0.7139 0.6857 0.1420
vn 0.6705 0.7298 -0.1334
vn 0.6836 0.7298 -0.0000
vn 0.6725 -0.6857 -0.2786
vn 0.7139 -0.6857 -0.1420
vn -0.6705 -0.7298 0.1334
vn -0.6316 -0.7298 0.2616
vn 0.1420 -0.6857 0.7139
vn 0.0000 -0.6857 0.7279
vn 0.0000 -0.7298 -0.6836
vn -0.1334 -0.7298 -0.6705
vn 0.7139 0.6857 -0.1420
vn 0.6725 0.6857 -0.2786
vn -0.6316 0.7298 0.2616
vn -0.6705 0.7298 0.1334
vn -0.7279 -0.6857 -0.0000
vn -0.7139 -0.6857 -0.1420
vn 0.6705 -0.7298 0.1334
vn 0.6836 -0.7298 0.0000
vn 0.0000 0.6857 0.7279
vn 0.1420 0.6857 0.7139
vn -0.1334 0.7298 -0.6705
vn 0.0000 0.7298 -0.6836
vn -0.7139 0.6857 -0.1420
vn -0.7279 0.6857 0.0000
vn 0.6836 0.7298 -0.0000
vn 0.6705 0.7298 0.1334
vn 0.7139 -0.6857 -0.1420
vn 0.7279 -0.6857 -0.0000
vn -0.6836 -0.7298 -0.0000
vn -0.6705 -0.7298 0.1334
vn 0.0000 -0.6857 0.7279
vn -0.1420 -0.6857 0.7139
vn 0.1334 -0.7298 -0.6705
vn 0.0000 -0.7298 -0.6836
vn 0.7279 0.6857 0.0000
vn 0.7139 0.6857 -0.1420
vn -0.6705 0.7298 0.1334
vn -0.6836 0.7298 -0.0000
vn -0.7139 -0.6857 -0.1420
vn -0.6725 -0.6857 -0.2786
vn 0.6316 -0.7298 0.2616
vn 0.6705 -0.7298 0.1334
vn -0.1420 0.6857 0.7139
vn 0.0000 0.6857 0.7279
vn 0.0000 0.7298 -0.6836
vn 0.1334 0.7299 -0.6705
vn -0.6725 0.6857 -0.2786
vn -0.7139 0.6857 -0.1420
vn 0.6705 0.7298 0.1334
vn 0.6316 0.7298 0.2616
vn 0.7279 -0.6857 -0.0000
vn 0.7139 -0.6857 0.1420
vn -0.6705 -0.7298 -0.1334
vn -0.6836 -0.7298 -0.0000
vn -0.2616 -0.7298 0.6316
vn -0.3798 -0.7298 0.5684
vn -0.3798 0.7298 0.5684
vn -0.2616 0.7298 0.6316
vn -0.3798 -0.7298 0.5684
vn -0.4834 -0.7298 0.4834
vn -0.4834 0.7298 0.4834
vn -0.3798 0.7298 0.5684
vn -0.4834 -0.7298 0.4834
vn -0.5684 -0.7298 0.3798
vn -0.5684 0.7298 0.3798
vn -0.4834 0.7298 0.4834
vn -0.5684 -0.7298 0.3798
vn -0.6316 -0.7298 0.2616
vn -0.6316 0.7298 0.2616
vn -0.5684 0.7298 0.3798
vn -0.6316 -0.7298 0.2616
vn -0.6705 -0.7298 0.1334
vn -0.6705 0.7298 0.1334
vn -0.6316 0.7298 0.2616
vn -0.6705 -0.7298 0.1334
vn -0.6836 -0.7298 -0.0000
vn -0.6836 0.7298 -0.0000
vn -0.6705 0.7298 0.1334
vn -0.6836 -0.7298 -0.0000
vn -0.6705 -0.7298 -0.1334
vn -0.6705 0.7298 -0.1334
vn -0.6836 0.7298 -0.0000
vn -0.6705 -0.7298 -0.1334
vn -0.6316 -0.7298 -0.2616
vn -0.6316 0.7298 -0.2616
vn -0.6705 0.7298 -0.1334
vn -0.6316 -0.7298 -0.2616
vn -0.5684 -0.7298 -0.3798
vn -0.5684 0.7298 -0.3798
vn -0.6316 0.7298 -0.2616
vn -0.5684 -0.7298 -0.3798
vn -0.4834 -0.7298 -0.4834
vn -0.4834 0.7298 -0.4834
vn -0.5684 0.7298 -0.3798
vn -0.4834 -0.7298 -0.4834
vn -0.3798 -0.7298 -0.5684
vn -0.3798 0.7298 -0.5684
vn -0.4834 0.7298 -0.4834
vn -0.3798 -0.7298 -0.5684
vn -0.2616 -0.7298 -0.6316
vn -0.2616 0.7298 -0.6316
vn -0.3798 0.7298 -0.5684
vn -0.2616 -0.7298 -0.6316
vn -0.1334 -0.7298 -0.6705
vn -0.1334 0.7298 -0.6705
vn -0.2616 0.7298 -0.6316
vn -0.1334 -0.7298 -0.6705
vn 0.0000 -0.7298 -0.6836
vn 0.0000 0.7298 -0.6836
vn -0.1334 0.7298 -0.6705
vn 0.0000 -0.7298 -0.6836
vn 0.1334 -0.7298 -0.6705
vn 0.1334 0.7299 -0.6705
vn 0.0000 0.7298 -0.6836
vn 0.1334 -0.7298 -0.6705
vn 0.2616 -0.7298 -0.6316
vn 0.2616 0.7298 -0.6316
vn 0.1334 0.7299 -0.6705
vn 0.2616 -0.7298 -0.6316
vn 0.3798 -0.7298 -0.5684
vn 0.3798 0.7298 -0.5684
vn 0.2616 0.7298 -0.6316
vn 0.3798 -0.7298 -0.5684
vn 0.4834 -0.7298 -0.4834
vn 0.4834 0.7298 -0.4834
vn 0.3798 0.7298 -0.5684
vn 0.4834 -0.7298 -0.4834
vn 0.5684 -0.7298 -0.3798
vn 0.5684 0.7298 -0.3798
vn 0.4834 0.7298 -0.4834
vn 0.5684 -0.7298 -0.3798
vn 0.6316 -0.7298 -0.2616
vn 0.6316 0.7298 -0.2616
vn 0.5684 0.7298 -0.3798
vn 0.6316 -0.7298 -0.2616
vn 0.6705 -0.7298 -0.1334
vn 0.6705 0.7298 -0.1334
vn 0.6316 0.7298 -0.2616
vn 0.6705 -0.7298 -0.1334
vn 0.6836 -0.7298 0.0000
vn 0.6836 0.7298 -0.0000
vn 0.6705 0.7298 -0.1334
vn 0.6836 -0.7298 0.0000
vn 0.6705 -0.7298 0.1334
vn 0.6705 0.7298 0.1334
vn 0.6836 0.7298 -0.0000
vn 0.6705 -0.7298 0.1334
vn 0.6316 -0.7298 0.2616
vn 0.6316 0.7298 0.2616
vn 0.6705 0.7298 0.1334
vn 0.6316 -0.7298 0.2616
vn 0.5684 -0.7298 0.3798
vn 0.5684 0.7298 0.3798
vn 0.6316 0.7298 0.2616
vn 0.5684 -0.7298 0.3798
vn 0.4834 -0.7298 0.4834
vn 0.4834 0.7298 0.4834
vn 0.5684 0.7298 0.3798
vn 0.4834 -0.7298 0.4834
vn 0.3798 -0.7298 0.5684
vn 0.3798 0.7298 0.5684
vn 0.4834 0.7298 0.4834
vn 0.3798 -0.7298 0.5684
vn 0.2616 -0.7298 0.6316
vn 0.2616 0.7298 0.6316
vn 0.3798 0.7298 0.5684
vn 0.2616 -0.7298 0.6316
vn 0.1334 -0.7298 0.6705
vn 0.1334 0.7298 0.6705
vn 0.2616 0.7298 0.6316
vn 0.1334 -0.7298 0.6705
vn 0.0000 -0.7298 0.6836
vn 0.0000 0.7298 0.6836
vn 0.1334 0.7298 0.6705
vn 0.0000 -0.7298 0.6836
vn -0.1334 -0.7298 0.6705
vn -0.1334 0.7298 0.6705
vn 0.0000 0.7298 0.6836
vn -0.1334 -0.7298 0.6705
vn -0.2616 -0.7298 0.6316
vn -0.2616 0.7298 0.6316
vn -0.1334 0.7298 0.6705
# 512 vertex normals

vt 0.0000 1.0000 0.0000
vt 1.0000 0.0000 0.0000
vt 0.0000 0.0000 0.0000
vt 1.0000 1.0000 0.0000
# 4 texture coords

o TU1
g TU1
usemtl Primitive_
s off
f 1/3/1 2/2/2 4/4/3 3/1/4 
f 3/3/5 4/2/6 6/4/7 5/1/8 
f 5/3/9 6/2/10 8/4/11 7/1/12 
f 7/3/13 8/2/14 10/4/15 9/1/16 
f 9/3/17 10/2/18 12/4/19 11/1/20 
f 11/3/21 12/2/22 14/4/23 13/1/24 
f 13/3/25 14/2/26 16/4/27 15/1/28 
f 15/3/29 16/2/30 18/4/31 17/1/32 
f 17/3/33 18/2/34 20/4/35 19/1/36 
f 19/3/37 20/2/38 22/4/39 21/1/40 
f 21/3/41 22/2/42 24/4/43 23/1/44 
f 23/3/45 24/2/46 26/4/47 25/1/48 
f 25/3/49 26/2/50 28/4/51 27/1/52 
f 27/3/53 28/2/54 30/4/55 29/1/56 
f 29/3/57 30/2/58 32/4/59 31/1/60 
f 31/3/61 32/2/62 34/4/63 33/1/64 
f 33/3/65 34/2/66 36/4/67 35/1/68 
f 35/3/69 36/2/70 38/4/71 37/1/72 
f 37/3/73 38/2/74 40/4/75 39/1/76 
f 39/3/77 40/2/78 42/4/79 41/1/80 
f 41/3/81 42/2/82 44/4/83 43/1/84 
f 43/3/85 44/2/86 46/4/87 45/1/88 
f 45/3/89 46/2/90 48/4/91 47/1/92 
f 47/3/93 48/2/94 50/4/95 49/1/96 
f 49/3/97 50/2/98 52/4/99 51/1/100 
f 51/3/101 52/2/102 54/4/103 53/1/104 
f 53/3/105 54/2/106 56/4/107 55/1/108 
f 55/3/109 56/2/110 58/4/111 57/1/112 
f 57/3/113 58/2/114 60/4/115 59/1/116 
f 59/3/117 60/2/118 62/4/119 61/1/120 
s 1
f 20/3/121 18/2/122 82/4/123 84/1/124 
s off
f 61/3/125 62/2/126 64/4/127 63/1/128 
f 63/3/129 64/2/130 2/4/131 1/1/132 
s 1
f 35/3/133 37/2/134 101/4/135 99/1/136 
f 1/3/137 3/2/138 66/4/139 65/1/140 
f 53/3/141 55/2/142 119/4/143 117/1/144 
f 38/3/145 36/2/146 100/4/147 102/1/148 
f 4/3/149 2/2/150 68/4/151 67/1/152 
f 56/3/153 54/2/154 118/4/155 120/1/156 
f 19/3/157 21/2/158 85/4/159 83/1/160 
f 37/3/161 39/2/162 103/4/163 101/1/164 
f 22/3/165 20/2/166 84/4/167 86/1/168 
f 55/3/169 57/2/170 121/4/171 119/1/172 
f 40/3/173 38/2/174 102/4/175 104/1/176 
f 3/3/177 5/2/178 69/4/179 66/1/180 
f 58/3/181 56/2/182 120/4/183 122/1/184 
f 21/3/185 23/2/186 87/4/187 85/1/188 
f 6/3/189 4/2/190 67/4/191 70/1/192 
f 39/3/193 41/2/194 105/4/195 103/1/196 
f 24/3/197 22/2/198 86/4/199 88/1/200 
f 57/3/201 59/2/202 123/4/203 121/1/204 
f 42/3/205 40/2/206 104/4/207 106/1/208 
f 5/3/209 7/2/210 71/4/211 69/1/212 
f 60/3/213 58/2/214 122/4/215 124/1/216 
f 23/3/217 25/2/218 89/4/219 87/1/220 
f 8/3/221 6/2/222 70/4/223 72/1/224 
f 41/3/225 43/2/226 107/4/227 105/1/228 
f 26/3/229 24/2/230 88/4/231 90/1/232 
f 59/3/233 61/2/234 125/4/235 123/1/236 
f 44/3/237 42/2/238 106/4/239 108/1/240 
f 7/3/241 9/2/242 73/4/243 71/1/244 
f 62/3/245 60/2/246 124/4/247 126/1/248 
f 25/3/249 27/2/250 91/4/251 89/1/252 
f 10/3/253 8/2/254 72/4/255 74/1/256 
f 43/3/257 45/2/258 109/4/259 107/1/260 
f 28/3/261 26/2/262 90/4/263 92/1/264 
f 61/3/265 63/2/266 127/4/267 125/1/268 
f 46/3/269 44/2/270 108/4/271 110/1/272 
f 9/3/273 11/2/274 75/4/275 73/1/276 
f 64/3/277 62/2/278 126/4/279 128/1/280 
f 27/3/281 29/2/282 93/4/283 91/1/284 
f 12/3/285 10/2/286 74/4/287 76/1/288 
f 45/3/289 47/2/290 111/4/291 109/1/292 
f 30/3/293 28/2/294 92/4/295 94/1/296 
f 63/3/297 1/2/298 65/4/299 127/1/300 
f 48/3/301 46/2/302 110/4/303 112/1/304 
f 11/3/305 13/2/306 77/4/307 75/1/308 
f 2/3/309 64/2/310 128/4/311 68/1/312 
f 29/3/313 31/2/314 95/4/315 93/1/316 
f 14/3/317 12/2/318 76/4/319 78/1/320 
f 47/3/321 49/2/322 113/4/323 111/1/324 
f 32/3/325 30/2/326 94/4/327 96/1/328 
f 50/3/329 48/2/330 112/4/331 114/1/332 
f 13/3/333 15/2/334 79/4/335 77/1/336 
f 31/3/337 33/2/338 97/4/339 95/1/340 
f 16/3/341 14/2/342 78/4/343 80/1/344 
f 49/3/345 51/2/346 115/4/347 113/1/348 
f 34/3/349 32/2/350 96/4/351 98/1/352 
f 52/3/353 50/2/354 114/4/355 116/1/356 
f 15/3/357 17/2/358 81/4/359 79/1/360 
f 33/3/361 35/2/362 99/4/363 97/1/364 
f 18/3/365 16/2/366 80/4/367 82/1/368 
f 51/3/369 53/2/370 117/4/371 115/1/372 
f 36/3/373 34/2/374 98/4/375 100/1/376 
f 54/3/377 52/2/378 116/4/379 118/1/380 
f 17/3/381 19/2/382 83/4/383 81/1/384 
s off
f 69/3/385 71/2/386 72/4/387 70/1/388 
f 71/3/389 73/2/390 74/4/391 72/1/392 
f 73/3/393 75/2/394 76/4/395 74/1/396 
f 75/3/397 77/2/398 78/4/399 76/1/400 
f 77/3/401 79/2/402 80/4/403 78/1/404 
f 79/3/405 81/2/406 82/4/407 80/1/408 
f 81/3/409 83/2/410 84/4/411 82/1/412 
f 83/3/413 85/2/414 86/4/415 84/1/416 
f 85/3/417 87/2/418 88/4/419 86/1/420 
f 87/3/421 89/2/422 90/4/423 88/1/424 
f 89/3/425 91/2/426 92/4/427 90/1/428 
f 91/3/429 93/2/430 94/4/431 92/1/432 
f 93/3/433 95/2/434 96/4/435 94/1/436 
f 95/3/437 97/2/438 98/4/439 96/1/440 
f 97/3/441 99/2/442 100/4/443 98/1/444 
f 99/3/445 101/2/446 102/4/447 100/1/448 
f 101/3/449 103/2/450 104/4/451 102/1/452 
f 103/3/453 105/2/454 106/4/455 104/1/456 
f 105/3/457 107/2/458 108/4/459 106/1/460 
f 107/3/461 109/2/462 110/4/463 108/1/464 
f 109/3/465 111/2/466 112/4/467 110/1/468 
f 111/3/469 113/2/470 114/4/471 112/1/472 
f 113/3/473 115/2/474 116/4/475 114/1/476 
f 115/3/477 117/2/478 118/4/479 116/1/480 
f 117/3/481 119/2/482 120/4/483 118/1/484 
f 119/3/485 121/2/486 122/4/487 120/1/488 
f 121/3/489 123/2/490 124/4/491 122/1/492 
f 123/3/493 125/2/494 126/4/495 124/1/496 
f 125/3/497 127/2/498 128/4/499 126/1/500 
f 127/3/501 65/2/502 68/4/503 128/1/504 
f 65/3/505 66/2/506 67/4/507 68/1/508 
f 66/3/509 69/2/510 70/4/511 67/1/512 
# 128 polygons

