# 3ds Max Wavefront OBJ Exporter v0.97b - (c)2007 guruware
# File Created: 17.06.2020 12:22:24

mtllib U.mtl

#
# object U
#

v  -345.4897 40.0000 -293.5000
v  -345.4897 40.0000 -195.5002
v  80.4429 40.0000 -195.0999
v  132.8770 40.0000 -188.6235
v  172.1963 40.0000 -174.0032
v  195.8115 40.0000 -157.1399
v  219.0894 40.0000 -130.7429
v  242.4766 40.0000 -82.6670
v  252.6436 40.0000 -36.7451
v  255.8164 40.0000 6.6558
v  251.0469 40.0000 57.2471
v  233.4858 40.0000 106.7043
v  202.8828 40.0000 149.7378
v  173.2192 40.0000 174.4314
v  141.0142 40.0000 188.2229
v  90.6265 40.0000 195.0212
v  -345.4897 40.0000 195.5000
v  -345.4897 39.9999 293.5000
v  112.1777 40.0000 292.2539
v  162.8711 40.0000 282.4626
v  198.6978 40.0000 269.3743
v  230.3989 40.0000 251.8696
v  258.0586 40.0000 230.4207
v  281.7603 40.0000 205.4990
v  310.0723 40.0000 163.8054
v  334.9731 40.0000 98.7788
v  345.4897 40.0000 28.0466
v  343.2490 40.0000 -39.1064
v  336.5889 40.0000 -83.4307
v  325.7134 40.0000 -123.4846
v  310.8066 40.0000 -159.2778
v  292.0522 40.0000 -190.8213
v  269.6353 40.0000 -218.1248
v  243.7388 40.0000 -241.1995
v  214.5474 40.0000 -260.0554
v  182.2446 40.0000 -274.7031
v  147.0146 40.0000 -285.1523
v  99.3716 40.0000 -292.5815
v  -345.4897 -39.9975 -293.5000
v  -345.4897 -40.0000 -195.5002
v  80.4429 -39.9975 -195.0999
v  132.8770 -39.9975 -188.6235
v  172.1963 -40.0000 -174.0032
v  195.8115 -40.0000 -157.1399
v  219.0894 -40.0000 -130.7429
v  242.4766 -40.0000 -82.6670
v  252.6436 -40.0000 -36.7451
v  255.8164 -40.0000 6.6558
v  251.0469 -39.9976 57.2471
v  233.4858 -40.0000 106.7041
v  202.8828 -40.0000 149.7378
v  173.2192 -40.0000 174.4314
v  141.0142 -40.0000 188.2229
v  90.6265 -40.0000 195.0212
v  -345.4897 -40.0000 195.5000
v  -345.4897 -40.0000 293.5000
v  112.1777 -39.9976 292.2539
v  162.8711 -40.0000 282.4626
v  198.6978 -40.0000 269.3743
v  230.3989 -40.0000 251.8696
v  258.0586 -40.0000 230.4207
v  281.7603 -40.0000 205.4990
v  310.0723 -40.0000 163.8054
v  334.9731 -39.9976 98.7788
v  345.4897 -40.0000 28.0466
v  343.2490 -40.0000 -39.1064
v  336.5889 -39.9975 -83.4307
v  325.7134 -40.0000 -123.4846
v  310.8066 -40.0000 -159.2778
v  292.0522 -40.0000 -190.8213
v  269.6353 -40.0000 -218.1248
v  243.7388 -40.0000 -241.1995
v  214.5474 -40.0000 -260.0554
v  182.2446 -40.0000 -274.7031
v  147.0146 -40.0000 -285.1523
v  99.3716 -40.0000 -292.5815
# 76 vertices

vn 0.0702 0.6866 0.7237
vn -0.5776 0.5774 -0.5770
vn -0.5766 0.5772 0.5782
vn 0.0702 0.6866 0.7237
vn -0.0467 0.7224 -0.6899
vn -0.5776 0.5774 -0.5770
vn -0.0429 0.7211 0.6915
vn -0.5768 0.5772 -0.5780
vn -0.5776 0.5774 0.5771
vn -0.0429 0.7211 0.6915
vn 0.0566 0.6903 -0.7213
vn -0.5768 0.5772 -0.5780
vn -0.1610 0.7342 0.6595
vn 0.0566 0.6903 -0.7213
vn -0.0429 0.7211 0.6915
vn 0.0702 0.6866 0.7237
vn -0.1794 0.7388 -0.6497
vn -0.0467 0.7224 -0.6899
vn -0.1610 0.7342 0.6595
vn 0.1585 0.6924 -0.7039
vn 0.0566 0.6903 -0.7213
vn 0.1935 0.6896 0.6978
vn -0.1794 0.7388 -0.6497
vn 0.0702 0.6866 0.7237
vn -0.1610 0.7342 0.6595
vn 0.2523 0.6920 -0.6764
vn 0.1585 0.6924 -0.7039
vn -0.3164 0.7380 0.5960
vn 0.2523 0.6920 -0.6764
vn -0.1610 0.7342 0.6595
vn 0.1935 0.6896 0.6978
vn -0.3506 0.7411 -0.5726
vn -0.1794 0.7388 -0.6497
vn 0.2999 0.6902 0.6586
vn -0.3506 0.7411 -0.5726
vn 0.1935 0.6896 0.6978
vn 0.2999 0.6902 0.6586
vn -0.4955 0.7373 -0.4592
vn -0.3506 0.7411 -0.5726
vn -0.4553 0.7336 0.5045
vn 0.2523 0.6920 -0.6764
vn -0.3164 0.7380 0.5960
vn -0.4553 0.7336 0.5045
vn 0.3464 0.6909 -0.6346
vn 0.2523 0.6920 -0.6764
vn 0.3979 0.6901 0.6046
vn -0.4955 0.7373 -0.4592
vn 0.2999 0.6902 0.6586
vn -0.5609 0.7387 0.3737
vn 0.3464 0.6909 -0.6346
vn -0.4553 0.7336 0.5045
vn -0.5609 0.7387 0.3737
vn 0.4383 0.6902 -0.5758
vn 0.3464 0.6909 -0.6346
vn 0.3979 0.6901 0.6046
vn -0.5971 0.7395 -0.3106
vn -0.4955 0.7373 -0.4592
vn -0.6409 0.7345 0.2233
vn 0.4383 0.6902 -0.5758
vn -0.5609 0.7387 0.3737
vn 0.4851 0.6905 0.5365
vn -0.5971 0.7395 -0.3106
vn 0.3979 0.6901 0.6046
vn 0.4851 0.6905 0.5365
vn -0.6611 0.7359 -0.1462
vn -0.5971 0.7395 -0.3106
vn -0.6409 0.7345 0.2233
vn 0.5220 0.6900 -0.5013
vn 0.4383 0.6902 -0.5758
vn -0.6827 0.7238 0.1000
vn 0.5220 0.6900 -0.5013
vn -0.6409 0.7345 0.2233
vn -0.6873 0.7263 -0.0072
vn 0.5220 0.6900 -0.5013
vn -0.6827 0.7238 0.1000
vn 0.4851 0.6905 0.5365
vn -0.6873 0.7263 -0.0072
vn -0.6611 0.7359 -0.1462
vn 0.4851 0.6905 0.5365
vn 0.5220 0.6900 -0.5013
vn -0.6873 0.7263 -0.0072
vn 0.5642 0.6892 0.4547
vn 0.5220 0.6900 -0.5013
vn 0.4851 0.6905 0.5365
vn 0.5642 0.6892 0.4547
vn 0.5921 0.6905 -0.4155
vn 0.5220 0.6900 -0.5013
vn 0.6483 0.6821 0.3384
vn 0.5921 0.6905 -0.4155
vn 0.5642 0.6892 0.4547
vn 0.6483 0.6821 0.3384
vn 0.6455 0.6915 -0.3242
vn 0.5921 0.6905 -0.4155
vn 0.6483 0.6821 0.3384
vn 0.6823 0.6928 -0.2336
vn 0.6455 0.6915 -0.3242
vn 0.7061 0.6834 0.1853
vn 0.6823 0.6928 -0.2336
vn 0.6483 0.6821 0.3384
vn 0.7061 0.6834 0.1853
vn 0.7043 0.6943 -0.1480
vn 0.6823 0.6928 -0.2336
vn 0.7061 0.6834 0.1853
vn 0.7167 0.6943 -0.0656
vn 0.7043 0.6943 -0.1480
vn 0.7252 0.6873 0.0415
vn 0.7167 0.6943 -0.0656
vn 0.7061 0.6834 0.1853
vn 0.0702 -0.6866 0.7237
vn -0.5766 -0.5772 0.5782
vn -0.5776 -0.5774 -0.5770
vn 0.0702 -0.6866 0.7237
vn -0.5776 -0.5774 -0.5770
vn -0.0467 -0.7224 -0.6899
vn -0.0429 -0.7211 0.6915
vn -0.5776 -0.5774 0.5770
vn -0.5768 -0.5772 -0.5780
vn -0.0429 -0.7211 0.6915
vn -0.5768 -0.5772 -0.5780
vn 0.0566 -0.6904 -0.7213
vn -0.1610 -0.7342 0.6595
vn -0.0429 -0.7211 0.6915
vn 0.0566 -0.6904 -0.7213
vn 0.0702 -0.6866 0.7237
vn -0.0467 -0.7224 -0.6899
vn -0.1794 -0.7388 -0.6497
vn -0.1610 -0.7342 0.6595
vn 0.0566 -0.6904 -0.7213
vn 0.1585 -0.6924 -0.7039
vn 0.1935 -0.6896 0.6978
vn 0.0702 -0.6866 0.7237
vn -0.1794 -0.7388 -0.6497
vn -0.1610 -0.7342 0.6595
vn 0.1585 -0.6924 -0.7039
vn 0.2523 -0.6920 -0.6764
vn -0.3164 -0.7380 0.5960
vn -0.1610 -0.7342 0.6595
vn 0.2523 -0.6920 -0.6764
vn 0.1935 -0.6896 0.6978
vn -0.1794 -0.7388 -0.6497
vn -0.3506 -0.7411 -0.5726
vn 0.2999 -0.6902 0.6586
vn 0.1935 -0.6896 0.6978
vn -0.3506 -0.7411 -0.5726
vn 0.2999 -0.6902 0.6586
vn -0.3506 -0.7411 -0.5726
vn -0.4955 -0.7373 -0.4592
vn -0.4553 -0.7336 0.5045
vn -0.3164 -0.7380 0.5960
vn 0.2523 -0.6920 -0.6764
vn -0.4553 -0.7336 0.5045
vn 0.2523 -0.6920 -0.6764
vn 0.3464 -0.6909 -0.6346
vn 0.3979 -0.6901 0.6046
vn 0.2999 -0.6902 0.6586
vn -0.4955 -0.7373 -0.4592
vn -0.5609 -0.7387 0.3737
vn -0.4553 -0.7336 0.5045
vn 0.3464 -0.6909 -0.6346
vn -0.5609 -0.7387 0.3737
vn 0.3464 -0.6909 -0.6346
vn 0.4383 -0.6902 -0.5758
vn 0.3979 -0.6901 0.6046
vn -0.4955 -0.7373 -0.4592
vn -0.5971 -0.7396 -0.3107
vn -0.6409 -0.7345 0.2233
vn -0.5609 -0.7387 0.3737
vn 0.4383 -0.6902 -0.5758
vn 0.4851 -0.6905 0.5365
vn 0.3979 -0.6901 0.6046
vn -0.5971 -0.7396 -0.3107
vn 0.4851 -0.6905 0.5365
vn -0.5971 -0.7396 -0.3107
vn -0.6613 -0.7358 -0.1461
vn -0.6409 -0.7345 0.2233
vn 0.4383 -0.6902 -0.5758
vn 0.5220 -0.6900 -0.5013
vn -0.6828 -0.7237 0.1000
vn -0.6409 -0.7345 0.2233
vn 0.5220 -0.6900 -0.5013
vn -0.6872 -0.7264 -0.0072
vn -0.6828 -0.7237 0.1000
vn 0.5220 -0.6900 -0.5013
vn 0.4851 -0.6905 0.5365
vn -0.6613 -0.7358 -0.1461
vn -0.6872 -0.7264 -0.0072
vn 0.4851 -0.6905 0.5365
vn -0.6872 -0.7264 -0.0072
vn 0.5220 -0.6900 -0.5013
vn 0.5642 -0.6892 0.4547
vn 0.4851 -0.6905 0.5365
vn 0.5220 -0.6900 -0.5013
vn 0.5642 -0.6892 0.4547
vn 0.5220 -0.6900 -0.5013
vn 0.5921 -0.6905 -0.4155
vn 0.6483 -0.6821 0.3384
vn 0.5642 -0.6892 0.4547
vn 0.5921 -0.6905 -0.4155
vn 0.6483 -0.6821 0.3384
vn 0.5921 -0.6905 -0.4155
vn 0.6455 -0.6915 -0.3243
vn 0.6483 -0.6821 0.3384
vn 0.6455 -0.6915 -0.3243
vn 0.6822 -0.6929 -0.2336
vn 0.7062 -0.6834 0.1853
vn 0.6483 -0.6821 0.3384
vn 0.6822 -0.6929 -0.2336
vn 0.7062 -0.6834 0.1853
vn 0.6822 -0.6929 -0.2336
vn 0.7044 -0.6942 -0.1480
vn 0.7062 -0.6834 0.1853
vn 0.7044 -0.6942 -0.1480
vn 0.7165 -0.6945 -0.0656
vn 0.7251 -0.6874 0.0415
vn 0.7062 -0.6834 0.1853
vn 0.7165 -0.6945 -0.0656
vn 0.4383 0.6902 -0.5758
vn 0.5220 0.6900 -0.5013
vn 0.5220 -0.6900 -0.5013
vn 0.4383 -0.6902 -0.5758
vn 0.5220 0.6900 -0.5013
vn 0.5921 0.6905 -0.4155
vn 0.5921 -0.6905 -0.4155
vn 0.5220 -0.6900 -0.5013
vn 0.6455 0.6915 -0.3242
vn 0.6823 0.6928 -0.2336
vn 0.6822 -0.6929 -0.2336
vn 0.6455 -0.6915 -0.3243
vn 0.5921 0.6905 -0.4155
vn 0.6455 0.6915 -0.3242
vn 0.6455 -0.6915 -0.3243
vn 0.5921 -0.6905 -0.4155
vn 0.3464 0.6909 -0.6346
vn 0.4383 0.6902 -0.5758
vn 0.4383 -0.6902 -0.5758
vn 0.3464 -0.6909 -0.6346
vn 0.2523 0.6920 -0.6764
vn 0.3464 0.6909 -0.6346
vn 0.3464 -0.6909 -0.6346
vn 0.2523 -0.6920 -0.6764
vn 0.1935 0.6896 0.6978
vn 0.0702 0.6866 0.7237
vn 0.0702 -0.6866 0.7237
vn 0.1935 -0.6896 0.6978
vn 0.0566 0.6903 -0.7213
vn 0.1585 0.6924 -0.7039
vn 0.1585 -0.6924 -0.7039
vn 0.0566 -0.6904 -0.7213
vn 0.1585 0.6924 -0.7039
vn 0.2523 0.6920 -0.6764
vn 0.2523 -0.6920 -0.6764
vn 0.1585 -0.6924 -0.7039
vn -0.5776 0.5774 -0.5770
vn -0.0467 0.7224 -0.6899
vn -0.0467 -0.7224 -0.6899
vn -0.5776 -0.5774 -0.5770
vn -0.5766 0.5772 0.5782
vn -0.5776 0.5774 -0.5770
vn -0.5776 -0.5774 -0.5770
vn -0.5766 -0.5772 0.5782
vn 0.0702 0.6866 0.7237
vn -0.5766 0.5772 0.5782
vn -0.5766 -0.5772 0.5782
vn 0.0702 -0.6866 0.7237
vn -0.0467 0.7224 -0.6899
vn -0.1794 0.7388 -0.6497
vn -0.1794 -0.7388 -0.6497
vn -0.0467 -0.7224 -0.6899
vn -0.0429 0.7211 0.6915
vn -0.5776 0.5774 0.5771
vn -0.5776 -0.5774 0.5770
vn -0.0429 -0.7211 0.6915
vn -0.3506 0.7411 -0.5726
vn -0.4955 0.7373 -0.4592
vn -0.4955 -0.7373 -0.4592
vn -0.3506 -0.7411 -0.5726
vn -0.1794 0.7388 -0.6497
vn -0.3506 0.7411 -0.5726
vn -0.3506 -0.7411 -0.5726
vn -0.1794 -0.7388 -0.6497
vn -0.5776 0.5774 0.5771
vn -0.5768 0.5772 -0.5780
vn -0.5768 -0.5772 -0.5780
vn -0.5776 -0.5774 0.5770
vn -0.6827 0.7238 0.1000
vn -0.6409 0.7345 0.2233
vn -0.6409 -0.7345 0.2233
vn -0.6828 -0.7237 0.1000
vn -0.6873 0.7263 -0.0072
vn -0.6827 0.7238 0.1000
vn -0.6828 -0.7237 0.1000
vn -0.6872 -0.7264 -0.0072
vn -0.6409 0.7345 0.2233
vn -0.5609 0.7387 0.3737
vn -0.5609 -0.7387 0.3737
vn -0.6409 -0.7345 0.2233
vn -0.6611 0.7359 -0.1462
vn -0.6873 0.7263 -0.0072
vn -0.6872 -0.7264 -0.0072
vn -0.6613 -0.7358 -0.1461
vn -0.5609 0.7387 0.3737
vn -0.4553 0.7336 0.5045
vn -0.4553 -0.7336 0.5045
vn -0.5609 -0.7387 0.3737
vn -0.1610 0.7342 0.6595
vn -0.0429 0.7211 0.6915
vn -0.0429 -0.7211 0.6915
vn -0.1610 -0.7342 0.6595
vn -0.4955 0.7373 -0.4592
vn -0.5971 0.7395 -0.3106
vn -0.5971 -0.7396 -0.3107
vn -0.4955 -0.7373 -0.4592
vn -0.4553 0.7336 0.5045
vn -0.3164 0.7380 0.5960
vn -0.3164 -0.7380 0.5960
vn -0.4553 -0.7336 0.5045
vn -0.3164 0.7380 0.5960
vn -0.1610 0.7342 0.6595
vn -0.1610 -0.7342 0.6595
vn -0.3164 -0.7380 0.5960
vn -0.5971 0.7395 -0.3106
vn -0.6611 0.7359 -0.1462
vn -0.6613 -0.7358 -0.1461
vn -0.5971 -0.7396 -0.3107
vn -0.5768 0.5772 -0.5780
vn 0.0566 0.6903 -0.7213
vn 0.0566 -0.6904 -0.7213
vn -0.5768 -0.5772 -0.5780
vn 0.2999 0.6902 0.6586
vn 0.1935 0.6896 0.6978
vn 0.1935 -0.6896 0.6978
vn 0.2999 -0.6902 0.6586
vn 0.3979 0.6901 0.6046
vn 0.2999 0.6902 0.6586
vn 0.2999 -0.6902 0.6586
vn 0.3979 -0.6901 0.6046
vn 0.5642 0.6892 0.4547
vn 0.4851 0.6905 0.5365
vn 0.4851 -0.6905 0.5365
vn 0.5642 -0.6892 0.4547
vn 0.6483 0.6821 0.3384
vn 0.5642 0.6892 0.4547
vn 0.5642 -0.6892 0.4547
vn 0.6483 -0.6821 0.3384
vn 0.4851 0.6905 0.5365
vn 0.3979 0.6901 0.6046
vn 0.3979 -0.6901 0.6046
vn 0.4851 -0.6905 0.5365
vn 0.7167 0.6943 -0.0656
vn 0.7252 0.6873 0.0415
vn 0.7251 -0.6874 0.0415
vn 0.7165 -0.6945 -0.0656
vn 0.6823 0.6928 -0.2336
vn 0.7043 0.6943 -0.1480
vn 0.7044 -0.6942 -0.1480
vn 0.6822 -0.6929 -0.2336
vn 0.7043 0.6943 -0.1480
vn 0.7167 0.6943 -0.0656
vn 0.7165 -0.6945 -0.0656
vn 0.7044 -0.6942 -0.1480
vn 0.7061 0.6834 0.1853
vn 0.6483 0.6821 0.3384
vn 0.6483 -0.6821 0.3384
vn 0.7062 -0.6834 0.1853
vn 0.7252 0.6873 0.0415
vn 0.7061 0.6834 0.1853
vn 0.7062 -0.6834 0.1853
vn 0.7251 -0.6874 0.0415
# 368 vertex normals

vt 0.0000 1.0000 0.0000
vt 1.0000 0.0000 0.0000
vt 0.0000 0.0000 0.0000
vt 1.0000 1.0000 0.0000
# 4 texture coords

o U
g U
usemtl Primitive_
s 1
f 19/3/1 17/2/2 18/4/3 
f 19/3/4 16/2/5 17/4/6 
f 3/3/7 1/2/8 2/4/9 
f 3/3/10 38/2/11 1/4/12 
f 4/3/13 38/2/14 3/4/15 
f 19/3/16 15/2/17 16/4/18 
f 4/3/19 37/2/20 38/4/21 
f 20/3/22 15/2/23 19/4/24 
f 4/3/25 36/2/26 37/4/27 
f 5/3/28 36/2/29 4/4/30 
f 20/3/31 14/2/32 15/4/33 
f 21/3/34 14/2/35 20/4/36 
f 21/3/37 13/2/38 14/4/39 
f 6/3/40 36/2/41 5/4/42 
f 6/3/43 35/2/44 36/4/45 
f 22/3/46 13/2/47 21/4/48 
f 7/3/49 35/2/50 6/4/51 
f 7/3/52 34/2/53 35/4/54 
f 22/3/55 12/2/56 13/4/57 
f 8/3/58 34/2/59 7/4/60 
f 23/3/61 12/2/62 22/4/63 
f 23/3/64 11/2/65 12/4/66 
f 8/3/67 33/2/68 34/4/69 
f 9/3/70 33/2/71 8/4/72 
f 10/3/73 33/2/74 9/4/75 
f 23/3/76 10/2/77 11/4/78 
f 23/3/79 33/2/80 10/4/81 
f 24/3/82 33/2/83 23/4/84 
f 24/3/85 32/2/86 33/4/87 
f 25/3/88 32/2/89 24/4/90 
f 25/3/91 31/2/92 32/4/93 
f 25/3/94 30/2/95 31/4/96 
f 26/3/97 30/2/98 25/4/99 
f 26/3/100 29/2/101 30/4/102 
f 26/3/103 28/2/104 29/4/105 
f 27/3/106 28/2/107 26/4/108 
s off
f 57/3/109 56/2/110 55/4/111 
f 57/3/112 55/2/113 54/4/114 
f 41/3/115 40/2/116 39/4/117 
f 41/3/118 39/2/119 76/4/120 
s 1
f 42/3/121 41/2/122 76/4/123 
s off
f 57/3/124 54/2/125 53/4/126 
s 1
f 42/3/127 76/2/128 75/4/129 
s off
f 58/3/130 57/2/131 53/4/132 
f 42/3/133 75/2/134 74/4/135 
f 43/3/136 42/2/137 74/4/138 
s 1
f 58/3/139 53/2/140 52/4/141 
f 59/3/142 58/2/143 52/4/144 
f 59/3/145 52/2/146 51/4/147 
f 44/3/148 43/2/149 74/4/150 
f 44/3/151 74/2/152 73/4/153 
f 60/3/154 59/2/155 51/4/156 
f 45/3/157 44/2/158 73/4/159 
f 45/3/160 73/2/161 72/4/162 
f 60/3/163 51/2/164 50/4/165 
f 46/3/166 45/2/167 72/4/168 
f 61/3/169 60/2/170 50/4/171 
s off
f 61/3/172 50/2/173 49/4/174 
s 1
f 46/3/175 72/2/176 71/4/177 
f 47/3/178 46/2/179 71/4/180 
f 48/3/181 47/2/182 71/4/183 
s off
f 61/3/184 49/2/185 48/4/186 
s 1
f 61/3/187 48/2/188 71/4/189 
f 62/3/190 61/2/191 71/4/192 
f 62/3/193 71/2/194 70/4/195 
f 63/3/196 62/2/197 70/4/198 
f 63/3/199 70/2/200 69/4/201 
f 63/3/202 69/2/203 68/4/204 
s off
f 64/3/205 63/2/206 68/4/207 
f 64/3/208 68/2/209 67/4/210 
f 64/3/211 67/2/212 66/4/213 
f 65/3/214 64/2/215 66/4/216 
f 34/3/217 33/2/218 71/4/219 72/1/220 
f 33/3/221 32/2/222 70/4/223 71/1/224 
f 31/3/225 30/2/226 68/4/227 69/1/228 
f 32/3/229 31/2/230 69/4/231 70/1/232 
f 35/3/233 34/2/234 72/4/235 73/1/236 
f 36/3/237 35/2/238 73/4/239 74/1/240 
f 20/3/241 19/2/242 57/4/243 58/1/244 
f 38/3/245 37/2/246 75/4/247 76/1/248 
f 37/3/249 36/2/250 74/4/251 75/1/252 
f 17/3/253 16/2/254 54/4/255 55/1/256 
f 18/3/257 17/2/258 55/4/259 56/1/260 
f 19/3/261 18/2/262 56/4/263 57/1/264 
f 16/3/265 15/2/266 53/4/267 54/1/268 
f 3/3/269 2/2/270 40/4/271 41/1/272 
f 14/3/273 13/2/274 51/4/275 52/1/276 
f 15/3/277 14/2/278 52/4/279 53/1/280 
f 2/3/281 1/2/282 39/4/283 40/1/284 
f 9/3/285 8/2/286 46/4/287 47/1/288 
f 10/3/289 9/2/290 47/4/291 48/1/292 
f 8/3/293 7/2/294 45/4/295 46/1/296 
f 11/3/297 10/2/298 48/4/299 49/1/300 
f 7/3/301 6/2/302 44/4/303 45/1/304 
f 4/3/305 3/2/306 41/4/307 42/1/308 
f 13/3/309 12/2/310 50/4/311 51/1/312 
f 6/3/313 5/2/314 43/4/315 44/1/316 
f 5/3/317 4/2/318 42/4/319 43/1/320 
f 12/3/321 11/2/322 49/4/323 50/1/324 
f 1/3/325 38/2/326 76/4/327 39/1/328 
f 21/3/329 20/2/330 58/4/331 59/1/332 
f 22/3/333 21/2/334 59/4/335 60/1/336 
f 24/3/337 23/2/338 61/4/339 62/1/340 
f 25/3/341 24/2/342 62/4/343 63/1/344 
f 23/3/345 22/2/346 60/4/347 61/1/348 
f 28/3/349 27/2/350 65/4/351 66/1/352 
f 30/3/353 29/2/354 67/4/355 68/1/356 
f 29/3/357 28/2/358 66/4/359 67/1/360 
f 26/3/361 25/2/362 63/4/363 64/1/364 
f 27/3/365 26/2/366 64/4/367 65/1/368 
# 38 polygons - 72 triangles

