# 3ds Max Wavefront OBJ Exporter v0.97b - (c)2007 guruware
# File Created: 17.06.2020 12:22:20

mtllib W.mtl

#
# object W
#

v  -344.0000 40.0001 -520.5000
v  -344.0000 40.0001 -423.5000
v  126.0000 40.0000 -237.5000
v  -344.0000 40.0000 -47.4999
v  -344.0000 40.0000 45.5000
v  126.0000 40.0000 234.5001
v  -344.0000 39.9999 422.5001
v  -344.0000 39.9999 520.5001
v  344.0000 40.0000 244.5001
v  344.0000 40.0000 225.5000
v  -214.0000 40.0000 -0.5001
v  344.0000 40.0000 -224.5000
v  344.0000 40.0000 -243.5001
v  -344.0000 -39.9999 -520.5000
v  -344.0000 -39.9999 -423.5000
v  126.0000 -40.0000 -237.5000
v  -344.0000 -39.9976 -47.5000
v  -344.0000 -39.9976 45.4999
v  126.0000 -39.9976 234.5001
v  -344.0000 -40.0001 422.5001
v  -344.0000 -40.0001 520.5001
v  344.0000 -39.9976 244.5001
v  344.0000 -40.0000 225.5000
v  -214.0000 -39.9976 -0.5001
v  344.0000 -39.9975 -224.5000
v  344.0000 -40.0000 -243.5001
# 26 vertices

vn 0.6626 0.6001 0.4481
vn -0.6624 0.6000 -0.4485
vn -0.4642 0.5599 0.6863
vn 0.6626 0.6001 0.4481
vn -0.2072 0.9783 -0.0002
vn -0.6624 0.6000 -0.4485
vn -0.2072 0.9783 -0.0002
vn -0.6631 0.6003 -0.4472
vn -0.6628 0.6002 0.4478
vn -0.2072 0.9783 -0.0002
vn 0.2083 0.9781 0.0003
vn -0.6631 0.6003 -0.4472
vn 0.2083 0.9781 0.0003
vn -0.2067 0.9784 0.0008
vn -0.6631 0.6003 -0.4472
vn -0.2067 0.9784 0.0008
vn -0.4639 0.5599 -0.6866
vn -0.6618 0.5998 0.4498
vn -0.2067 0.9784 0.0008
vn 0.6628 0.6002 -0.4477
vn -0.4639 0.5599 -0.6866
vn -0.2072 0.9783 -0.0002
vn 0.6632 0.6003 -0.4469
vn 0.2083 0.9781 0.0003
vn 0.6627 0.6001 0.4480
vn -0.2067 0.9784 0.0008
vn 0.2083 0.9781 0.0003
vn 0.6626 0.6001 0.4481
vn 0.6632 0.6003 -0.4469
vn -0.2072 0.9783 -0.0002
vn 0.6627 0.6001 0.4480
vn 0.6628 0.6002 -0.4477
vn -0.2067 0.9784 0.0008
vn 0.6626 -0.6001 0.4482
vn -0.4642 -0.5599 0.6863
vn -0.6624 -0.6000 -0.4485
vn 0.6626 -0.6001 0.4482
vn -0.6624 -0.6000 -0.4485
vn -0.2072 -0.9783 -0.0002
vn -0.2072 -0.9783 -0.0002
vn -0.6628 -0.6002 0.4478
vn -0.6631 -0.6003 -0.4472
vn -0.2072 -0.9783 -0.0002
vn -0.6631 -0.6003 -0.4472
vn 0.2083 -0.9781 0.0003
vn 0.2083 -0.9781 0.0003
vn -0.6631 -0.6003 -0.4472
vn -0.2067 -0.9784 0.0008
vn -0.2067 -0.9784 0.0008
vn -0.6618 -0.5998 0.4498
vn -0.4637 -0.5598 -0.6868
vn -0.2067 -0.9784 0.0008
vn -0.4637 -0.5598 -0.6868
vn 0.6629 -0.6003 -0.4476
vn -0.2072 -0.9783 -0.0002
vn 0.2083 -0.9781 0.0003
vn 0.6632 -0.6003 -0.4469
vn 0.6626 -0.6001 0.4481
vn 0.2083 -0.9781 0.0003
vn -0.2067 -0.9784 0.0008
vn 0.6626 -0.6001 0.4482
vn -0.2072 -0.9783 -0.0002
vn 0.6632 -0.6003 -0.4469
vn 0.6626 -0.6001 0.4481
vn -0.2067 -0.9784 0.0008
vn 0.6629 -0.6003 -0.4476
vn -0.6618 0.5998 0.4498
vn -0.4639 0.5599 -0.6866
vn -0.4637 -0.5598 -0.6868
vn -0.6618 -0.5998 0.4498
vn -0.6628 0.6002 0.4478
vn -0.6631 0.6003 -0.4472
vn -0.6631 -0.6003 -0.4472
vn -0.6628 -0.6002 0.4478
vn -0.2072 0.9783 -0.0002
vn -0.6628 0.6002 0.4478
vn -0.6628 -0.6002 0.4478
vn -0.2072 -0.9783 -0.0002
vn 0.6626 0.6001 0.4481
vn -0.4642 0.5599 0.6863
vn -0.4642 -0.5599 0.6863
vn 0.6626 -0.6001 0.4482
vn -0.4642 0.5599 0.6863
vn -0.6624 0.6000 -0.4485
vn -0.6624 -0.6000 -0.4485
vn -0.4642 -0.5599 0.6863
vn -0.6624 0.6000 -0.4485
vn -0.2072 0.9783 -0.0002
vn -0.2072 -0.9783 -0.0002
vn -0.6624 -0.6000 -0.4485
vn 0.6632 0.6003 -0.4469
vn 0.6626 0.6001 0.4481
vn 0.6626 -0.6001 0.4482
vn 0.6632 -0.6003 -0.4469
vn -0.4639 0.5599 -0.6866
vn 0.6628 0.6002 -0.4477
vn 0.6629 -0.6003 -0.4476
vn -0.4637 -0.5598 -0.6868
vn -0.6631 0.6003 -0.4472
vn -0.2067 0.9784 0.0008
vn -0.2067 -0.9784 0.0008
vn -0.6631 -0.6003 -0.4472
vn -0.2067 0.9784 0.0008
vn -0.6618 0.5998 0.4498
vn -0.6618 -0.5998 0.4498
vn -0.2067 -0.9784 0.0008
vn 0.6627 0.6001 0.4480
vn 0.2083 0.9781 0.0003
vn 0.2083 -0.9781 0.0003
vn 0.6626 -0.6001 0.4481
vn 0.2083 0.9781 0.0003
vn 0.6632 0.6003 -0.4469
vn 0.6632 -0.6003 -0.4469
vn 0.2083 -0.9781 0.0003
vn 0.6628 0.6002 -0.4477
vn 0.6627 0.6001 0.4480
vn 0.6626 -0.6001 0.4481
vn 0.6629 -0.6003 -0.4476
# 118 vertex normals

vt 0.0000 1.0000 0.0000
vt 1.0000 0.0000 0.0000
vt 0.0000 0.0000 0.0000
vt 1.0000 1.0000 0.0000
# 4 texture coords

o W
g W
usemtl Primitive_
s 1
f 9/3/1 7/2/2 8/4/3 
f 9/3/4 6/2/5 7/4/6 
f 6/3/7 4/2/8 5/4/9 
f 6/3/10 11/2/11 4/4/12 
f 11/3/13 3/2/14 4/4/15 
f 3/3/16 1/2/17 2/4/18 
f 3/3/19 13/2/20 1/4/21 
f 6/3/22 10/2/23 11/4/24 
f 12/3/25 3/2/26 11/4/27 
f 9/3/28 10/2/29 6/4/30 
f 12/3/31 13/2/32 3/4/33 
s off
f 22/3/34 21/2/35 20/4/36 
f 22/3/37 20/2/38 19/4/39 
s 1
f 19/3/40 18/2/41 17/4/42 
f 19/3/43 17/2/44 24/4/45 
s off
f 24/3/46 17/2/47 16/4/48 
s 1
f 16/3/49 15/2/50 14/4/51 
f 16/3/52 14/2/53 26/4/54 
s off
f 19/3/55 24/2/56 23/4/57 
f 25/3/58 24/2/59 16/4/60 
f 22/3/61 19/2/62 23/4/63 
f 25/3/64 16/2/65 26/4/66 
f 2/3/67 1/2/68 14/4/69 15/1/70 
f 5/3/71 4/2/72 17/4/73 18/1/74 
f 6/3/75 5/2/76 18/4/77 19/1/78 
f 9/3/79 8/2/80 21/4/81 22/1/82 
f 8/3/83 7/2/84 20/4/85 21/1/86 
f 7/3/87 6/2/88 19/4/89 20/1/90 
f 10/3/91 9/2/92 22/4/93 23/1/94 
f 1/3/95 13/2/96 26/4/97 14/1/98 
f 4/3/99 3/2/100 16/4/101 17/1/102 
f 3/3/103 2/2/104 15/4/105 16/1/106 
f 12/3/107 11/2/108 24/4/109 25/1/110 
f 11/3/111 10/2/112 23/4/113 24/1/114 
f 13/3/115 12/2/116 25/4/117 26/1/118 
# 13 polygons - 22 triangles

