# 3ds Max Wavefront OBJ Exporter v0.97b - (c)2007 guruware
# File Created: 17.06.2020 12:22:52

mtllib W5.mtl

#
# object W5
#

v  500.0000 -499.9999 -500.0002
v  500.0000 500.0001 -500.0000
v  500.0000 -500.0001 499.9998
v  500.0000 499.9999 499.9999
v  -500.0000 -499.9999 -499.9999
v  -500.0000 500.0001 -499.9998
v  -500.0000 -500.0001 500.0001
v  -500.0000 499.9999 500.0002
v  250.0000 500.0001 -500.0000
v  0.0000 500.0001 -499.9999
v  -250.0000 500.0001 -499.9998
v  -250.0000 -499.9999 -500.0000
v  0.0000 -499.9999 -500.0000
v  250.0000 -499.9999 -500.0001
v  -250.0000 499.9999 500.0001
v  0.0000 499.9999 500.0001
v  250.0000 499.9999 500.0000
v  250.0000 -500.0001 499.9998
v  0.0000 -500.0001 499.9999
v  -250.0000 -500.0001 499.9999
v  500.0000 499.9999 249.9999
v  500.0000 500.0000 -0.0001
v  500.0000 500.0000 -250.0000
v  500.0000 -499.9999 -250.0002
v  500.0000 -500.0000 -0.0002
v  500.0000 -500.0000 249.9998
v  -500.0000 -499.9999 -249.9999
v  -500.0000 -500.0000 0.0001
v  -500.0000 -500.0000 250.0000
v  -500.0000 499.9999 250.0002
v  -500.0000 500.0000 0.0002
v  -500.0000 500.0000 -249.9998
v  250.0000 499.9999 250.0000
v  250.0000 500.0000 -0.0000
v  250.0000 500.0000 -250.0000
v  0.0000 499.9999 250.0000
v  0.0000 500.0000 0.0001
v  0.0000 500.0000 -249.9999
v  -250.0000 499.9999 250.0001
v  -250.0000 500.0000 0.0001
v  -250.0000 500.0000 -249.9999
v  -250.0000 -500.0000 250.0000
v  -250.0000 -500.0000 -0.0000
v  -250.0000 -499.9999 -250.0000
v  0.0000 -500.0000 249.9999
v  0.0000 -500.0000 -0.0001
v  0.0000 -499.9999 -250.0000
v  250.0000 -500.0000 249.9999
v  250.0000 -500.0000 -0.0001
v  250.0000 -499.9999 -250.0001
v  500.0000 -249.9999 -500.0002
v  500.0000 0.0001 -500.0001
v  500.0000 250.0001 -500.0001
v  500.0000 249.9999 499.9999
v  500.0000 -0.0001 499.9998
v  500.0000 -250.0001 499.9998
v  -500.0000 249.9999 500.0002
v  -500.0000 -0.0001 500.0001
v  -500.0000 -250.0001 500.0001
v  -500.0000 250.0001 -499.9998
v  -500.0000 0.0001 -499.9998
v  -500.0000 -249.9999 -499.9999
v  250.0000 250.0001 -500.0000
v  250.0000 0.0001 -500.0000
v  250.0000 -249.9999 -500.0000
v  0.0000 250.0001 -500.0000
v  0.0000 0.0001 -500.0000
v  0.0000 -249.9999 -500.0000
v  -250.0000 250.0001 -499.9999
v  -250.0000 0.0001 -499.9999
v  -250.0000 -249.9999 -499.9999
v  -250.0000 249.9999 500.0001
v  -250.0000 -0.0001 500.0000
v  -250.0000 -250.0001 500.0000
v  0.0000 249.9999 500.0000
v  0.0000 -0.0001 500.0000
v  0.0000 -250.0001 499.9999
v  250.0000 249.9999 499.9999
v  250.0000 -0.0001 499.9999
v  250.0000 -250.0001 499.9999
v  500.0000 250.0000 -250.0001
v  500.0000 0.0000 -250.0001
v  500.0000 -249.9999 -250.0002
v  500.0000 250.0000 -0.0001
v  500.0000 0.0000 -0.0001
v  500.0000 -250.0000 -0.0002
v  500.0000 249.9999 249.9999
v  500.0000 -0.0000 249.9998
v  500.0000 -250.0000 249.9998
v  -500.0000 249.9999 250.0002
v  -500.0000 -0.0000 250.0001
v  -500.0000 -250.0000 250.0001
v  -500.0000 250.0000 0.0002
v  -500.0000 -0.0000 0.0001
v  -500.0000 -250.0000 0.0001
v  -500.0000 250.0000 -249.9998
v  -500.0000 0.0000 -249.9998
v  -500.0000 -249.9999 -249.9999
v  0.0000 -250.0000 250.0000
v  0.0000 -0.0000 250.0000
v  0.0000 249.9999 250.0000
v  250.0000 249.9999 250.0000
v  250.0000 -0.0000 249.9999
v  250.0000 -250.0000 249.9999
v  250.0000 250.0000 -0.0000
v  250.0000 0.0000 -0.0001
v  250.0000 -250.0000 -0.0001
v  250.0000 250.0000 -250.0000
v  250.0000 0.0000 -250.0001
v  250.0000 -249.9999 -250.0001
v  0.0000 250.0000 -250.0000
v  0.0000 0.0000 -250.0000
v  0.0000 -249.9999 -250.0000
v  -250.0000 250.0000 -249.9999
v  -250.0000 0.0000 -249.9999
v  -250.0000 -249.9999 -250.0000
v  -250.0000 250.0000 0.0001
v  -250.0000 -0.0000 0.0001
v  -250.0000 -250.0000 -0.0000
v  -250.0000 249.9999 250.0001
v  -250.0000 -0.0000 250.0001
v  -250.0000 -250.0000 250.0000
# 122 vertices

vn 0.0000 -0.0000 1.0000
vn 0.0000 0.7071 0.7071
vn 0.0000 0.7071 0.7071
vn 0.0000 -0.0000 1.0000
vn -0.0000 0.0000 -1.0000
vn -0.0000 0.7071 -0.7071
vn -0.0000 0.7071 -0.7071
vn -0.0000 0.0000 -1.0000
vn -0.3015 -0.9045 0.3015
vn 0.0000 -0.7071 0.7071
vn -0.0000 -0.7071 -0.7071
vn -0.0000 -0.7071 -0.7071
vn 0.3015 0.9045 0.3015
vn 0.0000 0.7071 0.7071
vn -0.0000 0.7071 -0.7071
vn -0.0000 0.7071 -0.7071
vn 1.0000 0.0000 -0.0000
vn 1.0000 0.0000 -0.0000
vn 0.7071 -0.7071 -0.0000
vn 0.7071 -0.7071 -0.0000
vn 0.7071 -0.7071 -0.0000
vn -0.3015 -0.9045 -0.3015
vn -0.7071 -0.7071 -0.0000
vn 0.7071 -0.7071 -0.0000
vn 0.0000 -0.7071 0.7071
vn 0.0000 -0.7071 0.7071
vn 0.3015 -0.9045 -0.3015
vn -0.0000 -0.7071 -0.7071
vn -0.3015 0.9045 0.3015
vn 0.7071 0.7071 0.0000
vn 0.5774 0.5774 -0.5774
vn -0.0000 0.7071 -0.7071
vn 0.7071 -0.7071 -0.0000
vn -0.7071 -0.7071 -0.0000
vn -0.3015 -0.9045 0.3015
vn 0.7071 -0.7071 -0.0000
vn 0.5774 -0.5774 0.5774
vn 0.0000 -0.7071 0.7071
vn -0.3015 -0.9045 -0.3015
vn 0.7071 -0.7071 -0.0000
vn 0.3015 -0.9045 0.3015
vn -0.7071 -0.7071 -0.0000
vn -0.5774 -0.5774 -0.5774
vn -0.0000 -0.7071 -0.7071
vn 1.0000 0.0000 -0.0000
vn 1.0000 0.0000 -0.0000
vn 0.7071 -0.7071 -0.0000
vn 0.7071 -0.7071 -0.0000
vn 0.7071 0.0000 -0.7071
vn 1.0000 0.0000 -0.0000
vn 0.7071 -0.7071 -0.0000
vn 0.5774 -0.5774 -0.5774
vn -0.0000 0.0000 -1.0000
vn -0.0000 0.7071 -0.7071
vn 0.5774 0.5774 -0.5774
vn 0.7071 0.0000 -0.7071
vn 0.0000 0.7071 0.7071
vn -0.3015 0.9045 0.3015
vn -0.0000 0.7071 -0.7071
vn -0.0000 0.7071 -0.7071
vn -0.7071 0.7071 0.0000
vn 0.3015 0.9045 0.3015
vn -0.0000 0.7071 -0.7071
vn -0.5774 0.5774 -0.5774
vn -1.0000 0.0000 -0.0000
vn -0.7071 0.7071 0.0000
vn -0.5774 0.5774 -0.5774
vn -0.7071 0.0000 -0.7071
vn 0.0000 -0.7071 0.7071
vn 0.3015 -0.9045 0.3015
vn -0.0000 -0.7071 -0.7071
vn -0.0000 -0.7071 -0.7071
vn 0.7071 -0.7071 -0.0000
vn -0.3015 -0.9045 0.3015
vn -0.0000 -0.7071 -0.7071
vn 0.5774 -0.5774 -0.5774
vn 0.0000 -0.0000 1.0000
vn 0.0000 0.7071 0.7071
vn -0.5774 0.5774 0.5774
vn -0.7071 -0.0000 0.7071
vn -0.0000 0.0000 -1.0000
vn -0.0000 0.7071 -0.7071
vn -0.0000 0.7071 -0.7071
vn -0.0000 0.0000 -1.0000
vn -0.7071 0.0000 -0.7071
vn -0.5774 0.5774 -0.5774
vn -0.0000 0.7071 -0.7071
vn -0.0000 0.0000 -1.0000
vn 1.0000 0.0000 -0.0000
vn 0.7071 -0.0000 0.7071
vn 0.5774 -0.5774 0.5774
vn 0.7071 -0.7071 -0.0000
vn 0.0000 -0.0000 1.0000
vn 0.0000 0.7071 0.7071
vn 0.0000 0.7071 0.7071
vn 0.0000 -0.0000 1.0000
vn 0.7071 -0.0000 0.7071
vn 0.5774 0.5774 0.5774
vn 0.0000 0.7071 0.7071
vn 0.0000 -0.0000 1.0000
vn 0.7071 0.0000 0.7071
vn 1.0000 0.0000 -0.0000
vn 1.0000 0.0000 -0.0000
vn 0.7071 -0.0000 0.7071
vn 0.3015 0.9045 0.3015
vn 0.7071 0.7071 0.0000
vn 1.0000 0.0000 -0.0000
vn 0.7071 0.0000 0.7071
vn -0.7071 -0.0000 0.7071
vn -0.5774 0.5774 0.5774
vn -0.7071 0.7071 0.0000
vn -1.0000 0.0000 -0.0000
vn -1.0000 0.0000 -0.0000
vn -0.7071 0.7071 0.0000
vn -0.7071 0.7071 0.0000
vn -1.0000 0.0000 -0.0000
vn -1.0000 0.0000 -0.0000
vn -0.7071 0.7071 0.0000
vn -0.7071 0.7071 0.0000
vn -1.0000 0.0000 -0.0000
vn -0.5774 0.5774 0.5774
vn 0.0000 0.7071 0.7071
vn 0.3015 0.9045 -0.3015
vn -0.7071 0.7071 0.0000
vn -0.7071 0.7071 0.0000
vn 0.3015 0.9045 -0.3015
vn 0.7071 0.7071 0.0000
vn -0.7071 0.7071 0.0000
vn -0.7071 0.7071 0.0000
vn 0.7071 0.7071 0.0000
vn 0.3015 0.9045 0.3015
vn -0.7071 0.7071 0.0000
vn 0.0000 0.7071 0.7071
vn 0.0000 0.7071 0.7071
vn -0.3015 0.9045 -0.3015
vn -0.0000 0.7071 -0.7071
vn 1.0000 0.0000 -0.0000
vn 0.7071 0.0000 -0.7071
vn 0.7071 0.0000 -0.7071
vn 1.0000 0.0000 -0.0000
vn 1.0000 0.0000 -0.0000
vn 0.7071 0.0000 -0.7071
vn 0.7071 0.0000 -0.7071
vn 1.0000 0.0000 -0.0000
vn 0.0000 -0.7071 0.7071
vn -0.5774 -0.5774 0.5774
vn -0.7071 -0.7071 -0.0000
vn 0.3015 -0.9045 -0.3015
vn 0.3015 -0.9045 -0.3015
vn -0.7071 -0.7071 -0.0000
vn -0.7071 -0.7071 -0.0000
vn 0.7071 -0.7071 -0.0000
vn 0.7071 -0.7071 -0.0000
vn -0.7071 -0.7071 -0.0000
vn -0.7071 -0.7071 -0.0000
vn 0.3015 -0.9045 0.3015
vn 0.0000 0.7071 0.7071
vn 0.5774 0.5774 0.5774
vn 0.7071 0.7071 0.0000
vn -0.3015 0.9045 -0.3015
vn -0.3015 0.9045 -0.3015
vn 0.7071 0.7071 0.0000
vn 0.7071 0.7071 0.0000
vn -0.7071 0.7071 0.0000
vn -0.7071 0.7071 0.0000
vn 0.7071 0.7071 0.0000
vn 0.7071 0.7071 0.0000
vn -0.3015 0.9045 0.3015
vn 0.0000 0.7071 0.7071
vn 0.0000 0.7071 0.7071
vn -0.0000 0.7071 -0.7071
vn 0.3015 0.9045 -0.3015
vn 0.7071 0.7071 0.0000
vn 0.3015 0.9045 -0.3015
vn 0.7071 0.0000 -0.7071
vn 1.0000 0.0000 -0.0000
vn 0.7071 0.0000 -0.7071
vn -0.0000 0.0000 -1.0000
vn -0.0000 0.0000 -1.0000
vn 0.7071 0.0000 -0.7071
vn 0.0000 -0.7071 0.7071
vn 0.0000 -0.7071 0.7071
vn -0.0000 -0.7071 -0.7071
vn -0.3015 -0.9045 -0.3015
vn 0.7071 0.0000 -0.7071
vn -0.0000 0.0000 -1.0000
vn -0.0000 0.0000 -1.0000
vn 0.7071 0.0000 -0.7071
vn 0.3015 0.9045 -0.3015
vn -0.0000 0.7071 -0.7071
vn -0.0000 0.0000 -1.0000
vn 0.7071 0.0000 -0.7071
vn -0.7071 -0.7071 -0.0000
vn -1.0000 0.0000 -0.0000
vn -1.0000 0.0000 -0.0000
vn -0.7071 -0.7071 -0.0000
vn -1.0000 0.0000 -0.0000
vn -1.0000 0.0000 -0.0000
vn -1.0000 0.0000 -0.0000
vn -1.0000 0.0000 -0.0000
vn -1.0000 0.0000 -0.0000
vn -1.0000 0.0000 -0.0000
vn -1.0000 0.0000 -0.0000
vn -1.0000 0.0000 -0.0000
vn -0.7071 -0.7071 -0.0000
vn -1.0000 0.0000 -0.0000
vn -1.0000 0.0000 -0.0000
vn -0.7071 -0.7071 -0.0000
vn -1.0000 0.0000 -0.0000
vn -1.0000 0.0000 -0.0000
vn -1.0000 0.0000 -0.0000
vn -1.0000 0.0000 -0.0000
vn -1.0000 0.0000 -0.0000
vn -1.0000 0.0000 -0.0000
vn -1.0000 0.0000 -0.0000
vn -1.0000 0.0000 -0.0000
vn -0.5774 -0.5774 0.5774
vn -0.7071 -0.0000 0.7071
vn -1.0000 0.0000 -0.0000
vn -0.7071 -0.7071 -0.0000
vn -0.7071 -0.0000 0.7071
vn -0.7071 -0.0000 0.7071
vn -1.0000 0.0000 -0.0000
vn -1.0000 0.0000 -0.0000
vn -0.7071 -0.0000 0.7071
vn -0.7071 -0.0000 0.7071
vn -1.0000 0.0000 -0.0000
vn -1.0000 0.0000 -0.0000
vn 0.5774 -0.5774 0.5774
vn 0.7071 -0.0000 0.7071
vn 0.0000 -0.0000 1.0000
vn 0.0000 -0.7071 0.7071
vn 0.7071 -0.0000 0.7071
vn 0.7071 -0.0000 0.7071
vn 0.0000 0.0000 1.0000
vn 0.0000 -0.0000 1.0000
vn 0.7071 -0.0000 0.7071
vn 0.7071 -0.0000 0.7071
vn 0.0000 -0.0000 1.0000
vn 0.0000 0.0000 1.0000
vn 0.0000 -0.7071 0.7071
vn 0.0000 -0.0000 1.0000
vn 0.0000 -0.0000 1.0000
vn 0.0000 -0.7071 0.7071
vn 0.0000 -0.0000 1.0000
vn 0.0000 -0.0000 1.0000
vn 0.0000 -0.0000 1.0000
vn 0.0000 -0.0000 1.0000
vn 0.0000 -0.0000 1.0000
vn 0.0000 -0.0000 1.0000
vn 0.0000 -0.0000 1.0000
vn 0.0000 -0.0000 1.0000
vn 0.7071 0.7071 0.0000
vn 0.5774 0.5774 0.5774
vn 0.7071 -0.0000 0.7071
vn 1.0000 0.0000 -0.0000
vn 1.0000 0.0000 -0.0000
vn 0.7071 -0.0000 0.7071
vn 0.7071 -0.0000 0.7071
vn 1.0000 0.0000 -0.0000
vn 1.0000 0.0000 -0.0000
vn 0.7071 -0.0000 0.7071
vn 0.7071 -0.0000 0.7071
vn 1.0000 0.0000 -0.0000
vn -0.5774 -0.5774 -0.5774
vn -0.7071 0.0000 -0.7071
vn -0.0000 0.0000 -1.0000
vn -0.0000 -0.7071 -0.7071
vn -0.7071 0.0000 -0.7071
vn -0.7071 0.0000 -0.7071
vn -0.0000 0.0000 -1.0000
vn -0.0000 0.0000 -1.0000
vn -0.7071 0.0000 -0.7071
vn -0.7071 0.0000 -0.7071
vn -0.0000 0.0000 -1.0000
vn -0.0000 0.0000 -1.0000
vn -0.0000 -0.7071 -0.7071
vn -0.0000 0.0000 -1.0000
vn -0.0000 0.0000 -1.0000
vn -0.0000 -0.7071 -0.7071
vn -0.0000 0.0000 -1.0000
vn -0.0000 0.0000 -1.0000
vn -0.0000 0.0000 -1.0000
vn -0.0000 0.0000 -1.0000
vn -0.0000 0.0000 -1.0000
vn -0.0000 0.0000 -1.0000
vn -0.0000 0.0000 -1.0000
vn -0.0000 0.0000 -1.0000
vn 0.0000 -0.7071 0.7071
vn 0.0000 -0.0000 1.0000
vn -0.7071 -0.0000 0.7071
vn -0.5774 -0.5774 0.5774
vn 0.0000 -0.0000 1.0000
vn 0.0000 -0.0000 1.0000
vn -0.7071 -0.0000 0.7071
vn -0.7071 -0.0000 0.7071
vn 0.0000 -0.0000 1.0000
vn 0.0000 -0.0000 1.0000
vn -0.7071 -0.0000 0.7071
vn -0.7071 -0.0000 0.7071
vn -0.7071 -0.7071 -0.0000
vn -1.0000 0.0000 -0.0000
vn -0.7071 0.0000 -0.7071
vn -0.5774 -0.5774 -0.5774
vn -1.0000 0.0000 -0.0000
vn -1.0000 0.0000 -0.0000
vn -0.7071 0.0000 -0.7071
vn -0.7071 0.0000 -0.7071
vn -1.0000 0.0000 -0.0000
vn -1.0000 0.0000 -0.0000
vn -0.7071 0.0000 -0.7071
vn -0.7071 0.0000 -0.7071
vn -0.0000 -0.7071 -0.7071
vn -0.0000 0.0000 -1.0000
vn 0.7071 0.0000 -0.7071
vn 0.5774 -0.5774 -0.5774
vn -0.0000 0.0000 -1.0000
vn -0.0000 0.0000 -1.0000
vn 0.7071 0.0000 -0.7071
vn 0.7071 0.0000 -0.7071
vn -0.0000 0.0000 -1.0000
vn -0.0000 0.0000 -1.0000
vn 0.7071 0.0000 -0.7071
vn 0.7071 0.0000 -0.7071
vn 0.5774 0.5774 -0.5774
vn 0.7071 0.7071 0.0000
vn 1.0000 0.0000 -0.0000
vn 0.7071 0.0000 -0.7071
vn 0.7071 0.0000 -0.7071
vn 1.0000 0.0000 -0.0000
vn 1.0000 0.0000 -0.0000
vn 0.7071 0.0000 -0.7071
vn 0.7071 0.0000 -0.7071
vn 1.0000 0.0000 -0.0000
vn 1.0000 0.0000 -0.0000
vn 0.7071 0.0000 -0.7071
vn 0.7071 0.7071 0.0000
vn 0.7071 0.7071 0.0000
vn 1.0000 0.0000 -0.0000
vn 1.0000 0.0000 -0.0000
vn 1.0000 0.0000 -0.0000
vn 1.0000 0.0000 -0.0000
vn 1.0000 0.0000 -0.0000
vn 1.0000 0.0000 -0.0000
vn 1.0000 0.0000 -0.0000
vn 1.0000 0.0000 -0.0000
vn 1.0000 0.0000 -0.0000
vn 1.0000 0.0000 -0.0000
vn 0.7071 0.7071 0.0000
vn 0.7071 0.7071 0.0000
vn 1.0000 0.0000 -0.0000
vn 1.0000 0.0000 -0.0000
vn 1.0000 0.0000 -0.0000
vn 1.0000 0.0000 -0.0000
vn 1.0000 0.0000 -0.0000
vn 1.0000 0.0000 -0.0000
vn 1.0000 0.0000 -0.0000
vn 1.0000 0.0000 -0.0000
vn 1.0000 0.0000 -0.0000
vn 1.0000 0.0000 -0.0000
vn -0.0000 -0.7071 -0.7071
vn -0.0000 0.0000 -1.0000
vn -0.0000 0.0000 -1.0000
vn -0.0000 -0.7071 -0.7071
vn -0.0000 0.0000 -1.0000
vn -0.0000 0.0000 -1.0000
vn -0.0000 0.0000 -1.0000
vn -0.0000 0.0000 -1.0000
vn -0.0000 0.0000 -1.0000
vn -0.0000 0.0000 -1.0000
vn -0.0000 0.0000 -1.0000
vn -0.0000 0.0000 -1.0000
vn 0.0000 -0.7071 0.7071
vn 0.0000 -0.0000 1.0000
vn 0.0000 -0.0000 1.0000
vn 0.0000 -0.7071 0.7071
vn 0.0000 -0.0000 1.0000
vn 0.0000 0.0000 1.0000
vn 0.0000 -0.0000 1.0000
vn 0.0000 -0.0000 1.0000
vn 0.0000 0.0000 1.0000
vn 0.0000 -0.0000 1.0000
vn 0.0000 -0.0000 1.0000
vn 0.0000 -0.0000 1.0000
vn -0.0000 0.0000 -1.0000
vn -0.7071 0.0000 -0.7071
vn -0.3015 -0.9045 -0.3015
vn -0.0000 -0.7071 -0.7071
vn -0.7071 0.0000 -0.7071
vn -1.0000 0.0000 -0.0000
vn -0.7071 -0.7071 -0.0000
vn -0.3015 -0.9045 -0.3015
vn -1.0000 0.0000 -0.0000
vn -0.7071 0.0000 0.7071
vn -0.3015 -0.9045 0.3015
vn -0.7071 -0.7071 -0.0000
vn -0.7071 0.0000 0.7071
vn 0.0000 0.0000 1.0000
vn 0.0000 -0.7071 0.7071
vn -0.3015 -0.9045 0.3015
vn 0.0000 0.0000 1.0000
vn 0.7071 -0.0000 0.7071
vn 0.3015 -0.9045 0.3015
vn 0.0000 -0.7071 0.7071
vn 0.7071 -0.0000 0.7071
vn 1.0000 0.0000 -0.0000
vn 0.7071 -0.7071 -0.0000
vn 0.3015 -0.9045 0.3015
vn 1.0000 0.0000 -0.0000
vn 0.7071 0.0000 -0.7071
vn 0.3015 -0.9045 -0.3015
vn 0.7071 -0.7071 -0.0000
vn 0.7071 0.0000 -0.7071
vn -0.0000 0.0000 -1.0000
vn -0.0000 -0.7071 -0.7071
vn 0.3015 -0.9045 -0.3015
vn 0.7071 -0.0000 0.7071
vn 1.0000 0.0000 -0.0000
vn 1.0000 0.0000 -0.0000
vn 0.7071 -0.0000 0.7071
vn 0.0000 0.7071 0.7071
vn 0.3015 0.9045 0.3015
vn 0.7071 0.0000 0.7071
vn 0.0000 -0.0000 1.0000
vn 0.0000 -0.0000 1.0000
vn 0.7071 0.0000 0.7071
vn 0.7071 -0.0000 0.7071
vn 0.0000 0.0000 1.0000
vn 0.0000 0.0000 1.0000
vn 0.7071 -0.0000 0.7071
vn 0.7071 -0.0000 0.7071
vn 0.0000 0.0000 1.0000
vn -0.3015 0.9045 0.3015
vn 0.0000 0.7071 0.7071
vn 0.0000 -0.0000 1.0000
vn -0.7071 -0.0000 0.7071
vn -0.7071 -0.0000 0.7071
vn 0.0000 -0.0000 1.0000
vn 0.0000 0.0000 1.0000
vn -0.7071 -0.0000 0.7071
vn -0.7071 -0.0000 0.7071
vn 0.0000 0.0000 1.0000
vn 0.0000 0.0000 1.0000
vn -0.7071 0.0000 0.7071
vn -0.7071 0.7071 0.0000
vn -0.3015 0.9045 0.3015
vn -0.7071 -0.0000 0.7071
vn -1.0000 0.0000 -0.0000
vn -1.0000 0.0000 -0.0000
vn -0.7071 -0.0000 0.7071
vn -0.7071 -0.0000 0.7071
vn -1.0000 0.0000 -0.0000
vn -1.0000 0.0000 -0.0000
vn -0.7071 -0.0000 0.7071
vn -0.7071 0.0000 0.7071
vn -1.0000 0.0000 -0.0000
vn -0.3015 0.9045 -0.3015
vn -0.7071 0.7071 0.0000
vn -1.0000 0.0000 -0.0000
vn -0.7071 0.0000 -0.7071
vn -0.7071 0.0000 -0.7071
vn -1.0000 0.0000 -0.0000
vn -1.0000 0.0000 -0.0000
vn -0.7071 0.0000 -0.7071
vn -0.7071 0.0000 -0.7071
vn -1.0000 0.0000 -0.0000
vn -1.0000 0.0000 -0.0000
vn -0.7071 0.0000 -0.7071
vn -0.0000 0.7071 -0.7071
vn -0.3015 0.9045 -0.3015
vn -0.7071 0.0000 -0.7071
vn -0.0000 0.0000 -1.0000
vn -0.0000 0.0000 -1.0000
vn -0.7071 0.0000 -0.7071
vn -0.7071 0.0000 -0.7071
vn -0.0000 0.0000 -1.0000
vn -0.0000 0.0000 -1.0000
vn -0.7071 0.0000 -0.7071
vn -0.7071 0.0000 -0.7071
vn -0.0000 0.0000 -1.0000
# 480 vertex normals

vt 0.0000 1.0000 0.0000
vt 1.0000 0.0000 0.0000
vt 0.0000 0.0000 0.0000
vt 1.0000 1.0000 0.0000
# 4 texture coords

o W5
g W5
usemtl Primitive_
s 1
f 78/3/1 17/2/2 16/4/3 75/1/4 
f 69/3/5 11/2/6 10/4/7 66/1/8 
s 2
f 50/3/9 47/2/10 13/4/11 14/1/12 
f 41/3/13 38/2/14 10/4/15 11/1/16 
s 4
f 83/3/17 86/2/18 25/4/19 24/1/20 
s 2
f 26/3/21 48/2/22 49/4/23 25/1/24 
f 19/3/25 20/2/26 42/4/27 45/1/28 
f 35/3/29 23/2/30 2/4/31 9/1/32 
f 25/3/33 49/2/34 50/4/35 24/1/36 
f 3/3/37 18/2/38 48/4/39 26/1/40 
f 44/3/41 27/2/42 5/4/43 12/1/44 
s 4
f 86/3/45 89/2/46 26/4/47 25/1/48 
f 51/3/49 83/2/50 24/4/51 1/1/52 
s 1
f 63/3/53 9/2/54 2/4/55 53/1/56 
s 2
f 38/3/57 35/2/58 9/4/59 10/1/60 
f 32/3/61 41/2/62 11/4/63 6/1/64 
s 4
f 96/3/65 32/2/66 6/4/67 60/1/68 
s 2
f 47/3/69 44/2/70 12/4/71 13/1/72 
f 24/3/73 50/2/74 14/4/75 1/1/76 
s 1
f 72/3/77 15/2/78 8/4/79 57/1/80 
f 66/3/81 10/2/82 9/4/83 63/1/84 
f 60/3/85 6/2/86 11/4/87 69/1/88 
s 4
f 89/3/89 56/2/90 3/4/91 26/1/92 
s 1
f 75/3/93 16/2/94 15/4/95 72/1/96 
f 54/3/97 4/2/98 17/4/99 78/1/100 
f 114/3/101 117/2/102 118/4/103 115/1/104 
f 41/3/105 40/2/106 117/4/107 114/1/108 
s 4
f 57/3/109 8/2/110 30/4/111 90/1/112 
f 90/3/113 30/2/114 31/4/115 93/1/116 
f 93/3/117 31/2/118 32/4/119 96/1/120 
s 2
f 8/3/121 15/2/122 39/4/123 30/1/124 
f 30/3/125 39/2/126 40/4/127 31/1/128 
f 31/3/129 40/2/130 41/4/131 32/1/132 
f 16/3/133 17/2/134 33/4/135 36/1/136 
s 1
f 118/3/137 121/2/138 122/4/139 119/1/140 
f 117/3/141 120/2/142 121/4/143 118/1/144 
s 2
f 20/3/145 7/2/146 29/4/147 42/1/148 
f 42/3/149 29/2/150 28/4/151 43/1/152 
f 43/3/153 28/2/154 27/4/155 44/1/156 
f 17/3/157 4/2/158 21/4/159 33/1/160 
f 33/3/161 21/2/162 22/4/163 34/1/164 
f 34/3/165 22/2/166 23/4/167 35/1/168 
f 15/3/169 16/2/170 36/4/171 39/1/172 
s 1
f 40/3/173 39/2/174 120/4/175 117/1/176 
s 4
f 121/3/177 100/2/178 99/4/179 122/1/180 
s 2
f 18/3/181 19/2/182 45/4/183 48/1/184 
s 4
f 120/3/185 101/2/186 100/4/187 121/1/188 
f 39/3/189 36/2/190 101/4/191 120/1/192 
f 28/3/193 95/2/194 98/4/195 27/1/196 
f 95/3/197 94/2/198 97/4/199 98/1/200 
f 94/3/201 93/2/202 96/4/203 97/1/204 
f 29/3/205 92/2/206 95/4/207 28/1/208 
f 92/3/209 91/2/210 94/4/211 95/1/212 
f 91/3/213 90/2/214 93/4/215 94/1/216 
f 7/3/217 59/2/218 92/4/219 29/1/220 
f 59/3/221 58/2/222 91/4/223 92/1/224 
f 58/3/225 57/2/226 90/4/227 91/1/228 
s 1
f 3/3/229 56/2/230 80/4/231 18/1/232 
f 56/3/233 55/2/234 79/4/235 80/1/236 
f 55/3/237 54/2/238 78/4/239 79/1/240 
f 19/3/241 77/2/242 74/4/243 20/1/244 
f 77/3/245 76/2/246 73/4/247 74/1/248 
f 76/3/249 75/2/250 72/4/251 73/1/252 
s 4
f 21/3/253 4/2/254 54/4/255 87/1/256 
f 87/3/257 54/2/258 55/4/259 88/1/260 
f 88/3/261 55/2/262 56/4/263 89/1/264 
s 1
f 5/3/265 62/2/266 71/4/267 12/1/268 
f 62/3/269 61/2/270 70/4/271 71/1/272 
f 61/3/273 60/2/274 69/4/275 70/1/276 
f 13/3/277 68/2/278 65/4/279 14/1/280 
f 68/3/281 67/2/282 64/4/283 65/1/284 
f 67/3/285 66/2/286 63/4/287 64/1/288 
f 20/3/289 74/2/290 59/4/291 7/1/292 
f 74/3/293 73/2/294 58/4/295 59/1/296 
f 73/3/297 72/2/298 57/4/299 58/1/300 
s 4
f 27/3/301 98/2/302 62/4/303 5/1/304 
f 98/3/305 97/2/306 61/4/307 62/1/308 
f 97/3/309 96/2/310 60/4/311 61/1/312 
s 1
f 14/3/313 65/2/314 51/4/315 1/1/316 
f 65/3/317 64/2/318 52/4/319 51/1/320 
f 64/3/321 63/2/322 53/4/323 52/1/324 
s 4
f 2/3/325 23/2/326 81/4/327 53/1/328 
f 53/3/329 81/2/330 82/4/331 52/1/332 
f 52/3/333 82/2/334 83/4/335 51/1/336 
f 22/3/337 21/2/338 87/4/339 84/1/340 
f 84/3/341 87/2/342 88/4/343 85/1/344 
f 85/3/345 88/2/346 89/4/347 86/1/348 
f 23/3/349 22/2/350 84/4/351 81/1/352 
f 81/3/353 84/2/354 85/4/355 82/1/356 
f 82/3/357 85/2/358 86/4/359 83/1/360 
s 1
f 12/3/361 71/2/362 68/4/363 13/1/364 
f 71/3/365 70/2/366 67/4/367 68/1/368 
f 70/3/369 69/2/370 66/4/371 67/1/372 
f 18/3/373 80/2/374 77/4/375 19/1/376 
f 80/3/377 79/2/378 76/4/379 77/1/380 
f 79/3/381 78/2/382 75/4/383 76/1/384 
s 4
f 99/3/385 104/2/386 48/4/387 45/1/388 
s 1
f 104/3/389 107/2/390 49/4/391 48/1/392 
f 107/3/393 110/2/394 50/4/395 49/1/396 
s 4
f 110/3/397 113/2/398 47/4/399 50/1/400 
f 113/3/401 116/2/402 44/4/403 47/1/404 
s 1
f 116/3/405 119/2/406 43/4/407 44/1/408 
f 119/3/409 122/2/410 42/4/411 43/1/412 
s 4
f 122/3/413 99/2/414 45/4/415 42/1/416 
s 1
f 115/3/417 118/2/418 119/4/419 116/1/420 
s 4
f 38/3/421 41/2/422 114/4/423 111/1/424 
f 111/3/425 114/2/426 115/4/427 112/1/428 
f 112/3/429 115/2/430 116/4/431 113/1/432 
f 35/3/433 38/2/434 111/4/435 108/1/436 
f 108/3/437 111/2/438 112/4/439 109/1/440 
f 109/3/441 112/2/442 113/4/443 110/1/444 
s 1
f 34/3/445 35/2/446 108/4/447 105/1/448 
f 105/3/449 108/2/450 109/4/451 106/1/452 
f 106/3/453 109/2/454 110/4/455 107/1/456 
f 33/3/457 34/2/458 105/4/459 102/1/460 
f 102/3/461 105/2/462 106/4/463 103/1/464 
f 103/3/465 106/2/466 107/4/467 104/1/468 
s 4
f 36/3/469 33/2/470 102/4/471 101/1/472 
f 101/3/473 102/2/474 103/4/475 100/1/476 
f 100/3/477 103/2/478 104/4/479 99/1/480 
# 120 polygons

