# 3ds Max Wavefront OBJ Exporter v0.97b - (c)2007 guruware
# File Created: 17.06.2020 12:22:52

mtllib W6.mtl

#
# object W6
#

v  500.0000 -499.9999 -500.0002
v  500.0000 500.0001 -500.0000
v  500.0000 -500.0001 499.9998
v  500.0000 499.9999 500.0000
v  -500.0000 -499.9999 -500.0000
v  -500.0000 500.0001 -499.9998
v  -500.0000 -500.0001 500.0000
v  -500.0000 499.9999 500.0002
v  -166.6660 -500.0001 500.0000
v  166.6670 -500.0001 499.9998
v  166.6670 499.9999 500.0000
v  -166.6660 499.9999 500.0000
v  166.6660 -499.9999 -500.0000
v  -166.6670 -499.9999 -500.0000
v  -166.6670 500.0001 -499.9998
v  166.6660 500.0001 -500.0000
v  500.0000 -500.0000 166.6665
v  500.0000 -499.9999 -166.6670
v  500.0000 500.0000 -166.6667
v  500.0000 499.9999 166.6665
v  -500.0000 -499.9999 -166.6665
v  -500.0000 -500.0000 166.6667
v  -500.0000 499.9999 166.6670
v  -500.0000 500.0000 -166.6665
v  166.6670 -500.0000 166.6665
v  166.6670 -499.9999 -166.6667
v  -166.6670 -500.0000 166.6665
v  -166.6670 -499.9999 -166.6667
v  -166.6670 499.9999 166.6667
v  -166.6670 500.0000 -166.6665
v  166.6670 499.9999 166.6667
v  166.6670 500.0000 -166.6665
v  -500.0000 -166.6666 -499.9998
v  -500.0000 166.6667 -499.9998
v  500.0000 -166.6667 499.9998
v  -500.0000 -166.6667 500.0000
v  -500.0000 166.6666 500.0002
v  500.0000 166.6666 499.9998
v  500.0000 166.6667 -500.0000
v  500.0000 -166.6666 -500.0002
v  166.6670 166.6666 500.0000
v  166.6670 -166.6667 500.0000
v  -166.6660 166.6666 500.0000
v  -166.6660 -166.6667 500.0000
v  -166.6670 166.6667 -500.0000
v  -166.6670 -166.6666 -500.0000
v  166.6660 166.6667 -500.0000
v  166.6660 -166.6666 -500.0000
v  -500.0000 166.6666 166.6667
v  -500.0000 -166.6667 166.6667
v  -500.0000 166.6667 -166.6665
v  -500.0000 -166.6666 -166.6665
v  500.0000 166.6667 -166.6667
v  500.0000 -166.6666 -166.6667
v  500.0000 166.6666 166.6665
v  500.0000 -166.6667 166.6665
v  -166.6670 166.6666 166.6667
v  -166.6670 -166.6667 166.6667
v  -166.6670 -166.6666 -166.6665
v  -166.6670 166.6667 -166.6665
v  166.6670 166.6666 166.6665
v  166.6670 -166.6667 166.6665
v  166.6670 166.6667 -166.6667
v  166.6670 -166.6666 -166.6667
# 64 vertices

vn 0.0000 0.0000 -1.0000
vn -0.0000 0.7071 -0.7071
vn 0.5774 0.5774 -0.5774
vn 0.7071 0.0000 -0.7071
vn 1.0000 0.0000 -0.0000
vn 0.7071 0.0000 0.7071
vn 0.5774 -0.5774 0.5774
vn 0.7071 -0.7071 -0.0000
vn 0.0000 0.0000 1.0000
vn 0.0000 0.7071 0.7071
vn -0.5773 0.5774 0.5774
vn -0.7071 -0.0000 0.7071
vn -0.3015 0.9045 0.3015
vn 0.7071 0.7071 0.0000
vn 0.5774 0.5774 -0.5774
vn -0.0000 0.7071 -0.7071
vn 0.3015 -0.9045 0.3015
vn -0.7071 -0.7071 -0.0000
vn -0.5774 -0.5773 -0.5774
vn 0.0000 -0.7071 -0.7071
vn -1.0000 0.0000 -0.0000
vn -0.7071 0.7071 0.0000
vn -0.5774 0.5774 -0.5774
vn -0.7071 0.0000 -0.7071
vn 0.7071 -0.7071 -0.0000
vn -0.3015 -0.9045 0.3015
vn -0.0000 -0.7071 -0.7071
vn 0.5773 -0.5774 -0.5774
vn -0.3015 -0.9045 0.3015
vn 0.3015 -0.9045 0.3015
vn 0.0000 -0.7071 -0.7071
vn -0.0000 -0.7071 -0.7071
vn -0.7071 0.7071 0.0000
vn 0.3015 0.9045 0.3015
vn -0.0000 0.7071 -0.7071
vn -0.5774 0.5774 -0.5774
vn 0.3015 0.9045 0.3015
vn -0.3015 0.9045 0.3015
vn -0.0000 0.7071 -0.7071
vn -0.0000 0.7071 -0.7071
vn 0.7071 -0.0000 0.7071
vn 0.5774 0.5773 0.5774
vn 0.0000 0.7071 0.7071
vn 0.0000 0.0000 1.0000
vn 0.0000 0.0000 1.0000
vn 0.0000 0.7071 0.7071
vn 0.0000 0.7071 0.7071
vn 0.0000 0.0000 1.0000
vn -0.7071 0.0000 -0.7071
vn -0.5774 0.5774 -0.5774
vn -0.0000 0.7071 -0.7071
vn -0.0000 0.0000 -1.0000
vn -0.0000 0.0000 -1.0000
vn -0.0000 0.7071 -0.7071
vn -0.0000 0.7071 -0.7071
vn 0.0000 0.0000 -1.0000
vn 0.0000 0.7071 0.7071
vn 0.0000 0.7071 0.7071
vn -0.3015 0.9045 -0.3015
vn 0.3015 0.9045 -0.3015
vn 0.7071 0.0000 -0.7071
vn -0.7071 0.0000 -0.7071
vn -0.3015 -0.9045 -0.3015
vn 0.3015 -0.9045 -0.3015
vn -0.5773 0.5774 0.5774
vn 0.0000 0.7071 0.7071
vn 0.3015 0.9045 -0.3015
vn -0.7071 0.7071 0.0000
vn -0.7071 0.7071 0.0000
vn 0.3015 0.9045 -0.3015
vn 0.3015 0.9045 0.3015
vn -0.7071 0.7071 0.0000
vn 0.0000 -0.7071 0.7071
vn 0.0000 -0.7071 0.7071
vn 0.3015 -0.9045 -0.3015
vn -0.3015 -0.9045 -0.3015
vn 0.5774 0.5774 -0.5774
vn 0.7071 0.7071 0.0000
vn 1.0000 0.0000 -0.0000
vn 0.7071 0.0000 -0.7071
vn 0.5774 -0.5774 0.5774
vn 0.0000 -0.7071 0.7071
vn -0.3015 -0.9045 -0.3015
vn 0.7071 -0.7071 -0.0000
vn 0.7071 -0.7071 -0.0000
vn -0.3015 -0.9045 -0.3015
vn -0.3015 -0.9045 0.3015
vn 0.7071 -0.7071 -0.0000
vn -0.7071 -0.0000 0.7071
vn -0.5773 0.5774 0.5774
vn -0.7071 0.7071 0.0000
vn -1.0000 0.0000 -0.0000
vn -1.0000 0.0000 -0.0000
vn -0.7071 0.7071 0.0000
vn -0.7071 0.7071 0.0000
vn -1.0000 0.0000 -0.0000
vn 0.0000 -0.7071 0.7071
vn -0.5774 -0.5774 0.5774
vn -0.7071 -0.7071 -0.0000
vn 0.3015 -0.9045 -0.3015
vn 0.3015 -0.9045 -0.3015
vn -0.7071 -0.7071 -0.0000
vn -0.7071 -0.7071 -0.0000
vn 0.3015 -0.9045 0.3015
vn 0.0000 0.7071 0.7071
vn 0.5774 0.5773 0.5774
vn 0.7071 0.7071 0.0000
vn -0.3015 0.9045 -0.3015
vn -0.3015 0.9045 -0.3015
vn 0.7071 0.7071 0.0000
vn 0.7071 0.7071 0.0000
vn -0.3015 0.9045 0.3015
vn 0.7071 0.0000 -0.7071
vn 1.0000 0.0000 -0.0000
vn 0.7071 -0.7071 -0.0000
vn 0.5773 -0.5774 -0.5774
vn 1.0000 0.0000 -0.0000
vn 1.0000 0.0000 -0.0000
vn 0.7071 -0.7071 -0.0000
vn 0.7071 -0.7071 -0.0000
vn -1.0000 0.0000 -0.0000
vn -1.0000 0.0000 -0.0000
vn -1.0000 0.0000 -0.0000
vn -1.0000 0.0000 -0.0000
vn -0.7071 -0.0000 0.7071
vn -0.7071 0.0000 -0.7071
vn -0.3015 0.9045 -0.3015
vn -0.3015 0.9045 0.3015
vn 0.7071 0.7071 0.0000
vn 0.7071 0.7071 0.0000
vn 1.0000 0.0000 -0.0000
vn 1.0000 0.0000 -0.0000
vn -0.7071 -0.7071 -0.0000
vn -1.0000 0.0000 -0.0000
vn -1.0000 0.0000 -0.0000
vn -0.7071 -0.7071 -0.0000
vn 1.0000 0.0000 -0.0000
vn 1.0000 0.0000 -0.0000
vn 1.0000 0.0000 -0.0000
vn 1.0000 0.0000 -0.0000
vn 0.7071 0.0000 -0.7071
vn 1.0000 0.0000 -0.0000
vn 1.0000 0.0000 -0.0000
vn 0.7071 0.0000 -0.7071
vn 0.7071 -0.0000 0.7071
vn 0.7071 0.0000 -0.7071
vn 0.3015 -0.9045 -0.3015
vn 0.3015 -0.9045 0.3015
vn 0.7071 0.0000 0.7071
vn -0.7071 -0.0000 0.7071
vn -0.3015 0.9045 0.3015
vn 0.3015 0.9045 0.3015
vn -0.5774 -0.5774 0.5774
vn -0.7071 -0.0000 0.7071
vn -1.0000 0.0000 -0.0000
vn -0.7071 -0.7071 -0.0000
vn -0.7071 -0.0000 0.7071
vn -0.7071 -0.0000 0.7071
vn -1.0000 0.0000 -0.0000
vn -1.0000 0.0000 -0.0000
vn 0.0000 -0.7071 -0.7071
vn -0.0000 0.0000 -1.0000
vn -0.0000 0.0000 -1.0000
vn -0.0000 -0.7071 -0.7071
vn -0.0000 0.0000 -1.0000
vn -0.0000 0.0000 -1.0000
vn 0.0000 0.0000 -1.0000
vn -0.0000 0.0000 -1.0000
vn -0.5774 -0.5773 -0.5774
vn -0.7071 0.0000 -0.7071
vn -0.0000 0.0000 -1.0000
vn 0.0000 -0.7071 -0.7071
vn -0.7071 0.0000 -0.7071
vn -0.7071 0.0000 -0.7071
vn -0.0000 0.0000 -1.0000
vn -0.0000 0.0000 -1.0000
vn 0.0000 -0.7071 0.7071
vn 0.0000 -0.0000 1.0000
vn 0.0000 0.0000 1.0000
vn 0.0000 -0.7071 0.7071
vn 0.0000 -0.0000 1.0000
vn 0.0000 0.0000 1.0000
vn 0.0000 0.0000 1.0000
vn 0.0000 0.0000 1.0000
vn 0.5774 -0.5774 0.5774
vn 0.7071 0.0000 0.7071
vn 0.0000 -0.0000 1.0000
vn 0.0000 -0.7071 0.7071
vn 0.7071 0.0000 0.7071
vn 0.7071 -0.0000 0.7071
vn 0.0000 0.0000 1.0000
vn 0.0000 -0.0000 1.0000
vn -0.7071 -0.7071 -0.0000
vn -1.0000 0.0000 -0.0000
vn -0.7071 0.0000 -0.7071
vn -0.5774 -0.5773 -0.5774
vn -1.0000 0.0000 -0.0000
vn -1.0000 0.0000 -0.0000
vn -0.7071 0.0000 -0.7071
vn -0.7071 0.0000 -0.7071
vn 0.0000 -0.7071 0.7071
vn 0.0000 0.0000 1.0000
vn -0.7071 -0.0000 0.7071
vn -0.5774 -0.5774 0.5774
vn 0.0000 0.0000 1.0000
vn 0.0000 0.0000 1.0000
vn -0.7071 -0.0000 0.7071
vn -0.7071 -0.0000 0.7071
vn 0.7071 0.7071 0.0000
vn 0.5774 0.5773 0.5774
vn 0.7071 -0.0000 0.7071
vn 1.0000 0.0000 -0.0000
vn 1.0000 0.0000 -0.0000
vn 0.7071 -0.0000 0.7071
vn 0.7071 0.0000 0.7071
vn 1.0000 0.0000 -0.0000
vn -0.0000 -0.7071 -0.7071
vn -0.0000 0.0000 -1.0000
vn 0.7071 0.0000 -0.7071
vn 0.5773 -0.5774 -0.5774
vn -0.0000 0.0000 -1.0000
vn 0.0000 0.0000 -1.0000
vn 0.7071 0.0000 -0.7071
vn 0.7071 0.0000 -0.7071
vn 0.3015 -0.9045 0.3015
vn -0.3015 -0.9045 0.3015
vn -0.7071 0.0000 0.7071
vn 0.7071 -0.0000 0.7071
vn 0.7071 -0.0000 0.7071
vn -0.7071 0.0000 0.7071
vn -0.7071 -0.0000 0.7071
vn 0.7071 0.0000 0.7071
vn 0.3015 0.9045 0.3015
vn 0.3015 0.9045 -0.3015
vn 0.7071 0.0000 -0.7071
vn 0.7071 0.0000 0.7071
vn 0.7071 0.0000 0.7071
vn 0.7071 0.0000 -0.7071
vn 0.7071 0.0000 -0.7071
vn 0.7071 -0.0000 0.7071
vn -0.3015 -0.9045 0.3015
vn -0.3015 -0.9045 -0.3015
vn -0.7071 0.0000 -0.7071
vn -0.7071 0.0000 0.7071
vn -0.7071 0.0000 0.7071
vn -0.7071 0.0000 -0.7071
vn -0.7071 0.0000 -0.7071
vn -0.7071 -0.0000 0.7071
vn 0.3015 0.9045 -0.3015
vn -0.3015 0.9045 -0.3015
vn -0.7071 0.0000 -0.7071
vn 0.7071 0.0000 -0.7071
vn 0.7071 0.0000 -0.7071
vn -0.7071 0.0000 -0.7071
vn -0.7071 0.0000 -0.7071
vn 0.7071 0.0000 -0.7071
# 256 vertex normals

vt 0.0000 1.0000 0.0000
vt 1.0000 0.0000 0.0000
vt 0.0000 0.0000 0.0000
vt 1.0000 1.0000 0.0000
# 4 texture coords

o W6
g W6
usemtl Primitive_
s 1
f 47/3/1 16/2/2 2/4/3 39/1/4 
s 2
f 56/3/5 35/2/6 3/4/7 17/1/8 
s 1
f 43/3/9 12/2/10 8/4/11 37/1/12 
s 4
f 32/3/13 19/2/14 2/4/15 16/1/16 
f 28/3/17 21/2/18 5/4/19 14/1/20 
s 2
f 51/3/21 24/2/22 6/4/23 34/1/24 
s 4
f 18/3/25 26/2/26 13/4/27 1/1/28 
f 26/3/29 28/2/30 14/4/31 13/1/32 
f 24/3/33 30/2/34 15/4/35 6/1/36 
f 30/3/37 32/2/38 16/4/39 15/1/40 
s 1
f 38/3/41 4/2/42 11/4/43 41/1/44 
f 41/3/45 11/2/46 12/4/47 43/1/48 
f 34/3/49 6/2/50 15/4/51 45/1/52 
f 45/3/53 15/2/54 16/4/55 47/1/56 
s 4
f 12/3/57 11/2/58 31/4/59 29/1/60 
s 1
f 58/3/61 62/2/62 25/4/63 27/1/64 
s 4
f 8/3/65 12/2/66 29/4/67 23/1/68 
f 23/3/69 29/2/70 30/4/71 24/1/72 
f 10/3/73 9/2/74 27/4/75 25/1/76 
s 2
f 2/3/77 19/2/78 53/4/79 39/1/80 
s 4
f 3/3/81 10/2/82 25/4/83 17/1/84 
f 17/3/85 25/2/86 26/4/87 18/1/88 
s 2
f 37/3/89 8/2/90 23/4/91 49/1/92 
f 49/3/93 23/2/94 24/4/95 51/1/96 
s 4
f 9/3/97 7/2/98 22/4/99 27/1/100 
f 27/3/101 22/2/102 21/4/103 28/1/104 
f 11/3/105 4/2/106 20/4/107 31/1/108 
f 31/3/109 20/2/110 19/4/111 32/1/112 
s 2
f 40/3/113 54/2/114 18/4/115 1/1/116 
f 54/3/117 56/2/118 17/4/119 18/1/120 
f 50/3/121 49/2/122 51/4/123 52/1/124 
f 63/3/125 61/2/126 31/4/127 32/1/128 
f 19/3/129 20/2/130 55/4/131 53/1/132 
f 22/3/133 50/2/134 52/4/135 21/1/136 
f 53/3/137 55/2/138 56/4/139 54/1/140 
f 39/3/141 53/2/142 54/4/143 40/1/144 
f 59/3/145 58/2/146 27/4/147 28/1/148 
s 1
f 60/3/149 63/2/150 32/4/151 30/1/152 
s 2
f 7/3/153 36/2/154 50/4/155 22/1/156 
f 36/3/157 37/2/158 49/4/159 50/1/160 
s 1
f 14/3/161 46/2/162 48/4/163 13/1/164 
f 46/3/165 45/2/166 47/4/167 48/1/168 
f 5/3/169 33/2/170 46/4/171 14/1/172 
f 33/3/173 34/2/174 45/4/175 46/1/176 
f 10/3/177 42/2/178 44/4/179 9/1/180 
f 42/3/181 41/2/182 43/4/183 44/1/184 
f 3/3/185 35/2/186 42/4/187 10/1/188 
f 35/3/189 38/2/190 41/4/191 42/1/192 
s 2
f 21/3/193 52/2/194 33/4/195 5/1/196 
f 52/3/197 51/2/198 34/4/199 33/1/200 
s 1
f 9/3/201 44/2/202 36/4/203 7/1/204 
f 44/3/205 43/2/206 37/4/207 36/1/208 
s 2
f 20/3/209 4/2/210 38/4/211 55/1/212 
f 55/3/213 38/2/214 35/4/215 56/1/216 
s 1
f 13/3/217 48/2/218 40/4/219 1/1/220 
f 48/3/221 47/2/222 39/4/223 40/1/224 
f 28/3/225 26/2/226 64/4/227 59/1/228 
f 59/3/229 64/2/230 63/4/231 60/1/232 
s 2
f 30/3/233 29/2/234 57/4/235 60/1/236 
f 60/3/237 57/2/238 58/4/239 59/1/240 
f 26/3/241 25/2/242 62/4/243 64/1/244 
f 64/3/245 62/2/246 61/4/247 63/1/248 
s 1
f 29/3/249 31/2/250 61/4/251 57/1/252 
f 57/3/253 61/2/254 62/4/255 58/1/256 
# 64 polygons

