# 3ds Max Wavefront OBJ Exporter v0.97b - (c)2007 guruware
# File Created: 17.06.2020 12:22:49

mtllib W8.mtl

#
# object W8
#

v  500.0000 -499.9999 -500.0000
v  500.0000 -500.0001 499.9995
v  -500.0000 -499.9999 -500.0000
v  -500.0000 -500.0001 500.0000
v  -166.6660 -500.0001 500.0000
v  166.6670 -500.0001 500.0000
v  166.6660 -499.9999 -500.0000
v  -166.6670 -499.9999 -500.0000
v  500.0000 -500.0000 166.6665
v  500.0000 -499.9999 -166.6670
v  500.0000 -166.6666 -166.6670
v  -500.0000 -499.9999 -166.6665
v  -500.0000 -500.0000 166.6665
v  166.6670 -500.0000 166.6665
v  166.6670 -499.9999 -166.6670
v  -166.6670 -500.0000 166.6665
v  -166.6670 -499.9999 -166.6665
v  -500.0000 -166.6666 -500.0000
v  500.0000 -166.6667 500.0000
v  -500.0000 -166.6667 500.0000
v  500.0000 -166.6666 -500.0000
v  166.6670 -166.6667 500.0000
v  -166.6660 -166.6667 500.0000
v  -166.6670 -166.6666 -500.0000
v  166.6660 -166.6666 -500.0000
v  -500.0000 -166.6667 166.6670
v  -500.0000 -166.6666 -166.6665
v  500.0000 -166.6667 166.6665
v  -166.6670 -166.6667 166.6665
v  -166.6670 -166.6666 -166.6665
v  166.6670 -166.6667 166.6665
v  166.6670 -166.6666 -166.6665
# 32 vertices

vn 0.7071 0.7071 0.0000
vn 0.5774 0.5773 0.5774
vn 0.5774 -0.5774 0.5773
vn 0.7071 -0.7071 -0.0000
vn -0.3015 0.9045 0.3015
vn 0.7071 0.7071 0.0000
vn 0.5774 0.5774 -0.5774
vn 0.0000 0.7071 -0.7071
vn 0.3015 -0.9045 0.3015
vn -0.7071 -0.7071 -0.0000
vn -0.5774 -0.5774 -0.5774
vn 0.0000 -0.7071 -0.7071
vn 0.7071 -0.7071 -0.0000
vn -0.3015 -0.9045 0.3015
vn 0.0000 -0.7071 -0.7071
vn 0.5774 -0.5774 -0.5774
vn -0.3015 -0.9045 0.3015
vn 0.3015 -0.9045 0.3015
vn 0.0000 -0.7071 -0.7071
vn 0.0000 -0.7071 -0.7071
vn -0.7071 0.7071 0.0000
vn 0.3015 0.9045 0.3015
vn 0.0000 0.7071 -0.7071
vn -0.5774 0.5774 -0.5774
vn 0.3015 0.9045 0.3015
vn -0.3015 0.9045 0.3015
vn 0.0000 0.7071 -0.7071
vn 0.0000 0.7071 -0.7071
vn 0.0000 0.7071 0.7071
vn 0.0000 0.7071 0.7071
vn -0.3015 0.9045 -0.3015
vn 0.3015 0.9045 -0.3015
vn 0.3015 0.9045 -0.3015
vn -0.3015 0.9045 -0.3015
vn -0.3015 -0.9045 -0.3015
vn 0.3015 -0.9045 -0.3015
vn -0.5774 0.5774 0.5774
vn 0.0000 0.7071 0.7071
vn 0.3015 0.9045 -0.3015
vn -0.7071 0.7071 0.0000
vn -0.7071 0.7071 0.0000
vn 0.3015 0.9045 -0.3015
vn 0.3015 0.9045 0.3015
vn -0.7071 0.7071 0.0000
vn 0.0000 -0.7071 0.7071
vn 0.0000 -0.7071 0.7071
vn 0.3015 -0.9045 -0.3015
vn -0.3015 -0.9045 -0.3015
vn 0.5774 -0.5774 0.5773
vn 0.0000 -0.7071 0.7071
vn -0.3015 -0.9045 -0.3015
vn 0.7071 -0.7071 -0.0000
vn 0.7071 -0.7071 -0.0000
vn -0.3015 -0.9045 -0.3015
vn -0.3015 -0.9045 0.3015
vn 0.7071 -0.7071 -0.0000
vn 0.0000 -0.7071 0.7071
vn -0.5774 -0.5774 0.5774
vn -0.7071 -0.7071 -0.0000
vn 0.3015 -0.9045 -0.3015
vn 0.3015 -0.9045 -0.3015
vn -0.7071 -0.7071 -0.0000
vn -0.7071 -0.7071 -0.0000
vn 0.3015 -0.9045 0.3015
vn 0.0000 0.7071 0.7071
vn 0.5774 0.5773 0.5774
vn 0.7071 0.7071 0.0000
vn -0.3015 0.9045 -0.3015
vn -0.3015 0.9045 -0.3015
vn 0.7071 0.7071 0.0000
vn 0.7071 0.7071 0.0000
vn -0.3015 0.9045 0.3015
vn 0.5774 0.5774 -0.5774
vn 0.7071 0.7071 0.0000
vn 0.7071 -0.7071 -0.0000
vn 0.5774 -0.5774 -0.5774
vn 0.7071 0.7071 0.0000
vn 0.7071 0.7071 0.0000
vn 0.7071 -0.7071 -0.0000
vn 0.7071 -0.7071 -0.0000
vn -0.7071 -0.7071 -0.0000
vn -0.7071 0.7071 0.0000
vn -0.7071 0.7071 0.0000
vn -0.7071 -0.7071 -0.0000
vn 0.3015 0.9045 0.3015
vn 0.3015 0.9045 -0.3015
vn 0.3015 -0.9045 -0.3015
vn 0.3015 -0.9045 0.3015
vn -0.5774 -0.5774 0.5774
vn -0.5774 0.5774 0.5774
vn -0.7071 0.7071 0.0000
vn -0.7071 -0.7071 -0.0000
vn 0.0000 -0.7071 -0.7071
vn 0.0000 0.7071 -0.7071
vn 0.0000 0.7071 -0.7071
vn 0.0000 -0.7071 -0.7071
vn -0.5774 -0.5774 -0.5774
vn -0.5774 0.5774 -0.5774
vn 0.0000 0.7071 -0.7071
vn 0.0000 -0.7071 -0.7071
vn 0.0000 -0.7071 0.7071
vn 0.0000 0.7071 0.7071
vn 0.0000 0.7071 0.7071
vn 0.0000 -0.7071 0.7071
vn 0.5774 -0.5774 0.5773
vn 0.5774 0.5773 0.5774
vn 0.0000 0.7071 0.7071
vn 0.0000 -0.7071 0.7071
vn -0.7071 -0.7071 -0.0000
vn -0.7071 0.7071 0.0000
vn -0.5774 0.5774 -0.5774
vn -0.5774 -0.5774 -0.5774
vn 0.0000 -0.7071 0.7071
vn 0.0000 0.7071 0.7071
vn -0.5774 0.5774 0.5774
vn -0.5774 -0.5774 0.5774
vn 0.0000 -0.7071 -0.7071
vn 0.0000 0.7071 -0.7071
vn 0.5774 0.5774 -0.5774
vn 0.5774 -0.5774 -0.5774
vn 0.3015 -0.9045 0.3015
vn -0.3015 -0.9045 0.3015
vn -0.3015 0.9045 0.3015
vn 0.3015 0.9045 0.3015
vn -0.3015 -0.9045 0.3015
vn -0.3015 -0.9045 -0.3015
vn -0.3015 0.9045 -0.3015
vn -0.3015 0.9045 0.3015
# 128 vertex normals

vt 0.0000 1.0000 0.0000
vt 1.0000 0.0000 0.0000
vt 0.0000 0.0000 0.0000
vt 1.0000 1.0000 0.0000
# 4 texture coords

o W8
g W8
usemtl Primitive_
s 1
f 28/3/1 19/2/2 2/4/3 9/1/4 
s 2
f 32/3/5 11/2/6 21/4/7 25/1/8 
f 17/3/9 12/2/10 3/4/11 8/1/12 
f 10/3/13 15/2/14 7/4/15 1/1/16 
f 15/3/17 17/2/18 8/4/19 7/1/20 
f 27/3/21 30/2/22 24/4/23 18/1/24 
f 30/3/25 32/2/26 25/4/27 24/1/28 
f 23/3/29 22/2/30 31/4/31 29/1/32 
s off
f 29/3/33 31/2/34 14/4/35 16/1/36 
s 2
f 20/3/37 23/2/38 29/4/39 26/1/40 
f 26/3/41 29/2/42 30/4/43 27/1/44 
f 6/3/45 5/2/46 16/4/47 14/1/48 
f 2/3/49 6/2/50 14/4/51 9/1/52 
f 9/3/53 14/2/54 15/4/55 10/1/56 
f 5/3/57 4/2/58 13/4/59 16/1/60 
f 16/3/61 13/2/62 12/4/63 17/1/64 
f 22/3/65 19/2/66 28/4/67 31/1/68 
f 31/3/69 28/2/70 11/4/71 32/1/72 
s 1
f 21/3/73 11/2/74 10/4/75 1/1/76 
f 11/3/77 28/2/78 9/4/79 10/1/80 
f 13/3/81 26/2/82 27/4/83 12/1/84 
s off
f 30/3/85 29/2/86 16/4/87 17/1/88 
s 1
f 4/3/89 20/2/90 26/4/91 13/1/92 
s 4
f 8/3/93 24/2/94 25/4/95 7/1/96 
f 3/3/97 18/2/98 24/4/99 8/1/100 
f 6/3/101 22/2/102 23/4/103 5/1/104 
f 2/3/105 19/2/106 22/4/107 6/1/108 
s 1
f 12/3/109 27/2/110 18/4/111 3/1/112 
s 4
f 5/3/113 23/2/114 20/4/115 4/1/116 
f 7/3/117 25/2/118 21/4/119 1/1/120 
s off
f 17/3/121 15/2/122 32/4/123 30/1/124 
f 15/3/125 14/2/126 31/4/127 32/1/128 
# 32 polygons

