# 3ds Max Wavefront OBJ Exporter v0.97b - (c)2007 guruware
# File Created: 17.06.2020 12:22:28

mtllib X.mtl

#
# object X
#

v  -341.0000 40.0000 -333.0000
v  -341.0000 40.0000 -215.0000
v  -81.0000 40.0000 -2.0000
v  -341.0000 40.0000 212.0000
v  -341.0000 39.9999 331.0000
v  -12.0000 40.0000 58.0010
v  341.0000 39.9999 352.0000
v  341.0000 40.0000 233.0000
v  59.0000 40.0000 -2.0000
v  341.0000 40.0000 -234.0000
v  341.0000 40.0001 -352.0000
v  -12.0000 40.0000 -61.0000
v  -341.0000 -39.9999 -333.0000
v  -341.0000 -40.0000 -215.0000
v  -81.0000 -39.9976 -2.0000
v  -341.0000 -39.9976 212.0000
v  -341.0000 -40.0000 331.0000
v  -12.0000 -40.0000 58.0010
v  341.0000 -40.0001 352.0000
v  341.0000 -40.0000 233.0000
v  59.0000 -40.0000 -2.0000
v  341.0000 -40.0000 -234.0000
v  341.0000 -39.9975 -352.0000
v  -12.0000 -40.0000 -61.0000
# 24 vertices

vn -0.0004 0.8823 0.4707
vn -0.7077 0.6225 -0.3341
vn -0.3552 0.5494 0.7563
vn -0.0004 0.8823 0.4707
vn -0.3763 0.9265 0.0004
vn -0.7077 0.6225 -0.3341
vn -0.3763 0.9265 0.0004
vn -0.3559 0.5495 -0.7559
vn -0.7075 0.6223 0.3350
vn -0.3763 0.9265 0.0004
vn 0.0003 0.8815 -0.4723
vn -0.3559 0.5495 -0.7559
vn -0.0004 0.8823 0.4707
vn 0.0003 0.8815 -0.4723
vn -0.3763 0.9265 0.0004
vn 0.3545 0.5494 0.7566
vn 0.0003 0.8815 -0.4723
vn -0.0004 0.8823 0.4707
vn 0.3545 0.5494 0.7566
vn 0.3785 0.9256 0.0012
vn 0.0003 0.8815 -0.4723
vn 0.3785 0.9256 0.0012
vn 0.3564 0.5495 -0.7557
vn 0.0003 0.8815 -0.4723
vn 0.3545 0.5494 0.7566
vn 0.7084 0.6229 -0.3318
vn 0.3785 0.9256 0.0012
vn 0.7077 0.6224 0.3342
vn 0.3564 0.5495 -0.7557
vn 0.3785 0.9256 0.0012
vn -0.0004 -0.8823 0.4707
vn -0.3552 -0.5494 0.7563
vn -0.7078 -0.6225 -0.3341
vn -0.0004 -0.8823 0.4707
vn -0.7078 -0.6225 -0.3341
vn -0.3764 -0.9265 0.0004
vn -0.3764 -0.9265 0.0004
vn -0.7075 -0.6223 0.3350
vn -0.3559 -0.5495 -0.7559
vn -0.3764 -0.9265 0.0004
vn -0.3559 -0.5495 -0.7559
vn 0.0003 -0.8815 -0.4723
vn -0.0004 -0.8823 0.4707
vn -0.3764 -0.9265 0.0004
vn 0.0003 -0.8815 -0.4723
vn 0.3545 -0.5494 0.7566
vn -0.0004 -0.8823 0.4707
vn 0.0003 -0.8815 -0.4723
vn 0.3545 -0.5494 0.7566
vn 0.0003 -0.8815 -0.4723
vn 0.3785 -0.9256 0.0012
vn 0.3785 -0.9256 0.0012
vn 0.0003 -0.8815 -0.4723
vn 0.3564 -0.5495 -0.7557
vn 0.3545 -0.5494 0.7566
vn 0.3785 -0.9256 0.0012
vn 0.7084 -0.6229 -0.3318
vn 0.7077 -0.6224 0.3342
vn 0.3785 -0.9256 0.0012
vn 0.3564 -0.5495 -0.7557
vn -0.0004 0.8823 0.4707
vn -0.3552 0.5494 0.7563
vn -0.3552 -0.5494 0.7563
vn -0.0004 -0.8823 0.4707
vn -0.3552 0.5494 0.7563
vn -0.7077 0.6225 -0.3341
vn -0.7078 -0.6225 -0.3341
vn -0.3552 -0.5494 0.7563
vn -0.7077 0.6225 -0.3341
vn -0.3763 0.9265 0.0004
vn -0.3764 -0.9265 0.0004
vn -0.7078 -0.6225 -0.3341
vn -0.7075 0.6223 0.3350
vn -0.3559 0.5495 -0.7559
vn -0.3559 -0.5495 -0.7559
vn -0.7075 -0.6223 0.3350
vn -0.3763 0.9265 0.0004
vn -0.7075 0.6223 0.3350
vn -0.7075 -0.6223 0.3350
vn -0.3764 -0.9265 0.0004
vn -0.3559 0.5495 -0.7559
vn 0.0003 0.8815 -0.4723
vn 0.0003 -0.8815 -0.4723
vn -0.3559 -0.5495 -0.7559
vn 0.3545 0.5494 0.7566
vn -0.0004 0.8823 0.4707
vn -0.0004 -0.8823 0.4707
vn 0.3545 -0.5494 0.7566
vn 0.7084 0.6229 -0.3318
vn 0.3545 0.5494 0.7566
vn 0.3545 -0.5494 0.7566
vn 0.7084 -0.6229 -0.3318
vn 0.3785 0.9256 0.0012
vn 0.7084 0.6229 -0.3318
vn 0.7084 -0.6229 -0.3318
vn 0.3785 -0.9256 0.0012
vn 0.0003 0.8815 -0.4723
vn 0.3564 0.5495 -0.7557
vn 0.3564 -0.5495 -0.7557
vn 0.0003 -0.8815 -0.4723
vn 0.7077 0.6224 0.3342
vn 0.3785 0.9256 0.0012
vn 0.3785 -0.9256 0.0012
vn 0.7077 -0.6224 0.3342
vn 0.3564 0.5495 -0.7557
vn 0.7077 0.6224 0.3342
vn 0.7077 -0.6224 0.3342
vn 0.3564 -0.5495 -0.7557
# 108 vertex normals

vt 0.0000 1.0000 0.0000
vt 1.0000 0.0000 0.0000
vt 0.0000 0.0000 0.0000
vt 1.0000 1.0000 0.0000
# 4 texture coords

o X
g X
usemtl Primitive_
s 1
f 6/3/1 4/2/2 5/4/3 
f 6/3/4 3/2/5 4/4/6 
f 3/3/7 1/2/8 2/4/9 
f 3/3/10 12/2/11 1/4/12 
f 6/3/13 12/2/14 3/4/15 
f 7/3/16 12/2/17 6/4/18 
f 7/3/19 9/2/20 12/4/21 
f 9/3/22 11/2/23 12/4/24 
f 7/3/25 8/2/26 9/4/27 
f 10/3/28 11/2/29 9/4/30 
f 18/3/31 17/2/32 16/4/33 
f 18/3/34 16/2/35 15/4/36 
s off
f 15/3/37 14/2/38 13/4/39 
f 15/3/40 13/2/41 24/4/42 
f 18/3/43 15/2/44 24/4/45 
s 1
f 19/3/46 18/2/47 24/4/48 
f 19/3/49 24/2/50 21/4/51 
s off
f 21/3/52 24/2/53 23/4/54 
s 1
f 19/3/55 21/2/56 20/4/57 
s off
f 22/3/58 21/2/59 23/4/60 
f 6/3/61 5/2/62 17/4/63 18/1/64 
f 5/3/65 4/2/66 16/4/67 17/1/68 
f 4/3/69 3/2/70 15/4/71 16/1/72 
f 2/3/73 1/2/74 13/4/75 14/1/76 
f 3/3/77 2/2/78 14/4/79 15/1/80 
f 1/3/81 12/2/82 24/4/83 13/1/84 
f 7/3/85 6/2/86 18/4/87 19/1/88 
f 8/3/89 7/2/90 19/4/91 20/1/92 
f 9/3/93 8/2/94 20/4/95 21/1/96 
f 12/3/97 11/2/98 23/4/99 24/1/100 
f 10/3/101 9/2/102 21/4/103 22/1/104 
f 11/3/105 10/2/106 22/4/107 23/1/108 
# 12 polygons - 20 triangles

