# 3ds Max Wavefront OBJ Exporter v0.97b - (c)2007 guruware
# File Created: 17.06.2020 12:22:24

mtllib Y.mtl

#
# object Y
#

v  -106.0000 40.0000 0.9998
v  -341.0000 40.0000 184.0000
v  -341.0000 39.9999 302.0000
v  -20.0000 40.0000 49.0000
v  341.0000 40.0000 49.0000
v  341.0000 40.0000 -49.0002
v  -19.0000 40.0000 -49.0002
v  -341.0000 40.0000 -302.0000
v  -341.0000 40.0000 -183.9998
v  -106.0000 -40.0000 0.9998
v  -341.0000 -40.0000 184.0000
v  -341.0000 -39.9976 302.0000
v  -20.0000 -40.0000 49.0000
v  341.0000 -39.9976 49.0000
v  341.0000 -40.0000 -49.0002
v  -19.0000 -39.9976 -49.0002
v  -341.0000 -39.9975 -302.0000
v  -341.0000 -40.0000 -183.9998
# 18 vertices

vn 0.2013 0.7888 0.5807
vn -0.7047 0.6203 -0.3444
vn -0.3643 0.5501 0.7514
vn 0.2013 0.7888 0.5807
vn -0.3641 0.9314 -0.0009
vn -0.7047 0.6203 -0.3444
vn -0.3641 0.9314 -0.0009
vn -0.3652 0.5502 -0.7509
vn -0.7053 0.6208 0.3423
vn -0.3641 0.9314 -0.0009
vn 0.2010 0.7886 -0.5812
vn -0.3652 0.5502 -0.7509
vn 0.2013 0.7888 0.5807
vn 0.2010 0.7886 -0.5812
vn -0.3641 0.9314 -0.0009
vn 0.5774 0.5774 0.5774
vn 0.2010 0.7886 -0.5812
vn 0.2013 0.7888 0.5807
vn 0.5774 0.5774 0.5774
vn 0.5774 0.5774 -0.5774
vn 0.2010 0.7886 -0.5812
vn 0.2013 -0.7888 0.5807
vn -0.3643 -0.5501 0.7515
vn -0.7047 -0.6204 -0.3444
vn 0.2013 -0.7888 0.5807
vn -0.7047 -0.6204 -0.3444
vn -0.3640 -0.9314 -0.0010
vn -0.3640 -0.9314 -0.0010
vn -0.7053 -0.6207 0.3424
vn -0.3649 -0.5501 -0.7511
vn -0.3640 -0.9314 -0.0010
vn -0.3649 -0.5501 -0.7511
vn 0.2010 -0.7886 -0.5811
vn 0.2013 -0.7888 0.5807
vn -0.3640 -0.9314 -0.0010
vn 0.2010 -0.7886 -0.5811
vn 0.5773 -0.5773 0.5774
vn 0.2013 -0.7888 0.5807
vn 0.2010 -0.7886 -0.5811
vn 0.5773 -0.5773 0.5774
vn 0.2010 -0.7886 -0.5811
vn 0.5774 -0.5774 -0.5773
vn 0.5774 0.5774 0.5774
vn 0.2013 0.7888 0.5807
vn 0.2013 -0.7888 0.5807
vn 0.5773 -0.5773 0.5774
vn 0.2010 0.7886 -0.5812
vn 0.5774 0.5774 -0.5774
vn 0.5774 -0.5774 -0.5773
vn 0.2010 -0.7886 -0.5811
vn 0.5774 0.5774 -0.5774
vn 0.5774 0.5774 0.5774
vn 0.5773 -0.5773 0.5774
vn 0.5774 -0.5774 -0.5773
vn -0.3641 0.9314 -0.0009
vn -0.7053 0.6208 0.3423
vn -0.7053 -0.6207 0.3424
vn -0.3640 -0.9314 -0.0010
vn -0.3652 0.5502 -0.7509
vn 0.2010 0.7886 -0.5812
vn 0.2010 -0.7886 -0.5811
vn -0.3649 -0.5501 -0.7511
vn -0.7053 0.6208 0.3423
vn -0.3652 0.5502 -0.7509
vn -0.3649 -0.5501 -0.7511
vn -0.7053 -0.6207 0.3424
vn 0.2013 0.7888 0.5807
vn -0.3643 0.5501 0.7514
vn -0.3643 -0.5501 0.7515
vn 0.2013 -0.7888 0.5807
vn -0.3643 0.5501 0.7514
vn -0.7047 0.6203 -0.3444
vn -0.7047 -0.6204 -0.3444
vn -0.3643 -0.5501 0.7515
vn -0.7047 0.6203 -0.3444
vn -0.3641 0.9314 -0.0009
vn -0.3640 -0.9314 -0.0010
vn -0.7047 -0.6204 -0.3444
# 78 vertex normals

vt 0.0000 1.0000 0.0000
vt 1.0000 0.0000 0.0000
vt 0.0000 0.0000 0.0000
vt 1.0000 1.0000 0.0000
# 4 texture coords

o Y
g Y
usemtl Primitive_
s 1
f 4/3/1 2/2/2 3/4/3 
f 4/3/4 1/2/5 2/4/6 
f 1/3/7 8/2/8 9/4/9 
f 1/3/10 7/2/11 8/4/12 
f 4/3/13 7/2/14 1/4/15 
f 5/3/16 7/2/17 4/4/18 
f 5/3/19 6/2/20 7/4/21 
s off
f 13/3/22 12/2/23 11/4/24 
f 13/3/25 11/2/26 10/4/27 
s 1
f 10/3/28 18/2/29 17/4/30 
f 10/3/31 17/2/32 16/4/33 
s off
f 13/3/34 10/2/35 16/4/36 
f 14/3/37 13/2/38 16/4/39 
f 14/3/40 16/2/41 15/4/42 
f 5/3/43 4/2/44 13/4/45 14/1/46 
f 7/3/47 6/2/48 15/4/49 16/1/50 
f 6/3/51 5/2/52 14/4/53 15/1/54 
f 1/3/55 9/2/56 18/4/57 10/1/58 
f 8/3/59 7/2/60 16/4/61 17/1/62 
f 9/3/63 8/2/64 17/4/65 18/1/66 
f 4/3/67 3/2/68 12/4/69 13/1/70 
f 3/3/71 2/2/72 11/4/73 12/1/74 
f 2/3/75 1/2/76 10/4/77 11/1/78 
# 9 polygons - 14 triangles

