# 3ds Max Wavefront OBJ Exporter v0.97b - (c)2007 guruware
# File Created: 17.06.2020 12:22:28

mtllib Z.mtl

#
# object Z
#

v  -253.0000 40.0000 -126.5000
v  341.0000 39.9999 307.5000
v  341.0000 40.0000 -307.5000
v  253.0000 40.0000 -307.5000
v  253.0000 40.0000 126.5010
v  -341.0000 40.0000 -307.5000
v  -341.0000 40.0000 280.5000
v  -253.0000 40.0000 280.5000
v  -253.0000 -40.0000 -126.5000
v  341.0000 -39.9976 307.5000
v  341.0000 -39.9999 -307.5000
v  253.0000 -39.9999 -307.5000
v  253.0000 -40.0000 126.5010
v  -341.0000 -39.9999 -307.5000
v  -341.0000 -40.0000 280.5000
v  -253.0000 -40.0000 280.5000
# 16 vertices

vn 0.5774 0.5774 0.5774
vn -0.3778 0.5512 -0.7439
vn -0.5774 0.5774 0.5774
vn 0.5774 0.5774 0.5774
vn 0.1165 0.9663 0.2294
vn -0.3778 0.5512 -0.7439
vn 0.1165 0.9663 0.2294
vn -0.1165 0.9663 -0.2294
vn -0.3778 0.5512 -0.7439
vn 0.3778 0.5512 0.7439
vn -0.1165 0.9663 -0.2294
vn 0.1165 0.9663 0.2294
vn 0.3778 0.5512 0.7439
vn -0.5774 0.5774 -0.5774
vn -0.1165 0.9663 -0.2294
vn 0.3778 0.5512 0.7439
vn 0.5774 0.5774 -0.5774
vn -0.5774 0.5774 -0.5774
vn 0.5774 -0.5774 0.5774
vn -0.5774 -0.5774 0.5774
vn -0.3778 -0.5512 -0.7439
vn 0.5774 -0.5774 0.5774
vn -0.3778 -0.5512 -0.7439
vn 0.1165 -0.9663 0.2294
vn 0.1165 -0.9663 0.2294
vn -0.3778 -0.5512 -0.7439
vn -0.1165 -0.9663 -0.2294
vn 0.3778 -0.5512 0.7439
vn 0.1165 -0.9663 0.2294
vn -0.1165 -0.9663 -0.2294
vn 0.3778 -0.5512 0.7439
vn -0.1165 -0.9663 -0.2294
vn -0.5773 -0.5774 -0.5773
vn 0.3778 -0.5512 0.7439
vn -0.5773 -0.5774 -0.5773
vn 0.5774 -0.5774 -0.5773
vn 0.5774 0.5774 0.5774
vn -0.5774 0.5774 0.5774
vn -0.5774 -0.5774 0.5774
vn 0.5774 -0.5774 0.5774
vn -0.3778 0.5512 -0.7439
vn -0.1165 0.9663 -0.2294
vn -0.1165 -0.9663 -0.2294
vn -0.3778 -0.5512 -0.7439
vn 0.3778 0.5512 0.7439
vn 0.1165 0.9663 0.2294
vn 0.1165 -0.9663 0.2294
vn 0.3778 -0.5512 0.7439
vn -0.5774 0.5774 0.5774
vn -0.3778 0.5512 -0.7439
vn -0.3778 -0.5512 -0.7439
vn -0.5774 -0.5774 0.5774
vn 0.5774 0.5774 -0.5774
vn 0.3778 0.5512 0.7439
vn 0.3778 -0.5512 0.7439
vn 0.5774 -0.5774 -0.5773
vn 0.1165 0.9663 0.2294
vn 0.5774 0.5774 0.5774
vn 0.5774 -0.5774 0.5774
vn 0.1165 -0.9663 0.2294
vn -0.5774 0.5774 -0.5774
vn 0.5774 0.5774 -0.5774
vn 0.5774 -0.5774 -0.5773
vn -0.5773 -0.5774 -0.5773
vn -0.1165 0.9663 -0.2294
vn -0.5774 0.5774 -0.5774
vn -0.5773 -0.5774 -0.5773
vn -0.1165 -0.9663 -0.2294
# 68 vertex normals

vt 0.0000 1.0000 0.0000
vt 1.0000 0.0000 0.0000
vt 0.0000 0.0000 0.0000
vt 1.0000 1.0000 0.0000
# 4 texture coords

o Z
g Z
usemtl Primitive_
s 1
f 8/3/1 6/2/2 7/4/3 
f 8/3/4 1/2/5 6/4/6 
f 1/3/7 5/2/8 6/4/9 
f 2/3/10 5/2/11 1/4/12 
f 2/3/13 4/2/14 5/4/15 
f 2/3/16 3/2/17 4/4/18 
f 16/3/19 15/2/20 14/4/21 
f 16/3/22 14/2/23 9/4/24 
f 9/3/25 14/2/26 13/4/27 
s off
f 10/3/28 9/2/29 13/4/30 
f 10/3/31 13/2/32 12/4/33 
f 10/3/34 12/2/35 11/4/36 
f 8/3/37 7/2/38 15/4/39 16/1/40 
f 6/3/41 5/2/42 13/4/43 14/1/44 
f 2/3/45 1/2/46 9/4/47 10/1/48 
f 7/3/49 6/2/50 14/4/51 15/1/52 
f 3/3/53 2/2/54 10/4/55 11/1/56 
f 1/3/57 8/2/58 16/4/59 9/1/60 
f 4/3/61 3/2/62 11/4/63 12/1/64 
f 5/3/65 4/2/66 12/4/67 13/1/68 
# 8 polygons - 12 triangles

