# 3ds Max Wavefront OBJ Exporter v0.97b - (c)2007 guruware
# File Created: 17.06.2020 12:22:35

mtllib {.mtl

#
# object _
#

v  40.0000 40.0000 141.0005
v  42.6726 40.0000 112.1802
v  54.7671 40.0000 84.0317
v  75.6177 40.0000 63.9185
v  105.1206 40.0000 50.5273
v  157.0029 40.0000 41.0103
v  312.8303 40.0000 39.6563
v  358.1689 40.0000 35.0649
v  399.5315 40.0000 23.1279
v  431.2751 40.0000 3.3354
v  448.6294 40.0000 -17.6299
v  461.0820 40.0000 -43.1611
v  468.4143 40.0000 -82.3037
v  469.0000 40.0000 -141.0005
v  393.0000 40.0000 -141.0005
v  391.9517 40.0000 -95.3306
v  382.8745 40.0000 -68.0859
v  366.8801 40.0000 -52.4536
v  328.7803 40.0000 -42.8472
v  194.7451 40.0000 -41.7344
v  143.7915 40.0000 -38.2637
v  98.2219 40.0000 -29.4014
v  62.5205 40.0000 -14.9023
v  34.8899 40.0000 5.6836
v  13.4705 40.0000 33.0107
v  0.0000 40.0000 60.0000
v  -13.4697 40.0000 33.0107
v  -34.8918 40.0000 5.6807
v  -62.5183 40.0000 -14.9023
v  -98.2217 40.0000 -29.4023
v  -143.7854 40.0000 -38.2637
v  -194.7476 40.0000 -41.7354
v  -328.7803 40.0000 -42.8472
v  -366.8799 40.0000 -52.4536
v  -382.8743 40.0000 -68.0859
v  -391.9517 40.0000 -95.3306
v  -393.0000 40.0000 -141.0000
v  -469.0000 40.0000 -141.0000
v  -468.4143 40.0000 -82.3008
v  -461.0828 40.0000 -43.1606
v  -448.6296 40.0000 -17.6289
v  -431.2739 40.0000 3.3369
v  -399.5327 40.0000 23.1279
v  -358.1689 40.0000 35.0654
v  -312.8374 40.0000 39.6563
v  -157.0049 40.0000 41.0107
v  -105.1208 40.0000 50.5283
v  -75.6169 40.0000 63.9199
v  -54.7671 40.0000 84.0322
v  -42.6729 40.0000 112.1802
v  -40.0000 40.0000 141.0005
v  40.0000 -40.0000 141.0005
v  42.6726 -40.0000 112.1802
v  54.7671 -40.0000 84.0317
v  75.6177 -40.0000 63.9185
v  105.1206 -40.0000 50.5273
v  157.0029 -40.0000 41.0103
v  312.8303 -40.0000 39.6563
v  358.1689 -40.0000 35.0649
v  399.5315 -40.0000 23.1279
v  431.2751 -40.0000 3.3354
v  448.6294 -39.9976 -17.6299
v  461.0820 -39.9976 -43.1611
v  468.4143 -40.0000 -82.3037
v  469.0000 -40.0000 -141.0005
v  393.0000 -40.0000 -141.0005
v  391.9517 -40.0000 -95.3306
v  382.8745 -40.0000 -68.0859
v  366.8801 -40.0000 -52.4536
v  328.7803 -40.0000 -42.8472
v  194.7451 -39.9976 -41.7344
v  143.7915 -40.0000 -38.2637
v  98.2219 -40.0000 -29.4014
v  62.5205 -40.0000 -14.9028
v  34.8899 -40.0000 5.6836
v  13.4705 -40.0000 33.0107
v  0.0000 -40.0000 60.0000
v  -13.4697 -40.0000 33.0107
v  -34.8918 -40.0000 5.6807
v  -62.5183 -40.0000 -14.9028
v  -98.2217 -40.0000 -29.4023
v  -143.7854 -39.9976 -38.2637
v  -194.7476 -40.0000 -41.7354
v  -328.7803 -40.0000 -42.8472
v  -366.8799 -40.0000 -52.4536
v  -382.8743 -40.0000 -68.0859
v  -391.9517 -40.0000 -95.3306
v  -393.0000 -39.9975 -141.0000
v  -469.0000 -39.9975 -141.0000
v  -468.4143 -40.0000 -82.3008
v  -461.0828 -40.0000 -43.1611
v  -448.6296 -40.0000 -17.6289
v  -431.2739 -40.0000 3.3369
v  -399.5327 -40.0000 23.1279
v  -358.1689 -40.0000 35.0649
v  -312.8374 -40.0000 39.6563
v  -157.0049 -40.0000 41.0107
v  -105.1208 -40.0000 50.5283
v  -75.6169 -40.0000 63.9199
v  -54.7671 -40.0000 84.0322
v  -42.6729 -39.9976 112.1802
v  -40.0000 -39.9976 141.0005
# 102 vertices

vn -0.7223 0.6879 0.0707
vn 0.5701 0.5786 -0.5833
vn -0.5805 0.5768 -0.5747
vn -0.6977 0.6782 0.2308
vn 0.5701 0.5786 -0.5833
vn -0.7223 0.6879 0.0707
vn -0.6152 0.6814 0.3966
vn 0.5701 0.5786 -0.5833
vn -0.6977 0.6782 0.2308
vn -0.4870 0.6728 0.5570
vn 0.5701 0.5786 -0.5833
vn -0.6152 0.6814 0.3966
vn -0.2995 0.6774 0.6719
vn 0.5701 0.5786 -0.5833
vn -0.4870 0.6728 0.5570
vn 0.6603 0.7422 -0.1149
vn 0.5701 0.5786 -0.5833
vn -0.2995 0.6774 0.6719
vn -0.2995 0.6774 0.6719
vn 0.5468 0.7641 -0.3422
vn 0.6603 0.7422 -0.1149
vn -0.1378 0.6874 0.7131
vn 0.5468 0.7641 -0.3422
vn -0.2995 0.6774 0.6719
vn -0.1378 0.6874 0.7131
vn 0.3113 0.7707 -0.5560
vn 0.5468 0.7641 -0.3422
vn -0.1378 0.6874 0.7131
vn 0.0863 0.7349 -0.6726
vn 0.3113 0.7707 -0.5560
vn -0.0393 0.6969 0.7161
vn 0.0863 0.7349 -0.6726
vn -0.1378 0.6874 0.7131
vn -0.0393 0.6969 0.7161
vn 0.0272 0.7004 -0.7132
vn 0.0863 0.7349 -0.6726
vn -0.0652 0.7271 0.6834
vn 0.0272 0.7004 -0.7132
vn -0.0393 0.6969 0.7161
vn -0.0652 0.7271 0.6834
vn 0.0934 0.6934 -0.7145
vn 0.0272 0.7004 -0.7132
vn -0.2026 0.7356 0.6464
vn 0.0934 0.6934 -0.7145
vn -0.0652 0.7271 0.6834
vn -0.2026 0.7356 0.6464
vn 0.2073 0.6860 -0.6975
vn 0.0934 0.6934 -0.7145
vn -0.3733 0.7474 0.5495
vn 0.2073 0.6860 -0.6975
vn -0.2026 0.7356 0.6464
vn -0.3733 0.7474 0.5495
vn 0.3601 0.6796 -0.6391
vn 0.2073 0.6860 -0.6975
vn -0.5401 0.7544 0.3731
vn 0.3601 0.6796 -0.6391
vn -0.3733 0.7474 0.5495
vn -0.5401 0.7544 0.3731
vn 0.5131 0.6785 -0.5258
vn 0.3601 0.6796 -0.6391
vn -0.6475 0.7440 0.1648
vn 0.5131 0.6785 -0.5258
vn -0.5401 0.7544 0.3731
vn -0.5477 0.5823 0.6007
vn 0.5131 0.6785 -0.5258
vn -0.6475 0.7440 0.1648
vn 0.5477 0.5823 0.6007
vn 0.5131 0.6785 -0.5258
vn -0.5477 0.5823 0.6007
vn 0.5477 0.5823 0.6007
vn 0.6156 0.6852 -0.3893
vn 0.5131 0.6785 -0.5258
vn 0.5477 0.5823 0.6007
vn 0.0001 0.9674 -0.2534
vn 0.6156 0.6852 -0.3893
vn 0.5477 0.5823 0.6007
vn -0.6157 0.6851 -0.3893
vn 0.0001 0.9674 -0.2534
vn 0.5477 0.5823 0.6007
vn -0.5131 0.6785 -0.5258
vn -0.6157 0.6851 -0.3893
vn 0.6475 0.7440 0.1648
vn -0.5131 0.6785 -0.5258
vn 0.5477 0.5823 0.6007
vn 0.6475 0.7440 0.1648
vn -0.3601 0.6796 -0.6391
vn -0.5131 0.6785 -0.5258
vn 0.5401 0.7544 0.3731
vn -0.3601 0.6796 -0.6391
vn 0.6475 0.7440 0.1648
vn 0.3734 0.7474 0.5496
vn -0.3601 0.6796 -0.6391
vn 0.5401 0.7544 0.3731
vn 0.3734 0.7474 0.5496
vn -0.2073 0.6859 -0.6975
vn -0.3601 0.6796 -0.6391
vn 0.2026 0.7357 0.6463
vn -0.2073 0.6859 -0.6975
vn 0.3734 0.7474 0.5496
vn 0.2026 0.7357 0.6463
vn -0.0934 0.6935 -0.7144
vn -0.2073 0.6859 -0.6975
vn 0.0652 0.7270 0.6835
vn -0.0934 0.6935 -0.7144
vn 0.2026 0.7357 0.6463
vn 0.0652 0.7270 0.6835
vn -0.0272 0.7004 -0.7132
vn -0.0934 0.6935 -0.7144
vn 0.0393 0.6969 0.7161
vn -0.0272 0.7004 -0.7132
vn 0.0652 0.7270 0.6835
vn 0.0393 0.6969 0.7161
vn -0.0863 0.7349 -0.6726
vn -0.0272 0.7004 -0.7132
vn 0.1378 0.6875 0.7130
vn -0.0863 0.7349 -0.6726
vn 0.0393 0.6969 0.7161
vn 0.1378 0.6875 0.7130
vn -0.3113 0.7707 -0.5560
vn -0.0863 0.7349 -0.6726
vn 0.2995 0.6774 0.6719
vn -0.3113 0.7707 -0.5560
vn 0.1378 0.6875 0.7130
vn 0.2995 0.6774 0.6719
vn -0.5468 0.7641 -0.3422
vn -0.3113 0.7707 -0.5560
vn 0.2995 0.6774 0.6719
vn -0.6603 0.7422 -0.1149
vn -0.5468 0.7641 -0.3422
vn 0.2995 0.6774 0.6719
vn -0.5701 0.5786 -0.5833
vn -0.6603 0.7422 -0.1149
vn 0.2995 0.6774 0.6719
vn 0.5805 0.5768 -0.5747
vn -0.5701 0.5786 -0.5833
vn 0.4870 0.6728 0.5570
vn 0.5805 0.5768 -0.5747
vn 0.2995 0.6774 0.6719
vn 0.6152 0.6814 0.3966
vn 0.5805 0.5768 -0.5747
vn 0.4870 0.6728 0.5570
vn 0.6977 0.6782 0.2308
vn 0.5805 0.5768 -0.5747
vn 0.6152 0.6814 0.3966
vn 0.7223 0.6879 0.0707
vn 0.5805 0.5768 -0.5747
vn 0.6977 0.6782 0.2308
vn -0.7223 -0.6879 0.0707
vn -0.5805 -0.5768 -0.5747
vn 0.5701 -0.5786 -0.5833
vn -0.6977 -0.6782 0.2308
vn -0.7223 -0.6879 0.0707
vn 0.5701 -0.5786 -0.5833
vn -0.6152 -0.6814 0.3966
vn -0.6977 -0.6782 0.2308
vn 0.5701 -0.5786 -0.5833
vn -0.4870 -0.6728 0.5570
vn -0.6152 -0.6814 0.3966
vn 0.5701 -0.5786 -0.5833
vn -0.2995 -0.6774 0.6719
vn -0.4870 -0.6728 0.5570
vn 0.5701 -0.5786 -0.5833
vn 0.6601 -0.7424 -0.1150
vn -0.2995 -0.6774 0.6719
vn 0.5701 -0.5786 -0.5833
vn -0.2995 -0.6774 0.6719
vn 0.6601 -0.7424 -0.1150
vn 0.5468 -0.7641 -0.3422
vn -0.1378 -0.6874 0.7131
vn -0.2995 -0.6774 0.6719
vn 0.5468 -0.7641 -0.3422
vn -0.1378 -0.6874 0.7131
vn 0.5468 -0.7641 -0.3422
vn 0.3113 -0.7707 -0.5560
vn -0.1378 -0.6874 0.7131
vn 0.3113 -0.7707 -0.5560
vn 0.0863 -0.7349 -0.6726
vn -0.0393 -0.6969 0.7161
vn -0.1378 -0.6874 0.7131
vn 0.0863 -0.7349 -0.6726
vn -0.0393 -0.6969 0.7161
vn 0.0863 -0.7349 -0.6726
vn 0.0272 -0.7004 -0.7132
vn -0.0652 -0.7271 0.6834
vn -0.0393 -0.6969 0.7161
vn 0.0272 -0.7004 -0.7132
vn -0.0652 -0.7271 0.6834
vn 0.0272 -0.7004 -0.7132
vn 0.0934 -0.6934 -0.7145
vn -0.2026 -0.7356 0.6464
vn -0.0652 -0.7271 0.6834
vn 0.0934 -0.6934 -0.7145
vn -0.2026 -0.7356 0.6464
vn 0.0934 -0.6934 -0.7145
vn 0.2073 -0.6860 -0.6975
vn -0.3733 -0.7474 0.5495
vn -0.2026 -0.7356 0.6464
vn 0.2073 -0.6860 -0.6975
vn -0.3733 -0.7474 0.5495
vn 0.2073 -0.6860 -0.6975
vn 0.3601 -0.6796 -0.6391
vn -0.5400 -0.7544 0.3732
vn -0.3733 -0.7474 0.5495
vn 0.3601 -0.6796 -0.6391
vn -0.5400 -0.7544 0.3732
vn 0.3601 -0.6796 -0.6391
vn 0.5131 -0.6785 -0.5258
vn -0.6477 -0.7439 0.1648
vn -0.5400 -0.7544 0.3732
vn 0.5131 -0.6785 -0.5258
vn -0.5476 -0.5824 0.6008
vn -0.6477 -0.7439 0.1648
vn 0.5131 -0.6785 -0.5258
vn 0.5476 -0.5824 0.6008
vn -0.5476 -0.5824 0.6008
vn 0.5131 -0.6785 -0.5258
vn 0.5476 -0.5824 0.6008
vn 0.5131 -0.6785 -0.5258
vn 0.6157 -0.6851 -0.3893
vn 0.5476 -0.5824 0.6008
vn 0.6157 -0.6851 -0.3893
vn -0.0001 -0.9674 -0.2533
vn 0.5476 -0.5824 0.6008
vn -0.0001 -0.9674 -0.2533
vn -0.6157 -0.6851 -0.3893
vn 0.5476 -0.5824 0.6008
vn -0.6157 -0.6851 -0.3893
vn -0.5131 -0.6785 -0.5258
vn 0.6476 -0.7439 0.1648
vn 0.5476 -0.5824 0.6008
vn -0.5131 -0.6785 -0.5258
vn 0.6476 -0.7439 0.1648
vn -0.5131 -0.6785 -0.5258
vn -0.3601 -0.6796 -0.6391
vn 0.5401 -0.7544 0.3731
vn 0.6476 -0.7439 0.1648
vn -0.3601 -0.6796 -0.6391
vn 0.3733 -0.7474 0.5495
vn 0.5401 -0.7544 0.3731
vn -0.3601 -0.6796 -0.6391
vn 0.3733 -0.7474 0.5495
vn -0.3601 -0.6796 -0.6391
vn -0.2073 -0.6860 -0.6974
vn 0.2026 -0.7356 0.6464
vn 0.3733 -0.7474 0.5495
vn -0.2073 -0.6860 -0.6974
vn 0.2026 -0.7356 0.6464
vn -0.2073 -0.6860 -0.6974
vn -0.0934 -0.6934 -0.7145
vn 0.0652 -0.7271 0.6835
vn 0.2026 -0.7356 0.6464
vn -0.0934 -0.6934 -0.7145
vn 0.0652 -0.7271 0.6835
vn -0.0934 -0.6934 -0.7145
vn -0.0272 -0.7004 -0.7132
vn 0.0393 -0.6969 0.7161
vn 0.0652 -0.7271 0.6835
vn -0.0272 -0.7004 -0.7132
vn 0.0393 -0.6969 0.7161
vn -0.0272 -0.7004 -0.7132
vn -0.0863 -0.7349 -0.6726
vn 0.1378 -0.6875 0.7130
vn 0.0393 -0.6969 0.7161
vn -0.0863 -0.7349 -0.6726
vn 0.1378 -0.6875 0.7130
vn -0.0863 -0.7349 -0.6726
vn -0.3113 -0.7707 -0.5560
vn 0.2995 -0.6774 0.6719
vn 0.1378 -0.6875 0.7130
vn -0.3113 -0.7707 -0.5560
vn 0.2995 -0.6774 0.6719
vn -0.3113 -0.7707 -0.5560
vn -0.5468 -0.7641 -0.3422
vn 0.2995 -0.6774 0.6719
vn -0.5468 -0.7641 -0.3422
vn -0.6603 -0.7422 -0.1149
vn 0.2995 -0.6774 0.6719
vn -0.6603 -0.7422 -0.1149
vn -0.5701 -0.5786 -0.5833
vn 0.2995 -0.6774 0.6719
vn -0.5701 -0.5786 -0.5833
vn 0.5805 -0.5768 -0.5747
vn 0.4870 -0.6728 0.5570
vn 0.2995 -0.6774 0.6719
vn 0.5805 -0.5768 -0.5747
vn 0.6153 -0.6813 0.3966
vn 0.4870 -0.6728 0.5570
vn 0.5805 -0.5768 -0.5747
vn 0.6977 -0.6782 0.2308
vn 0.6153 -0.6813 0.3966
vn 0.5805 -0.5768 -0.5747
vn 0.7222 -0.6881 0.0707
vn 0.6977 -0.6782 0.2308
vn 0.5805 -0.5768 -0.5747
vn -0.3601 0.6796 -0.6391
vn -0.2073 0.6859 -0.6975
vn -0.2073 -0.6860 -0.6974
vn -0.3601 -0.6796 -0.6391
vn -0.2073 0.6859 -0.6975
vn -0.0934 0.6935 -0.7144
vn -0.0934 -0.6934 -0.7145
vn -0.2073 -0.6860 -0.6974
vn -0.0934 0.6935 -0.7144
vn -0.0272 0.7004 -0.7132
vn -0.0272 -0.7004 -0.7132
vn -0.0934 -0.6934 -0.7145
vn -0.5131 0.6785 -0.5258
vn -0.3601 0.6796 -0.6391
vn -0.3601 -0.6796 -0.6391
vn -0.5131 -0.6785 -0.5258
vn 0.6156 0.6852 -0.3893
vn 0.0001 0.9674 -0.2534
vn -0.0001 -0.9674 -0.2533
vn 0.6157 -0.6851 -0.3893
vn 0.0001 0.9674 -0.2534
vn -0.6157 0.6851 -0.3893
vn -0.6157 -0.6851 -0.3893
vn -0.0001 -0.9674 -0.2533
vn -0.6157 0.6851 -0.3893
vn -0.5131 0.6785 -0.5258
vn -0.5131 -0.6785 -0.5258
vn -0.6157 -0.6851 -0.3893
vn -0.0272 0.7004 -0.7132
vn -0.0863 0.7349 -0.6726
vn -0.0863 -0.7349 -0.6726
vn -0.0272 -0.7004 -0.7132
vn -0.5468 0.7641 -0.3422
vn -0.6603 0.7422 -0.1149
vn -0.6603 -0.7422 -0.1149
vn -0.5468 -0.7641 -0.3422
vn 0.0934 0.6934 -0.7145
vn 0.2073 0.6860 -0.6975
vn 0.2073 -0.6860 -0.6975
vn 0.0934 -0.6934 -0.7145
vn -0.3113 0.7707 -0.5560
vn -0.5468 0.7641 -0.3422
vn -0.5468 -0.7641 -0.3422
vn -0.3113 -0.7707 -0.5560
vn 0.2073 0.6860 -0.6975
vn 0.3601 0.6796 -0.6391
vn 0.3601 -0.6796 -0.6391
vn 0.2073 -0.6860 -0.6975
vn 0.5477 0.5823 0.6007
vn -0.5477 0.5823 0.6007
vn -0.5476 -0.5824 0.6008
vn 0.5476 -0.5824 0.6008
vn 0.5131 0.6785 -0.5258
vn 0.6156 0.6852 -0.3893
vn 0.6157 -0.6851 -0.3893
vn 0.5131 -0.6785 -0.5258
vn -0.0863 0.7349 -0.6726
vn -0.3113 0.7707 -0.5560
vn -0.3113 -0.7707 -0.5560
vn -0.0863 -0.7349 -0.6726
vn 0.3601 0.6796 -0.6391
vn 0.5131 0.6785 -0.5258
vn 0.5131 -0.6785 -0.5258
vn 0.3601 -0.6796 -0.6391
vn 0.0393 0.6969 0.7161
vn 0.0652 0.7270 0.6835
vn 0.0652 -0.7271 0.6835
vn 0.0393 -0.6969 0.7161
vn -0.5805 0.5768 -0.5747
vn 0.5701 0.5786 -0.5833
vn 0.5701 -0.5786 -0.5833
vn -0.5805 -0.5768 -0.5747
vn -0.7223 0.6879 0.0707
vn -0.5805 0.5768 -0.5747
vn -0.5805 -0.5768 -0.5747
vn -0.7223 -0.6879 0.0707
vn 0.2026 0.7357 0.6463
vn 0.3734 0.7474 0.5496
vn 0.3733 -0.7474 0.5495
vn 0.2026 -0.7356 0.6464
vn -0.6977 0.6782 0.2308
vn -0.7223 0.6879 0.0707
vn -0.7223 -0.6879 0.0707
vn -0.6977 -0.6782 0.2308
vn -0.6152 0.6814 0.3966
vn -0.6977 0.6782 0.2308
vn -0.6977 -0.6782 0.2308
vn -0.6152 -0.6814 0.3966
vn 0.0652 0.7270 0.6835
vn 0.2026 0.7357 0.6463
vn 0.2026 -0.7356 0.6464
vn 0.0652 -0.7271 0.6835
vn -0.0393 0.6969 0.7161
vn -0.1378 0.6874 0.7131
vn -0.1378 -0.6874 0.7131
vn -0.0393 -0.6969 0.7161
vn 0.5401 0.7544 0.3731
vn 0.6475 0.7440 0.1648
vn 0.6476 -0.7439 0.1648
vn 0.5401 -0.7544 0.3731
vn -0.1378 0.6874 0.7131
vn -0.2995 0.6774 0.6719
vn -0.2995 -0.6774 0.6719
vn -0.1378 -0.6874 0.7131
vn -0.4870 0.6728 0.5570
vn -0.6152 0.6814 0.3966
vn -0.6152 -0.6814 0.3966
vn -0.4870 -0.6728 0.5570
vn 0.6475 0.7440 0.1648
vn 0.5477 0.5823 0.6007
vn 0.5476 -0.5824 0.6008
vn 0.6476 -0.7439 0.1648
vn 0.3734 0.7474 0.5496
vn 0.5401 0.7544 0.3731
vn 0.5401 -0.7544 0.3731
vn 0.3733 -0.7474 0.5495
vn -0.2995 0.6774 0.6719
vn -0.4870 0.6728 0.5570
vn -0.4870 -0.6728 0.5570
vn -0.2995 -0.6774 0.6719
vn -0.5477 0.5823 0.6007
vn -0.6475 0.7440 0.1648
vn -0.6477 -0.7439 0.1648
vn -0.5476 -0.5824 0.6008
vn -0.6475 0.7440 0.1648
vn -0.5401 0.7544 0.3731
vn -0.5400 -0.7544 0.3732
vn -0.6477 -0.7439 0.1648
vn -0.5401 0.7544 0.3731
vn -0.3733 0.7474 0.5495
vn -0.3733 -0.7474 0.5495
vn -0.5400 -0.7544 0.3732
vn -0.0652 0.7271 0.6834
vn -0.0393 0.6969 0.7161
vn -0.0393 -0.6969 0.7161
vn -0.0652 -0.7271 0.6834
vn -0.2026 0.7356 0.6464
vn -0.0652 0.7271 0.6834
vn -0.0652 -0.7271 0.6834
vn -0.2026 -0.7356 0.6464
vn 0.5701 0.5786 -0.5833
vn 0.6603 0.7422 -0.1149
vn 0.6601 -0.7424 -0.1150
vn 0.5701 -0.5786 -0.5833
vn -0.3733 0.7474 0.5495
vn -0.2026 0.7356 0.6464
vn -0.2026 -0.7356 0.6464
vn -0.3733 -0.7474 0.5495
vn 0.1378 0.6875 0.7130
vn 0.0393 0.6969 0.7161
vn 0.0393 -0.6969 0.7161
vn 0.1378 -0.6875 0.7130
vn 0.6603 0.7422 -0.1149
vn 0.5468 0.7641 -0.3422
vn 0.5468 -0.7641 -0.3422
vn 0.6601 -0.7424 -0.1150
vn 0.6977 0.6782 0.2308
vn 0.6152 0.6814 0.3966
vn 0.6153 -0.6813 0.3966
vn 0.6977 -0.6782 0.2308
vn 0.3113 0.7707 -0.5560
vn 0.0863 0.7349 -0.6726
vn 0.0863 -0.7349 -0.6726
vn 0.3113 -0.7707 -0.5560
vn 0.2995 0.6774 0.6719
vn 0.1378 0.6875 0.7130
vn 0.1378 -0.6875 0.7130
vn 0.2995 -0.6774 0.6719
vn 0.6152 0.6814 0.3966
vn 0.4870 0.6728 0.5570
vn 0.4870 -0.6728 0.5570
vn 0.6153 -0.6813 0.3966
vn 0.4870 0.6728 0.5570
vn 0.2995 0.6774 0.6719
vn 0.2995 -0.6774 0.6719
vn 0.4870 -0.6728 0.5570
vn 0.5468 0.7641 -0.3422
vn 0.3113 0.7707 -0.5560
vn 0.3113 -0.7707 -0.5560
vn 0.5468 -0.7641 -0.3422
vn 0.0272 0.7004 -0.7132
vn 0.0934 0.6934 -0.7145
vn 0.0934 -0.6934 -0.7145
vn 0.0272 -0.7004 -0.7132
vn -0.6603 0.7422 -0.1149
vn -0.5701 0.5786 -0.5833
vn -0.5701 -0.5786 -0.5833
vn -0.6603 -0.7422 -0.1149
vn 0.0863 0.7349 -0.6726
vn 0.0272 0.7004 -0.7132
vn 0.0272 -0.7004 -0.7132
vn 0.0863 -0.7349 -0.6726
vn -0.5701 0.5786 -0.5833
vn 0.5805 0.5768 -0.5747
vn 0.5805 -0.5768 -0.5747
vn -0.5701 -0.5786 -0.5833
vn 0.5805 0.5768 -0.5747
vn 0.7223 0.6879 0.0707
vn 0.7222 -0.6881 0.0707
vn 0.5805 -0.5768 -0.5747
vn 0.7223 0.6879 0.0707
vn 0.6977 0.6782 0.2308
vn 0.6977 -0.6782 0.2308
vn 0.7222 -0.6881 0.0707
# 498 vertex normals

vt 0.0000 1.0000 0.0000
vt 1.0000 0.0000 0.0000
vt 0.0000 0.0000 0.0000
vt 1.0000 1.0000 0.0000
# 4 texture coords

o _
g _
usemtl Primitive_
s 1
f 39/3/1 37/2/2 38/4/3 
f 40/3/4 37/2/5 39/4/6 
f 41/3/7 37/2/8 40/4/9 
f 42/3/10 37/2/11 41/4/12 
f 43/3/13 37/2/14 42/4/15 
f 36/3/16 37/2/17 43/4/18 
f 43/3/19 35/2/20 36/4/21 
f 44/3/22 35/2/23 43/4/24 
f 44/3/25 34/2/26 35/4/27 
f 44/3/28 33/2/29 34/4/30 
f 45/3/31 33/2/32 44/4/33 
f 45/3/34 32/2/35 33/4/36 
f 46/3/37 32/2/38 45/4/39 
f 46/3/40 31/2/41 32/4/42 
f 47/3/43 31/2/44 46/4/45 
f 47/3/46 30/2/47 31/4/48 
f 48/3/49 30/2/50 47/4/51 
f 48/3/52 29/2/53 30/4/54 
f 49/3/55 29/2/56 48/4/57 
f 49/3/58 28/2/59 29/4/60 
f 50/3/61 28/2/62 49/4/63 
f 51/3/64 28/2/65 50/4/66 
f 1/3/67 28/2/68 51/4/69 
f 1/3/70 27/2/71 28/4/72 
f 1/3/73 26/2/74 27/4/75 
f 1/3/76 25/2/77 26/4/78 
f 1/3/79 24/2/80 25/4/81 
s off
f 2/3/82 24/2/83 1/4/84 
f 2/3/85 23/2/86 24/4/87 
s 1
f 3/3/88 23/2/89 2/4/90 
f 4/3/91 23/2/92 3/4/93 
f 4/3/94 22/2/95 23/4/96 
f 5/3/97 22/2/98 4/4/99 
f 5/3/100 21/2/101 22/4/102 
f 6/3/103 21/2/104 5/4/105 
f 6/3/106 20/2/107 21/4/108 
f 7/3/109 20/2/110 6/4/111 
f 7/3/112 19/2/113 20/4/114 
f 8/3/115 19/2/116 7/4/117 
f 8/3/118 18/2/119 19/4/120 
f 9/3/121 18/2/122 8/4/123 
f 9/3/124 17/2/125 18/4/126 
f 9/3/127 16/2/128 17/4/129 
f 9/3/130 15/2/131 16/4/132 
f 9/3/133 14/2/134 15/4/135 
f 10/3/136 14/2/137 9/4/138 
f 11/3/139 14/2/140 10/4/141 
f 12/3/142 14/2/143 11/4/144 
f 13/3/145 14/2/146 12/4/147 
s off
f 90/3/148 89/2/149 88/4/150 
f 91/3/151 90/2/152 88/4/153 
f 92/3/154 91/2/155 88/4/156 
f 93/3/157 92/2/158 88/4/159 
f 94/3/160 93/2/161 88/4/162 
f 87/3/163 94/2/164 88/4/165 
s 1
f 94/3/166 87/2/167 86/4/168 
f 95/3/169 94/2/170 86/4/171 
f 95/3/172 86/2/173 85/4/174 
f 95/3/175 85/2/176 84/4/177 
f 96/3/178 95/2/179 84/4/180 
f 96/3/181 84/2/182 83/4/183 
f 97/3/184 96/2/185 83/4/186 
s off
f 97/3/187 83/2/188 82/4/189 
f 98/3/190 97/2/191 82/4/192 
f 98/3/193 82/2/194 81/4/195 
s 1
f 99/3/196 98/2/197 81/4/198 
f 99/3/199 81/2/200 80/4/201 
f 100/3/202 99/2/203 80/4/204 
f 100/3/205 80/2/206 79/4/207 
s off
f 101/3/208 100/2/209 79/4/210 
f 102/3/211 101/2/212 79/4/213 
f 52/3/214 102/2/215 79/4/216 
s 1
f 52/3/217 79/2/218 78/4/219 
f 52/3/220 78/2/221 77/4/222 
f 52/3/223 77/2/224 76/4/225 
f 52/3/226 76/2/227 75/4/228 
s off
f 53/3/229 52/2/230 75/4/231 
f 53/3/232 75/2/233 74/4/234 
s 1
f 54/3/235 53/2/236 74/4/237 
f 55/3/238 54/2/239 74/4/240 
f 55/3/241 74/2/242 73/4/243 
f 56/3/244 55/2/245 73/4/246 
f 56/3/247 73/2/248 72/4/249 
f 57/3/250 56/2/251 72/4/252 
s off
f 57/3/253 72/2/254 71/4/255 
f 58/3/256 57/2/257 71/4/258 
f 58/3/259 71/2/260 70/4/261 
s 1
f 59/3/262 58/2/263 70/4/264 
f 59/3/265 70/2/266 69/4/267 
f 60/3/268 59/2/269 69/4/270 
f 60/3/271 69/2/272 68/4/273 
f 60/3/274 68/2/275 67/4/276 
f 60/3/277 67/2/278 66/4/279 
f 60/3/280 66/2/281 65/4/282 
f 61/3/283 60/2/284 65/4/285 
s off
f 62/3/286 61/2/287 65/4/288 
f 63/3/289 62/2/290 65/4/291 
f 64/3/292 63/2/293 65/4/294 
f 23/3/295 22/2/296 73/4/297 74/1/298 
f 22/3/299 21/2/300 72/4/301 73/1/302 
f 21/3/303 20/2/304 71/4/305 72/1/306 
f 24/3/307 23/2/308 74/4/309 75/1/310 
f 27/3/311 26/2/312 77/4/313 78/1/314 
f 26/3/315 25/2/316 76/4/317 77/1/318 
f 25/3/319 24/2/320 75/4/321 76/1/322 
f 20/3/323 19/2/324 70/4/325 71/1/326 
f 17/3/327 16/2/328 67/4/329 68/1/330 
f 31/3/331 30/2/332 81/4/333 82/1/334 
f 18/3/335 17/2/336 68/4/337 69/1/338 
f 30/3/339 29/2/340 80/4/341 81/1/342 
f 1/3/343 51/2/344 102/4/345 52/1/346 
f 28/3/347 27/2/348 78/4/349 79/1/350 
f 19/3/351 18/2/352 69/4/353 70/1/354 
f 29/3/355 28/2/356 79/4/357 80/1/358 
f 7/3/359 6/2/360 57/4/361 58/1/362 
f 38/3/363 37/2/364 88/4/365 89/1/366 
f 39/3/367 38/2/368 89/4/369 90/1/370 
f 5/3/371 4/2/372 55/4/373 56/1/374 
f 40/3/375 39/2/376 90/4/377 91/1/378 
f 41/3/379 40/2/380 91/4/381 92/1/382 
f 6/3/383 5/2/384 56/4/385 57/1/386 
f 45/3/387 44/2/388 95/4/389 96/1/390 
f 3/3/391 2/2/392 53/4/393 54/1/394 
f 44/3/395 43/2/396 94/4/397 95/1/398 
f 42/3/399 41/2/400 92/4/401 93/1/402 
f 2/3/403 1/2/404 52/4/405 53/1/406 
f 4/3/407 3/2/408 54/4/409 55/1/410 
f 43/3/411 42/2/412 93/4/413 94/1/414 
f 51/3/415 50/2/416 101/4/417 102/1/418 
f 50/3/419 49/2/420 100/4/421 101/1/422 
f 49/3/423 48/2/424 99/4/425 100/1/426 
f 46/3/427 45/2/428 96/4/429 97/1/430 
f 47/3/431 46/2/432 97/4/433 98/1/434 
f 37/3/435 36/2/436 87/4/437 88/1/438 
f 48/3/439 47/2/440 98/4/441 99/1/442 
f 8/3/443 7/2/444 58/4/445 59/1/446 
f 36/3/447 35/2/448 86/4/449 87/1/450 
f 12/3/451 11/2/452 62/4/453 63/1/454 
f 34/3/455 33/2/456 84/4/457 85/1/458 
f 9/3/459 8/2/460 59/4/461 60/1/462 
f 11/3/463 10/2/464 61/4/465 62/1/466 
f 10/3/467 9/2/468 60/4/469 61/1/470 
f 35/3/471 34/2/472 85/4/473 86/1/474 
f 32/3/475 31/2/476 82/4/477 83/1/478 
f 16/3/479 15/2/480 66/4/481 67/1/482 
f 33/3/483 32/2/484 83/4/485 84/1/486 
f 15/3/487 14/2/488 65/4/489 66/1/490 
f 14/3/491 13/2/492 64/4/493 65/1/494 
f 13/3/495 12/2/496 63/4/497 64/1/498 
# 51 polygons - 98 triangles

