# 3ds Max Wavefront OBJ Exporter v0.97b - (c)2007 guruware
# File Created: 17.06.2020 12:22:51

mtllib ?9.mtl

#
# object ?9
#

v  750.0000 -249.9999 -250.0000
v  250.0000 -250.0000 250.0000
v  -250.0000 -250.0000 750.0000
v  -250.0000 -249.9999 -250.0000
v  750.0000 250.0001 -250.0000
v  -250.0000 250.0000 250.0000
v  -250.0000 250.0001 -250.0000
v  750.0000 250.0000 250.0000
v  -250.0000 -250.0000 250.0000
v  -250.0000 249.9999 750.0000
v  750.0000 -250.0000 250.0000
v  250.0000 -249.9999 -250.0000
v  250.0000 -250.0000 750.0000
v  250.0000 250.0001 -250.0000
v  250.0000 250.0000 250.0000
v  249.9995 249.9999 750.0000
v  250.0000 -249.9998 -750.0000
v  -250.0000 -249.9998 -750.0000
v  250.0000 250.0002 -750.0000
v  -250.0000 250.0002 -750.0000
v  -750.0000 -250.0001 250.0000
v  -750.0000 -250.0000 -250.0000
v  -750.0000 249.9999 250.0000
v  -750.0000 250.0000 -250.0000
v  -250.0000 749.9999 250.0000
v  250.0000 749.9999 250.0000
v  250.0000 750.0001 -250.0000
v  -250.0000 750.0001 -250.0000
v  250.0000 -749.9998 -250.0000
v  -250.0000 -749.9998 -250.0000
v  -250.0000 -749.9999 250.0000
v  250.0000 -749.9999 250.0000
# 32 vertices

vn 0.5774 -0.5774 0.5774
vn 0.5774 -0.5773 0.5774
vn -0.5774 -0.5774 0.5774
vn -0.5774 -0.5774 0.5774
vn 0.5774 0.5774 0.5774
vn -0.5774 0.5774 0.5774
vn -0.5774 0.5774 0.5774
vn 0.5773 0.5774 0.5774
vn -0.5774 -0.5774 -0.5774
vn 0.5774 -0.5774 -0.5774
vn 0.5774 -0.5774 -0.5774
vn -0.5774 -0.5774 -0.5774
vn 0.5774 0.5774 0.5774
vn 0.5774 0.5774 -0.5774
vn 0.5774 0.5774 -0.5774
vn 0.5774 0.5774 0.5774
vn -0.5774 -0.5774 0.5774
vn -0.5774 0.5774 0.5774
vn -0.5774 0.5774 0.5774
vn -0.5774 -0.5774 0.5774
vn 0.5774 -0.5774 -0.5774
vn -0.5774 -0.5774 -0.5774
vn -0.5774 -0.5774 -0.5774
vn 0.5774 -0.5774 -0.5774
vn 0.5774 -0.5774 -0.5774
vn 0.5774 0.5774 -0.5774
vn 0.5774 0.5774 0.5774
vn 0.5774 -0.5774 0.5774
vn -0.5774 -0.5774 0.5774
vn -0.5774 0.5774 0.5774
vn -0.5774 0.5774 0.5774
vn -0.5774 -0.5774 0.5774
vn 0.5774 -0.5773 0.5774
vn 0.5773 0.5774 0.5774
vn -0.5774 0.5774 0.5774
vn -0.5774 -0.5774 0.5774
vn 0.5774 -0.5774 0.5774
vn 0.5774 0.5774 0.5774
vn 0.5774 0.5774 0.5774
vn 0.5774 -0.5774 0.5774
vn 0.5774 -0.5774 0.5774
vn 0.5774 0.5774 0.5774
vn 0.5773 0.5774 0.5774
vn 0.5774 -0.5773 0.5774
vn 0.5774 0.5774 -0.5774
vn 0.5774 -0.5774 -0.5774
vn 0.5774 -0.5774 -0.5774
vn 0.5774 0.5774 -0.5774
vn 0.5774 0.5774 -0.5774
vn 0.5774 0.5774 -0.5774
vn 0.5774 0.5774 0.5774
vn 0.5774 0.5774 0.5774
vn 0.5774 -0.5774 -0.5774
vn 0.5774 -0.5774 0.5774
vn 0.5774 -0.5774 0.5774
vn 0.5774 -0.5774 -0.5774
vn 0.5774 0.5774 -0.5774
vn 0.5774 -0.5774 -0.5774
vn -0.5774 -0.5774 -0.5774
vn -0.5774 0.5774 -0.5774
vn 0.5774 0.5774 -0.5774
vn 0.5774 -0.5774 -0.5774
vn 0.5774 -0.5774 -0.5774
vn 0.5774 0.5774 -0.5774
vn -0.5774 -0.5774 -0.5774
vn -0.5774 0.5774 -0.5774
vn -0.5774 0.5774 -0.5774
vn -0.5774 -0.5774 -0.5774
vn -0.5774 0.5774 -0.5774
vn 0.5774 0.5774 -0.5774
vn 0.5774 0.5774 -0.5774
vn -0.5774 0.5774 -0.5774
vn -0.5774 -0.5774 0.5774
vn -0.5774 0.5774 0.5774
vn -0.5774 0.5774 -0.5774
vn -0.5774 -0.5774 -0.5774
vn -0.5774 -0.5774 -0.5774
vn -0.5774 -0.5774 0.5774
vn -0.5774 -0.5774 0.5774
vn -0.5774 -0.5774 -0.5774
vn -0.5774 0.5774 -0.5774
vn -0.5774 -0.5774 -0.5774
vn -0.5774 -0.5774 -0.5774
vn -0.5774 0.5774 -0.5774
vn -0.5774 0.5774 0.5774
vn -0.5774 0.5774 -0.5774
vn -0.5774 0.5774 -0.5774
vn -0.5774 0.5774 0.5774
vn 0.5774 0.5774 -0.5774
vn -0.5774 0.5774 -0.5774
vn -0.5774 0.5774 0.5774
vn 0.5774 0.5774 0.5774
vn -0.5774 0.5774 0.5774
vn 0.5774 0.5774 0.5774
vn 0.5774 0.5774 0.5774
vn -0.5774 0.5774 0.5774
vn 0.5774 0.5774 -0.5774
vn -0.5774 0.5774 -0.5774
vn -0.5774 0.5774 -0.5774
vn 0.5774 0.5774 -0.5774
vn -0.5774 0.5774 -0.5774
vn -0.5774 0.5774 0.5774
vn -0.5774 0.5774 0.5774
vn -0.5774 0.5774 -0.5774
vn 0.5774 -0.5774 -0.5774
vn 0.5774 -0.5774 0.5774
vn -0.5774 -0.5774 0.5774
vn -0.5774 -0.5774 -0.5774
vn -0.5774 -0.5774 0.5774
vn -0.5774 -0.5774 -0.5774
vn -0.5774 -0.5774 -0.5774
vn -0.5774 -0.5774 0.5774
vn 0.5774 -0.5774 -0.5774
vn 0.5774 -0.5774 0.5774
vn 0.5774 -0.5774 0.5774
vn 0.5774 -0.5774 -0.5774
vn 0.5774 -0.5774 0.5774
vn -0.5774 -0.5774 0.5774
vn -0.5774 -0.5774 0.5774
vn 0.5774 -0.5774 0.5774
# 120 vertex normals

vt 0.0000 1.0000 0.0000
vt 1.0000 0.0000 0.0000
vt 0.0000 0.0000 0.0000
vt 1.0000 1.0000 0.0000
# 4 texture coords

o ?9
g ?9
usemtl Primitive_
s off
f 2/3/1 13/2/2 3/4/3 9/1/4 
f 15/3/5 6/2/6 10/4/7 16/1/8 
f 4/3/9 12/2/10 29/4/11 30/1/12 
f 15/3/13 14/2/14 27/4/15 26/1/16 
f 3/3/17 10/2/18 6/4/19 9/1/20 
f 12/3/21 4/2/22 18/4/23 17/1/24 
f 1/3/25 5/2/26 8/4/27 11/1/28 
f 9/3/29 6/2/30 23/4/31 21/1/32 
f 13/3/33 16/2/34 10/4/35 3/1/36 
f 11/3/37 8/2/38 15/4/39 2/1/40 
f 2/3/41 15/2/42 16/4/43 13/1/44 
f 5/3/45 1/2/46 12/4/47 14/1/48 
f 5/3/49 14/2/50 15/4/51 8/1/52 
f 1/3/53 11/2/54 2/4/55 12/1/56 
f 19/3/57 17/2/58 18/4/59 20/1/60 
f 14/3/61 12/2/62 17/4/63 19/1/64 
f 4/3/65 7/2/66 20/4/67 18/1/68 
f 7/3/69 14/2/70 19/4/71 20/1/72 
f 21/3/73 23/2/74 24/4/75 22/1/76 
f 4/3/77 9/2/78 21/4/79 22/1/80 
f 7/3/81 4/2/82 22/4/83 24/1/84 
f 6/3/85 7/2/86 24/4/87 23/1/88 
f 27/3/89 28/2/90 25/4/91 26/1/92 
f 6/3/93 15/2/94 26/4/95 25/1/96 
f 14/3/97 7/2/98 28/4/99 27/1/100 
f 7/3/101 6/2/102 25/4/103 28/1/104 
f 29/3/105 32/2/106 31/4/107 30/1/108 
f 9/3/109 4/2/110 30/4/111 31/1/112 
f 12/3/113 2/2/114 32/4/115 29/1/116 
f 2/3/117 9/2/118 31/4/119 32/1/120 
# 30 polygons

